<?xml version="1.0" encoding="UTF-8"?>
<svg id="Layer_2" xmlns="http://www.w3.org/2000/svg" viewBox="0 0 180.95 58.61">
  <defs>
    <style>
      .cls-1 {
        fill: #010101;
      }

      .cls-2 {
        fill: #cf2030;
      }
    </style>
  </defs>
  <g id="Layer_1-2" data-name="Layer_1">
    <g id="Layer_2-2">
      <g id="Layer_1-2">
        <g>
          <g id="Layer_1-2-2">
            <g id="Artwork_1">
              <g>
                <rect class="cls-2" width="1.84" height="54.24"/>
                <g>
                  <path class="cls-1" d="M21.77,43.53c-.44-2.19-2.19-3.28-4.33-3.28-3.67,0-5.24,3.02-5.24,6.25,0,3.54,1.57,6.47,5.24,6.47,2.71,0,4.28-1.92,4.46-4.46h2.05c-.39,3.85-2.8,6.21-6.69,6.21-4.81,0-7.12-3.54-7.12-8.04s2.53-8.17,7.3-8.17c3.23,0,5.9,1.75,6.38,5.03,0,0-2.05,0-2.05,0Z"/>
                  <path class="cls-1" d="M30.55,42.88c3.54,0,5.42,2.58,5.42,5.86s-1.88,5.86-5.42,5.86-5.42-2.53-5.42-5.86,1.88-5.86,5.42-5.86M30.55,52.93c1.92,0,3.5-1.53,3.5-4.24s-1.57-4.24-3.5-4.24-3.5,1.53-3.5,4.24,1.57,4.24,3.5,4.24"/>
                  <path class="cls-1" d="M37.63,43.14h1.75v1.66h.04c.79-1.22,2.14-1.97,3.63-1.92,1.35,0,2.62.52,3.06,1.92.74-1.18,2.1-1.92,3.5-1.92,2.23,0,3.72.92,3.72,3.23v8.22h-1.84v-7.34c0-1.4-.35-2.49-2.19-2.49s-2.93,1.14-2.93,2.84v6.95h-1.79v-7.34c0-1.44-.44-2.49-2.1-2.49-1.57,0-2.88,1.27-2.97,2.84v6.95h-1.84l-.04-11.1h0Z"/>
                  <path class="cls-1" d="M55.59,43.14h1.84v1.53h.04c.61-1.22,2.05-1.79,3.58-1.79,3.45,0,5.16,2.71,5.16,5.9s-1.7,5.81-5.11,5.81c-1.14,0-2.8-.44-3.63-1.75h-.04v5.77h-1.84v-15.47ZM60.8,44.49c-2.45,0-3.41,2.1-3.41,4.24s1.01,4.24,3.54,4.24,3.37-2.14,3.37-4.33c-.04-2.14-1.09-4.15-3.5-4.15"/>
                  <path class="cls-1" d="M77.75,54.28c-.39.22-.87.31-1.31.31-.96,0-1.57-.52-1.57-1.75-.96,1.14-2.4,1.79-3.93,1.75-2.05,0-3.72-.92-3.72-3.15,0-2.53,1.88-3.06,3.8-3.45,2.01-.39,3.76-.26,3.76-1.66,0-1.62-1.31-1.88-2.49-1.88-1.57,0-2.71.48-2.8,2.1h-1.84c.09-2.75,2.23-3.76,4.72-3.76,2.01,0,4.2.44,4.2,3.06v5.77c0,.87,0,1.27.57,1.27.17,0,.39-.04.57-.09l.04,1.49h0ZM74.74,48.51c-.7.52-2.1.52-3.32.74s-2.23.66-2.23,2.01c0,1.22,1.05,1.66,2.14,1.66,2.4,0,3.41-1.53,3.41-2.53v-1.88h0Z"/>
                  <path class="cls-1" d="M79.02,43.14h1.75v1.75h.04c.7-1.31,2.14-2.1,3.63-2.05,2.93,0,3.85,1.7,3.85,4.11v7.34h-1.84v-7.56c.09-1.18-.79-2.19-1.97-2.27h-.31c-2.23,0-3.32,1.49-3.32,3.5v6.34h-1.84v-11.15h0Z"/>
                  <path class="cls-1" d="M92.4,41.13h-1.84v-2.23h1.84v2.23ZM90.52,43.14h1.84v11.19h-1.84v-11.19Z"/>
                  <path class="cls-1" d="M104.24,50.74c-.48,2.45-2.27,3.8-4.76,3.8-3.58,0-5.24-2.45-5.38-5.9,0-3.37,2.19-5.81,5.24-5.81,3.98,0,5.16,3.72,5.07,6.42h-8.35c-.04,1.97,1.05,3.67,3.5,3.67,1.53,0,2.58-.74,2.88-2.19h1.79,0ZM102.45,47.64c-.04-1.75-1.49-3.15-3.23-3.15-1.92,0-3.06,1.44-3.19,3.15h6.42Z"/>
                  <path class="cls-1" d="M107.08,50.79c.04,1.66,1.49,2.14,3.02,2.14,1.14,0,2.71-.26,2.71-1.66s-1.84-1.66-3.67-2.1-3.67-1.01-3.67-3.15c0-2.27,2.23-3.19,4.2-3.19,2.45,0,4.41.79,4.59,3.5h-1.84c-.13-1.44-1.4-1.88-2.58-1.88-1.09,0-2.36.31-2.36,1.44,0,1.31,1.92,1.53,3.67,1.92,1.84.44,3.67,1.01,3.67,3.19,0,2.67-2.49,3.54-4.76,3.54-2.49,0-4.63-1.01-4.72-3.8l1.75.04h0Z"/>
                  <polygon class="cls-1" points="122.64 38.86 124.7 38.86 124.7 45.5 132.87 45.5 132.87 38.86 134.88 38.86 134.88 54.28 132.87 54.28 132.87 47.25 124.7 47.25 124.7 54.28 122.64 54.28 122.64 38.86"/>
                  <path class="cls-1" d="M142.31,42.88c3.54,0,5.42,2.58,5.42,5.86s-1.88,5.86-5.42,5.86-5.42-2.58-5.42-5.86,1.84-5.86,5.42-5.86M142.31,52.93c1.92,0,3.5-1.53,3.5-4.24s-1.57-4.24-3.5-4.24-3.5,1.53-3.5,4.24,1.53,4.24,3.5,4.24"/>
                  <path class="cls-1" d="M158.61,54.28h-1.75v-1.79h-.04c-.7,1.31-2.14,2.1-3.63,2.05-2.93,0-3.85-1.7-3.85-4.11v-7.3h1.84v7.56c-.09,1.18.79,2.19,1.97,2.27h.31c2.23,0,3.32-1.49,3.32-3.5v-6.34h1.84v11.15h0Z"/>
                  <path class="cls-1" d="M162.02,50.79c.04,1.66,1.49,2.14,3.02,2.14,1.14,0,2.71-.26,2.71-1.66s-1.84-1.66-3.67-2.1-3.67-1.01-3.67-3.15c0-2.27,2.23-3.19,4.15-3.19,2.45,0,4.41.79,4.59,3.5h-1.84c-.13-1.44-1.4-1.88-2.58-1.88-1.09,0-2.36.31-2.36,1.44,0,1.31,1.97,1.53,3.67,1.92,1.84.44,3.67,1.01,3.67,3.19,0,2.67-2.49,3.54-4.76,3.54-2.53,0-4.63-1.01-4.72-3.8l1.79.04h0Z"/>
                  <path class="cls-1" d="M180.77,50.74c-.48,2.45-2.27,3.8-4.76,3.8-3.58,0-5.24-2.45-5.38-5.9,0-3.37,2.19-5.81,5.24-5.81,3.98,0,5.16,3.72,5.07,6.42h-8.35c-.04,1.97,1.05,3.67,3.5,3.67,1.53,0,2.58-.74,2.88-2.19h1.79,0ZM179.02,47.64c-.04-1.75-1.49-3.15-3.23-3.15-1.92,0-3.06,1.44-3.19,3.15h6.42,0Z"/>
                </g>
              </g>
            </g>
          </g>
          <g>
            <g>
              <path class="cls-1" d="M41.04,17.34h-.08s-.23-.62-.23-.62c.1-.14.16-.35,0-.46-.22-.09-.84-.8-1.03-.34-.08.03-.57.06-.61.15-.24-.38-.44-.77-.58-1.21.1-.51,1.45-1.15,1.45-1.15,0,0-.38-.56-.54-.87-.07.15-.13.09-.28.15.76-1.34.91-3.1-.08-4.37-.1-.22-.06-.51-.16-.73-.17-.23-.29-.68-.6-.73,0,.4-.04.79.15,1.16.21.26-.28.48-.43.27.29-.03.34-.09.24-.25-1.25-.28-1.94.59-3.13.73-.1,0-.2.03-.26.13-.73.99.91.31,1.05.97-.28.23-.31.08-.57.01-.37.01-.73.13-.27.44-.28.44-.27.6-.84.64.25.35.2.86.26,1.25-.41.08-.69.28-.69.71-.18.04-.38-.06-.51.14-.26-.21-.55-.25-.86-.26-.15-.11-.51-.37-.9-.57.08-.29.15-.56.22-.81.11-.07.52-.34.63-.4-.06-.11-.27-.55-.33-.67.73-2.53.97-2.67,1.34-2.72l.02-.07-1.36-.43-.02.09c.34.25.45.66.3,1.15-.36-.16-.57-.5-.53-.81,0,0-.09-.03-.09-.03l-.45,1.51s.07.02.07.02c.18-.26.49-.4.85-.34-.42,1.34-2.31.92-1.97-.21.24-.47.7-.17.48.32,1.06-.37.43-1.9-.47-.99.3-.62.47-1.1.09-1.69-.49.31-.61.88-.52,1.64-.6-1.37-1.64.04-.8.76-.15-1.01,1.1-.35.25.47-.81.57-1.81-.09-1.83-1.1.47.04.82.32.87.66h.09l.06-1.72s-.1,0-.1,0c-.07.35-.45.65-.93.66.03-.53.34-.94.73-1.01v-.1h-1.99v.1c.39.07.7.48.73,1.01-.48,0-.86-.31-.93-.66,0,0-.1,0-.1,0l.06,1.72h.09c.05-.35.41-.63.87-.66-.03,1.01-1.02,1.67-1.83,1.1-.85-.82.41-1.49.25-.47.85-.72-.2-2.12-.8-.76.09-.76-.03-1.32-.52-1.64-.38.59-.21,1.08.09,1.69-.91-.91-1.53.62-.47.99-.22-.49.24-.79.48-.32.34,1.14-1.55,1.55-1.97.21.36-.06.67.08.85.34,0,0,.07-.02.07-.02l-.45-1.51s-.08.02-.09.03c.04.31-.17.65-.53.81-.16-.49-.04-.9.3-1.15l-.02-.09-1.36.43.02.07c.37.06.61.2,1.34,2.72-.06.12-.28.56-.33.67.1.07.52.33.63.4.07.23.13.48.2.74h0s0,.01,0,0c-1.83.85-1.41,1.43-2.82,1.27-.13.29-.24.58-.53.78-.05-.45-.25-.79-.51-1.11-.13-.15-.31.02-.5.03-.38.83-.65.08-1.32.52.03.39.09.77.3,1.13-.5-.03-.91-.17-1.24-.41-1.49,1.67-3.06,3.27-4.33,5.11-.68.9-2.51.38-2.02-.87.22-.9,1.53-.71,1.45.19.65-.72.23-1.44-.76-1.28.91-.39,1.45.35,2.27-.67-.63.02-1.15-.18-1.78-.04.79-.47,1.87.23,2.55-1.08-.59.06-1.12.31-1.73.4,3.65-3.47.14-3.65.59-5.15-.28.24-.45.49-.32.81-.82-.34-2.03-.24-2.36-1.23-.08,1.41.54,1.31,1.61,1.6-.49-.06-.98-.06-1.44-.23.1.63.58.77,1.14.71-.56.31-.43,1.1.14,1.37-.36-2.05,2.7-1.34,1.3.53-.65.97-1.59,1.69-2.38,2.53-.15-.26-.31-.52-.65-.48.6.69-.08,1.45-.24,2.16-.23.88.55,1.64,1.39,1.74-.33.39-.36.75-.1,1.07.25-1.3,2.14-1.01,2.31-2.41.03-.17.11-.3.3-.37-.85.96,1.19,2.99-.73,3.23-.28,0-.34.3-.19.5-.79-.04-1.01.26-1.13,1.01.35-.09.67-.17,1-.26-.35.9-1.13-.05-1,1.56.32-.15.62-.31.91-.5.28.9-1.44.51-.14,1.95.08-.27.43-.82.6-.94-.16.45-.12.98.39,1.18.02-.12.04-.23.07-.34h.04c.07.3.08.72.38.89.1.04.15.09.18.19.05.17.21.21.36.23.19.04.24-.17.38-.26.04.24.32.28.46.48.1-1.17-1.45-.75-1.09-1.52.14.47.58.37.89.56.12.2.41.36.56.09.14.11.28.21.4.3-.3-1.39-1.03-.53-1.48-1.26.31.01.66.49,1,.16.18.19.33.41.46.63.06-.45-.11-.79-.46-1.03-.39-.24-.93.19-1.27-.3-.46-.57-.45-1.37-.21-2.03.22-.51.83-.69,1.12-1.18-.08.42-.04,1.16.44,1.3-.12-.79.44-1.5.56-2.26.14-.19.15-.34.02-.55-.24-.39-.31-.86-.57-1.25-.41-.57-.91-.59-.08-1.19-.51.79-.09.5.35,1.24.08-.25.45-.58-.01-.57-.73-.36.96-1.3,1.34-1.32.38-.03.9.01,1.19-.36-.18-.34-.35-.39-.05-.74-.21-.12-.39-.26-.42-.53-.2.07-.37.13-.57.2.18-.21.73-.63.79-.16.01.26.28.31.48.38-.15.21-.39.43-.17.69.16.17.25.48.5.52.07-.24.13-.48.19-.72.54.56-.54.87.94,1.38-.05-.3-.1-.6-.06-.91.71.59-.31.97,1.33,1.16-.18-.21-.22-.45-.29-.69.27.04.49.31.67.5.17.26.29.4.68.14.02.04.02.1.05.13.17.13.1.29.1.46h.05c.23-.23.24-.49.17-.78-.16-.54-.82-.11-1.05-.66.31.21.62.34.97.16.19.18.27.31.36.57.16-.58-.02-1.18-.64-1-.19.07-.27.05-.46-.11.28.1.48-.05.66-.18.04.05.06.11.09.11.17,0,.28.11.39.24.06-.5-.44-.9-.94-.77-.12.61-.64.27-1.04.18-.63-.37-.96-1.08-1.52-1.54.06-.69-.52-1.23-1.2-1.19.62-.27,1.35.26,1.4.9.02.26.18.43.35.63,2.09-4.2,8.83-5.3,12.7-2.63h0c.33.3.69.55,1.03.87.14-.4.05-.88.65-.63l.11-.07c-.12-.34.13-.72.49-.75v.26c-.16.03-.28.17-.25.34.12-.03.23.13.16.24.11.07.27.04.35-.05.1,0,.2.01.3.03-.14.32-.61.43-.87.2h0c.05.07-.18.79-.19.87-.03.1-.12.17-.23.17.04.07.08.13.12.19.17-.1.41-.09.38-.33.03-.14-.06-.76.14-.71.08.24-.07.51.1.75.56-.14.31-.64.99-.77.27-.03.83-.15.98.11-.59-.16-1.35,0-1.49.68-.62.14-1.13.59-1.79.59-.52.03-.66.66-.68,1.08-.09.49-.11,1-.33,1.46-.11.17-.02.38.04.54.2.1.34.8.37,1.04,0,.45.77.6,1.09.88.09-.56-.98-.41-.83-1.19.19.52.61.63,1.06.89-.14-.53-.18-1.41-.92-1.3-.28-.4.13-.42,0-.89.21.07.31.14.37.27-.07-.02-.12-.04-.21-.07.03.34.31.42.54.64-.04-.55-.09-.9-.59-1.16-.29-.27.04-.87.03-1.24,0-.11.68-.45.79-.42.51.07,1.05-.01,1.55.11.49.16.07-.92.87-.35-.58-.17-.23.46-.65.49-.29,0-.54-.03-.84-.03,1.05,2.34,3.38,1.65,4.03,3.74.54-.47.17-.47.02-.96,1.21.81-1.13,1.74-.25,3.16-.06-.16.49-.82.56-.96.1-.15.27-.16.38-.05l.17-.36c-.33-.18.26-.94.31-1.16.06-.13.2-.19.31-.14l.16-.45c-.31-.08-.08-.83-.1-1.04-.43-.39-.79-.88-1.12-1.34l.21-.03c-.02.1.01.21.1.28.15.06.72.61.9.48l.09.24c-.14.04-.17.24-.17.38.08.07.16.13.24.19,0-.05,0-.27.05-.31.07.09.19.09.27.02.07.03-.02.52,0,.58.08.09.16.18.24.28-.03-.22.24-1.07-.14-1.11h.01ZM34.94,9.45c.08,0,.14-.02.23-.03-.15-.11,0-.26.12-.16.3.24-.31.62-.35.18h0ZM22.8,11.67l-.64-.41.34-.68.92.33s-.62.76-.62.76ZM24.88,11.14c-1,.2-1.21-.9-.21-1.08,1-.2,1.21.9.21,1.08ZM27.14,11.05l-.98-.69.99-.69.98.69s-.99.69-.99.69ZM30.28,10.74c-.12.7-1.7.4-1.54-.3.12-.7,1.7-.4,1.54.3ZM30.87,10.9l.92-.33.34.68-.64.41-.62-.76ZM38.46,7.67c.18.2.26.42.26.66-.17-.06-.25-.25-.26-.66ZM37.63,8.98c-.24.17-.46.41-.71.08-.06.01-.1.02-.16.03.37-.57.34-.47.87-.11ZM35.59,11.04c.16.06.31.14.48-.02-.16,0-.21-.11-.25-.22-.08-.54.8-.35,1.13-.31.83.5,2.22.18,1.74-1.01.38.24.25.89-.04,1.15-.76.41-1.48.1-2.24.91-.12-.37-.56-.35-.71.06-.14,0-.18,0-.32.02-.03-.21.15-.37.22-.57h0ZM38.47,14.58s-.1.13-.1.13c-.63-.73-2.77-1.55-3.69-1.42,0,0,.01-.1.02-.17h0l.35-.22-.3-.25s-.19-1.25-.19-1.25l.53-.02s-.19.22-.2.4c.03.02.06.05.07.09.1-.04.22-.27.22-.27l.05.72s-.15-.21-.25-.24c0,.03-.02.05-.04.07.15.48.85.51.85.1-.02-.21-.26-.18-.24.05-.38-.3.14-.79.35-.3-.03-.28,0-.44.21-.58.14.18.12.35-.03.63.47-.44.65.3.21.41.21-.39-.4-.27-.17.14.21.32.71.27.89-.07-.01-.02-.02-.04-.03-.07-.17-.03-.44.12-.44.12l.24-.66s.1.28.25.37c.03-.03.06-.04.1-.05.03-.17-.15-.45-.15-.45l.81.31s-.32.08-.42.23c.02.03.03.07.03.1.17.03.45-.1.45-.1l-.29.65s-.08-.28-.24-.38c-.02.01-.04.02-.07.03-.11.38.22.74.59.65.45-.14.09-.65-.03-.22-.24-.38.41-.79.44-.16.08-.3.19-.44.42-.48.06.24-.03.38-.25.56.5-.21.52.49.04.45.17-.16.02-.34-.14-.2-.29.3.25.74.68.52,0-.03,0-.05.02-.08-.1-.07-.35-.08-.35-.08l.52-.38s-.06.23-.01.35c.04,0,.08,0,.11.01.11-.11.12-.42.12-.42l.39.49s-.98.45-1.15.58l-.27-.03.14.38h0s0,0,0,0ZM40.57,16.56c-.12-.01-.22.1-.18.23-.01,0-.02,0-.03-.01l-.57-.39s-.05-.08-.03-.12c.11,0,.22-.06.21-.19.04.06.66.38.61.49Z"/>
              <path class="cls-1" d="M33.67,13.78c-.04-.05-.05-.13-.02-.18-.07-.01-.18.63-.21.66.05.04.09.09.13.14.06.02.16.05.18-.03l.15-.57c-.07.06-.18.07-.23-.01Z"/>
            </g>
            <path class="cls-1" d="M25.07,29.87c-1.62-.64-2.79.93-1.47,1.19-1.45.06-1.17-1.98-1.77-1.85.52.56.52,1.62,1.01,1.91.97.42,1.98.48,3.03.43-.52-.47-.65-1.05-.8-1.67Z"/>
            <path class="cls-1" d="M30,31.04c1.32-.26.15-1.83-1.47-1.19-.14.62-.27,1.21-.8,1.67,1.04.05,2.05-.02,3.03-.43.48-.29.48-1.34,1.01-1.91-.6-.12-.32,1.92-1.77,1.85Z"/>
            <path class="cls-1" d="M40.6,18.4s0,.06.03.08c.07-.06.19-.03.24.04.08-.03.06-.28.07-.35-.1-.1-.2-.2-.3-.3l-.04.52h0Z"/>
            <path class="cls-1" d="M40.19,20.34c0-.07.42-.75.31-.81-.07.01-.16-.03-.19-.1-.1-.04-.36.69-.4.74.13-.08.29.05.25.2.01,0,.03-.02.03-.04h0Z"/>
            <path class="cls-1" d="M44.81,17.24c-.34.1-.48.38-.6.7-.85-1.32-2.47-2.24-2.71-3.86.19-1.3,1.91-1,1.56.35.89-.48.46-1.37-.38-1.53.91.07,1.41.84,2.03-.44-.54.2-1.36.06-1.64.01,1.14-.15,1.75-.14,1.72-1.56-.38.84-1.46.86-2.24,1.14.05-.38-.07-.6-.37-.73.31,2.06-3.6,1.39.69,5.83-.53-.29-1.14-.19-1.65-.52.4,1.07,1.07.89,1.95,1.26-.94,0-1.24.91-.54,1.35-.18-.71.8-1.2,1.28-.64,1.11,1.43-.93,3.42-2.74-.17.01.2-.13.38-.32.31l-.21.57c.42.15-.22.95-.27,1.18-.07.15-.23.2-.35.11l-.2.42c.25.23-.42.88-.5,1.08-.08.12-.22.16-.32.1l-.07.15.03.03c.46.54.67.96.55,1.53.37-.32.54-1.2.24-1.68.34.35.82.6,1.01,1.05.19.81.04,1.62-.51,2.26-.24.24-.17.36-.2.65-.16.46-.7.5-.91.89-.14.34-.38.62-.49.97.63-.1.52-.97,1.11-1.15-.24.36-.47.69-.63,1.12.49-.13,1.42-.26,1.27-.96-.12-.32.19-.53.18-.84.39-.14.3-.3.49-.6.09.18.09.34.08.54-.05-.1-.08-.16-.11-.23-.28.38-.04.74-.08,1.14,1.36-1.22-.45-1.21.97-3.91.32-.54-.92-.48-1.01-1.69-.09-.52.37-.95.47-1.46.54.97,2.44.94,2.18,2.17.38-.29.37-.82.21-1.21,1.96-.7.41-2.5,1.04-3.79v.02h0Z"/>
            <path class="cls-1" d="M38.98,21.88s.08.05.1.1c.03,0,.07-.01.09-.04.01-.05.5-.68.44-.72-.05-.02-.1-.05-.12-.11-.04-.04-.11-.07-.16,0-.02.08-.56.69-.42.76.02,0,.04,0,.07.01h0Z"/>
            <path class="cls-1" d="M38.7,22s.02.03.03.04v-.02s-.03-.02-.03-.02Z"/>
            <path class="cls-1" d="M19.75,24.75c.2.03.42.07.6-.01-.3-.5-.59-1-.89-1.51-.52.65-1.44.25-2.01-.14-.47-.35.54-.88.22-2.03.45.73-.37,1.35.89,1.76-.36-.54-.31-1.24-.45-1.86-.02-.1-.07-.21.02-.32.04-.15.05-.35-.15-.37-1.41-.81-1.12-.42-2.5-.6-.34.59.38,1.12.27,1.7-.1.28.33.27.33.55.1.43.05,1.04-.45,1.21-.24.15-.05.46.17.53-.44.79-.1.91.56,1.31,0-.3,0-.57.14-.83.92.61-.45.71,1.38,1.46-.18-.31-.18-.64-.21-.94.17.04.34.08.51.12.2.84.66.92,1.46.84-.29-.29-.37-.66-.58-.96.24.08.49-.08.69.1h0Z"/>
            <path class="cls-1" d="M36.2,20.04c-.25.04-.31.14-.26.39-.28.6-.28,1.33-.76,1.84,1.02-.29.8-.68,1.04-1.46-.05,1.05,0,1.04.38,1.77-.79.56-2.08.09-2.51,1.17.12.14.28,0,.44.03-.1.12-.14.27-.31.38.03-.1.06-.17.08-.23-.3-.1-.54.58-.76.8,2.11-.42-.25-1.04,3.9-1.53.73-.35-.69-.89.75-1.8.13-.5.21-1.01.48-1.46.07-.15-.04-.35-.17-.46-.63.45-.93-.27-2.3.57h.01Z"/>
            <path class="cls-1" d="M14.92,11.37c0-.14.02-.28.03-.42-.16-.03-.31-.05-.47-.08.19-.14.42-.18.61-.1-.16.68.13,1.16.85,1.2.22-.33.42-.38.64-.15-.96-.1-.25.92.24.57.13-.19.55-.35.42-.62-.76-.56-.71.27-.85-1.11-.03,0-.07,0-.1,0-.07.26-.33.46-.54.22-.07-.08-.14-.16-.26-.18.52-.42,1.14.18,1.11-.8.58.73.63-.08,1.21-.09-.03.58-.14.53-.64.5.16.12.78.74.42.8-.15-.39-.41-.76-.83-.84-.35.35-.17.73-.12,1.13.31-.1.57-.3.9-.28.11.32-.4.49-.11.81.49.08,1.04.08.87-.62-.16-.1-.32-.16-.49.01,0-.27.28-.32.49-.27.46-.49.31-1.13-.19-1.52.13-.19.27-.32.5-.37-.08.17-.25.23-.28.38.11.14.21.26.31.38.26-.12.33-.53.14-.95-.32.08-.9.35-.9.35-.28-.1-.16.03-.12.17-.9.17-1.77.4-2.49.99-.13.09-.19.03-.23-.14-.08-.13-.12.1-.14.15,0,0-.54.13-.77.33.17.28.4.7.77.56h.01Z"/>
            <path class="cls-1" d="M18.44,11.1c.08.41-.03.74-.3,1.06.4.71,1.07,1.25,1.37,2.02.66-1.24-.04-1.66-.96-2.34.59.21,1.18.41,1.5.97.07-1.07-.4-1.6-1.44-1.76,0-.01,0-.03,0-.04.43-.02.86-.02,1.26.24-.1-.33-.38-.82-.76-.78.14-.29.14-.49,0-.66-.07.21-.2.33-.41.34.04.37-.07.68-.28.95h0Z"/>
            <path class="cls-1" d="M15.14,13.53c.12.3.31.64.61.77-.16-.59.24-1.1.42-1.63,0,1.22-.69,1.89.99,2.34-.45-.72-.15-1.6-.43-2.33-.27-.15-.57-.19-.76-.42-.05-.1-.14-.14-.24-.17-.31-.07-.61-.17-.76-.44-.23.07-.37.07-.58-.03-.02.26.21.52.5.42-.24.34-.1.65-.02,1,.17-.35.42-.56.71-.74-.22.38-.61.75-.43,1.22h0Z"/>
            <path class="cls-1" d="M21.88,26.02c.23-.21-.08-.33-.2-.5-2.02-1.88-2.78-4.33-2.6-7.05-.05-.03-.11-.06-.21-.1-.34,2.88.77,5.8,3.02,7.65h0Z"/>
            <path class="cls-1" d="M39.96,10.35c-.19.37.36.52.37.87-.15-.12-.27-.21-.41-.33-.17.69.63.91.88,1.45.33-1,.15-1.61-.84-2h0Z"/>
            <path class="cls-1" d="M17.71,13.3c-.54.03-.46-.64-.62-1.02-.1.11-.18.2-.27.3.11.38.22.75.34,1.15.09-.07.17-.12.24-.17.38.27.72.08.84-.33.11.03.21.07.29,0-.17-.36-.35-.71-.52-1.07-.11.02-.21-.13-.34,0,.12.33.56,1,.02,1.16h0Z"/>
            <path class="cls-1" d="M39.86,8.67s0,.03,0,.04c-.17,0-.34-.02-.51-.03.19.61.89.31,1.34.59-.25-.49-.44-.96-1.03-1.05.06-.29-.01-.56-.19-.67,0,.25-.1.44-.33.53-.11.5.41.48.74.59h0Z"/>
            <path class="cls-1" d="M39.7,12.16h-.04c-.12.55.25,1.01.49,1.47.4-.72.39-1.54-.26-2.11-.2.38.08.75.17,1.11-.01,0-.03,0-.04.02-.1-.16-.21-.33-.32-.49h0Z"/>
            <path class="cls-1" d="M39.55,9.14c.23.55.6.42.84.78-.2-.07-.38-.12-.56-.18-.01.59.73.65,1.14.87-.07-.95-.52-1.31-1.42-1.47h0Z"/>
            <path class="cls-1" d="M37.43,8.15c.25,0,.62.16.82.02,0-.8-.97-.69-1.53-.71.17.3.38.59.7.69Z"/>
            <path class="cls-1" d="M34.65,19.55c-.21-.02-.4-.03-.63-.05,0,.11.01.2.02.28.13.03.24.06.35.09.03.66-.33.67-.82.39-.14.83,1.2.75,1.08-.72,0,0,0,0,0,0Z"/>
            <path class="cls-1" d="M34.19,16.88c-.74.91-.75,1.04.38,1.43,0-.1-.02-.17-.03-.25-.22-.07-.44-.15-.64-.28.14-.17.28-.34.42-.51-.04-.12-.08-.24-.14-.39Z"/>
            <path class="cls-1" d="M30.72,13.57c.12,0,.23-.02.34-.03.12-.45-.13-.49-.44-.73-.12.37-.45.55-.63.86.3-.02.47-.12.64-.35.03.09.06.17.09.25h0Z"/>
            <path class="cls-1" d="M32.43,15.58c.11-.29.66-1.01.36-1.24-.14.08-.43.05-.4.27v.96s.03,0,.04.01h0Z"/>
            <path class="cls-1" d="M38,7.39s.02-.03.03-.05c-.31-.45-.45-.54-1.01-.54,0,.54.57.55.97.59Z"/>
            <path class="cls-1" d="M36.58,6.05c-.02.38.3.6.83.58-.14-.39-.42-.6-.83-.58Z"/>
            <path class="cls-1" d="M35.33,10.04c-.43-.2-.79.06-1.22-.04.12.61.84.17,1.22.04Z"/>
            <path class="cls-1" d="M36.16,5.44c.11.38.26.47.66.41-.13-.32-.33-.45-.66-.41Z"/>
            <path class="cls-1" d="M36.37,5.24c-.15-.33-.24-.37-.56-.34.14.33.33.45.56.34Z"/>
            <path class="cls-1" d="M34.38,15.95c.1.17.21.35.31.52.4,0,.06-.33-.03-.48-.05-.06-.16-.06-.25-.08,0,.01-.02.02-.03.03Z"/>
            <path class="cls-1" d="M33.23,16.41c.21-.12.42-.21.6-.35-.04-.06-.07-.1-.12-.17-.17.17-.59.23-.48.53Z"/>
            <path class="cls-1" d="M35.89,4.7c.06-.21-.24-.49-.45-.4.03.23.27.43.45.4Z"/>
            <path class="cls-1" d="M15.83,8.28c.11-.1-.06-.27-.16-.17-.11.1.06.28.16.17Z"/>
            <path class="cls-1" d="M15.98,8.59c.11-.1-.06-.27-.16-.17-.11.1.06.28.16.17Z"/>
            <path class="cls-1" d="M15.21,7.21h0l-.26.02.14.35.19-.22s.02.01.03.01c0,0,.03.46.03.46h0c.05.41.66.16.42-.17l-.3-.35s.01-.02.01-.03l.28.03-.14-.35-.21.17s-.02-.01-.03-.01l-.02-.34c-.08.03-.25.1-.34.14l.21.26s0,.02-.01.03h0Z"/>
            <path class="cls-1" d="M14.46,9.02c.17,0,.17-.26,0-.26s-.17.26,0,.26Z"/>
            <path class="cls-1" d="M14.43,9.36c.17,0,.17-.26,0-.26s-.17.26,0,.26Z"/>
            <path class="cls-1" d="M14.98,8.19c.17,0,.17-.26,0-.26s-.17.26,0,.26Z"/>
            <path class="cls-1" d="M14.57,8.71c.17,0,.17-.26,0-.26s-.17.26,0,.26Z"/>
            <path class="cls-1" d="M16.16,9.03c0-.13.09-.39.09-.39-.13.05-.41.16-.54.21,0,0,.25.12.33.22-.11.04-.22.06-.38-.01l.21.42c.04-.18.14-.29.21-.31.23.35-.34.73-.58.43-.07-.12.01-.26.16-.16-.02-.26-.24-.26-.31-.07,0-.27-.06-.42-.34-.5-.07.26.02.42.28.54-.15-.02-.31.13-.11.31,0-.17.14-.18.22-.07.12.31-.24.43-.54.11.07-.03.14-.01.23,0l-.28-.36c.01.13,0,.22-.02.28-.06-.07-.08-.13-.1-.27l-.21.19c.21.13.44.33.72.74.38-.37,1.89-1.01,2.48-.99-.07-.49-.04-.8.02-1.04h-.29c.07.13.1.18.11.28-.06-.03-.13-.08-.2-.18l.04.45c.05-.08.1-.14.16-.17,0,.43-.35.59-.47.29-.02-.14.09-.21.21-.1.02-.28-.2-.27-.29-.15.11-.26.07-.44-.17-.58-.15.25-.09.41.1.6-.18-.09-.35.06-.18.26.03-.17.19-.14.22,0,.03.38-.65.49-.72.08.06-.04.21-.03.37.08l-.14-.45c-.07.16-.16.22-.27.27h0Z"/>
            <path class="cls-1" d="M23.28,23.15c.2.12.43.25.64.37-.51.62.4.88.35.28.34.14,1.68.56,1.14-.24-1.75.06-2.65-1.78-1.68-3.19.59.27,2.66-.74,2.49.29.11.11.14.13.38.12.6-1.38-1.46-.97-2.21-.8-.66.2-1.27-.77-1.85-.24-.23.21-.08.66.24.68.28,0,.36-.38.11-.5.55-.18.28.69.09.91-.63-.32-.73.68-.11.42.03.18.03.36,0,.53-.67-.14-.49.82,0,.43.14.14.21.35.23.56-.68.1-.14.97.18.38h0Z"/>
            <path class="cls-1" d="M25.24,24.2s-.06-.02-.1-.03c-.05.13-.12.36,0,.44l.57.24.73-.54.2-2.93-.21.02c-.06,0-.45,3.38-.66,3.19.04-.22.53-3.19.53-3.19,0,0-.14-.02-.21-.03-.01.07-.03.16-.03.16l-.8-1.06-.1.05.86,1.14-.06.2c-.08-.05-.91-1.21-1-1.32h-.17s1.12,1.45,1.12,1.45l-.06.2-1.26-1.65h-.16l1.36,1.79-.07.26-1.49-2.03h-.2l1.65,2.19-.06.2-1.83-2.39-.03.18s1.7,2.23,1.81,2.38c-.09.28-.02.3.1.52.07.25-.11.65-.41.56h0Z"/>
            <path class="cls-1" d="M25.41,23.27l-1.75-2.32s-.03.11-.05.16c.13.17,1.67,2.22,1.67,2.22,0,0,.12-.06.12-.06Z"/>
            <path class="cls-1" d="M23.66,21.74c.4.51.8,1.03,1.19,1.55.06,0,.17.03.17.03l-1.42-1.89s-.03.19.07.31Z"/>
            <path class="cls-1" d="M26.7,20.87c-.19-.02-.4-.05-.59-.07-.37.32.04.5.32.48.24.06.55-.25.27-.41h0Z"/>
            <path class="cls-1" d="M26.64,29.14c-.06.26.35.35.4.08.06-.26-.35-.35-.4-.08Z"/>
            <path class="cls-1" d="M27.02,27.57c.07-.32-.44-.43-.5-.1-.07.32.44.43.5.1Z"/>
            <path class="cls-1" d="M25.27,26.7c.07-.32-.44-.43-.5-.1-.07.32.44.43.5.1Z"/>
            <path class="cls-1" d="M28.08,29.88c-.21,1.17-.76,1.7-1.26,1.7s-1.05-.53-1.26-1.7c.07.06.12.14.2.23l.11.14.15-.1c.07-.04.13-.07.19-.1-.07.14-.09.29-.06.46.07.35.35.6.68.6s.61-.25.68-.6c.03-.17,0-.33-.06-.46.06.02.12.06.19.1l.15.1.11-.14c.07-.09.13-.17.2-.23M28.32,29.56c-.29.03-.44.23-.59.43-.14-.08-.31-.17-.49-.17-.09,0-.17.03-.25.09.53.21.34,1.01-.17,1.02-.52,0-.71-.81-.17-1.02-.07-.06-.16-.09-.25-.09-.17,0-.35.08-.49.17-.15-.2-.31-.4-.59-.43.16,1.47.83,2.21,1.5,2.21s1.35-.74,1.5-2.21h0Z"/>
            <path class="cls-1" d="M23.51,25.7c.22-.27-.56-.62-.67-.77-.09-.06-.21-.04-.27.04-.22.25.55.61.65.75.1.07.23.06.29-.02Z"/>
            <path class="cls-1" d="M23.41,26.26c.87,0,.75-1.36-.1-1.22.39.21.74.78.12.94-.23.05-.47-.2-.64-.32,0,.33.28.6.61.6h0Z"/>
            <path class="cls-1" d="M22.18,26.49c.19.36,1.3,1.34,1.6.88-.54-.28-1.46-.95-1.11-1.81-.8-.49-.09-1.27.53-.61.66-.41,1.39-.12,2.05.34.24-.51-.9-.86-1.17-1.01-.34-.11-1.39.13-1.74.14-.24.03-.41.24-.39.49.05.26.04,1.37.24,1.58h0Z"/>
            <path class="cls-1" d="M31.96,7.15l.49.16c-.78-1.63-2.2-2.86-3.91-3.3-.04.11-.08.24-.11.37,1.5.38,2.77,1.4,3.53,2.78Z"/>
            <path class="cls-1" d="M21.83,7.31l.49-.16c.76-1.38,2.03-2.4,3.53-2.78-.03-.13-.07-.25-.11-.37-1.71.44-3.13,1.67-3.91,3.3Z"/>
            <path class="cls-1" d="M30.84,4.67c.35,0,.35-.55,0-.54-.35,0-.35.55,0,.54Z"/>
            <path class="cls-1" d="M29.6,3.96c.35,0,.35-.55,0-.54-.35,0-.35.55,0,.54Z"/>
            <path class="cls-1" d="M28.93,3.72c.35,0,.35-.55,0-.54-.35,0-.35.55,0,.54Z"/>
            <path class="cls-1" d="M30.24,4.28c.35,0,.35-.55,0-.54-.35,0-.35.55,0,.54Z"/>
            <path class="cls-1" d="M31.39,5.12c.35,0,.35-.55,0-.54-.35,0-.35.55,0,.54Z"/>
            <path class="cls-1" d="M32.8,7.15c0,.35.55.35.54,0,0-.35-.55-.35-.54,0Z"/>
            <path class="cls-1" d="M32.47,6.52c0,.35.55.35.54,0,0-.35-.55-.35-.54,0Z"/>
            <path class="cls-1" d="M31.9,5.63c.35,0,.35-.55,0-.54-.35,0-.35.55,0,.54Z"/>
            <path class="cls-1" d="M32.08,5.91c0,.35.55.35.54,0,0-.35-.55-.35-.54,0Z"/>
            <path class="cls-1" d="M23.44,4.67c.35,0,.35-.55,0-.54-.35,0-.35.55,0,.54Z"/>
            <path class="cls-1" d="M22.89,5.12c.35,0,.35-.55,0-.54-.35,0-.35.55,0,.54Z"/>
            <path class="cls-1" d="M21.22,7.42c.35,0,.35-.55,0-.54-.35,0-.35.55,0,.54Z"/>
            <path class="cls-1" d="M24.05,4.28c.35,0,.35-.55,0-.54-.35,0-.35.55,0,.54Z"/>
            <path class="cls-1" d="M21.94,6.18c.35,0,.35-.55,0-.54-.35,0-.35.55,0,.54Z"/>
            <path class="cls-1" d="M21.54,6.79c.35,0,.35-.55,0-.54-.35,0-.35.55,0,.54Z"/>
            <path class="cls-1" d="M25.36,3.72c.35,0,.35-.55,0-.54-.35,0-.35.55,0,.54Z"/>
            <path class="cls-1" d="M22.39,5.63c.35,0,.35-.55,0-.54-.35,0-.35.55,0,.54Z"/>
            <path class="cls-1" d="M24.69,3.96c.35,0,.35-.55,0-.54-.35,0-.35.55,0,.54Z"/>
            <path class="cls-1" d="M27.61,6.47h.36c0-1.14.17-2.13.46-2.78.1-.21-.23-.36-.33-.15-.43.94-.49,2.24-.49,2.93h0Z"/>
            <path class="cls-1" d="M26.32,6.47h.36c0-.69-.07-1.99-.49-2.93-.1-.21-.43-.06-.33.15.3.65.46,1.64.46,2.78h0Z"/>
            <path class="cls-1" d="M27.14,6.47c.38,0,.38-.59,0-.59-.38,0-.38.59,0,.59Z"/>
            <path class="cls-1" d="M27.14,5.73c.38,0,.38-.59,0-.59-.38,0-.38.59,0,.59Z"/>
            <path class="cls-1" d="M27.14,5c.38,0,.38-.59,0-.59-.38,0-.38.59,0,.59Z"/>
            <path class="cls-1" d="M26.94,4.28c.12-.07.29-.07.42,0,.42-.65-.83-.65-.42,0Z"/>
            <path class="cls-1" d="M27.38,3.67c.33-.61-.79-.61-.47,0,.14-.08.33-.08.47,0Z"/>
            <path class="cls-1" d="M26.97,1.2c-.05.38-.24.66-.49.71v.1h.48s-.04.03-.06.06c-.85.19-.94,1.48-.13,1.79-.31-.31-.07-.89.37-.88.45-.01.69.57.37.88.81-.31.72-1.6-.13-1.79-.02-.02-.03-.04-.06-.06h.48v-.1c-.24-.04-.44-.34-.49-.71.38.05.66.24.71.49h.1V.36h-.1c-.04.24-.34.44-.71.49.05-.38.24-.66.49-.71V.04h-1.33v.1c.24.04.44.34.49.71-.38-.05-.66-.24-.71-.49h-.1v1.33h.1c.04-.24.34-.44.71-.49h0Z"/>
            <path class="cls-1" d="M38.7,22h0c-.03-.05-.06-.1-.08-.15,0,.06.03.12.08.15Z"/>
            <path class="cls-1" d="M38.48,22.56c-.38-.24-.59.8-.73.98-.07.15,0,.31.13.37l-.28.58c-.15-.03-.28.09-.28.26.06.22-.17,1.2.23,1.21v.27c-.95.17-.81,1.67.17,1.65.97.03,1.13-1.46.18-1.65v-.26c.15.03.28-.09.28-.26-.05-.22.15-1.15-.2-1.21l.21-.44c.36.2.57-.82.7-.99.06-.14.01-.3-.11-.35l.16-.33c-.04-.06-.14-.2-.22-.34l-.25.52h0s0-.01,0-.01ZM38.3,27.04c-.23,1.34-1.95.01-.72-.55.06.13.25.14.31,0,.24.07.41.29.41.55ZM37.91,25.67c.03-.19-.22-.3-.32-.14.03-.07-.07-.8.07-.8.06.04.13.05.19,0,.04,0,.07.05.07.1v.79s0,.03,0,.04h0ZM38.63,23.02s-.31.81-.4.78c-.03-.06-.12-.1-.19-.08-.04-.02-.06-.07-.03-.13.05-.05.3-.83.42-.77.03.07.12.12.2.1.02.03.03.07,0,.1h0Z"/>
            <path class="cls-1" d="M19.34,20.88l.08.32,1.49-.18-.07-.29c-.07-.02-1.01.16-1.01.16,0,0,.88-1.03.86-1.15l-1.5.17.03.26c.07,0,.89-.12.89-.12,0,0-.73.83-.77.85h0Z"/>
            <path class="cls-1" d="M19.87,22.79c.72.69,1.86-.42,1.11-1.12-.72-.7-1.88.42-1.11,1.12ZM19.96,22.02c.31-.57,1.37-.23.94.42-.33.56-1.36.24-.94-.42Z"/>
            <path class="cls-1" d="M20.88,24.42l.25.35c.27-.33.82-.73,1.22-.88l-.25-.35c-.1.16-.31.31-.48.43l-.38-.53c.16-.12.38-.28.56-.32l-.25-.35c-.27.33-.82.73-1.22.88l.25.35c.1-.16.31-.31.48-.43l.38.53c-.16.12-.38.28-.56.32h0Z"/>
            <path class="cls-1" d="M20.73,19.22l.02-.32c-.42.08-1.11.08-1.54,0l-.02.32c.42-.08,1.11-.08,1.54,0Z"/>
            <path class="cls-1" d="M31.56,25.66c.91-.4.71-1.31-.32-.89-.43-.12.11-.56.4-.46h0l-.22-.26c-.32.14-.84.58-.56.95.19.24.58-.02.83-.01.42.07-.03.51-.29.49h0"/>
            <path class="cls-1" d="M34.07,22.49l.26-.88c-.13,0-1.32-.34-1.42-.42l-.24.83.25.21h0c-.02-.2,0-.41.08-.65l.45.13c-.04.13-.12.43-.18.51l.22.03.14-.49.43.13c-.05.16-.12.29-.21.38l.23.21h0Z"/>
            <path class="cls-1" d="M33.47,23.66l.14-.27-1.17-.78-.13.24c.04.06.81.51.81.51,0,0-1.26.17-1.32.26l1.17.8.14-.2c-.06-.04-.7-.45-.7-.45,0,0,1.03-.12,1.06-.11Z"/>
            <path class="cls-1" d="M30.24,26.53l.81-.47c-.1-.08-.74-1.11-.76-1.24l-.77.45.03.31h0c.12-.15.29-.29.52-.42l.24.39c-.13.07-.39.23-.49.24l.14.17.45-.26.23.38c-.15.08-.29.13-.42.14l.02.31h0Z"/>
            <path class="cls-1" d="M21.16,16.25c-.24-.19-.56.15-.8.21-.42.03-.09-.5.17-.54h0s-.2-.16-.2-.16c-.38.2-.67,1.03-.06,1.04.13,0,.47-.23.58-.25.29-.05.2.34.03.43.09,0,.17-.02.26,0,.16-.23.27-.56.03-.74h0Z"/>
            <path class="cls-1" d="M21.46,15.8c-.68-.04-.82-1.22,0-1.04v-.28c-1.06-.07-1.05,1.63,0,1.59v-.26Z"/>
            <path class="cls-1" d="M23.15,13.72h.47c-.17-.28-.32-.51-.32-.51.16-.1.51-.24.66-.22l-.37-.28-1.13.68.13.43h0c.09-.18.23-.32.38-.41.03.06.1.17.17.31h0Z"/>
            <path class="cls-1" d="M26.46,13.53h0c-.22.19-.51.12-.75-.01-.7.39-1.46-.53-.9-1.13.59-.71,1.77.1,1.21.88.19.14.34.23.45.26ZM25.59,13.3c.57-.22.07-1.1-.43-.89-.56.21-.08,1.1.43.89Z"/>
            <path class="cls-1" d="M26.67,12.9c0-.24.03-.67-.07-.88h.5c-.08.23-.23,1.26.21,1.21.17,0,.34-.11.33-.29,0-.25.03-.7-.07-.92h.5c-.12.39-.12,1.08,0,1.46h-.43s.01-.08.01-.14c-.44.31-1.02.15-.98-.44h0Z"/>
            <path class="cls-1" d="M28.8,13.62c.09-.36.21-.97.42-1.28l-.39-.13c0,.39-.21.99-.34,1.36.1.01.2.03.31.05h0Z"/>
            <g>
              <path class="cls-1" d="M31.18,18.51h.25v-3.97h-3.67v3.97h3.42ZM27.89,16.7h0v.04c0-.07.13-.02.07.03l.02.02c.12.01.14-.17.02-.17h0l.14-.07v-.04l-.14-.07h0c.12-.01.1-.19-.02-.18l-.02.02c.06.05-.06.1-.07.03v.04h0v-1.58h.13v-.12h1.36c.07.01.01.12-.03.06l-.02.02c-.01.12.19.13.19,0h0l.07.14h.05l.07-.14c0,.12.2.11.19,0l-.02-.02c-.05.05-.11-.05-.03-.06h1.36v.12h.13s.05,1.94-.07,1.5l-.02-.02c-.12-.01-.14.17-.02.17h0l-.15.07v.04l.15.07h0c-.12,0-.1.19.02.18l.02-.02c.11-.45.05,1.56.07,1.5h-.13v.12h-1.36c-.08,0-.02-.12.03-.06l.02-.02c.01-.12-.18-.13-.19-.01h0l-.07-.14h-.05l-.07.14h0c0-.11-.2-.1-.18.01l.02.02c.05-.06.11.05.03.06h-1.35v-.12h-.13v-1.57h0Z"/>
              <path class="cls-1" d="M31.98,18.66c0-.08-.09-.14-.17-.11v.02c-.14.66-.07-2.04-.09-1.94l.13.06v-.31l-.13.05v-1.98c.02-.1.17-.01.09.05v.02c.18.06.24-.24.04-.24l.12-.21-.03-.03s-.22.12-.22.12c0-.18-.31-.14-.25.04h.02c.07-.08.16.06.05.08h-1.83l.06-.12h-.33l.06.12h-1.83c-.11-.02-.02-.17.05-.08h.02c.06-.17-.25-.22-.25-.04,0,0-.22-.12-.22-.12l-.03.03.12.21c-.2,0-.14.3.04.24v-.02c.14-.65.07,2.03.09,1.94l-.13-.05v.31l.13-.05s.06,2.58-.09,1.94v-.02c-.18-.06-.24.24-.04.24l-.12.21.03.03s.22-.12.22-.12c0,.18.31.14.25-.04h-.02s-.1.02-.1-.03c0-.03.02-.05.05-.05h1.84l-.06.13h.33l-.06-.13h1.83s.05.03.05.05c0,.05-.07.07-.1.03h-.02c-.06.17.25.22.25.04l.22.12.03-.03-.12-.21c.07,0,.13-.05.13-.12h0ZM29.76,14.39h1.84v4.27h-3.99v-2.15h0v-2.12h2.15Z"/>
            </g>
            <path class="cls-1" d="M14.65,9.23l.09-.07c.03-.37.21-.69.49-.89-.02-.03-.04-.05-.06-.07-.32.23-.5.62-.52,1.04h0Z"/>
            <path class="cls-1" d="M15.51,8.71l.08-.03c-.06-.16-.18-.45-.35-.62-.04-.04-.1.02-.07.06.12.12.24.33.34.59h0Z"/>
            <path class="cls-1" d="M14.75,8.42c.17,0,.17-.26,0-.26s-.17.26,0,.26Z"/>
            <path class="cls-1" d="M17.25,7.85c-.12.13-.31-.06-.19-.18.11-.12.31.06.19.18Z"/>
            <path class="cls-1" d="M17.51,8.08c-.12.13-.31-.06-.19-.18.11-.12.31.06.19.18Z"/>
            <path class="cls-1" d="M16.29,7.65c-.12.13-.31-.06-.19-.18.11-.12.31.06.19.18Z"/>
            <path class="cls-1" d="M16.95,7.71c-.12.13-.31-.06-.19-.18.11-.12.31.06.19.18Z"/>
            <path class="cls-1" d="M17.26,8.14h-.11c-.28-.22-.64-.32-.98-.27,0-.03,0-.06-.01-.09.39-.07.79.07,1.11.36Z"/>
            <path class="cls-1" d="M16.27,8.39l-.08.04c-.07-.15-.19-.44-.2-.69,0-.06.09-.06.09,0,0,.17.07.41.19.66Z"/>
            <path class="cls-1" d="M16.62,7.64c-.12.13-.31-.06-.19-.18.11-.12.31.06.19.18Z"/>
            <path class="cls-1" d="M30.74,21.74c.38,0,1.26-.42.62-.77-.36-.06-.72.11-1.06.2-1.39.55-.58-.12-1.44-.05.29.74,1.03.36,1.58.18.02.08-.08.1-.07.18.18-.04.36-.07.54-.11.07-.36.73-.37.43,0-.76.33-1.66.27-2.46.5-.53,1.39-1.46.45-1.45.84-.21.02-.21.22,0,.2,0,.41,1.03-.07,1.22-.19.04-.1.09-.19.13-.28.31.15.53-.3.8-.38.27-.05.62-.32.85-.07.26.28.64-.15.87.14-.08.22.03.12.07.26,0,.12.2.12.21,0,0-.05,0-.09.06-.11.11-.17-.13-.37-.21-.51-.19-.18-.5.16-.69-.03h0s0-.01,0-.01Z"/>
            <path class="cls-1" d="M27.3,21.13c.06.02.04.1.07.13.33.02.66-.07.99-.1.24,0,.24-.22.42-.25.44.02.71-.36,1.12-.42.33-.09.77-.21,1.07.02.07.08.17.09.28.07.14-.03.31-.05.38.11-.02.03-.05.05-.08.08.01.03.03.07.05.1.07,0,.08.05.1.1.03.06.12.06.14,0,.02-.08.1-.04.12-.1.01-.2-.03-.45-.23-.55-.1-.09-.49.1-.5-.1.29.07.85-.31.47-.56-.65-.15-1.37.16-2.03.24-.26.06-.13-.37-.7-.25.37.77,1.17.23,1.79.22,0,.07-.12.07-.09.15.18-.06.49.04.59-.14.06-.22.52-.17.38.09-.35.22-.86.12-1.27.17-.5.04-1.04.05-1.51.23-.09.29-.22.59-.55.66-.23-.23-.57.04-.82-.19-.08.02-.1.07-.13.13-.12.05-.17.12-.04.2h0s0,0,0,0Z"/>
            <path class="cls-1" d="M30.97,23.16c-.65-.08-.55.36-.87.26.06-.07.22-.11.17-.22-.48.21-.98.36-1.46.57-.24.26-.16.77-.71.82-.02.27-.39.45-.63.33-.09.09-.05.11-.04.19-.08.07-.19.24-.02.24.05-.01.1-.09.15-.07,0,.03,0,.07-.01.11.04,0,.1.01.12,0,.07-.1.18-.02.27-.09.28-.19.68-.36.66-.75.49-.22.78-1.02,1.42-.73.32.17.41-.35.69-.35.08.19.12.17.22.11.18.14.15-.08.22-.18,0-.1-.09-.21-.19-.21h0s0-.01,0-.01Z"/>
            <path class="cls-1" d="M28.02,20.02c-.1.3,0,.69.28.85.31-.14.52-.55.41-.9.07-.06.17-.1.14-.2-.05-.12-.24-.03-.28-.17-.12-.16-.28-.03-.37.08-.07,0-.14-.03-.21,0-.07.13.12.2.04.33h0Z"/>
            <path class="cls-1" d="M27.95,24.17c.31.73.76-.2.65-.59.21-.17.15-.28-.1-.29-.09-.19-.28-.21-.42-.05-.05.06-.12.04-.18.04-.13.06-.06.21.06.24-.06.22-.1.44,0,.66h0Z"/>
            <path class="cls-1" d="M28.79,21.45c-.06-.03-.14-.03-.2-.03-.11-.28-.31-.18-.46,0-.24-.1-.2.12-.07.24-.12.29-.03.72.27.84.32-.14.42-.53.39-.85.1-.02.18-.13.07-.19Z"/>
            <path class="cls-1" d="M31.12,22.4c-.58-.2-1.5,1.07-1.88.7-.1-.21-.38-.18-.56-.13.22.16.34.5.67.39.38-.07.67-.38.99-.52,0,.11-.1.16-.15.26.22-.07.42-.13.59-.28-.03-.61.85-.18,0,.19.15,0,.25.07.35-.05.19-.17.21-.42-.01-.58h0Z"/>
            <path class="cls-1" d="M29.79,23.82c-.17.04-.34.06-.45.23.04.06.08.11.13.17-.08.21-.29.17-.49.18.02.07.03.1.04.15-.08.04-.12.12-.1.22.02,0,.05.02.07.03.06-.07.15-.14.18,0,.36-.12.68-.34.85-.67-.1-.08-.19-.17-.23-.31Z"/>
            <path class="cls-1" d="M29.32,22.56c-.07,0-.09.1-.04.14.05.06.1,0,.16.01,0,.03,0,.06,0,.08.31.02.79-.26.95-.51-.07-.1-.13-.2-.19-.3-.17.06-.36.05-.46.21.06.07.11.12.17.18-.11.07-.25.17-.37.07-.05-.05-.19-.03-.16.07,0,.01,0,.03,0,.05-.02,0-.04,0-.06,0h0s0,0,0,0Z"/>
            <path class="cls-1" d="M27.99,24.47c-.12-.23-.3-.43-.38-.67.1-.14.06-.33-.14-.21-.05-.1-.12-.12-.21-.09-.03.06-.04.12.03.17v.03s-.04.01-.06.02c-.05.12.07.2.12.29.14.21.33.73.65.46Z"/>
            <path class="cls-1" d="M27.99,20.74c-.02-.31-.38-.51-.27-.83.03-.06.02-.13-.04-.17-.07.02-.13,0-.18-.02-.14-.07-.15.08-.14.18-.03.01-.05.02-.09.04.1.27.38.94.73.8Z"/>
            <path class="cls-1" d="M27.29,21.81c.13.2.17.52.4.64.1,0,.26.1.32-.03-.07-.24-.36-.38-.32-.66.01-.07,0-.13-.06-.18-.11.03-.36-.23-.27.08-.07.03-.11.07-.07.14h0Z"/>
            <path class="cls-1" d="M22.13,15.55s.1-.06.15,0c0,.03,0,.05-.01.08.32.14.67-.02.98-.1.13-.04.2-.17.33-.16.33.02.51-.25.79-.33.35-.07.69-.12,1.05-.11.41.55.48.08.84.27,0,.05-.02.1-.03.16.03.01.07.02.1.03-.03.14.17.22.2.04,0-.02,0-.05.03-.05.21-.12-.11-.69-.35-.54-.12.06-.27.11-.36-.03.2-.08.45-.06.59-.25.1-.13.09-.38-.1-.44-.51-.14-1.04.12-1.56.16-.96.26-.28-.21-1.04-.2.28.78,1.1.28,1.67.22-.04.09-.14.13-.17.21.2-.04.47.04.62-.12.08-.21.59-.24.47.05-.48.47-1.99.03-2.66.33-.1.31-.28.51-.57.59-.24-.15-.35.02-.59-.04-.07-.07-.14-.16-.24-.07v.11c-.11-.03-.24.12-.12.2h0s0,0,0,0Z"/>
            <path class="cls-1" d="M22.96,14.36c-.18.33-.13.62.09.89.39.01.56-.52.49-.85.04-.03.08-.06.12-.08-.01-.04-.02-.08-.03-.12-.07,0-.14,0-.2,0-.14-.18-.23-.19-.4-.02-.08-.03-.14,0-.2.06.03.06.07.1.13.13h0Z"/>
            <path class="cls-1" d="M24.89,15.06c-.02.09.07.13.08.2-.1.07-.22.07-.33.09-.06-.06-.08-.17-.19-.14-.06.01-.03.07-.07.1-.07,0-.12.03-.13.1.03.02.07.04.1.07-.09.41,1.03-.02,1.19-.14-.05-.09-.12-.15-.14-.26-.05-.18-.38-.03-.51-.03h0Z"/>
            <path class="cls-1" d="M22.81,15.11c-.01-.14-.05-.31-.16-.41-.13-.13-.17-.31-.04-.45-.07-.06-.15-.01-.21-.1-.08-.09-.13.01-.15.11-.23.03-.1.1-.04.23.07.21.35.71.61.62h0Z"/>
            <path class="cls-1" d="M26.17,16.63c-.12.06-.27.11-.37-.03.2-.08.45-.06.59-.25.1-.13.1-.38-.1-.45-.51-.14-1.05.12-1.57.16-.97.26-.28-.21-1.05-.21.28.79,1.11.28,1.68.22-.04.09-.14.13-.17.21.2-.04.47.04.62-.12.08-.22.59-.24.47.05-.49.47-2.01.03-2.68.33-.1.31-.28.52-.58.6-.21-.13-.31-.02-.49-.03,0,.06.03.11.04.17s.02.12.03.17c.21-.02.41-.1.6-.15.13-.04.2-.17.34-.16.33.02.52-.25.8-.33.35-.07.7-.12,1.06-.11.41.56.48.08.85.27,0,.05-.02.1-.03.17.03.01.07.02.1.03-.03.14.17.22.2.04,0-.02,0-.05.03-.05.22-.12-.12-.69-.35-.54Z"/>
            <path class="cls-1" d="M22.91,16.15c-.18.33-.13.63.09.9.4.01.56-.53.49-.86.04-.03.08-.06.12-.08-.01-.04-.02-.08-.03-.12-.07,0-.14,0-.2,0-.14-.18-.23-.19-.4-.02-.08-.03-.14,0-.2.06.03.06.07.1.13.14h0Z"/>
            <path class="cls-1" d="M24.85,16.85c-.02.09.07.13.08.2-.1.07-.22.07-.34.09-.06-.06-.08-.17-.19-.14-.06.01-.03.08-.07.1-.07,0-.12.03-.13.11.03.02.07.04.11.07-.09.41,1.04-.02,1.2-.14-.05-.09-.13-.16-.14-.26-.05-.18-.38-.03-.52-.03,0,0,0,0,0,0Z"/>
            <path class="cls-1" d="M22.75,16.9c-.01-.14-.05-.31-.16-.42-.13-.13-.17-.31-.04-.45-.07-.06-.15-.01-.21-.1-.08-.09-.13.01-.15.11-.23.03-.1.11-.04.23.07.21.35.72.61.62h0Z"/>
            <path class="cls-1" d="M26.21,18.31c-.12.06-.27.11-.36-.03.2-.08.45-.06.59-.25.1-.13.1-.38-.1-.45-.51-.14-1.05.12-1.57.16-.97.26-.28-.21-1.05-.21.28.79,1.1.28,1.68.22-.04.09-.14.13-.17.21.2-.04.47.04.62-.12.08-.22.59-.24.47.05-.49.47-2,.03-2.67.33-.1.31-.28.51-.58.6-.24-.15-.35.02-.59-.04-.02-.03-.05-.05-.07-.07,0,0-.01,0-.02-.01,0,0-.02,0-.03-.01h0c0,.15-.03.29-.08.42.31.12.66-.03.97-.11.13-.04.2-.17.34-.16.33.02.52-.25.8-.33.35-.07.7-.12,1.06-.11.41.56.48.08.85.27,0,.05-.02.1-.03.17.03.01.07.02.1.03-.03.14.17.22.2.04,0-.02,0-.05.03-.05.22-.12-.12-.69-.35-.54h0Z"/>
            <path class="cls-1" d="M22.95,17.82c-.18.33-.13.63.09.9.4.01.56-.53.49-.86.04-.03.08-.06.12-.08-.01-.04-.02-.08-.03-.12-.07,0-.14,0-.2,0-.14-.18-.23-.19-.4-.02-.08-.03-.14,0-.2.06.03.06.07.1.13.14,0,0,0,0,0,0Z"/>
            <path class="cls-1" d="M24.9,18.53c-.02.09.07.13.08.2-.1.07-.22.07-.34.09-.06-.06-.08-.17-.19-.14-.06.01-.03.08-.07.1-.07,0-.12.03-.13.11.03.02.07.04.11.07-.09.41,1.04-.02,1.2-.14-.05-.09-.12-.16-.14-.26-.05-.18-.38-.03-.52-.03,0,0,0,0,0,0Z"/>
            <path class="cls-1" d="M22.64,18.16s-.04-.05-.06-.08c0,.07.03.16.02.23,0,.06-.03.14-.04.2.09.09.15.1.25.07-.01-.14-.05-.31-.16-.41h0Z"/>
            <path class="cls-1" d="M28.46,15.27c.09.06.15.31.21.35.1.13.31.48.51.41h0c.06-.03.12-.21.12-.23,0,0-.03-.04-.07-.07-.19-.17-.31-.33-.31-.49,0-.05.11-.12.1-.16,0-.17-.15.02-.21,0-.03-.05-.14-.19-.21-.12-.04.02,0,.12-.02.15-.01.02-.03.02-.07.02-.15,0-.17.09-.05.15h0Z"/>
            <path class="cls-1" d="M29.28,16.45c.05-.05.21-.2.22-.24s.02-.03.13-.04c.3-.04.45-.17.53-.49.04-.1-.01-.31-.07-.35-.02-.02-.03-.05-.02-.06.06,0,.17-.05.19-.12-.03-.06-.11-.01-.21-.05-.08-.03-.28-.1-.37-.05-.06.07-.41.08-.35.18.01.04.04.13.04.13l.16.02v.11s-.11.03-.15.03c-.1.14.23.15.31.04.06-.07.15-.08.14,0-.04.09-.2.14-.29.18-.14.02-.17.29-.28.38-.29.05-.4.05-.69-.19-.1-.12-.19-.03-.11.07-.05.02-.32-.14-.2.12l.02.02c-.13.19.07.13.17.18.24.1.49.17.8.11h0s0,0,0,0Z"/>
            <path class="cls-1" d="M30.21,16.26l.12.26s.27.12.3.15c.15.11.13.41,0,.38-.22-.09-.35-.4-.51-.59-.04-.03-.15-.35-.21-.27-.91.21.17.44,0,.78-.03.05-.14.28-.09.32.08.1.25.16.34.28.15.14.01.31-.17.18-.1-.08-.23.03-.12.14,0,.02-.07.05-.07.06-.11.15.07.14.17.07.05-.03,0,.13.09.1.17-.03.42-.12.47-.38.1-.24-.14-.2-.2-.41-.06-.09-.07-.4.07-.28.12.15.28.24.43.1.14-.13.01-.44-.06-.58-.13-.28-.28-.54-.28-.87.18-.22.4.17.53-.44-.43.03-.86.32-.64.8.13.28.1.25-.15.2h0Z"/>
            <path class="cls-1" d="M29.52,16.78c-.23-.01-.4-.03-.34.24.01.07.03.26.07.31.02.03.01.05,0,.07-.09.05-.44-.09-.4-.21,0-.1-.1-.12-.13-.05-.02.03-.04.03-.07,0-.07-.09-.15.03-.12.1.01.03,0,.06-.03.06-.1.04-.09.17.04.17.29.14.55.28.88.23h0c.37-.03.18-.1.16-.35-.06-.28.41-.46-.06-.56h0Z"/>
            <path class="cls-1" d="M29.86,20.73s-.08,0-.09.02c0,.13-.13.09-.17.17.03.05.06.09.12.09.07,0,.07.08.13.09.31-.14.66-.1.92-.34-.1-.08-.12-.2-.14-.31-.17.01-.35-.01-.5.07-.02.08.04.12.08.19-.13.05-.24.08-.35.03h0Z"/>
            <path class="cls-1" d="M34.73,17.31c-.12-.26-.4-1.7-.8-1.38,1.84,3.43.61,7.94-2.57,10.11-.94.56-2.09,1.5-3.2.88.71-2.78,4.13-1.61,4.88-6.91-.09-.04-.13-.07-.21-.09-.1.74-.29,1.46-.57,2.14.3-.79.11-3.26.17-3.4-.03-.04-.06-.06-.17-.18.02.3,0,.41,0,.8h-5.19v-5.42h5.1v3.06s.02.16.03.21c.07-.11.08-.11.13-.14v-3.29h-10.69v2.77s.15,0,.15,0v-2.61h5.13v5.42h-4.95s0-.08-.01-.07c0-.01-.03.08-.03.07h-.14v-.42h-.16c-.11.4.22,3.8.78,4.4-1.11-1.08-1.47-3-1.26-4.45,0,0-.1-.08-.22-.18-.35,2.04.42,4.05,1.85,5.51.13.13.26,0,.42-.05-.03-.03-.1-.08-.14-.15.06.06.1.11.14.15l-.08-.22c-1.12-.86-1.31-3.3-1.33-4.43h5.13s0,6.79,0,6.81c-1.09-.05-1.83-1.24-2.88-1.25,1.51.9,4.28,3.06,6.03,2.11.01.02,0,.01.03.03-.18.23-.83.66-1.12.56-.48-.29-1.21.24-.87.76.04.06.07.12.02.2-1.89-.18-3.59-1.31-5.18-2.27-.02.02-.01.01-.03.03.61.83,2.79,1.85,2.79,1.85v1.22s.14.09.23.15v-1.32c.57.2,1.73.56,1.73.56v.83l.22-.14v-.62s.3-.09.3-.09c.2-.05.32-.24.3-.44-.09-.04-.16-.14-.13-.27.04-.24.34-.24.45-.1.24.1.47-.18.7-.24.33-.2.73-.38.89-.76.03-.09.08-.15.16-.2.66-.38,1.31-.79,1.85-1.34,2.32-1.96,3.12-5.32,2.35-8.2,0,0,0,0,0,0ZM27.06,19.44h5.19c.42,3.97-1.9,5.3-5.19,6.68,0,0,0-6.68,0-6.68ZM27.15,26.53c.37-.33.62-.44,1.09-.56-.13.29-.25.57-.38.87-.24-.1-.47-.21-.71-.31Z"/>
            <g>
              <path class="cls-1" d="M15.57,28.71c-.12-.07-.27-.1-.44-.07.03.26.13.75.21,1.01.49-.07.64-.68.23-.94Z"/>
              <path class="cls-1" d="M22.24,26.9h0c-2.94,0-5.87,1.26-8.81,1.26-.35,0-.7-.02-1.06-.06.91.72.85,2.16,2.17,2.16.06,0,.12,0,.18,0,1.8-.19,3.59-.7,5.36-.98.31-.04,1.77-.41,2.63-.41.31,0,.54.05.61.17.09.17-.49.66-.49.68,0,0,0,0,0,0,.06,0,.38-.19.62-.35.96-.69-1.05-2.48-1.22-2.48ZM16.05,29.34c-.16.38-.64.47-1.01.53.02-.12-.21-1.22-.28-1.32.65-.28,1.57,0,1.29.78ZM16.43,29.57c.02-.38-.11-.98-.28-1.32l.38-.08c-.02.38.11.98.28,1.32l-.38.08ZM17.88,29.26l-.77.17c.02-.12-.23-1.19-.3-1.29l.81-.18-.07.27c-.11-.03-.24-.03-.39,0l.09.39.45-.1.07.19c-.09-.01-.36.05-.48.07l.1.41c.22-.05.4-.12.55-.22h0l-.06.29s0,0,0,0ZM18.67,29.14c-.56.01-.64-.79-.77-1.18l.27-.05c.13.35.09,1.15.67,1.04.42-.19.08-.85.03-1.17l.27-.04c.1.53.34,1.46-.47,1.4h0ZM20.9,28.74l-.77.17c.01-.12-.24-1.19-.31-1.29l.81-.19-.07.27c-.11-.03-.24-.03-.39,0l.09.39.45-.1.07.19c-.09-.01-.36.06-.48.08l.1.41c.22-.05.4-.13.55-.23h0l-.06.29s.01.01.01.01ZM21.7,27.43l.22,1.12-.26.05-.23-1.11c-.16.03-.24.03-.46.12v-.25s1.1-.14,1.1-.14l.08.21c-.1-.03-.45,0-.45,0h0Z"/>
            </g>
            <g>
              <path class="cls-1" d="M35.86,28.14c-.06.24-.16.71-.19.96.58.12.76-.84.19-.96Z"/>
              <path class="cls-1" d="M38.12,28.54c-.44-.11-.59.81-.22.96.45.1.59-.8.22-.96Z"/>
              <path class="cls-1" d="M36.97,28.36l-.14.49c.38.07.54-.42.14-.49Z"/>
              <path class="cls-1" d="M33.43,27.67c-.46-.13-.64.83-.25.98.47.13.64-.82.25-.98Z"/>
              <path class="cls-1" d="M40.01,28.16c-.37,0-.72,0-.89-.02-1.94-.19-3.85-.74-5.79-1.05-.56-.09-1.01-.17-1.41-.17-.82,0-1.38.36-2.04,1.77-.28.54.66,1.05.87,1.07-.77-.66-.51-.86.1-.86.84,0,2.34.38,2.64.41,1.77.28,3.56.79,5.36.98.06,0,.12,0,.18,0,1.32,0,1.26-1.44,2.17-2.16-.16.01-.7.03-1.2.03h0ZM32.72,27.38s-.2,1.14-.19,1.25l-.3-.06c.05-.1.12-.86.12-.86l-.51.79-.3-.89s-.12.64-.13.84l-.29-.04c.09-.15.28-1.28.28-1.28l.3.06c0,.06.24.83.24.83,0,0,.4-.67.42-.7l.35.07h0ZM33.81,28.35c-.27.9-1.31.41-1-.39.26-.87,1.31-.41,1,.39ZM34.83,29.14c-.09-.02-.58-1.02-.58-1.02,0,0-.12.78-.15.83l-.22-.03.25-1.22.25.03s.39.86.39.86c0,0,.13-.67.14-.73l.19.05-.27,1.23h0ZM35.99,29.25c-.17.06-.42,0-.61-.04l.24-1.26c.82-.05,1.15,1,.36,1.3ZM37.44,28.67c-.03.14-.14.24-.31.29.07.25.12.33.25.6h0l-.2-.03s-.29-.37-.36-.56c-.04.16-.09.35-.07.49l-.34-.05c.06-.1.32-1.13.31-1.23.29.03.81.09.72.49h0ZM38.09,29.66c-.75.14-.75-1.12-.15-1.3.75-.16.75,1.12.15,1.3ZM38.86,28.93c-.03.22-.14.68-.09.89l-.29-.04c.13-.33.22-.89.2-1.24l.29.04c-.05.1-.08.21-.1.35h0ZM39.55,28.87s-.17.97-.16,1.05l-.29-.05s.18-.85.22-1.04c-.1-.02-.22-.01-.34.03h0l.12-.25.79.14.06.27c-.07-.07-.28-.14-.39-.16,0,0,0,.01,0,.01Z"/>
            </g>
          </g>
        </g>
      </g>
    </g>
  </g>
</svg>