<?xml version="1.0" encoding="UTF-8"?>
<svg id="Layer_1" data-name="Layer 1" xmlns="http://www.w3.org/2000/svg" viewBox="0 0 525.21 18.72">
  <defs>
    <style>
      .cls-1 {
        fill: #010101;
      }

      .cls-2 {
        fill: #231f20;
      }
    </style>
  </defs>
  <g id="Layer_1-2" data-name="Layer 1-2">
    <g>
      <circle class="cls-2" cx="397.66" cy="10.86" r="2.19"/>
      <path class="cls-2" d="M358.08,10.89c0,.55.07,1.09.21,1.6s.35.97.63,1.36c.28.39.65.71,1.08.95.44.24.97.36,1.57.36s1.07-.09,1.46-.28c.39-.19.7-.42.93-.7.23-.28.39-.58.49-.91.09-.33.14-.63.14-.9v-.13h-3.32v-2h5.87v7.11h-2.3v-1.52c-.16.25-.36.49-.61.69-.24.21-.51.39-.81.53-.3.15-.63.26-.99.35s-.74.13-1.14.13c-.95,0-1.79-.17-2.52-.51s-1.35-.82-1.86-1.42c-.5-.6-.89-1.31-1.15-2.12s-.39-1.68-.39-2.61.15-1.8.44-2.61c.29-.81.71-1.52,1.25-2.12s1.19-1.07,1.95-1.42c.76-.35,1.62-.52,2.56-.52.61,0,1.2.07,1.75.21.55.14,1.05.34,1.51.61.46.26.86.58,1.21.95.35.37.63.78.85,1.24l-2.3,1.29c-.14-.28-.3-.53-.49-.77-.19-.24-.4-.44-.65-.61-.25-.17-.52-.31-.84-.41s-.66-.15-1.05-.15c-.61,0-1.13.12-1.57.36s-.8.55-1.08.95c-.28.39-.5.85-.63,1.36s-.21,1.05-.21,1.6v.09h0Z"/>
      <path class="cls-2" d="M375.51,15.16c.57,0,1.07-.11,1.5-.32.43-.21.79-.51,1.09-.89.29-.38.52-.83.67-1.35.15-.52.23-1.08.23-1.7v-.07c0-.61-.08-1.17-.23-1.7-.15-.52-.37-.97-.67-1.35-.29-.38-.66-.68-1.09-.89-.43-.21-.93-.32-1.5-.32s-1.07.11-1.5.32c-.43.22-.8.51-1.09.89s-.51.83-.67,1.35c-.15.52-.23,1.09-.23,1.7v.07c0,.61.08,1.18.23,1.7.15.52.37.97.67,1.35.29.38.66.68,1.09.89s.94.32,1.5.32ZM375.51,4.19c.97,0,1.83.17,2.6.52.76.35,1.42.82,1.95,1.42.53.6.94,1.3,1.22,2.12s.42,1.68.42,2.61-.14,1.81-.42,2.61-.69,1.51-1.22,2.12c-.53.6-1.18,1.08-1.95,1.42-.76.34-1.63.51-2.6.51s-1.84-.17-2.6-.51c-.76-.34-1.41-.82-1.94-1.42-.53-.6-.94-1.31-1.22-2.12-.28-.81-.42-1.68-.42-2.61s.14-1.8.42-2.61c.28-.81.69-1.52,1.22-2.12.53-.6,1.18-1.07,1.94-1.42.76-.35,1.63-.52,2.6-.52Z"/>
      <polygon class="cls-2" points="386.32 17.34 382.65 4.37 385.59 4.37 388.1 14.12 388.19 14.12 390.64 4.37 393.54 4.37 389.88 17.34 386.32 17.34 386.32 17.34"/>
      <path class="cls-2" d="M408.4,15.16c.38,0,.74-.05,1.06-.17.33-.11.61-.28.85-.51.24-.23.43-.51.56-.86s.21-.75.21-1.23V4.36h2.58v8.43c0,.72-.13,1.38-.39,1.96-.26.58-.63,1.08-1.09,1.49s-1.02.73-1.67.95-1.35.33-2.11.33-1.47-.11-2.11-.33-1.2-.54-1.67-.95-.84-.91-1.1-1.49-.39-1.24-.39-1.96V4.36h2.6v8.04c0,.47.07.88.21,1.23.14.35.33.63.56.86s.52.4.85.51.68.17,1.06.17h0Z"/>
      <polygon class="cls-2" points="415.99 4.37 418.61 4.37 418.61 9.99 423.24 4.37 426.47 4.37 421.97 9.53 426.76 17.34 423.71 17.34 420.28 11.53 418.61 13.4 418.61 17.34 415.99 17.34 415.99 4.37"/>
      <path class="cls-2" d="M335.8,6.44c.6,0,1.09-.49,1.09-1.09s-.49-1.09-1.09-1.09-1.09.49-1.09,1.09.49,1.09,1.09,1.09Z"/>
      <path class="cls-2" d="M332.86,8.19c.6,0,1.09-.49,1.09-1.09s-.49-1.09-1.09-1.09-1.09.49-1.09,1.09.49,1.09,1.09,1.09Z"/>
      <path class="cls-2" d="M330.92,11.09c.6,0,1.09-.49,1.09-1.09s-.49-1.09-1.09-1.09-1.09.49-1.09,1.09.49,1.09,1.09,1.09Z"/>
      <path class="cls-2" d="M339.29,10.32c.6,0,1.09-.49,1.09-1.09s-.49-1.09-1.09-1.09-1.09.49-1.09,1.09.49,1.09,1.09,1.09Z"/>
      <path class="cls-2" d="M342.78,6.44c.6,0,1.09-.49,1.09-1.09s-.49-1.09-1.09-1.09-1.09.49-1.09,1.09.49,1.09,1.09,1.09Z"/>
      <path class="cls-2" d="M345.72,8.19c.6,0,1.09-.49,1.09-1.09s-.49-1.09-1.09-1.09-1.09.49-1.09,1.09.49,1.09,1.09,1.09Z"/>
      <path class="cls-2" d="M347.66,11.09c.6,0,1.09-.49,1.09-1.09s-.49-1.09-1.09-1.09-1.09.49-1.09,1.09.49,1.09,1.09,1.09Z"/>
      <path class="cls-2" d="M339.29,10.32c.6,0,1.09-.49,1.09-1.09s-.49-1.09-1.09-1.09-1.09.49-1.09,1.09.49,1.09,1.09,1.09Z"/>
      <path class="cls-2" d="M339.73,3.01c.05-.04.1-.09.15-.15l1.39.73V1.54l-1.39.44c-.04-.05-.09-.1-.14-.14l.56-1.76h-2.01l.56,1.76c-.05.04-.1.09-.14.14l-1.39-.44v2.05l1.39-.73c.04.05.09.1.15.15l-.79,2.39c-.28.84.35,1.71,1.23,1.71s1.51-.87,1.23-1.71c0,0-.79-2.39-.79-2.39Z"/>
      <path class="cls-2" d="M340.88,11.41s-1.01,1.13-1.24,1.82c.66-.02,1.26-.15,1.92-.83l-.22,2.55c-.6-.85-1.31-1.21-1.71-1.14.04.91.14,2.02,1.74,2.16,1.12.1,2.01-.45,2.11-1.13.11-.78-.59-1.29-1.12-.48-.41-1.36.73-1.81,1.46-.97-.56-1.34-.55-2.29.71-3.26.9,1.2.77,2.19-.34,3.31.73-.4,1.86.02,1.19,1.38-.35-.85-1.09-.66-1.25.07-.1.51.21,1.12.89,1.24.56.1,1.41-.28,2.1-1.76-.39,0-.73.21-1.16.51l.72-2.4c.18.68.41,1.12.66,1.36.17-.49.14-.84,0-1.59l1.49.53c-.79,1.08-1.56,2.6-2.19,5.24-2.22-.32-4.7-.5-7.33-.5s-5.11.18-7.33.5c-.63-2.65-1.4-4.16-2.19-5.24l1.49-.53c-.15.76-.17,1.11,0,1.59.25-.24.48-.68.66-1.36l.72,2.4c-.44-.3-.78-.5-1.16-.51.69,1.48,1.54,1.86,2.1,1.76.68-.12.99-.73.89-1.24-.16-.73-.9-.92-1.25-.07-.67-1.36.47-1.78,1.19-1.38-1.12-1.12-1.25-2.11-.34-3.31,1.26.96,1.27,1.91.71,3.26.74-.84,1.88-.39,1.46.97-.53-.82-1.23-.3-1.12.48.09.68.99,1.23,2.11,1.13,1.6-.15,1.7-1.25,1.74-2.16-.39-.07-1.1.29-1.71,1.14l-.22-2.55c.66.69,1.25.81,1.92.83-.22-.69-1.24-1.82-1.24-1.82h3.18,0Z"/>
    </g>
  </g>
  <path class="cls-2" d="M123.18,6.99c.24.23.57.34,1.01.34.32,0,.59-.08.81-.24.23-.16.37-.32.42-.5h1.38c-.22.68-.56,1.17-1.01,1.46s-1.01.44-1.65.44c-.45,0-.85-.07-1.21-.22-.36-.14-.66-.35-.91-.61-.25-.26-.44-.58-.58-.95-.14-.37-.2-.77-.2-1.21s.07-.82.21-1.19c.14-.37.34-.68.59-.95.26-.27.56-.48.92-.63.36-.15.75-.23,1.18-.23.48,0,.91.09,1.26.28.36.19.65.44.89.75.23.32.4.68.5,1.08s.14.82.11,1.27h-4.1c.02.51.15.87.38,1.1M124.94,4c-.19-.2-.47-.31-.85-.31-.25,0-.46.04-.62.13-.16.09-.3.19-.4.31s-.17.26-.21.4c-.04.14-.06.26-.07.37h2.54c-.07-.4-.2-.7-.39-.9M116.9,6.94c.07.12.16.22.27.3.11.08.24.13.38.17.14.04.29.06.44.06.11,0,.23-.01.35-.04.12-.02.23-.06.33-.12.1-.06.18-.13.25-.22.07-.09.1-.21.1-.35,0-.24-.16-.41-.47-.53-.31-.12-.75-.23-1.3-.35-.23-.05-.45-.11-.66-.18-.22-.07-.41-.16-.58-.28-.17-.11-.3-.26-.41-.43-.1-.17-.15-.38-.15-.63,0-.37.07-.67.21-.9.14-.24.33-.42.57-.56.24-.14.5-.23.79-.29.29-.06.59-.08.9-.08s.61.03.9.09c.29.06.55.16.77.3.23.14.42.32.57.56.15.23.24.52.27.87h-1.49c-.02-.3-.13-.5-.34-.61-.21-.11-.45-.16-.73-.16-.09,0-.18,0-.29.02-.1.01-.2.03-.28.07-.08.04-.16.09-.22.16-.06.07-.09.16-.09.28,0,.14.05.25.15.34.1.09.24.16.4.22.16.05.35.1.57.15.21.04.43.09.65.14.23.05.45.11.67.19.22.07.41.17.58.29.17.12.31.27.41.45.1.18.15.4.15.67,0,.37-.07.69-.23.94-.15.25-.35.46-.59.61-.24.15-.52.26-.83.32-.31.06-.63.09-.95.09s-.65-.03-.97-.1c-.32-.07-.6-.18-.84-.33-.25-.15-.45-.36-.6-.61-.16-.25-.24-.57-.26-.95h1.49c0,.17.03.31.1.43M112.89,8.36v-.79h-.03c-.2.33-.46.57-.77.72-.32.15-.64.22-.97.22-.42,0-.76-.05-1.03-.16-.27-.11-.48-.27-.63-.47-.15-.2-.26-.45-.32-.74-.06-.29-.09-.61-.09-.96v-3.5h1.56v3.21c0,.47.07.82.22,1.05.15.23.41.35.78.35.43,0,.73-.13.92-.38.19-.25.29-.67.29-1.25v-2.98h1.56v5.69h-1.49ZM102.4,4.28c.14-.37.34-.68.59-.95.26-.26.56-.46.92-.6.36-.14.76-.22,1.21-.22s.85.07,1.21.22c.36.14.67.34.93.6.26.26.45.58.59.95.14.37.21.78.21,1.24s-.07.87-.21,1.23c-.14.37-.34.68-.59.94-.26.26-.57.46-.93.6s-.77.21-1.21.21-.85-.07-1.21-.21c-.36-.14-.67-.34-.92-.6-.26-.26-.46-.57-.59-.94-.14-.37-.21-.78-.21-1.23s.07-.87.21-1.24M103.82,6.18c.04.22.12.41.22.58.11.17.25.31.42.41.18.1.4.15.66.15s.49-.05.67-.15.32-.24.43-.41c.11-.17.18-.37.23-.58.04-.22.07-.44.07-.66s-.02-.45-.07-.67-.12-.41-.23-.58c-.11-.17-.25-.31-.43-.41-.18-.11-.4-.16-.67-.16s-.48.05-.66.16c-.18.11-.32.24-.42.41-.11.17-.18.36-.22.58-.04.22-.07.44-.07.67s.02.45.07.66M97.45.5v2.96h.03c.2-.33.45-.57.76-.72.31-.15.61-.23.9-.23.42,0,.76.06,1.03.17.27.11.48.27.63.47.15.2.26.45.32.74.06.29.09.61.09.96v3.5h-1.56v-3.21c0-.47-.07-.82-.22-1.05-.15-.23-.41-.35-.78-.35-.43,0-.73.13-.92.38-.19.25-.29.67-.29,1.25v2.98h-1.56V.5h1.56ZM91.27,6.94c.07.12.16.22.27.3.11.08.24.13.38.17.14.04.29.06.45.06.11,0,.22-.01.35-.04.12-.02.23-.06.33-.12.1-.06.18-.13.25-.22.07-.09.1-.21.1-.35,0-.24-.16-.41-.47-.53-.31-.12-.75-.23-1.3-.35-.23-.05-.45-.11-.67-.18-.22-.07-.41-.16-.58-.28-.17-.11-.31-.26-.41-.43-.1-.17-.15-.38-.15-.63,0-.37.07-.67.21-.9.14-.24.33-.42.57-.56.23-.14.5-.23.79-.29.29-.06.59-.08.9-.08s.61.03.9.09.55.16.78.3c.23.14.42.32.57.56.15.23.24.52.27.87h-1.49c-.02-.3-.14-.5-.34-.61-.21-.11-.45-.16-.73-.16-.09,0-.18,0-.29.02-.1.01-.2.03-.28.07-.08.04-.16.09-.21.16-.06.07-.09.16-.09.28,0,.14.05.25.15.34.1.09.24.16.4.22.17.05.35.1.57.15.21.04.43.09.65.14.23.05.45.11.67.19.22.07.41.17.58.29.17.12.3.27.41.45.1.18.15.4.15.67,0,.37-.08.69-.23.94-.15.25-.35.46-.59.61-.24.15-.52.26-.83.32-.31.06-.63.09-.95.09s-.65-.03-.97-.1c-.32-.07-.6-.18-.84-.33-.25-.15-.45-.36-.61-.61-.16-.25-.24-.57-.26-.95h1.49c0,.17.03.31.1.43M85.34,6.99c.23.23.57.34,1.01.34.31,0,.59-.08.81-.24.23-.16.37-.32.42-.5h1.38c-.22.68-.56,1.17-1.01,1.46-.45.29-1,.44-1.65.44-.45,0-.85-.07-1.21-.22-.36-.14-.66-.35-.91-.61-.25-.26-.44-.58-.58-.95-.14-.37-.2-.77-.2-1.21s.07-.82.21-1.19c.14-.37.34-.68.59-.95.26-.27.56-.48.92-.63.36-.15.75-.23,1.18-.23.48,0,.9.09,1.26.28.36.19.65.44.88.75.23.32.4.68.5,1.08.1.4.14.82.11,1.27h-4.1c.02.51.15.87.39,1.1M87.1,4c-.19-.2-.47-.31-.85-.31-.25,0-.46.04-.62.13-.17.09-.3.19-.4.31s-.17.26-.21.4-.06.26-.07.37h2.54c-.07-.4-.2-.7-.39-.9M82.42,8.36h-1.56V2.67h1.56v5.69ZM80.86.5h1.56v1.29h-1.56V.5ZM75.78,2.67v.79h.03c.2-.33.46-.57.77-.72.32-.15.64-.23.97-.23.42,0,.76.06,1.03.17.27.11.48.27.63.47.15.2.26.45.32.74.06.29.09.61.09.96v3.5h-1.56v-3.21c0-.47-.07-.82-.22-1.05-.15-.23-.41-.35-.78-.35-.42,0-.73.13-.92.38-.19.25-.29.67-.29,1.25v2.98h-1.56V2.67h1.49ZM71.51,6.16c0,.09-.01.2-.03.35-.02.15-.07.29-.15.43-.08.14-.21.27-.37.37-.17.1-.41.15-.71.15-.12,0-.25-.01-.36-.03-.12-.02-.22-.06-.31-.12-.09-.05-.16-.13-.21-.23-.05-.09-.08-.21-.08-.35,0-.15.03-.27.08-.36.05-.1.12-.17.2-.24.08-.06.18-.11.3-.15.11-.04.23-.07.35-.09.12-.02.25-.04.37-.06.12-.01.24-.03.36-.05.11-.02.22-.05.32-.08.1-.03.18-.08.25-.14v.58ZM69.46,4.42c.03-.31.13-.53.31-.66.18-.13.42-.2.73-.2.14,0,.27,0,.39.03.12.02.23.05.32.11.09.06.17.13.22.23.06.1.08.23.08.4,0,.16-.04.28-.14.37-.1.09-.24.15-.42.19-.18.04-.38.08-.61.1-.23.02-.46.05-.69.09-.24.04-.47.09-.7.15-.23.06-.44.16-.62.28s-.33.29-.44.5c-.11.21-.17.47-.17.8,0,.29.05.55.15.76.1.21.24.39.41.53s.38.24.62.31c.23.07.49.1.76.1.35,0,.7-.05,1.03-.15.34-.1.63-.28.88-.54,0,.1.02.19.04.28.02.09.04.18.07.27h1.58c-.07-.12-.12-.29-.15-.53-.03-.23-.04-.48-.04-.74v-2.96c0-.35-.08-.62-.23-.83-.15-.21-.35-.37-.59-.49-.24-.12-.51-.2-.8-.24-.29-.04-.58-.06-.87-.06-.32,0-.63.03-.94.09-.31.06-.59.17-.84.31-.25.15-.45.34-.62.58-.16.24-.25.55-.28.91h1.56ZM62.74,2.67v.73h.02c.19-.31.43-.53.73-.67.29-.14.62-.21.97-.21.45,0,.83.08,1.15.25.32.17.59.39.8.67.21.28.37.6.47.97.1.37.15.76.15,1.16,0,.38-.05.75-.15,1.1-.1.35-.26.66-.47.93s-.47.49-.78.65c-.31.16-.68.24-1.09.24-.35,0-.68-.07-.97-.22-.3-.14-.54-.35-.73-.63h-.02v2.7h-1.56V2.67h1.49ZM64.77,7.18c.17-.1.31-.24.42-.4.11-.17.18-.36.22-.58s.07-.44.07-.67-.02-.45-.07-.67c-.05-.22-.13-.42-.24-.59-.11-.17-.25-.31-.42-.42-.17-.11-.38-.16-.63-.16s-.47.05-.64.16c-.17.11-.31.24-.42.41-.11.17-.18.36-.23.58s-.07.45-.07.68.02.45.07.67c.05.22.12.41.23.58.11.17.25.3.42.4.18.1.39.15.64.15s.47-.05.64-.15M52.81,2.67v.77h.02c.21-.29.45-.52.74-.68.29-.16.62-.24,1-.24s.69.07.99.21.52.39.68.74c.17-.25.4-.47.69-.66.29-.19.63-.29,1.03-.29.3,0,.58.04.84.11.26.07.48.19.66.35.18.16.33.37.43.63.1.26.15.57.15.94v3.81h-1.56v-3.22c0-.19,0-.37-.02-.54s-.06-.31-.12-.44-.16-.22-.29-.3c-.13-.07-.3-.11-.52-.11s-.4.04-.53.13c-.14.08-.24.19-.32.33-.08.14-.13.29-.15.46-.03.17-.04.35-.04.52v3.17h-1.56v-3.19c0-.17,0-.34-.01-.5,0-.16-.04-.32-.09-.46-.06-.14-.15-.25-.27-.34-.13-.08-.32-.13-.57-.13-.07,0-.17.02-.29.05-.12.03-.24.1-.35.19-.11.09-.21.22-.29.39-.08.17-.12.4-.12.68v3.3h-1.56V2.67h1.47ZM44.65,4.28c.14-.37.34-.68.59-.95.26-.26.56-.46.92-.6.36-.14.76-.22,1.21-.22s.85.07,1.22.22c.36.14.67.34.93.6.26.26.45.58.59.95.14.37.21.78.21,1.24s-.07.87-.21,1.23c-.14.37-.34.68-.59.94-.26.26-.57.46-.93.6s-.77.21-1.22.21-.85-.07-1.21-.21c-.36-.14-.67-.34-.92-.6-.26-.26-.46-.57-.59-.94-.14-.37-.21-.78-.21-1.23s.07-.87.21-1.24M46.07,6.18c.04.22.12.41.23.58.11.17.25.31.42.41s.4.15.66.15.49-.05.67-.15c.18-.1.32-.24.43-.41.11-.17.18-.37.23-.58.04-.22.07-.44.07-.66s-.02-.45-.07-.67-.12-.41-.23-.58c-.11-.17-.25-.31-.43-.41-.18-.11-.4-.16-.67-.16s-.48.05-.66.16c-.18.11-.32.24-.42.41-.11.17-.18.36-.23.58-.04.22-.07.44-.07.67s.02.45.07.66M41.04,3.69c-.25,0-.46.06-.63.17-.17.11-.31.26-.41.44-.11.18-.18.38-.23.59-.04.22-.07.43-.07.64s.02.41.07.63.12.4.22.58c.1.17.23.31.4.42.17.11.37.16.62.16.37,0,.66-.11.86-.31.2-.21.33-.49.38-.84h1.51c-.1.75-.4,1.33-.88,1.73-.48.4-1.1.59-1.86.59-.42,0-.82-.07-1.17-.22-.36-.14-.66-.34-.91-.6-.25-.26-.44-.56-.58-.92-.14-.35-.21-.75-.21-1.17s.06-.85.19-1.23c.13-.38.32-.7.57-.98.25-.27.55-.49.91-.64.36-.15.77-.23,1.23-.23.34,0,.66.04.97.13.31.09.59.22.84.4.25.18.44.4.6.67.15.27.24.59.26.95h-1.53c-.1-.65-.49-.98-1.15-.98M38.44.32l-3.07,8.22h-1.24L37.19.32h1.25ZM29.82.5v4.21l1.97-2.05h1.85l-2.15,2.09,2.39,3.6h-1.89l-1.56-2.54-.6.58v1.96h-1.56V.5h1.56ZM25.48,8.36v-.79h-.03c-.2.33-.45.57-.77.72-.32.15-.64.22-.97.22-.42,0-.76-.05-1.03-.16-.27-.11-.48-.27-.63-.47-.15-.2-.26-.45-.32-.74-.06-.29-.09-.61-.09-.96v-3.5h1.56v3.21c0,.47.07.82.22,1.05.15.23.41.35.78.35.43,0,.73-.13.92-.38.19-.25.29-.67.29-1.25v-2.98h1.56v5.69h-1.49ZM20.48,8.36h-1.73v-1.69h1.73v1.69ZM14.9,8.36l-1.95-5.69h1.64l1.2,3.88h.02l1.2-3.88h1.55l-1.92,5.69h-1.74ZM7.02,4.28c.14-.37.34-.68.59-.95.26-.26.56-.46.92-.6.36-.14.76-.22,1.21-.22s.85.07,1.22.22c.36.14.67.34.93.6.26.26.45.58.59.95.14.37.21.78.21,1.24s-.07.87-.21,1.23c-.14.37-.34.68-.59.94-.26.26-.57.46-.93.6-.36.14-.77.21-1.22.21s-.85-.07-1.21-.21c-.36-.14-.67-.34-.92-.6-.26-.26-.45-.57-.59-.94-.14-.37-.21-.78-.21-1.23s.07-.87.21-1.24M8.44,6.18c.04.22.12.41.23.58.11.17.25.31.42.41s.4.15.66.15.49-.05.67-.15c.18-.1.32-.24.43-.41.11-.17.18-.37.22-.58.04-.22.07-.44.07-.66s-.02-.45-.07-.67c-.04-.22-.12-.41-.22-.58-.11-.17-.25-.31-.43-.41-.18-.11-.4-.16-.67-.16s-.48.05-.66.16c-.18.11-.32.24-.42.41-.11.17-.18.36-.23.58s-.07.44-.07.67.02.45.07.66M5.7,8.78c-.06.29-.2.57-.4.82-.2.25-.5.47-.89.64-.39.18-.91.26-1.56.26-.28,0-.56-.03-.85-.11-.29-.07-.55-.18-.79-.32-.24-.15-.44-.34-.59-.57-.16-.23-.25-.51-.27-.83h1.55c.07.29.22.5.43.61.21.11.46.17.74.17.44,0,.76-.13.96-.4.2-.26.3-.6.29-1v-.75h-.02c-.17.3-.41.52-.72.66-.31.14-.64.22-.98.22-.43,0-.79-.07-1.1-.23-.31-.15-.56-.36-.76-.62-.2-.26-.34-.56-.43-.91-.09-.35-.14-.72-.14-1.11,0-.37.05-.72.16-1.06.11-.34.26-.64.47-.9.2-.26.46-.47.76-.62.31-.15.65-.23,1.05-.23.37,0,.7.07.98.21.28.14.52.37.71.7h.02v-.76h1.49v5.32c0,.23-.03.49-.09.78M3.56,6.88c.17-.09.31-.2.42-.35.11-.15.19-.31.25-.5.06-.19.08-.38.08-.59,0-.23-.02-.46-.07-.67-.04-.21-.12-.39-.22-.55-.1-.16-.24-.29-.41-.39-.17-.1-.38-.14-.64-.14-.22,0-.41.04-.57.13-.16.09-.29.21-.4.36-.11.15-.18.32-.23.52-.05.19-.07.4-.07.61s.02.41.06.61c.04.2.11.38.21.55.1.16.23.29.39.4.16.1.36.15.6.15.22,0,.41-.04.58-.13"/>
  <path class="cls-2" d="M255.69,16.55h.59v.74h-.59v-.74ZM252.18,16.1c.04.17.11.32.21.46.1.13.22.25.37.34.15.09.33.13.54.13.32,0,.57-.08.76-.25.18-.17.31-.39.38-.67h.44c-.09.41-.27.73-.51.95-.25.22-.6.34-1.06.34-.28,0-.53-.05-.74-.15-.21-.1-.38-.24-.51-.41-.13-.18-.23-.38-.29-.61-.06-.23-.1-.48-.1-.73,0-.24.03-.47.1-.7.06-.23.16-.43.29-.61.13-.18.3-.32.51-.43.21-.11.45-.16.74-.16s.54.06.74.17c.21.12.37.27.5.46.13.19.22.41.28.65.06.25.08.49.07.75h-2.78c0,.16.02.32.07.49M254.37,14.75c-.05-.16-.13-.29-.23-.41-.1-.12-.22-.22-.36-.29-.14-.07-.3-.11-.48-.11s-.34.04-.48.11c-.14.07-.26.17-.36.29-.1.12-.18.26-.23.41-.06.16-.1.32-.12.48h2.34c0-.17-.03-.33-.09-.48M248.11,16.04c.04.18.11.35.21.49.1.14.22.26.37.35.15.09.33.14.54.14.23,0,.43-.05.59-.14.16-.09.29-.21.39-.35.1-.14.17-.31.22-.49.04-.18.07-.37.07-.56s-.02-.37-.07-.56c-.05-.18-.12-.35-.22-.49-.1-.14-.23-.26-.39-.35s-.36-.14-.59-.14c-.21,0-.39.05-.54.14-.15.09-.27.21-.37.35-.1.14-.17.31-.21.49-.04.18-.07.37-.07.56s.02.37.07.56M250.53,17.29v-.69h-.01c-.05.12-.11.22-.21.32-.09.1-.2.18-.31.25-.12.07-.24.12-.37.16-.13.04-.26.06-.4.06-.27,0-.51-.05-.72-.15-.2-.1-.37-.24-.51-.41-.13-.18-.23-.38-.3-.61-.07-.23-.1-.48-.1-.73s.03-.5.1-.73c.07-.23.17-.43.3-.61.14-.18.31-.31.51-.42.2-.1.44-.15.72-.15.14,0,.27.02.4.05.13.03.25.08.36.15.11.07.21.15.3.25.09.1.15.21.2.34h.01v-2.07h.44v5h-.41ZM246.39,15.32c-.03.05-.08.09-.16.11-.08.02-.15.04-.21.05-.19.03-.38.06-.58.09-.2.03-.38.06-.54.12-.16.05-.3.12-.4.22-.11.1-.16.23-.16.41,0,.11.02.21.07.3s.1.16.18.22c.07.06.16.11.26.14.1.03.2.05.3.05.17,0,.33-.02.48-.08.15-.05.29-.13.4-.22.11-.1.21-.22.27-.36.07-.14.1-.3.1-.48v-.57h-.01ZM244.18,14.24c.07-.15.18-.28.3-.38.13-.1.28-.17.45-.22.17-.05.36-.07.57-.07.16,0,.32.01.48.05.16.03.3.09.43.17s.23.2.31.35c.08.15.12.35.12.59v1.92c0,.18.09.27.26.27.05,0,.1-.01.14-.03v.37c-.05,0-.1.02-.14.02-.04,0-.09,0-.15,0-.11,0-.2-.02-.27-.05-.07-.03-.12-.07-.16-.13-.04-.06-.06-.12-.07-.2-.01-.08-.02-.16-.02-.26h-.01c-.08.12-.16.22-.24.31-.08.09-.17.17-.27.23-.1.06-.21.11-.34.14-.13.03-.28.05-.46.05s-.33-.02-.47-.06-.27-.1-.38-.19c-.11-.09-.2-.2-.26-.33-.06-.13-.09-.29-.09-.47,0-.25.06-.45.17-.59s.26-.25.44-.33c.18-.08.39-.13.62-.16s.47-.06.7-.09c.09-.01.17-.02.24-.04.07-.02.13-.04.17-.07.05-.03.08-.08.11-.14.03-.06.04-.14.04-.24,0-.15-.02-.27-.07-.37-.05-.1-.12-.17-.2-.23-.09-.06-.19-.09-.3-.12-.11-.02-.24-.03-.37-.03-.28,0-.51.07-.69.2-.18.13-.27.35-.28.64h-.44c.01-.21.06-.39.13-.55M242.25,13.68v.85h.01c.11-.3.29-.52.52-.68.24-.16.52-.23.84-.22v.44c-.2-.01-.38.02-.55.08-.16.06-.3.15-.42.27-.12.12-.21.26-.28.42-.07.16-.1.34-.1.53v1.92h-.44v-3.61h.41ZM241.96,12.29v.41h-1.74v4.59h-.48v-4.59h-1.74v-.41h3.95ZM232.98,16.04c.04.18.11.35.21.49.1.14.22.26.37.35.15.09.33.14.54.14.23,0,.43-.05.59-.14.16-.09.29-.21.39-.35.1-.14.17-.31.22-.49.04-.18.07-.37.07-.56s-.02-.37-.07-.56c-.04-.18-.12-.35-.22-.49-.1-.14-.23-.26-.39-.35-.16-.09-.36-.14-.59-.14-.21,0-.39.05-.54.14-.15.09-.27.21-.37.35-.1.14-.17.31-.21.49s-.07.37-.07.56.02.37.07.56M235.4,17.29v-.69h-.01c-.05.12-.11.22-.21.32-.09.1-.2.18-.31.25-.12.07-.24.12-.37.16-.13.04-.26.06-.4.06-.27,0-.51-.05-.72-.15-.2-.1-.37-.24-.51-.41-.13-.18-.23-.38-.3-.61-.07-.23-.1-.48-.1-.73s.03-.5.1-.73c.07-.23.17-.43.3-.61.14-.18.31-.31.51-.42.2-.1.44-.15.72-.15.14,0,.27.02.4.05.13.03.25.08.36.15.11.07.21.15.3.25.09.1.15.21.2.34h.01v-2.07h.44v5h-.41ZM229.24,13.68v.62h.01c.08-.22.23-.4.45-.53.22-.13.45-.2.71-.2s.46.03.63.1c.17.07.31.16.41.28.1.12.18.26.22.44.04.17.06.37.06.58v2.32h-.44v-2.25c0-.15-.01-.3-.04-.43-.03-.13-.08-.25-.15-.35-.07-.1-.16-.17-.28-.23-.12-.06-.27-.08-.44-.08s-.34.03-.47.1c-.14.06-.26.15-.35.26-.1.11-.17.24-.22.39-.05.15-.08.32-.09.49v2.11h-.44v-3.61h.44ZM227.37,15.32c-.03.05-.08.09-.16.11-.08.02-.15.04-.21.05-.19.03-.38.06-.58.09-.2.03-.38.06-.54.12-.16.05-.3.12-.4.22s-.16.23-.16.41c0,.11.02.21.07.3.04.09.1.16.18.22.07.06.16.11.26.14.1.03.2.05.3.05.17,0,.33-.02.48-.08.15-.05.29-.13.4-.22.11-.1.21-.22.27-.36.07-.14.1-.3.1-.48v-.57h-.01ZM225.17,14.24c.08-.15.18-.28.31-.38.13-.1.28-.17.45-.22.17-.05.36-.07.57-.07.16,0,.32.01.48.05.16.03.3.09.43.17.13.08.23.2.31.35s.12.35.12.59v1.92c0,.18.09.27.26.27.05,0,.1-.01.14-.03v.37c-.05,0-.1.02-.14.02-.04,0-.09,0-.15,0-.11,0-.2-.02-.27-.05-.07-.03-.12-.07-.16-.13-.04-.06-.06-.12-.07-.2-.01-.08-.02-.16-.02-.26h-.01c-.08.12-.16.22-.24.31-.08.09-.17.17-.27.23-.1.06-.21.11-.34.14-.13.03-.28.05-.46.05s-.33-.02-.47-.06c-.15-.04-.28-.1-.39-.19-.11-.09-.2-.2-.26-.33-.06-.13-.1-.29-.1-.47,0-.25.06-.45.17-.59s.26-.25.45-.33c.18-.08.39-.13.62-.16.23-.03.46-.06.7-.09.09-.01.18-.02.24-.04.07-.02.13-.04.18-.07.05-.03.08-.08.11-.14.03-.06.04-.14.04-.24,0-.15-.02-.27-.07-.37-.05-.1-.12-.17-.2-.23-.09-.06-.19-.09-.3-.12-.11-.02-.24-.03-.37-.03-.28,0-.51.07-.69.2s-.27.35-.28.64h-.44c.01-.21.06-.39.13-.55M221.98,14.38c-.05-.1-.12-.18-.21-.25-.09-.07-.19-.11-.3-.14-.11-.03-.23-.05-.36-.05-.1,0-.2.01-.3.03-.1.02-.19.06-.28.11-.08.05-.15.11-.2.19-.05.08-.08.18-.08.29,0,.1.02.18.07.25.05.07.11.12.18.17.08.05.16.09.24.12.09.03.17.06.24.07l.59.13c.13.02.25.05.38.1.12.05.23.11.33.19.1.08.17.18.23.29.06.12.09.25.09.41,0,.2-.04.36-.13.5-.09.14-.2.25-.34.34-.14.09-.29.15-.47.18-.17.04-.34.06-.51.06-.42,0-.77-.1-1.03-.3-.26-.2-.42-.52-.45-.97h.44c.02.3.13.52.33.68.2.15.44.23.74.23.11,0,.22-.01.33-.03.11-.02.22-.06.32-.12.1-.06.18-.13.24-.21.06-.09.09-.19.09-.32,0-.11-.02-.2-.07-.27-.05-.07-.1-.13-.18-.18-.07-.05-.16-.09-.25-.12-.1-.03-.19-.06-.29-.08l-.57-.13c-.15-.04-.28-.08-.4-.13s-.23-.11-.32-.18-.16-.16-.21-.27-.08-.23-.08-.39c0-.18.04-.34.12-.47.08-.13.19-.24.32-.32.13-.08.28-.14.44-.17.16-.04.32-.06.48-.06.18,0,.35.02.51.07.16.05.29.12.41.22.12.1.21.22.28.36.07.14.11.32.12.51h-.44c0-.14-.03-.25-.08-.35M218.52,14.38c-.05-.1-.12-.18-.21-.25-.09-.07-.18-.11-.3-.14-.11-.03-.23-.05-.36-.05-.1,0-.2.01-.3.03-.1.02-.19.06-.28.11-.08.05-.15.11-.2.19-.05.08-.08.18-.08.29,0,.1.02.18.07.25.05.07.11.12.19.17.07.05.16.09.24.12.09.03.17.06.24.07l.59.13c.13.02.25.05.37.1.12.05.23.11.33.19.1.08.17.18.23.29.06.12.09.25.09.41,0,.2-.05.36-.13.5-.09.14-.2.25-.34.34-.14.09-.29.15-.46.18-.17.04-.34.06-.51.06-.42,0-.77-.1-1.03-.3-.26-.2-.41-.52-.45-.97h.44c.02.3.13.52.33.68.2.15.44.23.74.23.11,0,.22-.01.33-.03.12-.02.22-.06.32-.12s.18-.13.24-.21c.06-.09.1-.19.1-.32,0-.11-.02-.2-.07-.27-.04-.07-.1-.13-.18-.18-.07-.05-.16-.09-.26-.12-.1-.03-.19-.06-.29-.08l-.57-.13c-.14-.04-.28-.08-.4-.13-.12-.05-.23-.11-.32-.18s-.16-.16-.21-.27c-.05-.11-.08-.23-.08-.39,0-.18.04-.34.12-.47.08-.13.19-.24.32-.32.13-.08.28-.14.44-.17.16-.04.32-.06.48-.06.18,0,.35.02.51.07.16.05.29.12.41.22.12.1.21.22.28.36.07.14.11.32.12.51h-.44c0-.14-.03-.25-.08-.35M213.03,16.1c.04.17.11.32.21.46.1.13.22.25.37.34.15.09.33.13.54.13.32,0,.57-.08.76-.25.18-.17.31-.39.38-.67h.44c-.09.41-.27.73-.51.95-.25.22-.6.34-1.06.34-.29,0-.53-.05-.74-.15-.21-.1-.38-.24-.51-.41-.13-.18-.23-.38-.29-.61-.06-.23-.1-.48-.1-.73,0-.24.03-.47.1-.7.06-.23.16-.43.29-.61.13-.18.3-.32.51-.43.21-.11.45-.16.74-.16s.54.06.74.17c.2.12.37.27.5.46.13.19.22.41.28.65.06.25.08.49.07.75h-2.78c0,.16.02.32.07.49M215.21,14.75c-.05-.16-.13-.29-.23-.41-.1-.12-.22-.22-.36-.29-.14-.07-.3-.11-.48-.11s-.34.04-.48.11c-.14.07-.26.17-.36.29-.1.12-.18.26-.23.41-.06.16-.1.32-.12.48h2.34c0-.17-.03-.33-.09-.48M209.3,13.68v.62h.01c.08-.22.23-.4.45-.53.21-.13.45-.2.71-.2s.46.03.63.1c.17.07.31.16.41.28.1.12.17.26.22.44.04.17.06.37.06.58v2.32h-.44v-2.25c0-.15-.01-.3-.04-.43-.03-.13-.08-.25-.15-.35-.07-.1-.17-.17-.28-.23-.12-.06-.27-.08-.44-.08s-.34.03-.47.1c-.14.06-.25.15-.35.26-.1.11-.17.24-.22.39-.05.15-.08.32-.09.49v2.11h-.44v-3.61h.44ZM207.95,17.29h-.44v-3.61h.44v3.61ZM207.95,13h-.44v-.71h.44v.71ZM206.14,14.38c-.05-.1-.12-.18-.21-.25-.09-.07-.19-.11-.3-.14-.11-.03-.23-.05-.36-.05-.1,0-.2.01-.3.03-.1.02-.19.06-.28.11-.08.05-.15.11-.2.19-.05.08-.08.18-.08.29,0,.1.02.18.07.25.05.07.11.12.18.17.08.05.16.09.24.12.09.03.17.06.24.07l.59.13c.13.02.25.05.38.1.12.05.23.11.33.19.1.08.17.18.23.29.06.12.09.25.09.41,0,.2-.04.36-.13.5s-.2.25-.34.34c-.14.09-.29.15-.47.18-.17.04-.34.06-.51.06-.42,0-.77-.1-1.03-.3-.26-.2-.42-.52-.45-.97h.44c.02.3.13.52.33.68.2.15.44.23.74.23.11,0,.22-.01.33-.03.11-.02.22-.06.32-.12.1-.06.18-.13.24-.21.06-.09.09-.19.09-.32,0-.11-.02-.2-.07-.27-.05-.07-.1-.13-.18-.18-.07-.05-.16-.09-.25-.12-.1-.03-.19-.06-.29-.08l-.57-.13c-.15-.04-.28-.08-.4-.13s-.23-.11-.32-.18-.16-.16-.21-.27c-.05-.11-.08-.23-.08-.39,0-.18.04-.34.12-.47.08-.13.19-.24.32-.32.13-.08.28-.14.44-.17.16-.04.32-.06.48-.06.18,0,.35.02.51.07.16.05.29.12.41.22.12.1.21.22.28.36.07.14.11.32.12.51h-.44c0-.14-.03-.25-.08-.35M202.76,17.29v-.65h-.01c-.12.24-.29.43-.51.56-.22.13-.47.19-.74.19-.23,0-.42-.03-.58-.09-.16-.06-.29-.15-.39-.27-.1-.12-.17-.26-.22-.43-.05-.17-.07-.36-.07-.57v-2.35h.44v2.35c0,.33.09.57.23.74.14.17.39.25.74.25.19,0,.36-.04.49-.12.13-.08.25-.19.34-.33.09-.13.15-.29.2-.46.04-.18.06-.35.06-.54v-1.9h.44v3.61h-.41ZM197.7,16.88c.18,0,.35-.02.5-.05.16-.03.3-.09.42-.16.12-.08.22-.19.29-.32s.11-.3.11-.5c0-.32-.11-.56-.34-.72-.23-.16-.55-.24-.98-.24h-1.64v1.99h1.64ZM197.7,12.29c.21,0,.41.02.61.06.19.04.36.11.51.2.15.1.26.22.35.38.09.16.13.35.13.59,0,.13-.02.26-.06.38-.04.12-.1.24-.18.34s-.17.19-.27.26c-.1.07-.22.12-.35.15h0c.32.06.58.19.77.41.19.22.29.5.29.82,0,.08,0,.17-.02.27s-.04.2-.08.31c-.04.11-.1.21-.18.31-.08.1-.18.19-.32.27-.13.08-.3.14-.49.19-.19.05-.43.07-.7.07h-2.11v-5h2.11ZM197.7,14.48c.19,0,.36-.02.5-.07.14-.04.26-.11.35-.18.09-.08.16-.17.21-.27.05-.1.07-.21.07-.33,0-.62-.38-.94-1.13-.94h-1.64v1.78h1.64ZM191.89,13.68v.85h.01c.11-.3.29-.52.52-.68.24-.16.52-.23.84-.22v.44c-.2-.01-.38.02-.55.08-.16.06-.3.15-.42.27-.12.12-.21.26-.28.42-.07.16-.1.34-.1.53v1.92h-.44v-3.61h.41ZM189.78,13.73c.21.1.39.24.54.41.14.17.25.38.33.61.07.23.11.48.11.74s-.04.51-.11.74c-.07.23-.18.43-.33.61-.15.17-.32.31-.54.41s-.46.15-.73.15-.52-.05-.73-.15c-.21-.1-.39-.24-.54-.41-.14-.17-.25-.37-.33-.61-.08-.23-.11-.48-.11-.74s.04-.51.11-.74c.07-.23.18-.43.33-.61.14-.17.32-.31.54-.41.21-.1.46-.15.73-.15s.52.05.73.15M188.49,14.08c-.16.09-.29.2-.4.35-.11.14-.18.31-.24.49-.05.18-.08.37-.08.56s.03.38.08.56c.05.18.13.35.24.49.1.14.24.26.4.35.16.09.34.13.55.13s.39-.04.55-.13c.16-.09.29-.21.4-.35.1-.14.18-.31.24-.49.05-.18.08-.37.08-.56s-.03-.38-.08-.56c-.05-.18-.13-.35-.24-.49-.11-.14-.24-.26-.4-.35-.16-.09-.34-.13-.55-.13s-.39.05-.55.13M186.4,14.05v3.24h-.44v-3.24h-.62v-.37h.62v-.33c0-.15.01-.3.04-.43.02-.13.07-.24.13-.34.07-.09.15-.17.27-.22.11-.05.26-.08.44-.08.07,0,.13,0,.18,0,.06,0,.12.01.19.02v.38c-.06,0-.12-.02-.17-.03-.05,0-.1,0-.15,0-.12,0-.21.02-.28.06-.07.04-.11.09-.14.15-.03.06-.05.14-.05.22,0,.08,0,.17,0,.27v.32h.71v.37h-.71ZM183.28,13.68v.37h-.74v2.43c0,.14.02.26.06.34.04.08.14.13.3.14.13,0,.25,0,.38-.02v.37c-.07,0-.13,0-.2,0-.07,0-.13,0-.2,0-.29,0-.5-.06-.62-.17-.12-.11-.17-.33-.17-.63v-2.47h-.63v-.37h.63v-1.09h.44v1.09h.74ZM178.5,13.68v.62h.01c.08-.22.23-.4.45-.53.21-.13.45-.2.71-.2s.46.03.63.1c.17.07.31.16.41.28.1.12.17.26.22.44.04.17.06.37.06.58v2.32h-.44v-2.25c0-.15-.01-.3-.04-.43-.03-.13-.08-.25-.15-.35-.07-.1-.16-.17-.28-.23-.12-.06-.27-.08-.44-.08s-.33.03-.47.1c-.14.06-.25.15-.35.26-.1.11-.17.24-.22.39-.05.15-.08.32-.09.49v2.11h-.44v-3.61h.44ZM174.66,16.1c.05.17.12.32.21.46.1.13.22.25.37.34.15.09.33.13.54.13.32,0,.57-.08.76-.25.18-.17.31-.39.38-.67h.44c-.09.41-.26.73-.51.95-.25.22-.6.34-1.06.34-.29,0-.53-.05-.74-.15-.21-.1-.38-.24-.51-.41-.13-.18-.23-.38-.29-.61-.06-.23-.09-.48-.09-.73,0-.24.03-.47.09-.7.06-.23.16-.43.29-.61.13-.18.3-.32.51-.43.21-.11.45-.16.74-.16s.54.06.74.17c.21.12.37.27.5.46.13.19.22.41.28.65.06.25.08.49.07.75h-2.78c0,.16.02.32.07.49M176.84,14.75c-.05-.16-.13-.29-.23-.41-.1-.12-.22-.22-.36-.29-.14-.07-.3-.11-.48-.11s-.34.04-.48.11c-.14.07-.26.17-.36.29-.1.12-.18.26-.23.41-.06.16-.1.32-.11.48h2.34c0-.17-.03-.33-.09-.48M168.83,13.68v.61h.02c.12-.22.27-.4.46-.52.19-.13.43-.19.73-.19.24,0,.45.06.65.17.19.12.32.3.39.53.11-.24.27-.41.48-.53.21-.12.43-.17.67-.17.8,0,1.2.42,1.2,1.27v2.45h-.44v-2.43c0-.3-.06-.53-.19-.68s-.35-.24-.67-.24c-.19,0-.35.04-.48.11-.13.07-.23.17-.3.29-.07.12-.13.26-.16.42s-.05.32-.05.49v2.05h-.44v-2.45c0-.12-.01-.24-.04-.35s-.07-.2-.13-.29c-.06-.08-.14-.15-.23-.19-.1-.05-.22-.07-.36-.07-.19,0-.35.03-.49.1s-.25.16-.34.28c-.09.12-.15.26-.19.42-.04.16-.06.34-.06.53v2.02h-.44v-3.61h.41ZM167.78,13.68v.37h-.74v2.43c0,.14.02.26.06.34.04.08.14.13.3.14.13,0,.25,0,.38-.02v.37c-.07,0-.13,0-.2,0-.07,0-.13,0-.2,0-.29,0-.5-.06-.62-.17-.12-.11-.17-.33-.17-.63v-2.47h-.63v-.37h.63v-1.09h.44v1.09h.74ZM164.28,13.68v.85h.01c.11-.3.29-.52.52-.68.24-.16.52-.23.84-.22v.44c-.2-.01-.38.02-.55.08-.16.06-.3.15-.42.27-.12.12-.21.26-.28.42-.07.16-.1.34-.1.53v1.92h-.44v-3.61h.41ZM162.44,15.32c-.03.05-.08.09-.16.11-.08.02-.15.04-.21.05-.19.03-.38.06-.58.09-.2.03-.38.06-.54.12-.16.05-.3.12-.4.22-.11.1-.16.23-.16.41,0,.11.02.21.07.3s.1.16.18.22c.07.06.16.11.26.14.1.03.2.05.3.05.17,0,.33-.02.48-.08.15-.05.29-.13.4-.22.11-.1.21-.22.27-.36.07-.14.1-.3.1-.48v-.57h-.01ZM160.24,14.24c.07-.15.18-.28.3-.38.13-.1.28-.17.45-.22.17-.05.36-.07.57-.07.16,0,.32.01.48.05.16.03.3.09.43.17s.23.2.31.35c.08.15.12.35.12.59v1.92c0,.18.09.27.26.27.05,0,.1-.01.14-.03v.37c-.05,0-.1.02-.14.02-.04,0-.09,0-.15,0-.11,0-.2-.02-.27-.05-.07-.03-.12-.07-.16-.13-.04-.06-.06-.12-.07-.2-.01-.08-.02-.16-.02-.26h-.01c-.08.12-.16.22-.24.31-.08.09-.17.17-.27.23-.1.06-.21.11-.34.14-.13.03-.28.05-.46.05s-.33-.02-.47-.06-.27-.1-.38-.19c-.11-.09-.2-.2-.26-.33-.06-.13-.09-.29-.09-.47,0-.25.06-.45.17-.59s.26-.25.44-.33c.18-.08.39-.13.62-.16s.47-.06.7-.09c.09-.01.17-.02.24-.04.07-.02.13-.04.17-.07.05-.03.08-.08.11-.14.03-.06.04-.14.04-.24,0-.15-.02-.27-.07-.37-.05-.1-.12-.17-.2-.23-.09-.06-.19-.09-.3-.12-.11-.02-.24-.03-.37-.03-.28,0-.51.07-.69.2-.18.13-.27.35-.28.64h-.44c.01-.21.06-.39.13-.55M158.9,14.93c-.04-.18-.11-.35-.21-.49-.1-.14-.22-.26-.37-.35-.15-.09-.33-.14-.54-.14-.24,0-.45.04-.61.13-.16.08-.29.2-.39.34-.1.14-.17.3-.21.49-.04.19-.06.38-.06.59,0,.19.02.37.07.56.05.18.12.35.22.49.1.14.23.26.39.35.16.09.36.14.59.14.21,0,.39-.05.54-.14.15-.09.27-.21.37-.35.1-.14.17-.31.21-.49.04-.18.07-.37.07-.56s-.02-.37-.07-.56M156.48,13.68v.69h.01c.1-.25.27-.45.5-.59.23-.14.49-.21.79-.21.27,0,.51.05.72.15.2.1.37.24.51.42.14.18.24.38.3.61.07.23.1.47.1.73s-.03.5-.1.73c-.07.23-.17.43-.3.61-.14.17-.3.31-.51.41s-.44.15-.72.15c-.13,0-.26-.02-.39-.05-.13-.03-.25-.08-.36-.15-.11-.07-.21-.15-.3-.24-.09-.1-.15-.21-.2-.34h-.01v2.02h-.44v-4.94h.41ZM152.67,16.1c.04.17.12.32.21.46.1.13.22.25.37.34.15.09.33.13.54.13.32,0,.57-.08.76-.25.18-.17.31-.39.38-.67h.44c-.09.41-.26.73-.51.95s-.6.34-1.06.34c-.29,0-.53-.05-.74-.15s-.38-.24-.51-.41c-.13-.18-.23-.38-.29-.61-.06-.23-.09-.48-.09-.73,0-.24.03-.47.09-.7.06-.23.16-.43.29-.61.13-.18.3-.32.51-.43s.45-.16.74-.16.54.06.74.17c.2.12.37.27.5.46.13.19.22.41.28.65.06.25.08.49.07.75h-2.78c0,.16.02.32.07.49M154.85,14.75c-.05-.16-.13-.29-.23-.41-.1-.12-.22-.22-.36-.29-.14-.07-.3-.11-.48-.11s-.34.04-.48.11c-.14.07-.26.17-.36.29-.1.12-.18.26-.24.41-.06.16-.1.32-.11.48h2.34c0-.17-.03-.33-.09-.48M149.03,16.88c.36,0,.67-.04.93-.12.26-.08.47-.2.64-.37s.29-.38.37-.65c.08-.27.12-.59.12-.96s-.04-.69-.12-.96c-.08-.26-.2-.48-.37-.65-.17-.17-.38-.29-.64-.37-.26-.08-.57-.12-.93-.12h-1.01v4.19h1.01ZM149.27,12.29c.76.02,1.33.23,1.72.64.38.41.58,1.03.58,1.86s-.19,1.45-.58,1.86c-.39.41-.96.62-1.72.64h-1.73v-5h1.73ZM142.34,16.1c.04.17.12.32.21.46.1.13.22.25.37.34.15.09.33.13.54.13.32,0,.57-.08.76-.25.18-.17.31-.39.38-.67h.44c-.09.41-.26.73-.51.95s-.6.34-1.06.34c-.29,0-.53-.05-.74-.15s-.38-.24-.51-.41c-.13-.18-.23-.38-.29-.61-.06-.23-.09-.48-.09-.73,0-.24.03-.47.09-.7.06-.23.16-.43.29-.61.13-.18.3-.32.51-.43s.45-.16.74-.16.54.06.74.17c.21.12.37.27.5.46.13.19.22.41.28.65.06.25.08.49.07.75h-2.78c0,.16.02.32.07.49M144.53,14.75c-.05-.16-.13-.29-.23-.41-.1-.12-.22-.22-.36-.29-.14-.07-.3-.11-.48-.11s-.34.04-.48.11c-.14.07-.26.17-.36.29-.1.12-.18.26-.23.41-.06.16-.1.32-.11.48h2.34c0-.17-.03-.33-.09-.48M138.61,12.29v2.01h.01c.08-.22.23-.4.45-.53.21-.13.45-.2.71-.2s.46.03.63.1c.17.07.31.16.41.28.1.12.18.26.22.44.04.17.06.37.06.58v2.32h-.44v-2.25c0-.15-.01-.3-.04-.43-.03-.13-.08-.25-.15-.35-.07-.1-.16-.17-.28-.23-.12-.06-.27-.08-.45-.08s-.33.03-.47.1c-.14.06-.26.15-.35.26-.1.11-.17.24-.22.39-.05.15-.08.32-.09.49v2.11h-.44v-5h.44ZM137.53,13.68v.37h-.74v2.43c0,.14.02.26.06.34.04.08.14.13.3.14.13,0,.25,0,.38-.02v.37c-.07,0-.13,0-.2,0-.07,0-.13,0-.2,0-.29,0-.5-.06-.62-.17-.12-.11-.17-.33-.17-.63v-2.47h-.63v-.37h.63v-1.09h.44v1.09h.74ZM133.16,14.05v3.24h-.44v-3.24h-.62v-.37h.62v-.33c0-.15.01-.3.04-.43.02-.13.07-.24.13-.34.07-.09.15-.17.27-.22.12-.05.26-.08.44-.08.07,0,.13,0,.18,0,.06,0,.12.01.19.02v.38c-.06,0-.12-.02-.17-.03-.05,0-.1,0-.15,0-.12,0-.21.02-.28.06-.07.04-.11.09-.14.15-.03.06-.05.14-.05.22,0,.08,0,.17,0,.27v.32h.71v.37h-.71ZM130.88,13.73c.21.1.39.24.53.41.15.17.25.38.33.61.08.23.11.48.11.74s-.04.51-.11.74c-.08.23-.18.43-.33.61-.14.17-.32.31-.53.41-.21.1-.46.15-.73.15s-.52-.05-.73-.15c-.21-.1-.39-.24-.54-.41-.14-.17-.25-.37-.33-.61-.07-.23-.11-.48-.11-.74s.04-.51.11-.74c.07-.23.18-.43.33-.61.15-.17.32-.31.54-.41.21-.1.46-.15.73-.15s.52.05.73.15M129.59,14.08c-.16.09-.29.2-.4.35-.1.14-.18.31-.24.49-.05.18-.08.37-.08.56s.03.38.08.56c.05.18.13.35.24.49.11.14.24.26.4.35.16.09.34.13.55.13s.39-.04.55-.13c.16-.09.29-.21.4-.35.11-.14.18-.31.24-.49.05-.18.08-.37.08-.56s-.03-.38-.08-.56c-.05-.18-.13-.35-.24-.49-.1-.14-.24-.26-.4-.35-.16-.09-.34-.13-.55-.13s-.39.05-.55.13M123.63,13.68l1.19,3.08,1.11-3.08h.44l-1.57,4.16c-.07.15-.13.28-.18.38s-.12.18-.18.24c-.07.06-.15.1-.24.13s-.21.04-.35.04c-.09,0-.16,0-.21-.01-.05,0-.09-.01-.13-.02v-.37c.05.01.1.02.15.03s.1.01.15.01c.1,0,.18-.01.24-.04.06-.03.12-.07.16-.11.05-.05.09-.11.12-.18.03-.07.07-.15.1-.23l.15-.41-1.44-3.6h.47ZM122.12,14.17c-.16-.15-.39-.23-.69-.23-.21,0-.4.05-.55.13-.16.09-.29.2-.4.35-.11.14-.18.31-.24.49s-.08.37-.08.56.03.38.08.56.13.35.24.49c.1.14.24.26.4.35.16.09.34.13.55.13.13,0,.26-.02.38-.08.12-.05.23-.12.32-.21.09-.09.17-.2.23-.33.06-.12.1-.26.11-.41h.44c-.06.44-.22.78-.48,1.02-.26.25-.6.37-1.01.37-.28,0-.52-.05-.73-.15s-.39-.24-.54-.41c-.15-.17-.25-.37-.33-.61-.08-.23-.11-.48-.11-.74s.04-.51.11-.74c.07-.23.18-.43.33-.61.14-.17.32-.31.54-.41.21-.1.46-.15.73-.15.39,0,.71.1.98.31.27.2.43.51.48.93h-.44c-.06-.27-.17-.48-.34-.64M116.51,13.68v.62h.01c.08-.22.23-.4.45-.53.21-.13.45-.2.71-.2s.46.03.63.1c.17.07.31.16.41.28.1.12.17.26.22.44.04.17.06.37.06.58v2.32h-.44v-2.25c0-.15-.01-.3-.04-.43-.03-.13-.08-.25-.15-.35-.07-.1-.17-.17-.28-.23-.12-.06-.27-.08-.44-.08s-.34.03-.47.1c-.14.06-.25.15-.35.26-.1.11-.17.24-.22.39-.05.15-.08.32-.09.49v2.11h-.44v-3.61h.44ZM112.67,16.1c.04.17.12.32.21.46.1.13.22.25.37.34.15.09.33.13.54.13.32,0,.57-.08.76-.25.18-.17.31-.39.38-.67h.44c-.09.41-.26.73-.51.95-.25.22-.6.34-1.06.34-.28,0-.53-.05-.74-.15-.21-.1-.38-.24-.51-.41-.13-.18-.23-.38-.29-.61-.06-.23-.09-.48-.09-.73,0-.24.03-.47.09-.7.06-.23.16-.43.29-.61.13-.18.3-.32.51-.43.21-.11.45-.16.74-.16s.54.06.74.17c.21.12.37.27.5.46.13.19.22.41.28.65.06.25.08.49.07.75h-2.78c0,.16.02.32.07.49M114.85,14.75c-.05-.16-.13-.29-.23-.41-.1-.12-.22-.22-.36-.29s-.3-.11-.48-.11-.34.04-.48.11-.26.17-.36.29c-.1.12-.18.26-.24.41-.06.16-.1.32-.11.48h2.34c0-.17-.03-.33-.09-.48M110.31,16.75c.15-.08.27-.19.36-.32.1-.13.17-.29.22-.46.05-.17.07-.35.07-.53s-.02-.35-.06-.53c-.04-.18-.11-.34-.2-.48-.09-.14-.21-.26-.36-.35-.15-.09-.33-.13-.54-.13s-.39.04-.54.13c-.15.09-.27.2-.37.34s-.17.3-.21.48c-.04.18-.07.36-.07.55s.02.36.07.53c.05.17.12.33.22.46.1.13.22.24.37.32.15.08.33.12.53.12.19,0,.36-.04.5-.12M111.33,17.72c-.06.21-.15.4-.28.55-.13.15-.29.26-.49.34-.2.08-.45.12-.75.12-.18,0-.36-.02-.53-.06-.17-.04-.33-.11-.47-.2-.14-.09-.25-.2-.34-.34-.09-.14-.14-.3-.16-.49h.44c.02.14.07.25.14.34.07.09.15.16.24.22.1.06.2.1.32.12.12.03.24.04.36.04.41,0,.71-.12.89-.35.18-.23.27-.57.27-1.01v-.49h-.01c-.1.22-.25.4-.45.54-.2.13-.43.2-.7.2-.29,0-.54-.05-.74-.14-.21-.1-.37-.23-.51-.4s-.23-.37-.29-.59c-.06-.23-.09-.47-.09-.72s.04-.48.11-.7c.07-.22.18-.41.32-.58.14-.17.31-.3.51-.39.2-.1.43-.14.7-.14.14,0,.26.02.38.06.12.04.23.09.33.16.1.07.19.15.26.23.08.09.14.18.18.28h.01v-.62h.44v3.32c0,.27-.03.51-.09.72M106.98,15.32c-.03.05-.08.09-.16.11-.08.02-.15.04-.21.05-.19.03-.38.06-.58.09-.2.03-.38.06-.54.12-.16.05-.3.12-.4.22-.11.1-.16.23-.16.41,0,.11.02.21.07.3.04.09.1.16.18.22.08.06.16.11.26.14.1.03.2.05.3.05.17,0,.33-.02.48-.08.15-.05.29-.13.4-.22.11-.1.21-.22.27-.36.07-.14.1-.3.1-.48v-.57h-.01ZM104.77,14.24c.08-.15.18-.28.31-.38.13-.1.28-.17.45-.22.17-.05.36-.07.57-.07.16,0,.32.01.48.05.16.03.3.09.43.17s.23.2.31.35c.08.15.12.35.12.59v1.92c0,.18.09.27.26.27.05,0,.1-.01.14-.03v.37c-.05,0-.1.02-.14.02-.04,0-.09,0-.15,0-.11,0-.2-.02-.27-.05-.07-.03-.12-.07-.16-.13-.04-.06-.06-.12-.07-.2-.01-.08-.02-.16-.02-.26h-.01c-.08.12-.16.22-.24.31-.08.09-.17.17-.27.23-.1.06-.22.11-.34.14-.13.03-.28.05-.46.05-.17,0-.32-.02-.47-.06s-.28-.1-.39-.19c-.11-.09-.2-.2-.26-.33-.06-.13-.1-.29-.1-.47,0-.25.06-.45.17-.59s.26-.25.44-.33c.18-.08.39-.13.62-.16.23-.03.46-.06.7-.09.09-.01.18-.02.25-.04.07-.02.13-.04.18-.07.05-.03.08-.08.11-.14.03-.06.04-.14.04-.24,0-.15-.02-.27-.07-.37-.05-.1-.12-.17-.2-.23-.09-.06-.19-.09-.3-.12-.12-.02-.24-.03-.37-.03-.28,0-.51.07-.69.2-.18.13-.27.35-.28.64h-.44c.01-.21.06-.39.13-.55M99.57,16.1c.04.17.11.32.21.46.1.13.22.25.37.34.15.09.33.13.54.13.32,0,.57-.08.76-.25.18-.17.31-.39.38-.67h.44c-.09.41-.26.73-.51.95-.25.22-.6.34-1.06.34-.28,0-.53-.05-.74-.15-.21-.1-.38-.24-.51-.41-.13-.18-.23-.38-.29-.61-.06-.23-.1-.48-.1-.73,0-.24.03-.47.1-.7.06-.23.16-.43.29-.61.13-.18.3-.32.51-.43.21-.11.45-.16.74-.16s.54.06.74.17c.21.12.37.27.5.46.13.19.22.41.28.65.06.25.08.49.07.75h-2.78c0,.16.02.32.07.49M101.76,14.75c-.05-.16-.13-.29-.23-.41-.1-.12-.22-.22-.36-.29s-.3-.11-.48-.11-.34.04-.48.11-.26.17-.36.29c-.1.12-.18.26-.23.41-.06.16-.1.32-.12.48h2.34c0-.17-.03-.33-.09-.48M96.11,13.68l1.13,3.17h.01l1.12-3.17h.46l-1.35,3.61h-.47l-1.39-3.61h.49ZM95.09,17.29h-.44v-3.61h.44v3.61ZM95.09,13h-.44v-.71h.44v.71ZM94,13.68v.37h-.74v2.43c0,.14.02.26.06.34.04.08.14.13.3.14.13,0,.25,0,.38-.02v.37c-.07,0-.13,0-.2,0-.06,0-.13,0-.2,0-.29,0-.5-.06-.62-.17-.12-.11-.17-.33-.17-.63v-2.47h-.63v-.37h.63v-1.09h.44v1.09h.74ZM91.24,17.29v-.65h-.01c-.12.24-.29.43-.51.56-.22.13-.47.19-.74.19-.23,0-.42-.03-.59-.09-.16-.06-.29-.15-.39-.27-.1-.12-.17-.26-.22-.43-.05-.17-.07-.36-.07-.57v-2.35h.44v2.35c0,.33.08.57.23.74.14.17.39.25.74.25.19,0,.35-.04.49-.12.14-.08.25-.19.34-.33.09-.13.15-.29.2-.46.04-.18.06-.35.06-.54v-1.9h.44v3.61h-.41ZM87.25,14.17c-.16-.15-.39-.23-.69-.23-.21,0-.39.05-.55.13-.16.09-.29.2-.4.35-.11.14-.18.31-.24.49-.05.18-.08.37-.08.56s.03.38.08.56c.05.18.13.35.24.49.1.14.24.26.4.35.16.09.34.13.55.13.14,0,.26-.02.39-.08.12-.05.23-.12.32-.21.09-.09.17-.2.23-.33.06-.12.1-.26.11-.41h.44c-.06.44-.22.78-.48,1.02-.26.25-.6.37-1.01.37-.28,0-.52-.05-.73-.15-.21-.1-.39-.24-.53-.41-.15-.17-.26-.37-.33-.61-.07-.23-.11-.48-.11-.74s.04-.51.11-.74c.07-.23.18-.43.33-.61.14-.17.32-.31.53-.41.21-.1.46-.15.73-.15.39,0,.71.1.98.31.27.2.43.51.48.93h-.44c-.06-.27-.17-.48-.34-.64M81.62,16.1c.04.17.11.32.21.46.1.13.22.25.37.34.15.09.33.13.54.13.32,0,.57-.08.76-.25.18-.17.31-.39.38-.67h.44c-.09.41-.26.73-.51.95-.25.22-.6.34-1.06.34-.28,0-.53-.05-.74-.15-.21-.1-.38-.24-.51-.41-.13-.18-.23-.38-.29-.61-.06-.23-.1-.48-.1-.73,0-.24.03-.47.1-.7.06-.23.16-.43.29-.61.13-.18.3-.32.51-.43.21-.11.45-.16.74-.16s.54.06.74.17c.21.12.37.27.5.46.13.19.22.41.28.65.06.25.08.49.07.75h-2.78c0,.16.02.32.07.49M83.8,14.75c-.05-.16-.13-.29-.23-.41-.1-.12-.22-.22-.36-.29s-.3-.11-.48-.11-.34.04-.48.11-.26.17-.36.29c-.1.12-.18.26-.23.41-.06.16-.1.32-.12.48h2.34c0-.17-.03-.33-.09-.48M77.69,13.68h.55l1.03,1.37,1.01-1.37h.55l-1.3,1.73,1.41,1.88h-.56l-1.13-1.52-1.11,1.52h-.55l1.4-1.88-1.29-1.74ZM74.74,16.1c.04.17.11.32.21.46.1.13.22.25.37.34.15.09.33.13.54.13.32,0,.57-.08.76-.25.18-.17.31-.39.38-.67h.44c-.09.41-.26.73-.51.95-.25.22-.6.34-1.06.34-.29,0-.53-.05-.74-.15-.21-.1-.38-.24-.51-.41-.13-.18-.23-.38-.29-.61-.06-.23-.1-.48-.1-.73,0-.24.03-.47.1-.7.06-.23.16-.43.29-.61.13-.18.3-.32.51-.43.21-.11.45-.16.74-.16s.54.06.74.17c.21.12.37.27.5.46.13.19.22.41.28.65.06.25.08.49.07.75h-2.78c0,.16.02.32.07.49M76.92,14.75c-.05-.16-.13-.29-.23-.41-.1-.12-.22-.22-.36-.29s-.3-.11-.48-.11-.34.04-.48.11-.26.17-.36.29c-.1.12-.18.26-.23.41-.06.16-.1.32-.12.48h2.34c0-.17-.03-.33-.09-.48M69.28,13.68v.62h.01c.08-.22.23-.4.45-.53.22-.13.45-.2.71-.2s.46.03.63.1c.17.07.31.16.41.28.1.12.18.26.22.44.04.17.06.37.06.58v2.32h-.44v-2.25c0-.15-.01-.3-.04-.43s-.08-.25-.15-.35c-.07-.1-.16-.17-.28-.23-.12-.06-.27-.08-.44-.08s-.34.03-.47.1c-.14.06-.26.15-.35.26-.1.11-.17.24-.22.39-.05.15-.08.32-.09.49v2.11h-.44v-3.61h.44ZM67.42,15.32c-.03.05-.08.09-.16.11-.08.02-.15.04-.21.05-.19.03-.38.06-.58.09-.2.03-.38.06-.54.12-.16.05-.3.12-.4.22-.1.1-.16.23-.16.41,0,.11.02.21.07.3.04.09.1.16.18.22.07.06.16.11.26.14.1.03.2.05.3.05.17,0,.33-.02.48-.08.15-.05.29-.13.4-.22.11-.1.21-.22.27-.36.07-.14.1-.3.1-.48v-.57h-.01ZM65.21,14.24c.07-.15.18-.28.3-.38.13-.1.28-.17.45-.22.17-.05.36-.07.57-.07.16,0,.32.01.48.05.16.03.3.09.43.17s.23.2.31.35c.08.15.12.35.12.59v1.92c0,.18.09.27.26.27.05,0,.1-.01.14-.03v.37c-.05,0-.1.02-.14.02-.04,0-.09,0-.15,0-.11,0-.2-.02-.27-.05-.07-.03-.12-.07-.16-.13-.04-.06-.06-.12-.07-.2-.01-.08-.02-.16-.02-.26h-.01c-.08.12-.16.22-.24.31-.08.09-.17.17-.27.23-.1.06-.21.11-.34.14-.13.03-.28.05-.46.05s-.33-.02-.47-.06c-.15-.04-.27-.1-.38-.19-.11-.09-.2-.2-.26-.33-.06-.13-.09-.29-.09-.47,0-.25.06-.45.17-.59s.26-.25.44-.33c.18-.08.39-.13.62-.16.23-.03.47-.06.7-.09.09-.01.18-.02.24-.04.07-.02.13-.04.18-.07.05-.03.08-.08.11-.14.03-.06.04-.14.04-.24,0-.15-.03-.27-.07-.37-.05-.1-.12-.17-.2-.23-.09-.06-.19-.09-.3-.12-.11-.02-.24-.03-.37-.03-.28,0-.51.07-.69.2-.18.13-.27.35-.28.64h-.44c.01-.21.06-.39.13-.55M62.03,14.38c-.05-.1-.12-.18-.21-.25-.09-.07-.19-.11-.3-.14-.11-.03-.23-.05-.36-.05-.1,0-.2.01-.3.03-.1.02-.19.06-.28.11-.08.05-.15.11-.2.19-.05.08-.08.18-.08.29,0,.1.02.18.07.25.05.07.11.12.19.17.07.05.16.09.24.12.09.03.17.06.25.07l.59.13c.13.02.25.05.37.1.12.05.23.11.33.19.1.08.17.18.24.29.06.12.09.25.09.41,0,.2-.04.36-.13.5s-.2.25-.34.34c-.14.09-.29.15-.47.18-.17.04-.34.06-.51.06-.42,0-.77-.1-1.03-.3-.26-.2-.41-.52-.45-.97h.44c.02.3.13.52.33.68.2.15.44.23.74.23.11,0,.22-.01.33-.03.11-.02.22-.06.32-.12.1-.06.18-.13.24-.21.06-.09.1-.19.1-.32,0-.11-.02-.2-.07-.27-.04-.07-.1-.13-.18-.18-.07-.05-.16-.09-.26-.12-.09-.03-.19-.06-.29-.08l-.57-.13c-.15-.04-.28-.08-.4-.13s-.23-.11-.32-.18c-.09-.07-.16-.16-.21-.27s-.08-.23-.08-.39c0-.18.04-.34.12-.47.08-.13.19-.24.32-.32.13-.08.28-.14.44-.17.16-.04.32-.06.48-.06.18,0,.35.02.51.07.16.05.29.12.41.22.12.1.21.22.28.36.07.14.11.32.12.51h-.44c0-.14-.03-.25-.08-.35M59.03,17.29h-.44v-3.61h.44v3.61ZM59.03,13h-.44v-.71h.44v.71ZM53.47,16.1c.04.17.12.32.21.46.1.13.22.25.37.34.15.09.33.13.54.13.32,0,.57-.08.76-.25.18-.17.31-.39.38-.67h.44c-.09.41-.27.73-.51.95-.25.22-.6.34-1.06.34-.28,0-.53-.05-.74-.15-.21-.1-.38-.24-.51-.41-.13-.18-.23-.38-.29-.61-.06-.23-.1-.48-.1-.73,0-.24.03-.47.1-.7.06-.23.16-.43.29-.61.13-.18.3-.32.51-.43.21-.11.45-.16.74-.16s.54.06.74.17c.21.12.37.27.5.46.13.19.22.41.28.65.06.25.08.49.07.75h-2.78c0,.16.02.32.07.49M55.66,14.75c-.05-.16-.13-.29-.23-.41-.1-.12-.22-.22-.36-.29s-.3-.11-.48-.11-.34.04-.48.11-.26.17-.36.29c-.1.12-.18.26-.23.41-.06.16-.1.32-.12.48h2.34c0-.17-.03-.33-.09-.48M51.8,14.38c-.05-.1-.12-.18-.21-.25-.09-.07-.19-.11-.3-.14-.11-.03-.23-.05-.36-.05-.1,0-.2.01-.3.03-.1.02-.19.06-.28.11-.08.05-.15.11-.2.19-.05.08-.08.18-.08.29,0,.1.02.18.07.25.05.07.11.12.19.17.08.05.16.09.24.12s.17.06.25.07l.59.13c.13.02.25.05.38.1.12.05.23.11.33.19.09.08.17.18.23.29.06.12.09.25.09.41,0,.2-.04.36-.13.5s-.2.25-.34.34c-.14.09-.29.15-.47.18-.17.04-.34.06-.51.06-.42,0-.77-.1-1.03-.3-.26-.2-.42-.52-.45-.97h.44c.02.3.13.52.33.68.2.15.44.23.74.23.11,0,.22-.01.33-.03.11-.02.22-.06.32-.12.1-.06.18-.13.24-.21.06-.09.09-.19.09-.32,0-.11-.02-.2-.07-.27-.04-.07-.1-.13-.18-.18-.08-.05-.16-.09-.26-.12-.1-.03-.19-.06-.29-.08l-.57-.13c-.14-.04-.28-.08-.4-.13s-.23-.11-.32-.18-.16-.16-.21-.27c-.05-.11-.08-.23-.08-.39,0-.18.04-.34.12-.47.08-.13.19-.24.32-.32.13-.08.28-.14.44-.17.16-.04.32-.06.48-.06.18,0,.35.02.51.07.16.05.29.12.41.22.12.1.21.22.28.36.07.14.11.32.12.51h-.44c0-.14-.03-.25-.08-.35M48.41,17.29v-.65h-.01c-.12.24-.29.43-.51.56-.22.13-.47.19-.74.19-.23,0-.42-.03-.58-.09-.16-.06-.29-.15-.39-.27-.1-.12-.17-.26-.22-.43-.05-.17-.07-.36-.07-.57v-2.35h.44v2.35c0,.33.08.57.23.74.14.17.39.25.74.25.19,0,.35-.04.49-.12.13-.08.25-.19.34-.33.09-.13.15-.29.2-.46.04-.18.06-.35.06-.54v-1.9h.44v3.61h-.41ZM44.19,13.73c.21.1.39.24.53.41.15.17.25.38.33.61.08.23.11.48.11.74s-.04.51-.11.74c-.08.23-.18.43-.33.61-.15.17-.32.31-.53.41-.21.1-.46.15-.73.15s-.52-.05-.73-.15c-.21-.1-.39-.24-.54-.41-.14-.17-.25-.37-.33-.61-.08-.23-.11-.48-.11-.74s.04-.51.11-.74c.08-.23.18-.43.33-.61.15-.17.32-.31.54-.41.21-.1.46-.15.73-.15s.52.05.73.15M42.9,14.08c-.16.09-.29.2-.4.35-.1.14-.18.31-.24.49-.05.18-.08.37-.08.56s.03.38.08.56c.05.18.13.35.24.49.1.14.24.26.4.35.16.09.34.13.55.13s.39-.04.55-.13c.16-.09.29-.21.4-.35.1-.14.18-.31.24-.49.05-.18.08-.37.08-.56s-.03-.38-.08-.56c-.05-.18-.13-.35-.24-.49-.11-.14-.24-.26-.4-.35-.16-.09-.34-.13-.55-.13s-.39.05-.55.13M37.49,12.29v2.17h2.97v-2.17h.48v5h-.48v-2.42h-2.97v2.42h-.48v-5h.48ZM33.84,14.38c-.05-.1-.12-.18-.21-.25-.09-.07-.18-.11-.3-.14-.11-.03-.23-.05-.36-.05-.1,0-.2.01-.3.03-.1.02-.19.06-.28.11-.08.05-.15.11-.2.19-.05.08-.08.18-.08.29,0,.1.02.18.07.25.05.07.11.12.19.17.08.05.16.09.25.12s.17.06.24.07l.59.13c.13.02.25.05.37.1.12.05.23.11.33.19.1.08.17.18.24.29.06.12.09.25.09.41,0,.2-.04.36-.13.5s-.2.25-.34.34c-.14.09-.29.15-.47.18-.17.04-.34.06-.51.06-.43,0-.77-.1-1.03-.3-.26-.2-.41-.52-.45-.97h.44c.02.3.13.52.33.68.2.15.44.23.74.23.11,0,.22-.01.33-.03.12-.02.22-.06.32-.12s.18-.13.24-.21c.06-.09.09-.19.09-.32,0-.11-.02-.2-.07-.27-.04-.07-.1-.13-.18-.18-.08-.05-.16-.09-.26-.12-.1-.03-.19-.06-.29-.08l-.57-.13c-.15-.04-.28-.08-.4-.13-.12-.05-.23-.11-.32-.18-.09-.07-.16-.16-.21-.27s-.08-.23-.08-.39c0-.18.04-.34.12-.47.08-.13.19-.24.32-.32.13-.08.28-.14.44-.17.16-.04.32-.06.48-.06.18,0,.35.02.51.07.16.05.29.12.41.22.12.1.21.22.28.36.07.14.11.32.12.51h-.44c0-.14-.03-.25-.08-.35M28.35,16.1c.04.17.12.32.21.46.1.13.22.25.37.34.15.09.33.13.54.13.32,0,.57-.08.76-.25.18-.17.31-.39.38-.67h.44c-.09.41-.26.73-.51.95-.25.22-.6.34-1.06.34-.28,0-.53-.05-.74-.15-.21-.1-.38-.24-.51-.41-.13-.18-.23-.38-.29-.61-.06-.23-.1-.48-.1-.73,0-.24.03-.47.1-.7.06-.23.16-.43.29-.61.13-.18.3-.32.51-.43.21-.11.45-.16.74-.16s.54.06.74.17c.21.12.37.27.5.46.13.19.22.41.28.65.06.25.08.49.07.75h-2.78c0,.16.02.32.07.49M30.53,14.75c-.05-.16-.13-.29-.23-.41-.1-.12-.22-.22-.36-.29s-.3-.11-.48-.11-.34.04-.48.11c-.14.07-.26.17-.36.29-.1.12-.18.26-.23.41-.06.16-.1.32-.12.48h2.34c0-.17-.03-.33-.09-.48M27.09,17.29h-.44v-3.61h.44v3.61ZM27.09,13h-.44v-.71h.44v.71ZM23.26,13.68v.62h.01c.08-.22.23-.4.45-.53.21-.13.45-.2.71-.2s.46.03.63.1c.17.07.31.16.41.28.1.12.17.26.22.44.04.17.06.37.06.58v2.32h-.44v-2.25c0-.15-.01-.3-.04-.43s-.08-.25-.15-.35c-.07-.1-.17-.17-.28-.23-.12-.06-.27-.08-.44-.08s-.33.03-.47.1c-.14.06-.25.15-.35.26s-.17.24-.22.39c-.05.15-.08.32-.09.49v2.11h-.44v-3.61h.44ZM21.4,15.32c-.03.05-.08.09-.16.11-.08.02-.15.04-.21.05-.19.03-.38.06-.58.09-.2.03-.38.06-.54.12-.16.05-.3.12-.4.22s-.16.23-.16.41c0,.11.02.21.07.3.04.09.1.16.18.22.08.06.16.11.26.14.1.03.2.05.3.05.17,0,.33-.02.48-.08.15-.05.29-.13.4-.22.11-.1.2-.22.27-.36.07-.14.1-.3.1-.48v-.57h-.01ZM19.19,14.24c.08-.15.18-.28.31-.38.13-.1.28-.17.45-.22.17-.05.36-.07.57-.07.16,0,.32.01.48.05.16.03.3.09.43.17.13.08.23.2.31.35.08.15.12.35.12.59v1.92c0,.18.09.27.26.27.05,0,.1-.01.14-.03v.37c-.05,0-.1.02-.14.02-.04,0-.09,0-.15,0-.11,0-.2-.02-.27-.05-.07-.03-.12-.07-.16-.13-.04-.06-.06-.12-.07-.2-.01-.08-.02-.16-.02-.26h-.01c-.08.12-.16.22-.24.31-.08.09-.17.17-.27.23-.1.06-.22.11-.34.14-.13.03-.28.05-.46.05-.17,0-.33-.02-.47-.06s-.28-.1-.39-.19c-.11-.09-.2-.2-.26-.33-.06-.13-.09-.29-.09-.47,0-.25.06-.45.17-.59.11-.14.26-.25.44-.33.18-.08.39-.13.62-.16.23-.03.47-.06.7-.09.09-.01.17-.02.24-.04.07-.02.13-.04.17-.07.05-.03.08-.08.11-.14.02-.06.04-.14.04-.24,0-.15-.02-.27-.07-.37-.05-.1-.12-.17-.2-.23-.09-.06-.19-.09-.3-.12-.11-.02-.24-.03-.37-.03-.28,0-.51.07-.69.2-.18.13-.27.35-.28.64h-.44c.01-.21.06-.39.13-.55M17.85,14.93c-.04-.18-.11-.35-.21-.49-.1-.14-.22-.26-.37-.35-.15-.09-.33-.14-.54-.14-.24,0-.44.04-.61.13-.16.08-.29.2-.39.34s-.17.3-.21.49c-.04.19-.06.38-.06.59,0,.19.02.37.07.56s.12.35.22.49c.1.14.23.26.39.35.16.09.36.14.59.14.21,0,.39-.05.54-.14.15-.09.27-.21.37-.35.1-.14.17-.31.21-.49.04-.18.07-.37.07-.56s-.02-.37-.07-.56M15.44,13.68v.69h.01c.1-.25.27-.45.5-.59.23-.14.49-.21.79-.21.28,0,.52.05.72.15.2.1.37.24.51.42.14.18.24.38.3.61.07.23.1.47.1.73s-.03.5-.1.73c-.06.23-.17.43-.3.61-.14.17-.3.31-.51.41-.2.1-.44.15-.72.15-.13,0-.26-.02-.39-.05-.13-.03-.25-.08-.36-.15-.11-.07-.21-.15-.3-.24-.09-.1-.15-.21-.2-.34h-.01v2.02h-.44v-4.94h.41ZM9.54,13.68v.61h.02c.12-.22.27-.4.46-.52.19-.13.43-.19.72-.19.24,0,.45.06.65.17.19.12.32.3.39.53.11-.24.27-.41.48-.53.21-.12.43-.17.67-.17.8,0,1.2.42,1.2,1.27v2.45h-.44v-2.43c0-.3-.06-.53-.19-.68s-.35-.24-.66-.24c-.19,0-.35.04-.48.11s-.23.17-.3.29c-.08.12-.13.26-.16.42-.03.16-.05.32-.05.49v2.05h-.44v-2.45c0-.12-.01-.24-.04-.35-.03-.11-.07-.2-.13-.29-.06-.08-.14-.15-.24-.19-.1-.05-.22-.07-.36-.07-.19,0-.35.03-.49.1-.14.07-.25.16-.34.28-.09.12-.15.26-.19.42-.04.16-.06.34-.06.53v2.02h-.44v-3.61h.41ZM7.43,13.73c.21.1.39.24.53.41.15.17.25.38.33.61.07.23.11.48.11.74s-.04.51-.11.74c-.08.23-.18.43-.33.61-.15.17-.32.31-.53.41-.21.1-.46.15-.73.15s-.52-.05-.73-.15c-.21-.1-.39-.24-.54-.41-.14-.17-.25-.37-.33-.61-.07-.23-.11-.48-.11-.74s.04-.51.11-.74c.07-.23.18-.43.33-.61.15-.17.32-.31.54-.41.21-.1.46-.15.73-.15s.52.05.73.15M6.14,14.08c-.16.09-.29.2-.4.35-.1.14-.18.31-.24.49-.05.18-.08.37-.08.56s.03.38.08.56c.05.18.13.35.24.49.1.14.24.26.4.35.16.09.34.13.55.13s.39-.04.55-.13c.16-.09.29-.21.4-.35.11-.14.18-.31.24-.49.05-.18.08-.37.08-.56s-.03-.38-.08-.56c-.05-.18-.13-.35-.24-.49-.1-.14-.24-.26-.4-.35-.16-.09-.34-.13-.55-.13s-.39.05-.55.13M3.69,13.29c-.1-.15-.21-.28-.35-.38-.14-.1-.29-.18-.45-.23-.17-.05-.34-.08-.52-.08-.33,0-.62.06-.85.19-.24.12-.43.29-.58.5-.15.21-.26.44-.34.7-.07.26-.11.53-.11.8s.04.54.11.8c.07.26.18.5.34.71.15.21.35.38.58.5.24.13.52.19.85.19.23,0,.44-.04.63-.13.19-.08.35-.2.48-.34.14-.14.24-.31.33-.51.08-.19.14-.4.16-.63h.48c-.03.31-.1.59-.22.83-.11.25-.26.46-.43.63-.18.17-.39.31-.63.4-.24.09-.51.14-.8.14-.39,0-.74-.07-1.03-.21-.3-.14-.54-.33-.74-.57-.2-.24-.34-.51-.44-.83-.1-.31-.15-.64-.15-.99s.05-.67.15-.99c.1-.31.24-.59.44-.83.2-.24.44-.43.74-.57.3-.14.64-.21,1.03-.21.24,0,.47.03.7.11.23.07.43.17.62.31s.34.31.46.51c.12.2.2.43.23.69h-.48c-.04-.19-.11-.36-.21-.51"/>
  <g id="Black-billingual-logo">
    <g id="Black-billingual-logo-2" data-name="Black-billingual-logo">
      <g>
        <path class="cls-1" d="M454.85,16.77h.04c.06,0,.1,0,.11,0,.01,0,.03-.01.04-.02,0-.01.01-.03.01-.04s0-.03-.01-.04c0-.01-.02-.02-.04-.02-.02,0-.05,0-.11,0h-.04v.14ZM454.74,17.07v-.52h.11c.1,0,.16,0,.17,0,.04,0,.06.01.08.02.02.01.04.03.05.05.01.02.02.05.02.07,0,.04-.01.07-.04.1-.03.03-.06.04-.1.05.02,0,.03.01.04.02,0,0,.02.02.04.04,0,0,.02.03.04.06l.06.11h-.13l-.04-.09c-.03-.06-.05-.09-.07-.11-.02-.02-.04-.02-.07-.02h-.03v.22h-.11ZM454.97,16.41c-.07,0-.13.02-.2.05-.06.03-.11.08-.15.15-.04.06-.05.13-.05.2s.02.14.05.2c.04.06.08.11.15.15.06.04.13.05.2.05s.14-.02.2-.05c.06-.04.11-.08.15-.15.04-.06.05-.13.05-.2s-.02-.14-.05-.2c-.04-.06-.09-.11-.15-.15-.06-.03-.13-.05-.2-.05M454.97,16.31c.08,0,.17.02.24.06.08.04.14.1.18.18.04.08.07.16.07.25s-.02.17-.07.25c-.04.08-.1.14-.18.18-.08.04-.16.07-.25.07s-.17-.02-.25-.07c-.08-.04-.14-.1-.18-.18-.04-.08-.07-.16-.07-.25s.02-.17.07-.25c.04-.08.11-.14.18-.18.08-.04.16-.06.24-.06"/>
        <path class="cls-1" d="M442.74,16.49c0,.51-.35.8-.79.8s-.82-.34-.82-.88c0-.16.03-.31.08-.41h.29c-.08.14-.11.27-.11.4,0,.37.26.53.53.53.3,0,.54-.19.54-.5,0-.15-.04-.27-.11-.39l.23-.09c.11.18.16.36.16.53"/>
        <path class="cls-1" d="M442.55,14.55c.12.12.18.29.18.52s-.05.4-.16.52c-.1.11-.26.15-.44.15h-.99v-.32h.97c.11,0,.2-.04.26-.09.06-.06.1-.15.1-.26,0-.13-.03-.22-.1-.27-.06-.05-.14-.08-.24-.08h-.98v-.33h.96c.19,0,.35.05.46.16"/>
        <path class="cls-1" d="M442.74,13.66c0,.23-.07.39-.15.5l-.24-.13c.06-.1.12-.22.12-.36,0-.11-.04-.24-.16-.24-.21,0-.24.38-.46.57-.07.06-.16.1-.28.1-.24,0-.45-.19-.45-.53,0-.17.04-.31.1-.4h.28c-.07.14-.11.25-.11.38,0,.12.05.21.14.21.27,0,.25-.68.74-.68.29,0,.46.25.46.58"/>
        <polygon class="cls-1" points="441.14 12.98 441.41 12.98 441.41 12.51 442.71 12.51 442.71 12.19 441.41 12.19 441.41 11.76 441.14 11.69 441.14 12.98"/>
        <path class="cls-1" d="M442.5,10.31c.15.15.23.35.23.59,0,.23-.07.42-.19.56-.15.16-.36.25-.6.25s-.44-.08-.59-.23c-.15-.14-.23-.34-.23-.58,0-.26.09-.47.24-.61.14-.13.34-.2.56-.2s.43.08.58.22M441.39,10.91c0,.27.2.47.54.47s.54-.2.54-.47-.2-.46-.54-.46-.54.19-.54.46"/>
        <path class="cls-1" d="M442.71,8.57h-.87c-.06,0-.11,0-.17,0h0s.12.08.16.1l.45.29v.15l-.46.32s-.09.07-.15.1h0c.06,0,.11,0,.16,0h.88v.32h-1.57v-.3l.59-.41c.06-.05.12-.08.18-.11h0c-.05-.03-.11-.06-.19-.11l-.58-.38v-.3h1.57v.32Z"/>
        <polygon class="cls-1" points="441.14 7.94 442.71 7.94 442.71 7.03 442.45 7.03 442.45 7.61 442.04 7.61 442.04 7.11 441.78 7.11 441.78 7.61 441.41 7.61 441.41 7.12 441.14 7.03 441.14 7.94"/>
        <path class="cls-1" d="M442.71,5.95c-.41.24-.58.33-.61.39v.12h.61v.33h-1.57v-.46c0-.42.21-.57.45-.57.21,0,.34.14.41.29h0c.05-.08.31-.23.71-.47v.37ZM441.41,6.32v.14h.46v-.14c0-.14-.11-.24-.24-.24-.12,0-.21.09-.21.24"/>
        <path class="cls-1" d="M444.75,16.83c0,.2-.07.34-.12.43l-.14-.08c.04-.06.11-.19.11-.34,0-.14-.07-.31-.24-.31-.28,0-.33.38-.54.57-.07.07-.16.11-.28.11-.22,0-.39-.17-.39-.45,0-.17.04-.28.08-.35h.19c-.06.08-.1.22-.1.34,0,.15.06.29.21.29.35,0,.35-.7.83-.7.24,0,.41.21.41.5"/>
        <polygon class="cls-1" points="444.72 16.01 443.15 16.01 443.15 15.24 443.31 15.31 443.31 15.84 443.84 15.84 443.84 15.32 444 15.32 444 15.84 444.56 15.84 444.56 15.24 444.72 15.24 444.72 16.01"/>
        <path class="cls-1" d="M444.72,14.08c-.4.25-.65.4-.67.47v.17h.67v.17h-1.57v-.32c0-.37.19-.52.42-.52s.37.14.42.31h0c.02-.05.32-.23.72-.48v.21ZM443.31,14.57v.15h.59v-.16c0-.18-.14-.32-.31-.32-.15,0-.28.08-.28.33"/>
        <path class="cls-1" d="M444.73,13.14v.1l-1.58.62v-.19l1.05-.4c.08-.03.16-.06.24-.09h0c-.08-.03-.16-.06-.24-.1l-1.05-.44v-.18l1.58.67Z"/>
        <rect class="cls-1" x="443.15" y="12.04" width="1.57" height=".17"/>
        <path class="cls-1" d="M444.75,10.97c0,.47-.33.75-.79.75s-.82-.32-.82-.78c0-.19.05-.33.09-.4h.19c-.07.11-.12.22-.12.41,0,.35.28.59.65.59s.64-.22.64-.59c0-.13-.04-.26-.1-.37l.14-.05c.08.15.12.3.12.44"/>
        <polygon class="cls-1" points="444.72 10.23 443.15 10.23 443.15 9.46 443.31 9.52 443.31 10.05 443.84 10.05 443.84 9.53 444 9.53 444 10.05 444.56 10.05 444.56 9.45 444.72 9.45 444.72 10.23"/>
        <polygon class="cls-1" points="445.16 17.23 446.74 17.23 446.74 16.32 446.47 16.32 446.47 16.9 446.07 16.9 446.07 16.4 445.8 16.4 445.8 16.9 445.43 16.9 445.43 16.4 445.16 16.31 445.16 17.23"/>
        <polygon class="cls-1" points="445.95 15.24 446.74 14.74 446.74 15.11 446.17 15.47 446.74 15.84 446.74 16.21 445.93 15.66 445.16 16.13 445.16 15.76 445.71 15.43 445.16 15.07 445.16 14.71 445.95 15.24"/>
        <path class="cls-1" d="M446.76,13.93c0,.51-.35.8-.79.8s-.82-.34-.82-.88c0-.16.03-.31.08-.41h.29c-.08.14-.11.27-.11.4,0,.37.26.53.53.53.3,0,.54-.19.54-.5,0-.15-.04-.27-.11-.39l.23-.09c.11.18.16.36.16.53"/>
        <polygon class="cls-1" points="446.74 13.18 445.16 13.18 445.16 12.27 445.43 12.36 445.43 12.86 445.8 12.86 445.8 12.36 446.07 12.36 446.07 12.86 446.47 12.86 446.47 12.27 446.74 12.27 446.74 13.18"/>
        <polygon class="cls-1" points="446.74 12.03 445.16 12.03 445.16 11.71 446.47 11.71 446.47 11.15 446.74 11.15 446.74 12.03"/>
        <polygon class="cls-1" points="446.74 10.98 445.16 10.98 445.16 10.65 446.47 10.65 446.47 10.1 446.74 10.1 446.74 10.98"/>
        <polygon class="cls-1" points="446.74 9.93 445.16 9.93 445.16 9.02 445.43 9.1 445.43 9.6 445.8 9.6 445.8 9.1 446.07 9.1 446.07 9.6 446.47 9.6 446.47 9.02 446.74 9.02 446.74 9.93"/>
        <path class="cls-1" d="M446.74,7.62l-.87.68c-.08.06-.14.1-.21.15h1.08v.32h-1.57v-.33l.84-.66c.08-.06.14-.11.21-.15h-1.04v-.32h1.57v.3Z"/>
        <path class="cls-1" d="M446.76,6.28c0,.51-.35.8-.79.8s-.82-.34-.82-.88c0-.16.03-.31.08-.41h.29c-.08.14-.11.27-.11.4,0,.37.26.53.53.53.3,0,.54-.19.54-.5,0-.15-.04-.27-.11-.39l.23-.09c.11.18.16.36.16.53"/>
        <polygon class="cls-1" points="446.74 5.53 445.16 5.53 445.16 4.62 445.43 4.7 445.43 5.2 445.8 5.2 445.8 4.7 446.07 4.7 446.07 5.2 446.47 5.2 446.47 4.62 446.74 4.62 446.74 5.53"/>
        <path class="cls-1" d="M453.63,11.94h-4.29c-.3,0-.53.24-.53.53v4.29c0,.3.24.53.53.53h4.29c.3,0,.53-.24.53-.53v-4.29c0-.29-.24-.53-.53-.53M452.48,15.97l-.99-.52-.99.52.19-1.1-.8-.78,1.11-.16.49-1,.5,1,1.11.16-.8.78.19,1.1Z"/>
        <path class="cls-1" d="M450.7,3.72l2.1-1.02-2.1-1.07v2.09ZM453.63,0h-4.28c-.29,0-.53.24-.53.53v4.28c0,.29.24.53.53.53h4.28c.3,0,.53-.24.53-.53V.53c0-.29-.24-.53-.53-.53M451.49,4.26c-.88,0-1.59-.71-1.59-1.58s.71-1.59,1.59-1.59,1.58.71,1.58,1.59-.71,1.58-1.58,1.58"/>
        <path class="cls-1" d="M453.63,5.99h-4.29c-.3,0-.53.24-.53.53v4.29c0,.3.24.53.53.53h4.29c.3,0,.53-.24.53-.53v-4.29c0-.3-.24-.53-.53-.53M450.32,9.66c-.61,0-.96-.42-.96-.97s.41-.99,1.04-.99c.2,0,.38.04.5.1v.32c-.16-.1-.32-.14-.49-.14-.44,0-.67.32-.67.68,0,.39.24.69.64.69.17,0,.33-.05.47-.13l.1.25c-.21.13-.42.18-.62.18M451.64,9.66c-.25,0-.42-.08-.52-.15l.1-.17c.07.05.23.13.42.13.17,0,.38-.08.38-.29,0-.34-.46-.41-.69-.66-.08-.09-.14-.2-.14-.35,0-.27.2-.48.55-.48.2,0,.34.05.42.09v.23c-.1-.07-.26-.12-.42-.12-.19,0-.35.08-.35.26,0,.43.85.43.85,1.01,0,.3-.26.5-.6.5M453.53,8.5v.29h-.62v.54h.71v.29h-1.07v-1.91h1.07l-.1.29h-.62v.5h.62Z"/>
        <polygon class="cls-1" points="459.99 13.82 459.43 13.82 458.97 12.23 458.96 12.23 458.49 13.82 457.93 13.82 457.26 11.47 457.87 11.47 458.24 13.03 458.25 13.03 458.67 11.47 459.26 11.47 459.68 13.03 459.69 13.03 460.07 11.47 460.66 11.47 459.99 13.82"/>
        <path class="cls-1" d="M462.39,13.01v.07s0,.04,0,.06h-1.2s.02.09.04.13c.02.04.05.07.09.1.04.03.08.05.12.06s.09.02.14.02c.09,0,.16-.02.22-.05.06-.03.11-.07.15-.12l.38.24c-.08.11-.18.2-.31.26-.13.06-.27.09-.44.09-.12,0-.24-.02-.35-.06-.11-.04-.21-.09-.29-.17-.08-.07-.15-.17-.2-.27-.05-.11-.07-.23-.07-.37s.02-.26.07-.37c.05-.11.11-.2.19-.28.08-.08.17-.14.28-.18s.23-.06.35-.06.23.02.33.06c.1.04.19.1.26.18.07.08.13.17.17.28.04.11.06.24.06.38M461.89,12.8c0-.09-.03-.16-.08-.22-.05-.06-.14-.09-.24-.09-.05,0-.1,0-.15.03-.04.02-.08.04-.12.07-.03.03-.06.06-.08.1-.02.04-.03.08-.03.12h.7Z"/>
        <path class="cls-1" d="M464.11,11.64s0,.08-.02.12c-.02.04-.04.07-.07.09-.03.03-.06.05-.1.06-.04.02-.08.02-.12.02-.09,0-.16-.03-.22-.09-.06-.06-.09-.13-.09-.21,0-.04,0-.08.02-.11.02-.04.04-.07.07-.09.03-.03.06-.05.1-.06.04-.02.08-.02.12-.02s.08,0,.12.02c.04.02.07.04.1.06.03.03.05.06.07.09.02.04.02.08.02.12M463.53,12.17h.54v1.65h-.54v-1.65Z"/>
        <path class="cls-1" d="M465.58,13.82v-.9s0-.09-.01-.13c0-.04-.02-.08-.04-.11-.02-.03-.04-.06-.07-.08-.03-.02-.07-.03-.12-.03s-.09,0-.13.03c-.04.02-.07.04-.09.08-.02.03-.04.07-.05.11-.01.04-.02.09-.02.13v.89h-.55v-1.65h.53v.23h0s.05-.07.08-.1c.03-.03.07-.06.11-.09.04-.02.09-.04.14-.06.05-.02.1-.02.16-.02.11,0,.2.02.28.06.08.04.14.09.19.15.05.06.08.14.1.22.02.08.03.16.03.25v1.02h-.55Z"/>
        <polygon class="cls-1" points="467.52 13.82 466.94 13.82 466.29 12.17 466.89 12.17 467.24 13.24 467.25 13.24 467.59 12.17 468.17 12.17 467.52 13.82"/>
        <path class="cls-1" d="M470.02,13.01v.07s0,.04,0,.06h-1.19s.02.09.04.13c.02.04.05.07.09.1.04.03.08.05.12.06s.09.02.14.02c.09,0,.16-.02.22-.05.06-.03.11-.07.15-.12l.38.24c-.08.11-.18.2-.31.26-.13.06-.27.09-.44.09-.12,0-.24-.02-.35-.06-.11-.04-.21-.09-.29-.17-.08-.07-.15-.17-.2-.27-.05-.11-.07-.23-.07-.37s.02-.26.07-.37c.05-.11.11-.2.19-.28.08-.08.17-.14.28-.18.11-.04.23-.06.35-.06s.23.02.33.06c.1.04.19.1.26.18.07.08.13.17.17.28.04.11.06.24.06.38M469.52,12.8c0-.09-.03-.16-.08-.22-.05-.06-.14-.09-.24-.09-.05,0-.1,0-.15.03-.04.02-.08.04-.12.07-.03.03-.06.06-.08.1-.02.04-.03.08-.03.12h.7Z"/>
        <path class="cls-1" d="M471.3,12.66s-.1-.08-.16-.11c-.06-.03-.12-.04-.19-.04-.05,0-.1,0-.14.03-.04.02-.06.05-.06.1,0,.05.02.08.07.1.05.02.12.04.23.07.06.01.12.03.19.06.06.02.12.06.17.1.05.04.09.09.12.15.03.06.05.13.05.21,0,.1-.02.19-.06.26-.04.07-.1.13-.16.17-.07.04-.14.08-.23.1-.08.02-.17.03-.25.03-.13,0-.27-.02-.4-.06-.13-.04-.24-.11-.32-.19l.3-.32c.05.05.11.1.18.13.07.04.15.05.23.05.04,0,.09-.01.13-.03.04-.02.06-.06.06-.11s-.03-.09-.08-.11c-.05-.02-.14-.05-.25-.08-.06-.01-.11-.03-.17-.05-.06-.02-.11-.05-.15-.09-.05-.04-.08-.08-.11-.14-.03-.06-.04-.12-.04-.2,0-.1.02-.18.06-.25.04-.07.1-.13.16-.17.07-.04.14-.08.22-.1.08-.02.16-.03.24-.03.12,0,.24.02.36.06.12.04.22.1.3.17l-.3.31Z"/>
        <path class="cls-1" d="M472.48,12.57v.63c0,.08.02.14.04.17.03.04.08.06.16.06.03,0,.05,0,.08,0,.03,0,.05-.01.07-.02v.4s-.08.02-.14.03c-.06,0-.11.02-.17.02-.11,0-.2-.01-.28-.04-.08-.03-.14-.07-.18-.12-.05-.05-.08-.11-.1-.19-.02-.07-.03-.15-.03-.24v-.7h-.26v-.4h.26v-.43h.53v.43h.39v.4h-.39Z"/>
        <path class="cls-1" d="M474.51,11.64s0,.08-.02.12c-.02.04-.04.07-.07.09-.03.03-.06.05-.1.06-.04.02-.08.02-.12.02-.09,0-.16-.03-.22-.09s-.09-.13-.09-.21c0-.04,0-.08.02-.11.02-.04.04-.07.07-.09.03-.03.06-.05.1-.06.04-.02.08-.02.12-.02s.08,0,.12.02c.04.02.07.04.1.06.03.03.05.06.07.09.02.04.02.08.02.12M473.92,12.17h.54v1.65h-.54v-1.65Z"/>
        <path class="cls-1" d="M475.98,13.82v-.9s0-.09-.01-.13c0-.04-.02-.08-.04-.11-.02-.03-.04-.06-.07-.08-.03-.02-.07-.03-.12-.03s-.09,0-.13.03c-.04.02-.07.04-.09.08-.02.03-.04.07-.05.11-.01.04-.02.09-.02.13v.89h-.55v-1.65h.53v.23h0s.05-.07.08-.1c.03-.03.07-.06.11-.09.04-.02.09-.04.14-.06.05-.02.1-.02.16-.02.11,0,.2.02.28.06.08.04.14.09.19.15.05.06.08.14.1.22.02.08.03.16.03.25v1.02h-.55Z"/>
        <path class="cls-1" d="M479.6,12.99c0,.11-.02.23-.05.33-.04.11-.09.2-.15.28-.07.08-.15.15-.25.19-.1.05-.21.07-.33.07-.1,0-.2-.02-.29-.06-.09-.04-.16-.1-.21-.17h0v.98h-.54v-2.44h.52v.2h0c.05-.07.12-.12.21-.17.09-.05.19-.07.32-.07s.23.02.32.07c.1.05.18.11.25.19.07.08.12.17.16.28.04.1.05.21.05.33M479.07,12.99c0-.05,0-.1-.02-.16-.02-.05-.04-.1-.07-.13-.03-.04-.07-.07-.12-.09-.05-.02-.1-.04-.17-.04s-.12.01-.17.04c-.05.02-.09.06-.12.1-.03.04-.06.09-.08.14-.02.05-.03.1-.03.16s0,.11.03.16c.02.05.05.1.08.14.03.04.08.07.12.1.05.02.1.04.17.04s.12-.01.17-.04c.05-.02.09-.06.12-.1.03-.04.06-.09.07-.14.02-.05.02-.1.02-.16"/>
        <path class="cls-1" d="M481.55,13.01v.07s0,.04,0,.06h-1.2s.02.09.04.13c.02.04.05.07.09.1.04.03.08.05.12.06.05.02.09.02.14.02.09,0,.16-.02.22-.05.06-.03.11-.07.15-.12l.38.24c-.08.11-.18.2-.31.26-.13.06-.27.09-.44.09-.12,0-.24-.02-.35-.06-.11-.04-.21-.09-.29-.17-.08-.07-.15-.17-.2-.27-.05-.11-.07-.23-.07-.37s.02-.26.07-.37c.05-.11.11-.2.19-.28.08-.08.17-.14.28-.18s.23-.06.35-.06.23.02.33.06c.1.04.19.1.26.18.07.08.13.17.17.28.04.11.06.24.06.38M481.05,12.8c0-.09-.03-.16-.08-.22-.05-.06-.14-.09-.24-.09-.05,0-.1,0-.15.03-.04.02-.08.04-.12.07-.03.03-.06.06-.08.1s-.03.08-.03.12h.7Z"/>
        <path class="cls-1" d="M483.62,12.99c0,.13-.02.26-.07.37-.05.11-.11.2-.2.28-.08.08-.18.14-.29.18-.11.04-.23.06-.35.06s-.24-.02-.35-.06c-.11-.04-.21-.1-.29-.18-.08-.08-.15-.17-.2-.28-.05-.11-.07-.23-.07-.37s.02-.26.07-.36c.05-.11.11-.2.2-.28.08-.07.18-.13.29-.17.11-.04.23-.06.35-.06s.24.02.35.06c.11.04.21.1.29.17.08.08.15.17.2.28.05.11.07.23.07.36M483.09,12.99c0-.05,0-.1-.03-.16-.02-.05-.04-.1-.08-.13-.03-.04-.07-.07-.12-.09-.05-.02-.1-.04-.17-.04s-.12.01-.17.04c-.05.02-.09.06-.12.09-.03.04-.06.08-.07.13-.02.05-.02.1-.02.16s0,.1.02.16c.02.05.04.1.07.14.03.04.07.07.12.1.05.02.1.04.17.04s.12-.01.17-.04c.05-.02.09-.06.12-.1.03-.04.06-.09.07-.14.02-.05.03-.1.03-.16"/>
        <path class="cls-1" d="M485.78,12.99c0,.11-.02.23-.05.33-.04.11-.09.2-.15.28-.07.08-.15.15-.25.19-.1.05-.21.07-.33.07-.1,0-.2-.02-.29-.06-.09-.04-.16-.1-.21-.17h0v.98h-.54v-2.44h.52v.2h.01c.05-.07.12-.12.21-.17.09-.05.19-.07.32-.07s.23.02.32.07c.1.05.18.11.25.19.07.08.12.17.16.28.04.1.05.21.05.33M485.25,12.99c0-.05,0-.1-.03-.16-.02-.05-.04-.1-.07-.13-.03-.04-.07-.07-.12-.09-.05-.02-.1-.04-.17-.04s-.12.01-.17.04c-.05.02-.09.06-.12.1-.03.04-.06.09-.08.14-.02.05-.03.1-.03.16s0,.11.03.16c.02.05.05.1.08.14.03.04.08.07.12.1.05.02.1.04.17.04s.12-.01.17-.04c.05-.02.09-.06.12-.1.03-.04.06-.09.07-.14.02-.05.03-.1.03-.16"/>
        <rect class="cls-1" x="486.13" y="11.31" width=".55" height="2.5"/>
        <path class="cls-1" d="M488.73,13.01v.07s0,.04,0,.06h-1.2s.02.09.04.13c.02.04.05.07.09.1.04.03.08.05.12.06.05.02.09.02.14.02.09,0,.16-.02.22-.05.06-.03.11-.07.15-.12l.38.24c-.08.11-.18.2-.31.26-.13.06-.27.09-.44.09-.12,0-.24-.02-.35-.06-.11-.04-.21-.09-.29-.17-.08-.07-.15-.17-.2-.27-.05-.11-.07-.23-.07-.37s.02-.26.07-.37c.05-.11.11-.2.19-.28.08-.08.17-.14.28-.18.11-.04.23-.06.35-.06s.23.02.33.06c.1.04.19.1.26.18.07.08.13.17.17.28.04.11.06.24.06.38M488.23,12.8c0-.09-.03-.16-.08-.22-.05-.06-.14-.09-.24-.09-.05,0-.1,0-.15.03-.04.02-.08.04-.12.07-.03.03-.06.06-.08.1-.02.04-.03.08-.03.12h.7Z"/>
        <path class="cls-1" d="M490.79,11.47h.66c.12,0,.23.01.32.04.1.03.18.06.25.12.07.05.12.12.16.2.04.08.06.17.06.28s-.02.2-.06.28c-.04.08-.09.14-.16.2-.07.05-.15.09-.25.12-.1.03-.21.04-.33.04h-.42v1.09h-.24v-2.34ZM491.02,12.53h.4c.19,0,.33-.04.43-.11.1-.07.15-.18.15-.32s-.05-.25-.15-.32c-.1-.07-.24-.1-.42-.1h-.4v.85Z"/>
        <rect class="cls-1" x="492.7" y="11.31" width=".23" height="2.5"/>
        <path class="cls-1" d="M494.49,12.81c0-.13-.04-.23-.11-.3-.07-.07-.17-.1-.31-.1-.09,0-.18.02-.26.05-.08.03-.15.08-.2.13l-.13-.15c.06-.06.15-.12.25-.16.11-.04.22-.06.36-.06.08,0,.16.01.24.04.07.02.14.06.19.1.06.05.1.1.13.18.03.07.05.15.05.25v.68c0,.06,0,.12,0,.19,0,.06.01.12.02.16h-.2s-.01-.08-.02-.12c0-.04,0-.09,0-.13h0c-.07.1-.15.18-.24.22-.09.05-.2.07-.32.07-.06,0-.12,0-.18-.03-.06-.02-.12-.04-.17-.08-.05-.04-.09-.09-.13-.15-.03-.06-.05-.13-.05-.22,0-.12.03-.21.09-.28.06-.07.14-.12.24-.16.1-.03.22-.06.35-.07.13,0,.27-.02.41-.02v-.05ZM494.42,13.04c-.09,0-.19,0-.28.01-.09,0-.18.02-.26.05-.08.02-.14.06-.19.1-.05.04-.07.1-.07.18,0,.06.01.1.03.14.02.04.05.07.08.09.04.02.07.04.12.05.04,0,.09.02.13.02.08,0,.15-.01.21-.04.06-.03.11-.07.16-.11.04-.05.07-.1.1-.16.02-.06.03-.13.03-.2v-.12h-.07Z"/>
        <path class="cls-1" d="M495.94,12.46h-.44v.9c0,.06,0,.11.02.14.01.04.03.07.05.09s.05.04.07.04c.03,0,.06.01.09.01.03,0,.06,0,.1-.01.03,0,.07-.02.1-.04v.2s-.07.03-.11.03c-.04,0-.09.01-.14.01-.04,0-.09,0-.13-.02-.05-.01-.09-.03-.13-.06-.04-.03-.07-.07-.1-.13-.03-.05-.04-.12-.04-.21v-.97h-.32v-.19h.32v-.44h.22v.44h.44v.19Z"/>
        <path class="cls-1" d="M496.57,11.67s-.02.08-.05.11c-.03.03-.07.04-.11.04s-.08-.01-.11-.04c-.03-.03-.05-.07-.05-.11s.02-.08.05-.11c.03-.03.07-.04.11-.04s.08.02.11.04c.03.03.05.07.05.11M496.52,13.82h-.23v-1.55h.23v1.55Z"/>
        <path class="cls-1" d="M497.3,12.27s0,.09,0,.14c0,.05,0,.09,0,.13h0c.04-.09.12-.16.22-.22.1-.06.2-.08.31-.08.2,0,.34.06.44.18.1.12.15.27.15.46v.95h-.23v-.86c0-.08,0-.16-.02-.22-.01-.07-.04-.12-.07-.17-.03-.05-.08-.08-.13-.11-.05-.03-.12-.04-.2-.04-.06,0-.12.01-.17.04-.06.02-.11.06-.15.11-.04.05-.08.11-.11.19-.03.08-.04.17-.04.27v.79h-.23v-1.21s0-.1,0-.16c0-.07,0-.13-.01-.18h.22Z"/>
        <path class="cls-1" d="M500.12,13.82s0-.09,0-.14c0-.05,0-.09,0-.13h0c-.04.09-.12.16-.22.22-.1.06-.2.08-.31.08-.2,0-.34-.06-.44-.18-.1-.12-.15-.27-.15-.46v-.95h.23v.86c0,.08,0,.16.02.22.01.07.04.12.07.17.03.05.08.08.13.11.05.03.12.04.2.04.06,0,.12-.01.17-.04.06-.02.11-.06.15-.11.04-.05.08-.11.11-.19.03-.08.04-.17.04-.27v-.79h.23v1.21s0,.1,0,.16c0,.07,0,.13,0,.18h-.22Z"/>
        <path class="cls-1" d="M501.35,12.31c.09-.06.19-.08.31-.08.04,0,.09,0,.13.01.05,0,.09.03.13.05s.08.06.12.1c.04.04.07.1.09.16.05-.11.13-.19.22-.24.09-.06.2-.08.33-.08.2,0,.34.06.44.18.1.12.15.27.15.46v.95h-.22v-.86c0-.16-.03-.29-.09-.39-.06-.1-.16-.15-.31-.15-.08,0-.15.02-.21.05-.06.03-.1.08-.14.13-.03.05-.06.12-.07.18-.02.07-.02.14-.02.21v.82h-.23v-.9c0-.07,0-.14-.02-.21-.01-.06-.03-.11-.06-.16-.03-.04-.07-.08-.11-.1-.05-.02-.11-.03-.19-.03-.05,0-.11.01-.16.04-.05.02-.1.06-.15.11-.04.05-.08.11-.1.19-.03.08-.04.17-.04.27v.79h-.23v-1.21s0-.1,0-.16c0-.07,0-.13-.01-.18h.22s0,.09.01.14c0,.05,0,.09,0,.13h0c.04-.09.11-.16.2-.22"/>
        <path class="cls-1" d="M458.76,17.29l-.51-.93h-.19v.93h-.55v-2.34h.89c.11,0,.22.01.33.03.11.02.2.06.29.12.08.06.15.13.2.22s.08.2.08.34c0,.16-.04.29-.13.4-.09.11-.21.19-.36.23l.61,1h-.66ZM458.74,15.66c0-.06-.01-.1-.04-.13s-.05-.06-.09-.08c-.04-.02-.08-.03-.12-.04-.05,0-.09-.01-.13-.01h-.3v.55h.27s.09,0,.14-.01c.05,0,.09-.02.13-.04.04-.02.07-.05.1-.09.03-.04.04-.09.04-.15"/>
        <path class="cls-1" d="M460.58,17.54c-.03.09-.07.16-.11.23-.04.07-.09.12-.15.17-.06.05-.12.08-.2.11-.08.02-.17.04-.27.04-.05,0-.1,0-.16-.01-.05,0-.1-.02-.14-.03l.06-.46s.06.02.09.02c.03,0,.06,0,.09,0,.08,0,.14-.02.18-.06.04-.04.07-.09.1-.16l.05-.14-.69-1.62h.6l.37,1.06h.01l.33-1.06h.58l-.74,1.9Z"/>
        <path class="cls-1" d="M462.76,17.29v-.22h0c-.05.08-.13.15-.23.19-.1.05-.2.07-.31.07-.12,0-.23-.02-.33-.07-.1-.05-.18-.11-.25-.19-.07-.08-.12-.17-.15-.28-.04-.11-.05-.22-.05-.33s.02-.22.05-.33c.04-.1.09-.2.16-.28.07-.08.15-.14.25-.19.1-.05.2-.07.32-.07s.22.02.31.07c.08.05.15.1.2.15h0v-1.03h.54v2.5h-.5ZM462.74,16.46c0-.05,0-.1-.03-.16-.02-.05-.05-.1-.08-.14s-.08-.07-.12-.1c-.05-.02-.1-.04-.17-.04s-.12.01-.17.04c-.05.02-.09.06-.12.09-.03.04-.06.08-.07.13-.02.05-.02.1-.02.16s0,.11.02.16c.02.05.04.1.07.14.03.04.07.07.12.1.05.02.1.04.17.04s.12-.01.17-.04c.05-.02.09-.06.12-.1s.06-.09.08-.14c.02-.05.03-.1.03-.16"/>
        <path class="cls-1" d="M464.6,17.54c-.03.09-.07.16-.11.23-.04.07-.09.12-.15.17-.06.05-.12.08-.2.11-.08.02-.17.04-.27.04-.05,0-.1,0-.16-.01-.05,0-.1-.02-.14-.03l.06-.46s.06.02.09.02c.03,0,.06,0,.09,0,.08,0,.14-.02.18-.06.04-.04.07-.09.1-.16l.05-.14-.69-1.62h.6l.37,1.06h.01l.33-1.06h.58l-.74,1.9Z"/>
        <path class="cls-1" d="M467.66,17.29v-.9s0-.09-.01-.13c0-.04-.02-.08-.04-.11-.02-.03-.04-.06-.07-.07-.03-.02-.07-.03-.12-.03s-.09.01-.12.03c-.03.02-.06.05-.09.08-.02.03-.04.07-.05.11-.01.04-.02.09-.02.13v.89h-.54v-.94c0-.1-.02-.17-.06-.23-.04-.06-.1-.08-.18-.08-.09,0-.15.03-.2.1-.05.07-.07.15-.07.25v.89h-.55v-1.65h.53v.23h0s.04-.07.07-.1c.03-.03.07-.06.11-.09.04-.03.09-.05.14-.06.05-.02.11-.02.17-.02.12,0,.22.02.3.07.08.05.15.12.19.21.06-.09.13-.15.21-.21.09-.05.19-.08.31-.08.11,0,.21.02.28.06.08.04.14.09.18.16.05.06.08.14.1.22.02.08.03.16.03.24v1.02h-.54Z"/>
        <path class="cls-1" d="M470.32,17.54c-.03.09-.07.16-.11.23-.04.07-.09.12-.15.17-.06.05-.12.08-.2.11-.08.02-.17.04-.27.04-.05,0-.1,0-.16-.01-.05,0-.1-.02-.14-.03l.06-.46s.06.02.09.02c.03,0,.06,0,.09,0,.08,0,.14-.02.18-.06.04-.04.07-.09.1-.16l.05-.14-.69-1.62h.6l.37,1.06h.01l.33-1.06h.58l-.74,1.9Z"/>
        <path class="cls-1" d="M472.34,17.29v-.9s0-.09-.01-.13c0-.04-.02-.08-.04-.11-.02-.03-.04-.06-.07-.08-.03-.02-.07-.03-.12-.03s-.09,0-.13.03c-.04.02-.07.04-.09.08-.02.03-.04.07-.05.11-.01.04-.02.09-.02.13v.89h-.55v-1.65h.53v.23h0s.05-.07.08-.1c.03-.03.07-.06.11-.09.04-.02.09-.04.14-.06.05-.02.1-.02.16-.02.11,0,.2.02.28.06.08.04.14.09.19.15.05.06.08.14.1.22.02.08.03.16.03.25v1.02h-.55Z"/>
        <path class="cls-1" d="M475.94,16.46c0,.12-.02.23-.05.33-.04.11-.09.2-.15.28-.07.08-.15.15-.25.19-.1.05-.21.07-.33.07-.11,0-.21-.02-.31-.07-.1-.05-.17-.11-.23-.19h0v.22h-.5v-2.5h.54v1.03h0c.05-.06.11-.11.2-.15.08-.05.19-.07.31-.07s.23.02.32.07c.1.05.18.11.25.19.07.08.12.17.16.28.04.1.05.21.05.33M475.42,16.46c0-.05,0-.1-.03-.16-.02-.05-.04-.1-.07-.13-.03-.04-.07-.07-.12-.09-.05-.02-.11-.04-.17-.04s-.12.01-.17.04c-.05.02-.09.06-.12.1-.03.04-.06.08-.08.14-.02.05-.03.1-.03.16s0,.1.03.16c.02.05.05.1.08.14s.08.07.12.1c.05.02.1.04.17.04s.12-.01.17-.04c.05-.02.09-.06.12-.1.03-.04.06-.09.07-.14.02-.05.03-.1.03-.16"/>
        <path class="cls-1" d="M477.35,17.29v-.23h0s-.05.07-.08.11c-.03.03-.07.06-.11.09-.04.02-.09.04-.14.06-.05.02-.11.02-.16.02-.11,0-.2-.02-.28-.06-.08-.04-.14-.09-.19-.15-.05-.06-.08-.13-.1-.22-.02-.08-.03-.16-.03-.25v-1.02h.55v.89s0,.09,0,.13c0,.04.02.08.04.11.02.03.04.06.07.08.03.02.07.03.12.03.1,0,.17-.04.22-.11.05-.07.07-.15.07-.25v-.89h.54v1.65h-.52Z"/>
        <path class="cls-1" d="M479.53,17.29v-.22h0c-.05.08-.13.15-.23.19-.1.05-.2.07-.31.07-.12,0-.23-.02-.33-.07-.1-.05-.18-.11-.25-.19-.07-.08-.12-.17-.15-.28-.04-.11-.05-.22-.05-.33s.02-.22.05-.33c.04-.1.09-.2.16-.28.07-.08.15-.14.25-.19.1-.05.2-.07.32-.07s.22.02.31.07c.08.05.15.1.2.15h0v-1.03h.54v2.5h-.5ZM479.51,16.46c0-.05,0-.1-.03-.16-.02-.05-.05-.1-.08-.14s-.08-.07-.12-.1c-.05-.02-.1-.04-.17-.04s-.12.01-.17.04c-.05.02-.09.06-.12.09-.03.04-.06.08-.07.13-.02.05-.02.1-.02.16s0,.11.02.16c.02.05.04.1.07.14.03.04.07.07.12.1.05.02.1.04.17.04s.12-.01.17-.04c.05-.02.09-.06.12-.1s.06-.09.08-.14c.02-.05.03-.1.03-.16"/>
        <path class="cls-1" d="M481.69,17.29v-.22h0c-.05.08-.13.15-.23.19-.1.05-.2.07-.31.07-.12,0-.23-.02-.33-.07-.1-.05-.18-.11-.25-.19-.07-.08-.12-.17-.15-.28-.04-.11-.05-.22-.05-.33s.02-.22.05-.33.09-.2.16-.28c.07-.08.15-.14.25-.19.1-.05.2-.07.32-.07s.22.02.31.07c.08.05.15.1.2.15h0v-1.03h.54v2.5h-.5ZM481.67,16.46c0-.05,0-.1-.03-.16-.02-.05-.05-.1-.08-.14s-.08-.07-.12-.1c-.05-.02-.1-.04-.17-.04s-.12.01-.17.04c-.05.02-.09.06-.12.09-.03.04-.06.08-.07.13-.02.05-.02.1-.02.16s0,.11.02.16c.02.05.04.1.07.14.03.04.07.07.12.1.05.02.1.04.17.04s.12-.01.17-.04c.05-.02.09-.06.12-.1s.06-.09.08-.14c.02-.05.03-.1.03-.16"/>
        <path class="cls-1" d="M483.59,16.13s-.1-.08-.16-.11c-.06-.03-.12-.04-.19-.04-.05,0-.1,0-.14.03-.04.02-.06.05-.06.1,0,.05.02.08.07.1.05.02.12.04.23.07.06.01.12.03.19.06.06.02.12.06.17.1.05.04.09.09.12.15.03.06.05.13.05.21,0,.1-.02.19-.06.26-.04.07-.1.13-.16.17-.07.04-.14.08-.23.1s-.17.03-.25.03c-.13,0-.27-.02-.4-.06-.13-.04-.24-.11-.32-.19l.3-.32c.05.05.11.1.18.13.07.04.15.05.23.05.04,0,.09-.01.13-.03.04-.02.06-.06.06-.11s-.03-.09-.08-.11c-.05-.02-.14-.05-.25-.08-.06-.01-.11-.03-.17-.05-.06-.02-.11-.05-.15-.09-.05-.04-.08-.08-.11-.14-.03-.06-.04-.12-.04-.2,0-.1.02-.18.06-.25.04-.07.1-.13.16-.17.07-.04.14-.08.22-.1.08-.02.16-.03.24-.03.12,0,.24.02.36.06.12.04.22.1.3.17l-.3.31Z"/>
        <path class="cls-1" d="M485.9,16.46c0,.13-.02.26-.07.37s-.11.2-.2.28c-.08.08-.18.14-.29.18-.11.04-.23.06-.35.06s-.24-.02-.35-.06c-.11-.04-.21-.1-.29-.18-.08-.08-.15-.17-.2-.28-.05-.11-.07-.23-.07-.37s.02-.26.07-.36c.05-.11.11-.2.2-.27.08-.07.18-.13.29-.17.11-.04.23-.06.35-.06s.24.02.35.06c.11.04.21.1.29.17.08.08.15.17.2.27.05.11.07.23.07.36M485.38,16.46c0-.05,0-.1-.03-.16-.02-.05-.04-.1-.08-.13-.03-.04-.07-.07-.12-.09-.05-.02-.11-.04-.17-.04s-.12.01-.17.04c-.05.02-.09.06-.12.09-.03.04-.06.08-.07.13-.02.05-.03.1-.03.16s0,.11.03.16c.02.05.04.1.07.14.03.04.07.07.12.1.05.02.11.04.17.04s.12-.01.17-.04c.05-.02.09-.06.12-.1.03-.04.06-.09.07-.14.02-.05.03-.1.03-.16"/>
        <path class="cls-1" d="M487.49,17.29v-.22h0c-.05.08-.13.15-.23.19-.1.05-.2.07-.31.07-.12,0-.23-.02-.33-.07-.1-.05-.18-.11-.25-.19-.07-.08-.12-.17-.15-.28-.04-.11-.05-.22-.05-.33s.02-.22.05-.33c.04-.1.09-.2.16-.28.07-.08.15-.14.24-.19.1-.05.2-.07.32-.07s.22.02.31.07c.08.05.15.1.2.15h0v-1.03h.54v2.5h-.5ZM487.47,16.46c0-.05,0-.1-.03-.16-.02-.05-.05-.1-.08-.14-.03-.04-.08-.07-.12-.1-.05-.02-.1-.04-.17-.04s-.12.01-.17.04c-.05.02-.09.06-.12.09-.03.04-.06.08-.07.13-.02.05-.02.1-.02.16s0,.11.02.16c.02.05.04.1.07.14.03.04.07.07.12.1.05.02.1.04.17.04s.12-.01.17-.04c.05-.02.09-.06.12-.1.03-.04.06-.09.08-.14.02-.05.03-.1.03-.16"/>
        <path class="cls-1" d="M489.65,17.29v-.22h0c-.05.08-.13.15-.23.19-.1.05-.2.07-.31.07-.12,0-.23-.02-.33-.07-.1-.05-.18-.11-.25-.19-.07-.08-.12-.17-.15-.28-.04-.11-.05-.22-.05-.33s.02-.22.05-.33c.04-.1.09-.2.16-.28.07-.08.15-.14.24-.19.1-.05.2-.07.32-.07s.22.02.31.07c.08.05.15.1.2.15h0v-1.03h.54v2.5h-.5ZM489.63,16.46c0-.05,0-.1-.03-.16-.02-.05-.05-.1-.08-.14s-.08-.07-.12-.1c-.05-.02-.1-.04-.17-.04s-.12.01-.17.04c-.05.02-.09.06-.12.09-.03.04-.06.08-.07.13-.02.05-.02.1-.02.16s0,.11.02.16c.02.05.04.1.07.14.03.04.07.07.12.1.05.02.1.04.17.04s.12-.01.17-.04c.05-.02.09-.06.12-.1s.06-.09.08-.14c.02-.05.03-.1.03-.16"/>
        <path class="cls-1" d="M491.17,15.11s0,.08-.02.12c-.02.04-.04.07-.07.09-.03.03-.06.05-.1.06-.04.02-.08.02-.12.02-.09,0-.16-.03-.22-.09-.06-.06-.09-.13-.09-.21,0-.04,0-.08.02-.11.02-.04.04-.07.07-.09.03-.03.06-.05.1-.06.04-.02.08-.03.12-.03.04,0,.08,0,.12.02.04.02.07.04.1.06.03.03.05.06.07.09.02.04.02.08.02.12M490.59,15.64h.54v1.65h-.54v-1.65Z"/>
        <path class="cls-1" d="M494.48,17.29v-.9s0-.09-.01-.13c0-.04-.02-.08-.04-.11-.02-.03-.04-.06-.07-.07-.03-.02-.07-.03-.12-.03s-.09.01-.12.03c-.03.02-.06.05-.09.08-.02.03-.04.07-.05.11-.01.04-.02.09-.02.13v.89h-.54v-.94c0-.1-.02-.17-.06-.23-.04-.06-.1-.08-.18-.08-.09,0-.15.03-.2.1-.05.07-.07.15-.07.25v.89h-.55v-1.65h.53v.23h0s.04-.07.07-.1c.03-.03.07-.06.11-.09.04-.03.09-.05.14-.06.05-.02.11-.02.17-.02.12,0,.22.02.3.07.08.05.15.12.19.21.06-.09.13-.15.21-.21.09-.05.19-.08.31-.08.11,0,.21.02.28.06.08.04.14.09.18.16.05.06.08.14.1.22.02.08.03.16.03.24v1.02h-.54Z"/>
        <path class="cls-1" d="M497.05,16.49v.07s0,.04,0,.06h-1.2s.02.09.04.13c.02.04.05.07.09.1.04.03.08.05.12.06.05.02.09.02.14.02.09,0,.16-.02.22-.05.06-.03.11-.07.15-.12l.38.24c-.08.11-.18.2-.31.26-.13.06-.27.09-.44.09-.12,0-.24-.02-.35-.06-.11-.04-.21-.1-.29-.17-.08-.07-.15-.16-.2-.27-.05-.11-.07-.23-.07-.37s.02-.26.07-.37c.05-.11.11-.2.19-.28.08-.08.17-.14.28-.18.11-.04.23-.06.35-.06s.23.02.33.06c.1.04.19.1.26.18.07.08.13.17.17.28.04.11.06.24.06.38M496.55,16.28c0-.09-.03-.16-.08-.22-.05-.06-.14-.09-.24-.09-.05,0-.1,0-.15.03-.04.02-.08.04-.12.07-.03.03-.06.06-.08.1-.02.04-.03.08-.03.12h.7Z"/>
        <polygon class="cls-1" points="499.47 17.29 498.92 17.29 498.59 16.26 498.59 16.26 498.27 17.29 497.72 17.29 497.15 15.64 497.74 15.64 498.03 16.68 498.04 16.68 498.33 15.64 498.88 15.64 499.18 16.68 499.19 16.68 499.48 15.64 500.04 15.64 499.47 17.29"/>
        <path class="cls-1" d="M501.32,17.29v-.9s0-.09-.01-.13c0-.04-.02-.08-.04-.11-.02-.03-.04-.06-.07-.08-.03-.02-.07-.03-.12-.03s-.09,0-.13.03c-.04.02-.07.04-.09.08-.02.03-.04.07-.05.11-.01.04-.02.09-.02.13v.89h-.55v-1.65h.53v.23h0s.05-.07.08-.1c.03-.03.07-.06.11-.09.04-.02.09-.04.14-.06.05-.02.1-.02.16-.02.11,0,.2.02.28.06.08.04.14.09.19.15.05.06.08.14.1.22.02.08.03.16.03.25v1.02h-.55Z"/>
        <path class="cls-1" d="M504.92,16.46c0,.12-.02.23-.05.33-.04.11-.09.2-.15.28-.07.08-.15.15-.25.19-.1.05-.21.07-.33.07-.1,0-.2-.02-.29-.06s-.16-.1-.21-.17h0v.98h-.54v-2.44h.52v.2h.01c.05-.07.12-.12.21-.17.09-.05.19-.07.32-.07s.23.02.32.07c.1.05.18.11.25.19.07.08.12.17.16.28.04.1.05.21.05.33M504.39,16.46c0-.05,0-.1-.03-.16-.02-.05-.04-.1-.07-.13-.03-.04-.07-.07-.12-.09-.05-.02-.1-.04-.17-.04s-.12.01-.17.04c-.05.02-.09.06-.12.1-.03.04-.06.08-.08.14-.02.05-.03.1-.03.16s0,.1.03.16c.02.05.05.1.08.14s.08.07.12.1c.05.02.1.04.17.04s.12-.01.17-.04c.05-.02.09-.06.12-.1.03-.04.06-.09.07-.14.02-.05.03-.1.03-.16"/>
        <path class="cls-1" d="M506.99,16.46c0,.13-.02.26-.07.37-.05.11-.11.2-.2.28-.08.08-.18.14-.29.18-.11.04-.23.06-.35.06s-.24-.02-.35-.06c-.11-.04-.21-.1-.29-.18-.08-.08-.15-.17-.2-.28-.05-.11-.07-.23-.07-.37s.02-.26.07-.36c.05-.11.11-.2.2-.27.08-.07.18-.13.29-.17.11-.04.23-.06.35-.06s.24.02.35.06c.11.04.21.1.29.17.08.08.15.17.2.27.05.11.07.23.07.36M506.46,16.46c0-.05,0-.1-.03-.16-.02-.05-.04-.1-.08-.13-.03-.04-.07-.07-.12-.09-.05-.02-.1-.04-.17-.04s-.12.01-.17.04c-.05.02-.09.06-.12.09-.03.04-.06.08-.07.13-.02.05-.03.1-.03.16s0,.11.03.16c.02.05.04.1.07.14.03.04.07.07.12.1.05.02.1.04.17.04s.12-.01.17-.04c.05-.02.09-.06.12-.1.03-.04.06-.09.07-.14.02-.05.03-.1.03-.16"/>
        <path class="cls-1" d="M509.15,16.46c0,.12-.02.23-.05.33-.04.11-.09.2-.15.28-.07.08-.15.15-.25.19-.1.05-.21.07-.33.07-.11,0-.21-.02-.31-.07-.1-.05-.17-.11-.23-.19h0v.22h-.5v-2.5h.54v1.03h0c.05-.06.11-.11.2-.15.08-.05.19-.07.31-.07s.23.02.32.07c.1.05.18.11.25.19.07.08.12.17.16.28.04.1.05.21.05.33M508.63,16.46c0-.05,0-.1-.02-.16-.02-.05-.04-.1-.07-.13s-.07-.07-.12-.09c-.05-.02-.1-.04-.17-.04s-.12.01-.17.04c-.05.02-.09.06-.12.1-.03.04-.06.08-.08.14-.02.05-.03.1-.03.16s0,.1.03.16.05.1.08.14c.03.04.08.07.12.1.05.02.1.04.17.04s.12-.01.17-.04c.05-.02.09-.06.12-.1s.06-.09.07-.14c.02-.05.02-.1.02-.16"/>
        <rect class="cls-1" x="509.5" y="14.79" width=".55" height="2.5"/>
        <path class="cls-1" d="M512.2,14.95h.66c.12,0,.23.01.32.04.1.03.18.06.25.12.07.05.12.12.16.2.04.08.06.17.06.28s-.02.2-.06.28c-.04.08-.09.14-.16.2-.07.05-.15.09-.25.12-.1.03-.21.04-.33.04h-.42v1.09h-.24v-2.34ZM512.44,16h.4c.19,0,.33-.04.43-.11.1-.07.15-.18.15-.32s-.05-.25-.15-.32c-.1-.07-.24-.1-.42-.1h-.4v.85Z"/>
        <rect class="cls-1" x="514.1" y="14.79" width=".22" height="2.5"/>
        <path class="cls-1" d="M515.9,16.29c0-.13-.04-.23-.11-.3-.07-.07-.17-.1-.31-.1-.09,0-.18.02-.26.05-.08.03-.15.08-.2.13l-.13-.15c.06-.06.15-.12.25-.16.1-.04.22-.06.36-.06.08,0,.16.01.24.04.07.02.14.06.19.1s.1.11.13.18c.03.07.05.15.05.25v.68c0,.06,0,.12,0,.19,0,.06.01.12.02.16h-.2s-.01-.08-.02-.12c0-.04,0-.09,0-.13h0c-.07.1-.15.18-.24.22-.09.05-.2.07-.32.07-.06,0-.12,0-.18-.03-.06-.02-.12-.04-.17-.08-.05-.04-.1-.09-.13-.15-.03-.06-.05-.13-.05-.22,0-.12.03-.21.09-.28s.14-.12.24-.16c.1-.03.22-.06.35-.07.13,0,.27-.02.41-.02v-.05ZM515.84,16.51c-.09,0-.19,0-.28.01-.09,0-.18.02-.26.05-.08.02-.14.06-.19.1-.05.04-.07.1-.07.18,0,.06.01.1.03.14.02.04.05.07.08.09.04.02.07.04.12.05.04,0,.09.02.13.02.08,0,.15-.01.21-.04.06-.03.11-.07.16-.11.04-.05.07-.1.1-.16s.03-.13.03-.2v-.12h-.07Z"/>
        <path class="cls-1" d="M517.34,15.93h-.44v.9c0,.06,0,.11.02.14s.03.07.05.09c.02.02.05.04.07.04.03,0,.06.01.09.01.03,0,.06,0,.1-.01.03,0,.07-.02.1-.04v.2s-.07.03-.11.03c-.04,0-.09.01-.14.01-.04,0-.09,0-.13-.02-.05-.01-.09-.03-.13-.06-.04-.03-.07-.07-.1-.13-.03-.05-.04-.12-.04-.21v-.97h-.32v-.19h.32v-.44h.23v.44h.44v.19Z"/>
        <path class="cls-1" d="M517.97,15.14s-.02.08-.05.11c-.03.03-.07.04-.11.04s-.08-.01-.11-.04c-.03-.03-.05-.07-.05-.11s.02-.08.05-.11c.03-.03.07-.04.11-.04s.08.01.11.04c.03.03.05.07.05.11M517.92,17.29h-.23v-1.55h.23v1.55Z"/>
        <path class="cls-1" d="M518.71,15.74s0,.09,0,.14c0,.05,0,.09,0,.13h0c.04-.09.12-.16.22-.22.1-.06.2-.08.31-.08.2,0,.34.06.44.18.1.12.15.27.15.46v.95h-.23v-.86c0-.08,0-.16-.02-.22-.01-.07-.04-.12-.07-.17-.03-.05-.08-.08-.13-.11-.05-.03-.12-.04-.2-.04-.06,0-.12.01-.17.04-.06.02-.11.06-.15.11-.04.05-.08.11-.11.19-.03.08-.04.17-.04.27v.79h-.23v-1.21s0-.1,0-.16c0-.07,0-.13,0-.18h.22Z"/>
        <polygon class="cls-1" points="520.45 15.74 520.82 17 520.83 17 521.25 15.74 521.46 15.74 521.89 17 521.9 17 522.27 15.74 522.5 15.74 522.01 17.29 521.77 17.29 521.36 16.03 521.35 16.03 520.94 17.29 520.7 17.29 520.21 15.74 520.45 15.74"/>
        <path class="cls-1" d="M523.29,15.78c.09-.06.19-.08.31-.08.04,0,.09,0,.13.01.05,0,.09.03.13.05.04.03.08.06.12.1s.07.1.09.16c.05-.11.13-.19.22-.24.09-.06.2-.08.33-.08.2,0,.34.06.44.18.1.12.15.27.15.46v.95h-.23v-.86c0-.16-.03-.29-.09-.39-.06-.1-.16-.15-.31-.15-.08,0-.15.02-.21.05-.06.03-.1.08-.14.13-.03.05-.06.12-.07.18s-.02.14-.02.21v.82h-.23v-.9c0-.07,0-.14-.02-.21-.01-.06-.03-.11-.06-.16-.03-.04-.07-.08-.11-.1-.05-.02-.11-.03-.19-.03-.05,0-.11.01-.16.04-.05.02-.1.06-.15.11-.04.05-.08.11-.1.19-.03.08-.04.17-.04.27v.79h-.22v-1.21s0-.1,0-.16c0-.07,0-.13,0-.18h.22s0,.09.01.14c0,.05,0,.09,0,.13h0c.04-.09.11-.16.2-.22"/>
        <rect class="cls-1" x="457.53" y="5.98" width=".82" height="3.93"/>
        <polygon class="cls-1" points="461.56 9.91 460.77 9.91 459.72 7.76 459.72 9.91 458.9 9.91 458.9 5.98 459.68 5.98 460.73 8.13 460.73 5.98 461.56 5.98 461.56 9.91"/>
        <polygon class="cls-1" points="463.88 9.91 462.97 9.91 461.87 5.98 462.73 5.98 463.42 8.64 464.11 5.98 464.97 5.98 463.88 9.91"/>
        <polygon class="cls-1" points="467.35 6.74 466.09 6.74 466.09 7.54 467.27 7.54 467.27 8.29 466.09 8.29 466.09 9.15 467.36 9.15 467.36 9.91 465.27 9.91 465.27 5.98 467.35 5.98 467.35 6.74"/>
        <path class="cls-1" d="M469.99,6.14l-.08.8c-.26-.15-.53-.23-.81-.23-.14,0-.25.04-.33.11-.08.07-.11.17-.11.3,0,.14.08.25.24.33.02.01.15.06.39.15.31.11.54.24.68.39.15.15.23.4.23.73,0,.38-.12.69-.36.91-.24.22-.56.33-.95.33-.42,0-.79-.09-1.1-.26l.08-.84c.33.21.65.32.96.32.17,0,.3-.04.39-.11.09-.08.14-.18.14-.32,0-.12-.04-.21-.1-.27-.07-.06-.21-.13-.42-.2-.23-.08-.41-.17-.55-.25-.3-.19-.46-.49-.46-.89,0-.37.11-.66.33-.88.22-.22.52-.33.9-.33.33,0,.64.07.94.21"/>
        <polygon class="cls-1" points="473.15 6.74 472.22 6.74 472.22 9.91 471.39 9.91 471.39 6.74 470.45 6.74 470.45 5.98 473.15 5.98 473.15 6.74"/>
        <path class="cls-1" d="M476.25,8.45c0,.46-.13.83-.39,1.1-.26.27-.6.41-1.03.41s-.78-.14-1.03-.41c-.26-.27-.38-.64-.38-1.1v-1.02c0-.47.13-.83.38-1.1.26-.27.6-.41,1.03-.41s.78.14,1.03.41c.26.28.39.64.39,1.1v1.02ZM474.25,8.43c0,.24.05.44.15.57.1.14.24.2.42.2s.32-.07.42-.2c.1-.13.15-.33.15-.57v-.97c0-.25-.05-.44-.15-.58-.1-.14-.24-.2-.42-.2s-.32.07-.42.2c-.1.14-.15.33-.15.58v.97Z"/>
        <path class="cls-1" d="M478.55,9.91l-.64-1.44h-.35v1.44h-.82v-3.93h1.17c.41,0,.73.1.97.3.24.2.35.49.35.87v.13c0,.46-.17.79-.51.99l.72,1.63h-.88ZM477.56,7.71h.3c.17,0,.3-.04.39-.11.09-.08.14-.18.14-.33v-.09c0-.29-.18-.44-.53-.44h-.3v.97Z"/>
        <path class="cls-1" d="M481.93,6.14l-.08.8c-.26-.15-.53-.23-.81-.23-.14,0-.25.04-.33.11-.08.07-.11.17-.11.3,0,.14.08.25.24.33.02.01.15.06.39.15.31.11.54.24.68.39.15.15.23.4.23.73,0,.38-.12.69-.36.91-.24.22-.56.33-.95.33-.42,0-.79-.09-1.1-.26l.08-.84c.33.21.65.32.96.32.17,0,.3-.04.39-.11.09-.08.14-.18.14-.32,0-.12-.04-.21-.1-.27-.07-.06-.21-.13-.42-.2-.23-.08-.41-.17-.55-.25-.3-.19-.46-.49-.46-.89,0-.37.11-.66.33-.88.22-.22.52-.33.9-.33.33,0,.64.07.94.21"/>
        <rect class="cls-1" x="483.97" y="5.98" width=".82" height="3.93"/>
        <polygon class="cls-1" points="488 9.91 487.22 9.91 486.17 7.76 486.17 9.91 485.35 9.91 485.35 5.98 486.13 5.98 487.18 8.13 487.18 5.98 488 5.98 488 9.91"/>
        <path class="cls-1" d="M489.86,5.98h1.24c.41,0,.73.1.96.3.24.2.35.49.35.87v.15c0,.38-.12.67-.35.88-.24.2-.56.3-.96.3h-.41v1.42h-.82v-3.93ZM490.68,6.74v.99h.36c.17,0,.3-.04.39-.11.09-.08.14-.18.14-.33v-.11c0-.14-.05-.25-.14-.33s-.22-.11-.39-.11h-.36Z"/>
        <polygon class="cls-1" points="494.89 6.74 493.63 6.74 493.63 7.54 494.81 7.54 494.81 8.29 493.63 8.29 493.63 9.15 494.9 9.15 494.9 9.91 492.81 9.91 492.81 5.98 494.89 5.98 494.89 6.74"/>
        <path class="cls-1" d="M500.3,5.98h1.24c.41,0,.73.1.96.3.24.2.35.49.35.87v.15c0,.38-.12.67-.35.88-.24.2-.56.3-.96.3h-.41v1.42h-.82v-3.93ZM501.13,6.74v.99h.36c.17,0,.3-.04.39-.11.09-.08.14-.18.14-.33v-.11c0-.14-.05-.25-.14-.33-.09-.08-.22-.11-.39-.11h-.36Z"/>
        <polygon class="cls-1" points="504.1 9.15 505.29 9.15 505.29 9.91 503.27 9.91 503.27 5.98 504.1 5.98 504.1 9.15"/>
        <polygon class="cls-1" points="507.74 6.74 506.48 6.74 506.48 7.54 507.66 7.54 507.66 8.29 506.48 8.29 506.48 9.15 507.74 9.15 507.74 9.91 505.65 9.91 505.65 5.98 507.74 5.98 507.74 6.74"/>
        <polygon class="cls-1" points="508.82 6.13 508.64 6.13 508.64 6.73 508.48 6.73 508.48 6.13 508.3 6.13 508.3 5.98 508.82 5.98 508.82 6.13"/>
        <polygon class="cls-1" points="509.62 6.73 509.46 6.73 509.46 6.38 509.32 6.73 509.22 6.73 509.08 6.38 509.08 6.73 508.92 6.73 508.92 5.98 509.08 5.98 509.27 6.48 509.46 5.98 509.62 5.98 509.62 6.73"/>
        <path class="cls-1" d="M498.23,6.54s.35.33.87.15c-.09-.53-.55-.67-.56-.67.03.21.12.38.28.51-.2-.07-.4-.07-.6.01M498.52,6.33s-.27-.41-.8-.34c0,0,.26.4.8.34M498.44,9.66c.17-.15.27-.34.3-.58,0,0-.5.17-.6.76.55.2.93-.18.93-.18-.21-.08-.42-.08-.63,0M499.11,8.59s-.38.34-.24.91c.57-.04.75-.52.76-.52-.22.01-.41.09-.56.24.09-.2.11-.41.05-.63M498.74,6.85s.2.46.76.5c.14-.53-.24-.86-.24-.86-.06.21-.04.4.05.59-.16-.15-.34-.23-.56-.24M499.45,8.57c0-.22-.07-.42-.22-.59,0,0-.21.47.15.93.5-.27.48-.78.48-.79-.2.1-.34.25-.42.45M499.1,7.36s0,.51.51.79c.35-.45.13-.91.12-.91-.14.17-.21.36-.2.58-.09-.2-.23-.35-.43-.46M496.05,8.59c-.06.22-.05.43.05.63-.16-.15-.34-.23-.56-.24,0,0,.19.48.76.52.14-.56-.24-.91-.24-.91M496.41,9.08c.03.23.13.42.3.58-.21-.08-.42-.08-.63,0,0,0,.38.38.93.18-.1-.59-.59-.76-.6-.76M497.75,9.82c-.13,0-.28.06-.43.11-.2.07-.38.14-.55.1,0,0,.06.12.22.13.15.01.29-.03.43-.07.14-.04.28-.09.43-.08.24.02.39.16.46.24.01-.08-.02-.16-.08-.24-.1-.12-.28-.2-.48-.2M496.93,6.54c-.2-.08-.4-.08-.6-.01.16-.13.25-.3.28-.51,0,0-.47.13-.56.67.52.19.87-.14.87-.15M497.43,6c-.53-.07-.79.33-.8.34.54.06.79-.33.8-.34M495.77,8.91c.36-.46.15-.92.15-.93-.14.17-.22.37-.22.59-.08-.2-.22-.35-.42-.45,0,0-.02.52.48.79M496.05,7.36c-.2.1-.35.25-.43.46,0-.22-.06-.41-.2-.58,0,0-.23.46.12.91.51-.27.51-.78.51-.79M496.41,6.85c-.22.01-.41.09-.56.24.09-.19.11-.39.05-.59,0,0-.39.32-.24.86.56-.05.76-.5.76-.5"/>
      </g>
    </g>
  </g>
</svg>