<?xml version="1.0" encoding="UTF-8"?>
<svg xmlns="http://www.w3.org/2000/svg" data-name="Layer 2" viewBox="0 0 26.25 23.63" width="2400" height="2215.3846153846"><defs><clipPath id="a"><path fill="none" d="M0 0H26.25V23.63H0z"/></clipPath></defs><g data-name="Layer 2"><g data-name="Layer 1-2"><g clip-path="url(#a)"><path fill="#cd1423" d="M15.38 2.41c-1.25-2.16-3.27-2.16-4.52 0L1.33 18.93c-1.25 2.15-.23 3.91 2.26 3.91h19.08c2.49 0 3.51-1.75 2.26-3.91z"/><path fill="#fff" d="M22.66 23.63H3.58c-1.5 0-2.64-.54-3.22-1.54-.58-.99-.48-2.26.28-3.56l9.54-16.52C10.93.71 11.97 0 13.12 0s2.19.71 2.94 2.01l9.54 16.52c.75 1.3.85 2.56.28 3.56-.58.99-1.72 1.54-3.22 1.54M13.13 1.59c-.55 0-1.12.45-1.57 1.23L2.01 19.33c-.45.78-.54 1.49-.28 1.97.28.48.95.75 1.84.75h19.08c.89 0 1.57-.28 1.84-.75.28-.48.17-1.19-.28-1.97L14.69 2.81c-.45-.78-1.02-1.23-1.57-1.23Z"/></g><path fill="#fff" d="M13.89 15.64h-1.31l-.7-5.68V6.42h2.73v3.54l-.71 5.68Zm.81 3.94h-2.9v-2.83h2.9z"/></g></g></svg>
