<svg xmlns="http://www.w3.org/2000/svg" viewBox="0 0 269.5 47.31"><g data-name="Layer_1"><g data-name="Layer_2"><path fill="#cf102d" d="M0 0h2.7v47.2H0z"/><path d="M87.6 14.5h-7.8v-2.7h18.8v2.7h-7.9v20.9h-3.1zM100.3 19.4l3.5 9.4c.4 1 .8 2.3 1 3.3h.1c.3-1 .6-2.2 1-3.3l3.2-9.4h3.1l-4.3 11.4c-2.1 5.5-3.5 8.3-5.5 10-1 .9-2.2 1.6-3.6 1.9l-.8-2.5c.9-.3 1.8-.8 2.5-1.4 1.1-.9 1.9-2 2.5-3.2.1-.2.2-.4.2-.7s-.1-.5-.2-.8l-5.9-14.7zm5.4-6.9 3.2 4.7h-2.2l-1.9-3.1h-.1l-1.9 3.1h-2.2l3.1-4.7zm8.4-.7h3.7v3.7c0 2.6-1.1 4.9-3.6 4.9v-1.6c1.5 0 1.9-1.7 1.9-3.2h-2zm6.3 6.5h2.6v3.6h.1c1.4-2.7 3.2-4.1 6.3-4v3c-4.5 0-6.2 2.6-6.2 6.9v7.6h-2.8zm36.6.6c-.7-3.3-3.3-5-6.6-5-5.6 0-8 4.6-8 9.5 0 5.4 2.4 9.9 8 9.9 4.1 0 6.5-2.9 6.8-6.8h3.1c-.6 5.9-4.2 9.4-10.2 9.4-7.3 0-10.9-5.4-10.9-12.3s3.9-12.4 11.1-12.4c4.9 0 9 2.6 9.7 7.6zM180.2 35.4h-3l-3.5-13.6-3.5 13.6h-3l-5.5-17.1h3.1l3.9 14h.1l3.4-14h3l3.6 14h.1l3.8-14h2.9zM187.5 18.3h2.6v2.5h.1c1.2-1.9 3.3-3 5.5-2.9 2.1 0 4 .8 4.7 2.9 1.2-1.8 3.2-2.9 5.3-2.9 3.4 0 5.7 1.4 5.7 4.9v12.5h-2.8V24.2c0-2.1-.6-3.8-3.3-3.8-2.3-.2-4.3 1.5-4.4 3.8v11.2H198V24.2c0-2.2-.7-3.8-3.2-3.8s-4.4 1.9-4.6 4.4v10.6h-2.8zm27.3 0h2.6V21h.1c1.1-2 3.2-3.2 5.5-3.1 4.5 0 5.9 2.6 5.9 6.2v11.3h-2.8V23.8c.1-1.8-1.2-3.3-3-3.4h-.5c-3.4 0-5 2.3-5 5.3v9.6h-2.8zm14.3-5.9h3v3.4h-3zm3.2 5.9h2.8v17h-2.8zm3-5.9h3v3.4h-3zm18.4 22.9c-.6.3-1.3.5-2 .5-1.4 0-2.4-.8-2.4-2.6-1.5 1.7-3.7 2.7-6 2.6-3.1 0-5.6-1.4-5.6-4.8 0-3.9 2.9-4.7 5.8-5.2 3.1-.6 5.7-.4 5.7-2.5 0-2.4-2-2.8-3.8-2.8-2.4 0-4.1.7-4.2 3.2h-2.8c.2-4.2 3.4-5.7 7.2-5.7 3.1 0 6.4.7 6.4 4.7v8.8c0 1.3 0 1.9.9 1.9.3 0 .6-.1.9-.2zm-4.6-8.7c-1.1.8-3.2.8-5.1 1.2s-3.4 1-3.4 3.1c0 1.8 1.6 2.5 3.3 2.5 3.7 0 5.2-2.3 5.2-3.9zm20.4 8.8h-2.6v-2.7h-.1c-1.1 2-3.2 3.2-5.5 3.1-4.5 0-5.9-2.6-5.9-6.2V18.3h2.8v11.5c-.1 1.8 1.2 3.3 3 3.4h.5c3.4 0 5-2.3 5-5.3v-9.6h2.8z"/></g><path d="M64.33 25.84h-.12l-.34-.92c.16-.2.24-.53 0-.69-.33-.13-1.26-1.18-1.53-.5-.12.04-.85.08-.9.22-.35-.56-.65-1.14-.87-1.8.14-.76 2.16-1.72 2.16-1.72s-.57-.83-.8-1.29c-.1.23-.2.13-.42.23 1.13-1.99 1.36-4.62-.12-6.5-.15-.33-.08-.76-.23-1.08-.26-.34-.44-1.01-.89-1.08 0 .59-.07 1.17.22 1.72.31.38-.42.71-.64.4.43-.05.5-.14.35-.38-1.85-.42-2.89.88-4.66 1.09-.16 0-.29.05-.38.2-1.09 1.47 1.35.47 1.57 1.44-.41.34-.46.12-.85.02-.55.02-1.09.2-.4.66-.42.66-.4.89-1.25.95.37.52.29 1.27.38 1.87-.6.12-1.02.41-1.03 1.05-.27.06-.57-.08-.76.21-.38-.32-.82-.38-1.28-.38-.22-.16-.76-.55-1.35-.85.12-.43.23-.83.33-1.21.17-.11.78-.5.94-.6-.08-.16-.4-.82-.49-1 1.09-3.76 1.44-3.97 2-4.05l.03-.1-2.02-.64-.03.13c.51.37.68.99.44 1.7-.54-.23-.85-.74-.79-1.2-.01 0-.14-.04-.14-.04l-.68 2.24s.1.03.11.03c.27-.38.73-.6 1.26-.51-.62 1.99-3.44 1.37-2.93-.32.36-.7 1.04-.25.71.48 1.58-.55.64-2.82-.7-1.47.45-.92.7-1.63.14-2.52-.73.47-.91 1.31-.77 2.44-.89-2.04-2.45.06-1.18 1.13-.23-1.51 1.64-.51.37.7-1.2.85-2.69-.13-2.73-1.63.7.06 1.22.47 1.29.99h.13l.08-2.56h-.16c-.11.52-.67.96-1.39.98.05-.79.5-1.41 1.09-1.51v-.15h-2.96v.15c.59.1 1.04.72 1.09 1.51-.72-.01-1.28-.46-1.39-.98h-.16l.08 2.56h.13c.07-.51.6-.93 1.29-.99-.04 1.5-1.52 2.48-2.73 1.63-1.26-1.22.6-2.22.37-.7 1.26-1.07-.29-3.16-1.18-1.13.14-1.13-.05-1.97-.77-2.44-.56.88-.31 1.6.14 2.52-1.35-1.35-2.28.92-.7 1.47-.33-.73.35-1.18.71-.48.5 1.69-2.31 2.31-2.93.32.53-.09 1 .12 1.26.51.01 0 .11-.03.11-.03l-.68-2.24s-.12.03-.14.04c.06.46-.25.97-.79 1.2-.23-.72-.07-1.33.44-1.7l-.03-.13-2.02.64.03.1c.55.08.9.29 2 4.05-.09.18-.41.83-.49 1 .16.1.77.49.94.6.1.34.2.71.3 1.1h.01s0 .02-.01 0c-2.72 1.27-2.1 2.13-4.2 1.89-.19.44-.36.86-.79 1.16-.08-.66-.38-1.18-.76-1.65-.2-.23-.46.03-.75.05-.57 1.24-.96.12-1.96.77.04.58.13 1.15.44 1.68-.74-.05-1.36-.25-1.85-.6-2.22 2.48-4.55 4.87-6.45 7.6-1.01 1.34-3.73.56-3.01-1.29.33-1.35 2.28-1.06 2.15.28.96-1.07.34-2.14-1.13-1.9 1.35-.59 2.16.52 3.38-1-.93.03-1.72-.27-2.65-.06 1.17-.7 2.78.34 3.79-1.6-.87.09-1.67.46-2.57.59 5.43-5.17.21-5.43.87-7.66-.42.36-.67.72-.47 1.2-1.22-.51-3.02-.36-3.51-1.83-.12 2.1.81 1.95 2.39 2.39-.74-.08-1.46-.09-2.14-.34.14.94.86 1.14 1.7 1.05-.83.46-.64 1.63.2 2.04-.53-3.04 4.02-2 1.94.79-.96 1.44-2.36 2.51-3.54 3.77-.22-.38-.46-.77-.96-.71.89 1.03-.12 2.15-.35 3.22-.34 1.31.82 2.44 2.06 2.59-.49.59-.53 1.11-.16 1.59.38-1.93 3.18-1.5 3.44-3.59.05-.25.16-.44.44-.55-1.26 1.43 1.78 4.46-1.08 4.81-.41.01-.51.44-.28.75-1.18-.06-1.5.39-1.68 1.5.52-.14 1-.26 1.49-.38-.51 1.35-1.68-.08-1.49 2.32.47-.23.92-.47 1.36-.74.42 1.35-2.14.76-.21 2.91.12-.4.64-1.22.9-1.41-.23.68-.18 1.46.58 1.76.03-.18.07-.34.1-.5h.07c.11.45.12 1.07.56 1.33.14.06.22.14.27.29.08.25.31.32.53.34.28.06.35-.26.56-.39.06.35.47.41.68.71.16-1.74-2.16-1.11-1.63-2.26.21.7.86.55 1.32.84.18.29.61.53.83.13q.315.24.6.45c-.45-2.08-1.53-.79-2.21-1.88.47.02.98.72 1.48.24.27.28.49.61.69.94.08-.66-.16-1.17-.68-1.54-.59-.36-1.39.28-1.89-.44-.69-.85-.67-2.04-.31-3.02.33-.75 1.24-1.03 1.67-1.75-.12.63-.06 1.73.66 1.93-.18-1.17.66-2.23.83-3.36.21-.29.23-.51.03-.82-.36-.59-.46-1.28-.85-1.86-.61-.85-1.36-.88-.12-1.78-.75 1.17-.14.74.51 1.85.12-.37.68-.86-.02-.85-1.09-.54 1.42-1.93 1.99-1.97.56-.05 1.35.02 1.78-.53-.27-.51-.53-.58-.07-1.1-.31-.18-.58-.39-.63-.79-.29.1-.55.19-.85.29.27-.31 1.09-.94 1.17-.24.02.39.41.46.71.56-.22.32-.59.64-.25 1.02.23.25.38.71.74.77.1-.36.19-.72.29-1.07.8.83-.8 1.3 1.39 2.05-.08-.45-.15-.89-.09-1.35 1.05.88-.46 1.44 1.98 1.72-.27-.32-.33-.68-.44-1.03.4.07.74.46 1 .75.25.38.44.59 1.01.21.03.07.03.16.08.2.25.2.16.43.15.69h.07c.34-.34.36-.74.25-1.16-.23-.81-1.22-.16-1.56-.99.46.32.92.5 1.44.23.29.27.4.46.54.85.23-.87-.03-1.75-.95-1.49-.29.1-.4.08-.69-.17.42.15.71-.07.98-.27.06.08.09.16.13.16.26.01.42.17.59.36.08-.74-.65-1.34-1.39-1.15-.18.91-.95.4-1.55.27-.94-.55-1.43-1.61-2.26-2.29.08-1.02-.77-1.83-1.79-1.78.92-.4 2.01.39 2.08 1.35.03.39.27.64.52.93 3.11-6.25 13.14-7.88 18.9-3.92.49.45 1.02.82 1.54 1.29.2-.6.08-1.31.97-.94l.17-.11c-.18-.51.2-1.07.72-1.11v.39c-.23.04-.41.26-.38.5.18-.04.34.2.24.35.17.1.4.06.53-.08.15 0 .29.02.44.04-.2.48-.9.64-1.3.29.08.1-.27 1.17-.28 1.29-.04.16-.18.26-.34.25.07.1.12.19.18.29.25-.14.6-.13.57-.49.05-.2-.08-1.14.21-1.05.12.35-.1.76.16 1.11.83-.21.47-.96 1.48-1.15.4-.04 1.24-.23 1.46.17-.88-.23-2.02 0-2.21 1.01-.92.21-1.68.87-2.66.87-.77.05-.98.98-1.01 1.61-.13.74-.17 1.49-.49 2.17-.16.26-.03.56.07.8.3.16.51 1.18.55 1.55 0 .67 1.15.9 1.62 1.31.13-.84-1.46-.6-1.24-1.78.29.78.9.94 1.58 1.32-.21-.79-.27-2.1-1.37-1.93-.42-.59.2-.62 0-1.33.31.1.46.21.55.4-.1-.03-.18-.06-.32-.1.04.5.47.62.8.96-.06-.81-.13-1.33-.88-1.73-.43-.4.07-1.3.04-1.85-.01-.16 1.01-.67 1.17-.62.76.1 1.56-.02 2.3.17.74.23.1-1.37 1.29-.53-.87-.25-.34.69-.96.74-.44 0-.81-.04-1.26-.05 1.56 3.48 5.03 2.46 5.99 5.57.8-.7.25-.7.03-1.43 1.8 1.2-1.68 2.6-.37 4.7-.08-.23.74-1.22.83-1.42.15-.22.4-.23.57-.08l.26-.54c-.49-.27.39-1.41.46-1.73.09-.2.3-.29.46-.21l.24-.68c-.46-.12-.12-1.24-.15-1.55-.64-.59-1.17-1.31-1.67-1.99l.31-.05c-.03.15.02.32.15.41.22.08 1.07.9 1.33.71l.13.36c-.21.06-.25.36-.25.56l.35.29c.01-.07 0-.4.07-.46.1.13.29.13.4.03.1.05-.03.77-.01.87.12.14.24.27.36.42-.05-.33.36-1.59-.2-1.65h.02Zm-9.08-11.75c.12-.01.21-.03.34-.04-.23-.16 0-.39.18-.23.45.35-.46.92-.53.27Zm-18.08 3.3-.95-.6.5-1.01 1.37.49-.92 1.13Zm3.11-.79c-1.49.3-1.8-1.33-.31-1.61 1.49-.3 1.8 1.33.31 1.61m3.36-.13-1.46-1.03 1.47-1.03 1.46 1.03zm4.67-.46c-.18 1.05-2.52.59-2.3-.44.18-1.05 2.52-.59 2.3.44m.88.24 1.37-.49.5 1.01-.95.6-.92-1.13Zm11.29-4.8c.27.3.39.62.38.99-.26-.09-.37-.37-.38-.99m-1.23 1.93c-.36.25-.69.61-1.06.12-.08.02-.16.03-.24.05.55-.85.5-.7 1.3-.17m-3.03 3.08c.24.08.47.21.72-.03-.23 0-.31-.16-.38-.33-.12-.8 1.19-.52 1.68-.46 1.23.75 3.31.27 2.59-1.5.57.35.37 1.32-.06 1.7-1.13.61-2.21.15-3.34 1.35-.18-.55-.83-.52-1.06.08-.21.01-.27.01-.47.03-.04-.32.22-.55.33-.85Zm4.28 5.26c-.05.07-.16.2-.16.2-.94-1.08-4.12-2.31-5.5-2.11l.03-.25h-.01l.52-.33-.45-.37c0-.05-.29-1.86-.29-1.86l.79-.03s-.28.33-.29.59c.05.03.08.08.11.13.16-.07.33-.4.33-.4l.08 1.07s-.22-.31-.38-.36c-.01.04-.03.08-.06.1.23.71 1.26.75 1.27.14-.03-.32-.38-.27-.36.07-.57-.45.2-1.17.51-.45-.04-.42 0-.66.32-.86.21.27.18.53-.05.93.7-.65.96.45.31.61.32-.58-.6-.4-.26.21.31.47 1.06.4 1.32-.11-.02-.03-.03-.07-.04-.1-.26-.05-.65.18-.65.18l.36-.99s.15.42.37.55c.04-.04.09-.07.14-.08.04-.26-.22-.67-.22-.67l1.21.47s-.48.12-.63.34c.03.05.05.1.05.15.25.05.66-.16.66-.16l-.44.96s-.12-.42-.35-.56c-.03.02-.07.03-.1.05-.17.56.33 1.1.88.96.67-.2.14-.96-.05-.33-.36-.56.61-1.17.66-.24.12-.45.28-.66.62-.71.09.36-.05.56-.38.84.75-.32.78.72.06.67.25-.23.03-.5-.21-.29-.44.45.38 1.1 1.01.77q0-.06.03-.12c-.16-.11-.53-.12-.53-.12l.77-.57s-.09.34-.02.53c.06 0 .12 0 .17.02.17-.17.18-.62.18-.62l.58.72s-1.46.67-1.71.87l-.4-.04.2.57h-.01v.01Zm3.12 2.95c-.18-.02-.33.14-.27.34-.02 0-.03 0-.05-.02l-.85-.58a.15.15 0 0 1-.04-.18c.16 0 .33-.09.31-.29.07.08.98.57.9.72Z"/><path d="M53.35 20.53a.23.23 0 0 1-.03-.27c-.1-.02-.27.94-.31.99.07.07.13.13.19.2.09.03.24.08.27-.05l.22-.85c-.1.09-.27.1-.34-.02m-12.8 23.95c-2.41-.95-4.16 1.38-2.19 1.77-2.15.09-1.74-2.94-2.63-2.76.78.84.78 2.41 1.5 2.84 1.45.62 2.95.72 4.51.64-.78-.7-.97-1.57-1.18-2.49Zm7.35 1.74c1.96-.39.22-2.73-2.19-1.77-.21.92-.4 1.8-1.18 2.49 1.55.07 3.06-.03 4.51-.64.72-.44.72-2 1.5-2.84-.89-.18-.47 2.86-2.63 2.76Zm15.77-18.81s.01.09.05.12c.11-.09.28-.05.36.06.12-.04.08-.42.11-.52-.14-.16-.29-.3-.45-.44zm-.61 2.89c.01-.11.62-1.11.46-1.2a.27.27 0 0 1-.28-.14c-.15-.06-.53 1.03-.6 1.1.2-.12.44.08.37.3.02-.01.04-.03.05-.06"/><path d="M69.94 25.68c-.5.16-.71.57-.9 1.05-1.26-1.97-3.67-3.34-4.03-5.75.29-1.93 2.84-1.49 2.32.52 1.33-.72.68-2.04-.57-2.28 1.36.11 2.1 1.26 3.02-.65-.8.29-2.03.08-2.45.02 1.69-.23 2.61-.21 2.56-2.32-.57 1.26-2.17 1.28-3.33 1.69.07-.56-.1-.9-.55-1.08.46 3.07-5.36 2.07 1.03 8.68-.79-.43-1.7-.29-2.46-.77.59 1.59 1.59 1.32 2.9 1.87-1.41 0-1.84 1.36-.8 2.02-.27-1.06 1.18-1.78 1.91-.96 1.66 2.13-1.38 5.09-4.07-.25.02.29-.19.56-.47.47l-.31.85c.62.23-.33 1.42-.4 1.76-.1.23-.34.3-.53.17l-.3.62c.37.34-.63 1.31-.74 1.61-.12.18-.33.23-.47.14l-.11.22.04.05c.68.81 1 1.42.81 2.28.55-.47.8-1.79.36-2.5.5.52 1.22.9 1.51 1.56.29 1.21.07 2.41-.75 3.37-.35.35-.25.53-.3.96-.23.68-1.05.74-1.36 1.32-.21.51-.57.92-.73 1.45.93-.14.77-1.44 1.65-1.7-.36.54-.7 1.03-.94 1.67.74-.19 2.11-.39 1.89-1.42-.18-.47.29-.79.27-1.25.58-.21.45-.44.72-.9.13.27.14.51.12.8-.07-.15-.12-.24-.17-.34-.41.56-.07 1.1-.12 1.7 2.02-1.81-.66-1.8 1.44-5.82.48-.8-1.37-.71-1.51-2.52-.13-.78.55-1.42.7-2.17.81 1.44 3.64 1.39 3.25 3.23.57-.43.55-1.22.32-1.8 2.91-1.05.61-3.73 1.55-5.63z"/><path d="M61.26 32.58c.07.03.12.07.14.14.05 0 .1-.02.13-.07.02-.07.74-1.01.66-1.07-.08-.03-.16-.08-.18-.16-.07-.07-.17-.1-.23 0-.03.12-.83 1.02-.62 1.14.03 0 .07 0 .1.02m-.41.19s.03.04.04.06v-.03zm-28.21 4.08c.29.05.62.11.9-.02-.44-.75-.87-1.48-1.32-2.25-.78.96-2.14.38-3-.21-.7-.51.81-1.31.33-3.02.67 1.08-.55 2.01 1.33 2.61-.54-.81-.47-1.85-.67-2.77-.03-.16-.1-.32.03-.47.07-.22.08-.52-.22-.55-2.09-1.2-1.67-.62-3.71-.9-.5.88.57 1.67.4 2.54-.15.42.49.4.49.82.14.64.07 1.55-.66 1.8-.36.22-.07.69.25.79-.65 1.17-.15 1.36.84 1.94 0-.45.01-.85.2-1.23 1.37.91-.67 1.06 2.05 2.17-.27-.46-.27-.95-.31-1.41l.76.18c.29 1.26.98 1.37 2.17 1.26-.43-.43-.55-.98-.87-1.42.36.12.72-.12 1.03.16Zm24.49-7.01c-.37.06-.46.21-.39.58-.42.9-.42 1.98-1.13 2.74 1.52-.43 1.18-1.01 1.55-2.17-.08 1.57 0 1.55.57 2.63-1.18.83-3.1.13-3.74 1.74.18.21.41 0 .65.05-.16.18-.21.4-.46.57.05-.16.08-.25.12-.34-.44-.15-.8.86-1.13 1.18 3.14-.63-.38-1.55 5.8-2.27 1.09-.51-1.03-1.32 1.11-2.68.19-.74.31-1.51.71-2.18.1-.22-.06-.53-.26-.68-.94.66-1.39-.4-3.42.85h.02ZM25.45 16.95c.01-.21.03-.41.04-.63-.23-.04-.46-.08-.7-.12.29-.21.63-.27.91-.16-.24 1.01.19 1.72 1.27 1.78.33-.49.62-.57.95-.22-1.43-.15-.37 1.37.36.85.2-.28.81-.53.63-.92-1.13-.83-1.05.4-1.27-1.65-.05 0-.1 0-.14-.01-.1.39-.49.69-.8.33-.11-.12-.2-.23-.38-.27.77-.62 1.7.27 1.65-1.18.87 1.09.94-.12 1.8-.14-.04.86-.21.79-.96.74.24.18 1.16 1.11.62 1.19-.23-.58-.6-1.14-1.24-1.25-.51.51-.26 1.09-.18 1.68.46-.16.85-.45 1.33-.42.16.47-.6.74-.17 1.2.74.12 1.54.12 1.3-.92-.24-.14-.48-.24-.73.02.01-.4.41-.47.72-.4.68-.73.46-1.68-.28-2.26.2-.29.4-.48.75-.55-.12.25-.37.34-.42.56.16.2.31.38.46.57.39-.18.49-.79.21-1.42-.48.12-1.33.53-1.33.53-.42-.16-.24.05-.18.25-1.33.25-2.64.59-3.7 1.48-.19.14-.28.05-.34-.21-.12-.2-.18.14-.2.22 0 0-.8.2-1.15.49.25.41.59 1.05 1.14.83h.02Z"/><path d="M30.68 16.55c.12.6-.05 1.11-.44 1.58.59 1.06 1.59 1.86 2.04 3.01.99-1.85-.07-2.47-1.43-3.48.87.31 1.76.61 2.24 1.44.1-1.59-.6-2.37-2.14-2.62 0-.02 0-.05.01-.07.64-.03 1.28-.03 1.88.36-.16-.49-.56-1.22-1.14-1.16.21-.44.21-.73 0-.99-.1.31-.29.49-.6.51.07.55-.11 1.01-.41 1.41Zm-4.9 3.61c.18.44.46.96.9 1.14-.23-.87.36-1.63.63-2.43 0 1.82-1.03 2.81 1.47 3.48-.66-1.07-.23-2.37-.64-3.47-.4-.23-.85-.29-1.13-.62-.07-.16-.21-.21-.36-.25-.47-.1-.9-.26-1.14-.65-.34.11-.55.1-.87-.04-.03.39.31.78.74.63-.35.51-.16.97-.03 1.49.25-.53.63-.84 1.06-1.11-.33.56-.91 1.12-.64 1.82Zm10.03 18.59c.34-.31-.12-.49-.3-.74-3.01-2.8-4.14-6.45-3.87-10.5-.07-.04-.16-.08-.31-.16-.51 4.29 1.15 8.63 4.49 11.39Zm26.9-23.33c-.29.55.54.78.55 1.3-.22-.18-.4-.32-.61-.49-.26 1.02.94 1.35 1.31 2.15.49-1.49.22-2.39-1.26-2.97Zm-33.1 4.4c-.8.05-.68-.96-.92-1.52-.14.16-.27.3-.4.45.16.56.33 1.12.51 1.71l.36-.26c.56.4 1.07.12 1.25-.49.16.04.32.11.44 0-.26-.54-.51-1.06-.77-1.59-.16.03-.31-.2-.5-.01.18.49.84 1.49.03 1.72Zm32.95-6.9s0 .05-.01.07c-.25-.01-.5-.03-.76-.04.28.9 1.33.47 1.99.88-.38-.72-.65-1.43-1.54-1.57.09-.43-.02-.84-.29-1 0 .38-.15.65-.49.79-.17.75.61.71 1.11.87Zm-.22 5.2h-.07c-.18.81.37 1.51.72 2.19.6-1.07.58-2.29-.38-3.14-.29.57.12 1.11.26 1.65q-.03 0-.06.03c-.16-.24-.32-.49-.47-.73m-.23-4.49c.34.82.9.62 1.26 1.16-.3-.1-.57-.18-.83-.27-.02.87 1.08.96 1.69 1.3-.1-1.41-.78-1.94-2.11-2.19Zm-3.16-1.48c.38 0 .92.24 1.22.03 0-1.19-1.44-1.03-2.27-1.06.25.45.56.88 1.05 1.03m-4.13 16.97c-.31-.03-.6-.05-.94-.07.01.17.02.29.03.42.19.05.35.08.52.13.05.98-.49 1-1.22.59-.21 1.24 1.79 1.12 1.61-1.07m-.69-3.97c-1.11 1.35-1.12 1.55.57 2.13-.01-.16-.03-.25-.04-.37-.33-.1-.65-.22-.95-.42.21-.26.41-.51.62-.76-.06-.18-.12-.35-.2-.59Zm-5.16-4.93c.18-.01.34-.03.51-.04.18-.66-.2-.74-.65-1.09-.18.55-.66.81-.94 1.28.44-.03.7-.18.96-.52.05.13.08.25.13.37Zm2.55 2.99c.16-.44.99-1.51.54-1.84-.21.12-.64.07-.6.4v1.43s.04.01.06.02Zm8.28-12.19s.03-.05.05-.07c-.47-.67-.67-.81-1.5-.81.01.81.85.81 1.44.88Zm-2.11-1.99c-.03.57.45.9 1.24.86-.21-.58-.62-.89-1.24-.86m-1.86 5.93c-.64-.3-1.17.08-1.82-.06.18.9 1.26.25 1.82.06m1.23-6.84c.17.57.39.7.98.61-.19-.47-.49-.66-.98-.61m.32-.3c-.23-.49-.35-.55-.83-.5.2.49.49.66.83.5m-2.96 15.94c.16.26.31.53.46.78.6 0 .09-.49-.05-.71-.08-.08-.24-.08-.37-.12-.01.02-.03.03-.04.05m-1.71.68c.31-.18.62-.31.89-.53-.07-.09-.11-.16-.18-.26-.26.26-.88.34-.71.79m3.95-17.42c.08-.31-.36-.73-.68-.6.05.34.4.64.68.6m-29.85 5.33c.16-.16-.08-.4-.24-.25-.16.16.08.41.24.25m.22.46c.16-.16-.08-.4-.24-.25-.16.16.08.41.24.25"/><path d="m25.89 10.75-.39.03.21.51.28-.33s.03.02.05.02l.04.69c.07.6.99.23.62-.25l-.44-.53s.02-.03.02-.05l.42.05-.21-.51-.31.25s-.03-.02-.05-.02l-.03-.5c-.12.05-.38.15-.51.2l.32.38s-.01.03-.02.05Zm-1.13 2.69c.25 0 .26-.39 0-.39s-.26.39 0 .39m-.04.52c.25 0 .26-.39 0-.39s-.26.39 0 .39m.82-1.75c.25 0 .26-.39 0-.39s-.26.39 0 .39m-.61.77c.25 0 .26-.39 0-.39s-.26.39 0 .39m2.37.49c-.01-.2.13-.58.13-.58l-.8.32s.37.18.49.33c-.17.06-.33.09-.57-.02l.31.62c.07-.27.21-.44.31-.46.34.52-.5 1.09-.87.64-.1-.18.02-.38.23-.23-.03-.38-.36-.38-.47-.1 0-.4-.09-.63-.5-.75-.1.39.03.63.42.8-.22-.03-.47.19-.16.47 0-.25.21-.27.33-.11.18.46-.36.64-.81.17.1-.04.2-.02.34.01l-.42-.53c.02.19 0 .33-.03.41-.09-.1-.12-.2-.16-.4l-.32.28c.31.2.65.49 1.07 1.1.56-.55 2.82-1.5 3.69-1.47-.1-.73-.07-1.19.03-1.54h-.43c.11.19.16.27.16.42a.9.9 0 0 1-.3-.27l.06.68c.08-.12.14-.2.24-.25 0 .64-.51.88-.7.43-.03-.2.14-.32.31-.14.03-.41-.29-.4-.44-.23.17-.39.1-.66-.25-.87-.22.37-.13.61.15.89-.27-.14-.51.09-.27.39.05-.26.28-.2.33 0 .04.57-.96.73-1.07.12.09-.06.31-.04.55.12l-.2-.66c-.1.24-.23.33-.4.4Zm10.59 21c.3.18.64.37.95.55-.75.92.6 1.31.53.42.51.21 2.5.83 1.7-.36-2.61.08-3.94-2.65-2.5-4.75.88.4 3.96-1.1 3.71.43.16.17.21.19.57.18.89-2.05-2.18-1.44-3.28-1.2-.98.29-1.89-1.14-2.76-.36-.34.31-.12.99.35 1.01.42.01.53-.56.16-.74.81-.27.42 1.03.13 1.36-.93-.48-1.08 1.01-.16.62.04.27.05.53-.01.79-1-.21-.74 1.22.01.64.21.21.32.53.34.83-1.01.14-.2 1.44.27.57Z"/><path d="M40.8 36.04s-.08-.03-.14-.05c-.07.19-.18.53-.01.65l.85.36 1.09-.81.29-4.36-.32.03c-.08 0-.68 5.03-.99 4.74.07-.33.79-4.74.79-4.74s-.21-.03-.32-.05c-.02.1-.04.23-.04.23l-1.2-1.57-.16.07 1.28 1.69-.08.3c-.12-.08-1.36-1.8-1.48-1.96l-.25-.02 1.67 2.18-.09.29-1.87-2.46h-.24l2.03 2.67-.1.38-2.22-3.02H39l2.46 3.26-.09.3-2.72-3.55-.05.27s2.53 3.32 2.69 3.55c-.13.41-.03.44.15.78.1.38-.16.97-.61.83Z"/><path d="m41.06 34.66-2.6-3.45s-.05.16-.07.23c.2.25 2.49 3.3 2.49 3.3l.18-.09Zm-2.6-2.29c.6.76 1.19 1.54 1.78 2.31.08.01.25.05.25.05l-2.12-2.82s-.04.29.1.46Zm4.53-1.28c-.29-.03-.59-.08-.87-.11-.55.47.07.75.47.71.35.09.82-.37.4-.6m-.09 12.3c-.08.39.53.51.6.12.08-.39-.53-.51-.6-.12m.55-2.33c.1-.48-.66-.64-.75-.15-.1.48.66.64.75.15m-2.59-1.29c.1-.48-.66-.64-.75-.15-.1.48.66.64.75.15m4.17 4.72c-.31 1.74-1.14 2.52-1.88 2.52s-1.57-.79-1.88-2.52c.1.08.18.2.29.34l.16.21.23-.14c.1-.06.19-.11.28-.14-.1.2-.13.44-.08.69.1.52.51.89 1.01.89s.9-.37 1.01-.89c.05-.25.01-.49-.08-.69.08.03.18.08.28.14l.23.14.16-.21c.1-.14.2-.25.29-.34m.34-.47c-.44.05-.66.34-.88.64-.2-.12-.47-.25-.72-.25-.14 0-.26.04-.38.13.79.31.51 1.51-.26 1.52-.77 0-1.05-1.2-.26-1.52a.6.6 0 0 0-.38-.13c-.25 0-.51.12-.72.25-.23-.3-.46-.59-.88-.64.23 2.19 1.24 3.29 2.24 3.29s2-1.1 2.24-3.29h.01Zm-7.15-5.75c.33-.4-.83-.92-1-1.14-.14-.08-.31-.07-.4.06-.33.38.81.91.97 1.12.14.11.34.09.44-.03Z"/><path d="M38.09 39.11c1.29 0 1.12-2.03-.15-1.81.59.32 1.1 1.16.18 1.4-.34.07-.7-.3-.95-.48 0 .49.42.9.91.9Z"/><path d="M36.26 39.45c.28.54 1.93 2 2.39 1.31-.81-.41-2.17-1.42-1.65-2.69-1.18-.73-.14-1.89.79-.9.98-.61 2.08-.18 3.05.5.35-.75-1.35-1.27-1.74-1.5-.5-.17-2.07.19-2.6.21a.68.68 0 0 0-.59.72c.08.38.07 2.04.35 2.35m14.56-28.78.73.23c-1.16-2.43-3.27-4.26-5.82-4.92-.07.17-.12.35-.17.55 2.24.56 4.12 2.09 5.26 4.14m-15.08.24.73-.23c1.13-2.06 3.02-3.58 5.26-4.14-.05-.2-.11-.38-.17-.55-2.55.66-4.66 2.48-5.82 4.92m13.4-3.94c.52 0 .52-.81 0-.81s-.52.81 0 .81M47.3 5.92c.52 0 .52-.81 0-.81s-.52.81 0 .81m-1-.36c.52 0 .52-.81 0-.81s-.52.81 0 .81m1.95.83c.52 0 .52-.81 0-.81s-.52.81 0 .81m1.72 1.25c.52 0 .52-.81 0-.81s-.52.81 0 .81m2.09 3.03c0 .52.81.52.81 0s-.81-.52-.81 0m-.48-.95c0 .52.81.52.81 0s-.81-.52-.81 0m-.86-1.32c.52 0 .52-.81 0-.81s-.52.81 0 .81m.27.42c0 .52.81.52.81 0s-.81-.52-.81 0M38.14 6.97c.52 0 .52-.81 0-.81s-.52.81 0 .81m-.83.67c.52 0 .52-.81 0-.81s-.52.81 0 .81m-2.49 3.43c.52 0 .52-.81 0-.81s-.52.81 0 .81m4.22-4.68c.52 0 .52-.81 0-.81s-.52.81 0 .81m-3.15 2.84c.52 0 .52-.81 0-.81s-.52.81 0 .81m-.58.9c.52 0 .52-.81 0-.81s-.52.81 0 .81m5.68-4.57c.52 0 .52-.81 0-.81s-.52.81 0 .81M36.56 8.4c.52 0 .52-.81 0-.81s-.52.81 0 .81m3.43-2.48c.52 0 .52-.81 0-.81s-.52.81 0 .81m4.35 3.74h.54c0-1.7.25-3.17.69-4.14.15-.31-.34-.54-.49-.22-.64 1.41-.74 3.33-.74 4.36m-1.93 0h.54c0-1.03-.1-2.96-.74-4.36-.14-.32-.64-.09-.49.22.44.97.69 2.44.69 4.14m1.23-.01c.57 0 .57-.88 0-.87-.57 0-.57.88 0 .87m0-1.09c.57 0 .57-.88 0-.87-.57 0-.57.88 0 .87m0-1.09c.57 0 .57-.88 0-.87-.57 0-.57.88 0 .87m-.3-1.07c.18-.1.44-.1.62 0 .62-.96-1.24-.96-.62 0"/><path d="M43.99 5.48c.49-.9-1.18-.9-.7 0 .2-.12.49-.12.7 0"/><path d="M43.38 1.81c-.07.56-.36.99-.73 1.05V3h.71s-.07.05-.09.08c-1.26.28-1.39 2.21-.19 2.66-.47-.46-.11-1.33.55-1.31.66-.02 1.03.85.55 1.31 1.2-.46 1.07-2.38-.19-2.66-.03-.03-.05-.07-.09-.08h.71v-.14c-.36-.07-.66-.5-.73-1.05.56.07.99.36 1.05.73h.14V.56h-.14c-.07.36-.5.66-1.05.73.07-.56.36-.99.73-1.05V.09h-1.98v.14c.36.07.66.5.73 1.05-.56-.07-.99-.36-1.05-.73h-.14v1.98h.14c.07-.36.5-.66 1.05-.73h.01Zm17.46 30.96c-.05-.08-.09-.15-.12-.23.01.09.05.18.12.23m-.33.83c-.56-.35-.87 1.2-1.08 1.46-.1.23-.01.47.2.55l-.41.86c-.22-.04-.42.13-.42.39.08.33-.25 1.78.34 1.8v.4c-1.42.25-1.21 2.49.25 2.46 1.45.04 1.68-2.18.27-2.45v-.38c.22.04.42-.13.42-.39-.08-.33.22-1.72-.29-1.8l.31-.65c.53.29.85-1.22 1.05-1.48.09-.21.02-.45-.16-.53l.24-.49c-.07-.08-.2-.29-.33-.51l-.37.77v-.02Zm-.27 6.67c-.34 1.99-2.91.02-1.07-.82.08.2.38.2.46 0 .35.1.61.43.61.82m-.58-2.04c.04-.29-.33-.44-.48-.2.04-.11-.1-1.19.1-1.19.08.06.2.07.29 0 .06.01.11.07.11.14v1.17s0 .05-.01.07Zm1.08-3.94c-.06.07-.46 1.2-.59 1.16-.05-.09-.18-.15-.28-.12-.06-.03-.08-.11-.05-.19.08-.08.44-1.24.62-1.15.05.11.18.18.29.15.03.04.04.1.01.16Zm-28.7-3.19.12.48 2.22-.27-.11-.44c-.11-.03-1.5.23-1.5.23s1.31-1.54 1.28-1.72l-2.24.25.05.38c.11-.01 1.32-.18 1.32-.18s-1.09 1.24-1.14 1.26Zm.78 2.85c1.07 1.03 2.76-.62 1.65-1.67-1.07-1.04-2.79.62-1.65 1.67m.13-1.15c.47-.85 2.04-.34 1.39.62-.49.83-2.03.36-1.39-.62m1.37 3.57.38.52c.4-.49 1.22-1.08 1.81-1.31l-.38-.52c-.14.24-.46.47-.72.64l-.57-.79c.24-.18.57-.42.83-.47l-.38-.52c-.4.49-1.22 1.08-1.81 1.31l.38.52c.14-.23.46-.47.71-.64l.57.79c-.24.18-.56.41-.83.47Zm-.22-7.74.03-.47c-.63.12-1.66.12-2.29 0l-.03.47c.63-.12 1.66-.12 2.29 0m16.12 9.58c1.36-.59 1.05-1.94-.47-1.33-.64-.18.17-.84.6-.69h.01l-.33-.39c-.48.21-1.25.86-.84 1.41.29.36.86-.03 1.23-.02.62.11-.05.76-.43.72m3.95-4.41.38-1.31c-.2.01-1.96-.5-2.11-.62l-.36 1.24.37.31c-.03-.29.01-.61.12-.97l.67.2c-.07.2-.18.64-.27.75l.33.05.21-.72.64.19c-.08.24-.18.43-.32.57zm-.89 1.74.21-.4-1.74-1.16-.19.36c.07.08 1.2.75 1.2.75s-1.87.25-1.96.39l1.74 1.19.2-.29c-.08-.06-1.05-.68-1.05-.68s1.54-.18 1.58-.16Zm-4.8 4.27 1.21-.7c-.16-.12-1.1-1.66-1.13-1.85l-1.15.66.05.47c.18-.23.44-.44.77-.62l.36.59c-.19.1-.59.34-.74.36l.21.26.67-.39.34.56c-.23.12-.44.19-.63.2l.03.46ZM34.74 24.2c-.36-.29-.83.23-1.19.31-.63.04-.13-.75.25-.8s-.3-.23-.3-.23c-.57.29-1 1.53-.08 1.55.2 0 .7-.34.86-.38.44-.08.29.5.04.64.13 0 .26-.03.38 0 .24-.34.4-.83.05-1.1Z"/><path d="M35.19 23.54c-1.01-.07-1.22-1.81 0-1.55v-.42c-1.58-.1-1.56 2.42 0 2.36zm2.51-3.09h.7l-.47-.76c.24-.14.75-.35.99-.33l-.55-.42-1.68 1.01.2.64c.14-.27.34-.48.57-.6.05.09.14.26.26.46Zm4.92-.29c-.33.29-.76.18-1.12-.02-1.05.59-2.18-.79-1.34-1.68.88-1.05 2.64.14 1.8 1.31q.42.315.66.39m-1.29-.34c.85-.33.11-1.63-.64-1.33-.83.32-.12 1.63.64 1.33m1.6-.59c0-.36.05-1-.11-1.31h.75c-.12.34-.34 1.88.31 1.8.25 0 .5-.17.49-.44-.01-.37.05-1.05-.11-1.37h.75c-.18.58-.18 1.6 0 2.18h-.64s.02-.12.02-.21c-.65.46-1.52.23-1.46-.66Zm3.18 1.07c.13-.54.32-1.45.62-1.91l-.58-.2c0 .58-.31 1.48-.5 2.03.15.02.3.05.46.08m3.55 7.27h.37v-5.91h-5.46v5.91zm-4.91-2.69v.06c.01-.11.19-.03.1.05l.03.03c.18.02.21-.25.03-.26l.21-.1v-.07l-.21-.1c.18-.02.16-.29-.03-.27l-.03.03c.09.08-.09.16-.1.05v.07-2.35h.19v-.18h2.02c.11.02.02.18-.05.09l-.03.03c-.02.18.28.19.28.01l.1.21h.07l.1-.21c0 .18.3.16.28-.01l-.03-.03c-.07.08-.17-.07-.05-.09h2.02v.18h.19s.07 2.88-.1 2.24l-.03-.03c-.18-.02-.2.25-.03.26l-.22.1v.07l.22.1c-.18.01-.16.29.03.27l.03-.03c.17-.66.08 2.32.1 2.24h-.19v.18h-2.02c-.12-.01-.03-.18.05-.09l.03-.03c.02-.18-.27-.19-.28-.02l-.1-.21h-.07l-.1.21c0-.17-.29-.16-.27.02l.03.03c.08-.08.17.08.05.09h-2.02v-.18h-.19V24.9Z"/><path d="M50.84 27.8c0-.12-.14-.21-.25-.17v.03c-.21.98-.11-3.03-.13-2.89l.2.08v-.47l-.2.08v-2.95c.03-.15.26-.02.13.07v.03c.27.08.35-.35.06-.35l.18-.31-.05-.04-.33.18c0-.27-.46-.2-.38.06h.03c.1-.12.24.09.08.12h-2.73l.08-.18h-.49l.08.18h-2.73c-.16-.03-.03-.25.08-.12h.03c.09-.26-.37-.33-.37-.06l-.33-.18-.05.04.18.31c-.29 0-.21.44.06.35v-.03c.21-.97.11 3.02.13 2.88l-.2-.08v.47l.2-.08c-.02-.07.08 3.84-.13 2.89v-.03c-.27-.08-.35.35-.06.35l-.18.31.05.04.33-.18c0 .27.46.2.37-.06h-.03c-.05.07-.16.03-.15-.05 0-.04.03-.07.07-.08h2.73l-.08.19h.49l-.08-.19h2.73s.07.04.07.08c0 .08-.11.11-.15.05h-.03c-.08.26.37.33.38.06l.33.18.05-.04-.18-.31c.1 0 .19-.08.19-.18m-3.3-6.36h2.73v6.36h-5.93v-6.36zm-22.48-7.68.13-.11c.05-.55.31-1.03.72-1.33-.03-.04-.06-.08-.08-.11-.47.34-.75.92-.77 1.55m1.27-.77.12-.04c-.08-.23-.27-.66-.53-.92-.06-.06-.16.03-.1.09.18.18.36.49.5.88Zm-1.14-.43c.25 0 .26-.39 0-.39s-.26.39 0 .39m3.72-.85c-.18.19-.46-.09-.28-.27.17-.18.46.09.28.27m.39.33c-.18.19-.46-.09-.28-.27.17-.18.46.09.28.27m-1.81-.63c-.18.19-.46-.09-.28-.27.17-.18.46.09.28.27m.97.09c-.18.19-.46-.09-.28-.27.17-.18.46.09.28.27m.47.64-.17.02c-.42-.34-.95-.5-1.46-.42 0-.05-.01-.09-.02-.14.58-.1 1.18.1 1.65.53Zm-1.47.37-.12.06c-.1-.22-.29-.65-.29-1.03 0-.08.13-.09.13 0 0 .26.1.6.28.98Zm.52-1.12c-.18.19-.46-.09-.28-.27.17-.18.46.09.28.27m21.02 21c.57-.01 1.88-.63.92-1.14-.53-.09-1.07.17-1.58.29-2.07.82-.86-.18-2.14-.07.44 1.1 1.53.53 2.35.27.03.12-.12.15-.1.27.27-.06.54-.11.8-.16.11-.54 1.09-.55.64 0-1.13.49-2.47.4-3.66.74-.79 2.08-2.17.66-2.16 1.26-.31.03-.31.33.01.3 0 .6 1.54-.1 1.81-.28.07-.14.13-.28.2-.42.46.23.79-.44 1.2-.56.4-.08.92-.47 1.27-.11.38.42.95-.22 1.29.2-.12.33.04.18.1.39 0 .18.3.18.31 0 0-.08 0-.13.09-.16.17-.26-.19-.55-.32-.76-.28-.27-.74.24-1.02-.04v-.02Z"/><path d="M43.88 31.47c.09.03.06.14.1.2.49.03.98-.1 1.47-.16.36 0 .35-.33.62-.37.65.03 1.05-.54 1.67-.63.49-.14 1.15-.32 1.59.03.1.12.25.14.41.11.21-.04.46-.08.57.16-.03.04-.07.07-.12.12.02.05.05.1.07.15.1 0 .12.08.16.14.05.09.18.09.21 0 .03-.12.14-.06.18-.16.02-.3-.05-.67-.34-.82-.15-.14-.73.14-.75-.14.44.1 1.27-.47.7-.83-.97-.23-2.04.24-3.02.35-.38.08-.2-.55-1.05-.38.55 1.14 1.74.34 2.66.33 0 .1-.18.1-.13.23.27-.08.72.06.88-.21.08-.33.77-.25.57.13-.51.33-1.28.18-1.89.25-.74.07-1.55.08-2.24.34-.14.43-.33.87-.82.98-.34-.34-.85.06-1.22-.28-.12.03-.14.1-.2.19-.18.07-.25.18-.06.29s0-.01 0-.01Zm5.46 3.02c-.97-.12-.82.54-1.3.38.08-.1.33-.16.25-.33-.71.31-1.46.53-2.17.85-.36.38-.24 1.14-1.05 1.22-.03.4-.59.66-.93.49-.14.13-.08.16-.06.29-.12.1-.28.35-.03.35.08-.02.14-.14.22-.1 0 .05-.01.1-.02.16.07 0 .16.02.18 0 .11-.14.27-.03.4-.14.42-.28 1.01-.54.98-1.12.74-.33 1.16-1.52 2.12-1.09.47.25.6-.51 1.03-.53.12.28.18.26.33.16.27.2.22-.12.33-.27.01-.15-.14-.32-.29-.32s0-.02 0-.02Z"/><path d="M44.95 29.82c-.16.44 0 1.03.42 1.27.47-.21.77-.82.6-1.33.11-.09.25-.14.21-.3-.07-.18-.35-.05-.42-.25-.18-.24-.41-.05-.55.12-.11.01-.21-.04-.31 0-.1.19.18.3.07.49Zm-.11 6.17c.46 1.09 1.14-.3.97-.88.31-.26.23-.41-.15-.44-.14-.29-.42-.32-.62-.07-.07.08-.18.06-.27.07-.2.09-.08.31.08.35-.09.33-.14.66-.01.98Zm1.25-4.05c-.09-.05-.2-.05-.3-.05-.16-.42-.46-.27-.69-.01-.35-.14-.3.18-.11.35-.18.43-.05 1.07.4 1.26.48-.2.62-.79.59-1.26.15-.03.27-.2.11-.29m3.47 1.43c-.87-.29-2.23 1.59-2.8 1.04-.14-.31-.57-.27-.84-.19.33.23.5.75 1 .59.56-.11 1-.56 1.48-.77.01.16-.15.23-.22.38.33-.1.63-.2.87-.41-.04-.91 1.26-.27.01.29.22 0 .38.1.53-.08.29-.25.31-.62-.02-.86Zm-1.97 2.11c-.25.07-.51.08-.66.34.07.08.12.17.19.25-.12.31-.44.26-.73.27.03.1.04.16.06.22a.29.29 0 0 0-.15.33c.03.01.07.03.11.04.08-.1.23-.21.27-.01.53-.18 1.01-.5 1.26-1-.15-.12-.28-.25-.34-.46Z"/><path d="M46.89 33.6c-.11 0-.14.14-.06.21.08.08.15 0 .24.02v.12c.46.03 1.17-.39 1.42-.76-.1-.16-.2-.3-.29-.45-.25.08-.54.08-.69.31.09.1.17.18.26.27-.17.1-.37.25-.55.1-.08-.07-.29-.04-.23.1v.07c-.03 0-.06 0-.08.01h-.01v-.01Zm-1.98 2.84c-.18-.34-.44-.64-.57-1 .16-.21.08-.49-.2-.32-.07-.14-.18-.18-.31-.14-.04.09-.06.18.04.25v.05s-.07.02-.09.03c-.07.18.11.29.18.44.2.32.49 1.09.96.68Zm0-5.54c-.03-.47-.57-.76-.4-1.23.05-.08.03-.19-.06-.26-.1.03-.2.01-.27-.03-.2-.1-.23.12-.21.27-.04.02-.08.03-.13.06.14.4.56 1.4 1.08 1.2Zm-1.04 1.58c.2.3.25.78.59.96.16 0 .39.14.48-.04-.1-.36-.54-.57-.48-.98q.03-.15-.09-.27c-.17.05-.53-.34-.4.12-.1.04-.17.11-.1.21m-7.69-9.31c.07 0 .15-.08.23 0 0 .04-.01.08-.02.12.47.2 1-.03 1.46-.16.19-.06.29-.25.49-.24.49.03.76-.37 1.18-.49.51-.1 1.03-.18 1.56-.17.6.82.71.12 1.26.4-.01.08-.03.16-.05.24.05.02.1.03.14.05-.05.2.25.33.29.07 0-.03 0-.07.04-.08.32-.18-.17-1.03-.51-.8-.18.08-.4.16-.54-.05.3-.12.67-.09.87-.37.15-.19.14-.56-.15-.66-.75-.21-1.55.18-2.32.24-1.43.39-.41-.31-1.55-.3.41 1.16 1.63.42 2.48.33-.06.14-.2.19-.25.31.3-.06.7.06.92-.18.12-.32.88-.36.7.08-.72.7-2.96.05-3.95.49-.15.46-.42.76-.85.88-.36-.22-.52.03-.87-.07-.1-.11-.2-.23-.36-.11v.16c-.17-.05-.36.18-.18.29s0-.01 0-.01Z"/><path d="M37.42 21.39c-.27.49-.19.92.13 1.33.59.02.83-.78.74-1.27.06-.05.12-.08.18-.12-.02-.07-.03-.12-.05-.18-.1 0-.2 0-.29-.01-.21-.27-.34-.28-.6-.03-.12-.05-.21-.01-.29.08.05.09.1.16.19.2Zm2.87 1.04c-.03.14.1.2.12.3-.16.1-.33.11-.49.13-.09-.09-.12-.25-.28-.2-.08.02-.04.11-.1.15-.11 0-.18.05-.2.16.05.03.1.07.16.1-.13.6 1.53-.03 1.78-.21-.08-.14-.18-.23-.21-.39-.07-.27-.56-.05-.76-.04Zm-3.1.07c-.02-.21-.07-.46-.24-.61-.19-.2-.25-.46-.06-.67-.1-.09-.22-.02-.32-.15-.12-.14-.2.02-.22.17-.34.05-.14.16-.07.34.11.31.51 1.06.9.92Zm5.01 2.28c-.18.08-.4.16-.55-.05.3-.12.68-.09.88-.38.16-.19.14-.56-.16-.66-.76-.21-1.57.18-2.34.24-1.44.39-.42-.31-1.56-.31.41 1.18 1.65.42 2.5.33-.06.14-.2.19-.26.31.3-.06.7.06.92-.18.12-.33.88-.36.7.08-.72.7-2.99.05-3.99.49-.15.46-.42.77-.86.89-.31-.19-.47-.03-.73-.05.01.08.04.17.06.25s.03.18.04.26c.31-.03.61-.15.9-.23.19-.06.29-.25.5-.24.49.03.77-.38 1.18-.49.52-.1 1.05-.18 1.57-.17.6.83.72.12 1.26.4-.01.08-.03.16-.05.25.05.02.1.03.14.05-.05.21.25.33.29.07 0-.03 0-.07.04-.08.33-.18-.18-1.03-.52-.81Z"/><path d="M37.34 24.05c-.27.49-.19.93.13 1.34.59.02.83-.79.74-1.28.06-.05.12-.08.18-.12-.02-.07-.03-.12-.05-.18-.11 0-.21 0-.3-.01-.21-.27-.34-.28-.6-.03-.12-.05-.21-.01-.29.09.05.09.1.16.19.2Zm2.89 1.05c-.03.14.1.2.12.3-.16.1-.33.11-.5.13-.09-.09-.12-.25-.28-.2-.09.02-.04.12-.1.15-.11 0-.18.05-.2.16.05.03.11.07.16.1-.13.61 1.54-.03 1.79-.21-.08-.14-.19-.23-.21-.39-.07-.27-.57-.05-.77-.04zm-3.12.08c-.02-.21-.07-.47-.24-.62-.19-.2-.25-.46-.06-.68-.1-.09-.23-.02-.32-.15-.12-.14-.2.02-.22.17-.34.05-.14.16-.07.34.11.31.51 1.07.91.92Zm5.15 2.09c-.18.08-.4.16-.54-.05.3-.12.68-.09.88-.38.16-.19.14-.56-.16-.66-.76-.21-1.57.18-2.34.24-1.44.39-.42-.31-1.56-.31.41 1.17 1.64.42 2.5.33-.06.14-.2.19-.26.31.3-.06.7.06.92-.18.12-.33.88-.36.7.08-.72.7-2.98.05-3.98.49-.15.46-.42.76-.86.89-.36-.22-.52.03-.88-.07a.6.6 0 0 0-.11-.11c-.01 0-.02-.01-.03-.02-.01 0-.03-.01-.04-.02v.02c0 .21-.05.42-.12.6.47.18.98-.04 1.44-.17.19-.06.29-.25.5-.24.49.03.77-.37 1.18-.49.52-.1 1.04-.18 1.57-.17.6.83.72.12 1.26.4-.01.08-.03.16-.05.25.05.02.1.03.14.05-.05.21.25.33.29.07 0-.03 0-.07.04-.08.33-.18-.18-1.03-.51-.81h-.01Z"/><path d="M37.4 26.55c-.27.49-.19.93.13 1.34.59.02.83-.79.74-1.27.06-.05.12-.08.18-.12-.02-.07-.03-.12-.05-.18-.11 0-.21 0-.3-.01-.21-.27-.34-.28-.6-.03-.12-.05-.21-.01-.29.09.05.09.1.16.19.2v-.01Zm2.9 1.05c-.03.14.1.2.12.3-.16.1-.33.11-.5.13-.09-.09-.12-.25-.28-.2-.09.02-.04.12-.1.15-.11 0-.18.05-.2.16.05.03.11.07.16.1-.13.61 1.54-.03 1.79-.21-.08-.14-.18-.23-.21-.39-.07-.27-.57-.05-.77-.04zm-3.37-.54s-.07-.08-.09-.12c-.01.11.05.23.03.34-.01.08-.04.21-.07.29.14.14.22.15.37.1-.02-.21-.07-.46-.24-.61m8.67-4.31c.13.08.23.46.31.51.15.2.46.72.76.61.09-.05.18-.31.18-.34 0-.01-.05-.06-.11-.1-.29-.25-.46-.49-.46-.72-.01-.07.16-.18.15-.24 0-.26-.22.03-.31-.01-.05-.08-.21-.29-.31-.18-.06.03.01.18-.03.22-.02.03-.04.03-.1.03-.23 0-.26.14-.07.23Z"/><path d="M46.82 24.51c.08-.08.31-.3.33-.35s.03-.05.2-.07c.44-.07.67-.25.79-.72.06-.14-.02-.46-.11-.52-.03-.03-.05-.07-.03-.08.08-.01.25-.08.29-.18-.05-.09-.16-.02-.32-.07-.12-.05-.42-.15-.55-.08-.09.1-.6.12-.51.27.02.06.06.19.06.19l.23.03v.17s-.17.04-.22.05c-.14.21.34.22.46.07.08-.1.22-.12.21 0-.07.14-.29.21-.43.27-.2.03-.25.43-.41.56-.44.08-.59.07-1.02-.28-.16-.18-.28-.05-.16.1-.08.03-.47-.2-.3.18l.03.03c-.2.29.1.19.26.27.35.14.74.25 1.19.17s0-.01 0-.01Z"/><path d="m48.21 24.23.18.38s.4.18.45.23c.22.16.19.61-.01.57-.33-.14-.53-.6-.75-.88-.06-.05-.22-.51-.32-.4-1.36.31.25.65 0 1.16-.05.07-.2.42-.14.47.12.14.37.24.51.42.22.21.02.47-.25.27-.16-.12-.34.05-.18.21.01.03-.1.07-.11.08-.16.22.1.21.25.1.08-.04 0 .2.13.16.25-.05.63-.18.7-.57.16-.36-.2-.3-.29-.61-.09-.13-.1-.6.1-.42.18.23.42.36.64.16.2-.19.02-.66-.08-.87-.2-.41-.42-.8-.41-1.29.27-.33.59.25.79-.65-.64.05-1.27.47-.96 1.2.2.41.15.38-.23.3Z"/><path d="M47.18 25c-.34-.02-.6-.05-.51.36.02.1.05.39.11.46.03.04.02.08-.01.1-.14.08-.66-.14-.59-.31 0-.15-.15-.18-.19-.08-.03.05-.06.05-.11-.01-.1-.14-.23.05-.18.15.02.04 0 .08-.05.09-.14.06-.14.25.07.26.44.2.81.41 1.31.34.55-.04.27-.14.24-.53-.09-.41.6-.68-.08-.84Zm.51 5.87s-.12 0-.14.03c0 .19-.2.13-.25.26.04.08.09.14.18.13.1 0 .1.12.2.13.46-.21.99-.16 1.37-.51-.14-.12-.18-.29-.21-.47-.26.02-.51-.02-.74.1-.03.12.06.18.12.29-.19.08-.35.12-.53.04"/><path d="M54.93 25.79c-.18-.38-.59-2.52-1.19-2.06 2.73 5.1.91 11.81-3.83 15.05-1.39.84-3.12 2.24-4.76 1.31 1.06-4.14 6.15-2.39 7.26-10.28-.14-.07-.19-.11-.31-.13-.16 1.11-.44 2.17-.85 3.18.44-1.18.16-4.85.25-5.05-.05-.06-.09-.08-.25-.27.03.44 0 .6 0 1.19h-7.73v-8.06h7.58v4.55s.03.24.05.32c.11-.16.12-.16.19-.21v-4.89H35.43v4.12h.22v-3.88h7.63v8.06h-7.36s0-.12-.02-.1c0-.02-.05.12-.05.1h-.21v-.62h-.23c-.17.6.33 5.65 1.16 6.54-1.66-1.61-2.19-4.47-1.87-6.62 0 0-.16-.12-.33-.27-.52 3.03.62 6.02 2.75 8.2.19.2.39-.01.62-.07-.05-.05-.14-.12-.21-.22.08.08.16.16.21.22l-.12-.33c-1.67-1.27-1.94-4.92-1.98-6.59h7.63s0 10.11-.01 10.13c-1.63-.08-2.72-1.84-4.29-1.86 2.25 1.33 6.37 4.55 8.97 3.14.02.03.01.02.04.05-.27.34-1.24.99-1.67.83-.71-.43-1.8.35-1.3 1.14.07.09.1.18.03.3-2.81-.27-5.34-1.94-7.71-3.38-.03.03-.02.02-.04.05.91 1.23 4.15 2.75 4.15 2.75v1.82s.21.14.34.23v-1.97c.85.29 2.58.83 2.58.83v1.23l.33-.21-.02-.92.46-.13c.29-.08.47-.36.44-.66a.345.345 0 0 1-.19-.4c.07-.36.5-.36.68-.15.35.16.7-.27 1.05-.36.49-.3 1.09-.56 1.32-1.13a.5.5 0 0 1 .23-.29c.99-.56 1.94-1.18 2.75-1.99 3.45-2.91 4.64-7.92 3.5-12.2h.01Zm-11.41 3.16h7.73c.63 5.91-2.83 7.88-7.73 9.94zm.14 10.55c.55-.49.92-.66 1.63-.83-.2.44-.38.85-.57 1.29-.35-.16-.7-.31-1.05-.47Zm-17.24 3.25c-.18-.11-.4-.14-.66-.1.05.39.2 1.12.31 1.5.73-.1.95-1.01.34-1.4Z"/><path d="M36.35 40.06c-4.37 0-8.73 1.87-13.11 1.87-.53 0-1.05-.03-1.57-.08 1.35 1.07 1.26 3.22 3.23 3.22.08 0 .18 0 .27-.01 2.68-.29 5.35-1.04 7.98-1.46.46-.07 2.63-.6 3.92-.6.46 0 .81.07.9.25.14.25-.73.98-.74 1.01 0 0 0 .01.01.01.08 0 .57-.28.92-.51 1.42-1.03-1.56-3.69-1.82-3.69Zm-9.21 3.63c-.24.57-.95.7-1.5.79.03-.18-.31-1.81-.42-1.96.96-.41 2.34-.01 1.92 1.16Zm.56.35c.03-.57-.16-1.46-.42-1.96l.56-.12c-.03.57.16 1.46.42 1.96zm2.15-.47-1.14.25c.03-.18-.34-1.78-.44-1.93l1.21-.27-.1.4c-.17-.05-.36-.05-.59 0l.14.59.67-.15.11.29c-.13-.02-.53.08-.72.11l.14.61q.495-.105.81-.33l-.08.43-.01-.01Zm1.18-.18c-.83.02-.96-1.17-1.15-1.76l.4-.08c.2.51.14 1.71 1 1.55.62-.28.12-1.27.05-1.74l.4-.06c.15.79.51 2.17-.7 2.08Zm3.32-.6-1.14.26c.02-.18-.36-1.78-.46-1.92l1.2-.28-.1.4c-.17-.05-.36-.05-.59 0l.14.58.66-.16.11.28c-.13-.02-.53.08-.72.12l.14.6c.33-.08.6-.19.81-.34l-.08.43.02.02Zm1.2-1.94.33 1.67-.38.07-.34-1.65c-.23.05-.36.04-.68.18v-.37l1.64-.21.12.31c-.15-.05-.68.01-.68.01Zm21.07 1.06c-.09.36-.23 1.05-.29 1.42.86.18 1.13-1.26.29-1.42m3.36.58c-.66-.16-.87 1.2-.33 1.42.67.16.87-1.2.33-1.42m-1.72-.26-.2.72c.56.1.8-.63.2-.72M53 41.2c-.68-.19-.95 1.23-.37 1.46.7.19.95-1.22.37-1.46"/><path d="M62.8 41.93c-.55 0-1.07 0-1.32-.03-2.88-.28-5.74-1.11-8.62-1.56-.83-.13-1.51-.25-2.09-.25-1.22 0-2.06.53-3.04 2.63-.42.8.98 1.56 1.29 1.59-1.15-.99-.75-1.27.16-1.27 1.26 0 3.49.56 3.93.61 2.63.42 5.3 1.18 7.98 1.46.09 0 .18.01.27.01 1.97 0 1.87-2.15 3.23-3.22-.24.02-1.04.04-1.79.04Zm-10.85-1.16c-.07.06-.3 1.7-.29 1.85l-.44-.08c.08-.14.18-1.28.18-1.28l-.75 1.17-.44-1.32s-.18.95-.19 1.26l-.43-.06c.14-.22.41-1.91.41-1.91l.45.08c.01.09.35 1.23.35 1.23s.59-1 .63-1.05l.53.1Zm1.62 1.45c-.4 1.34-1.94.61-1.48-.59.39-1.3 1.94-.61 1.48.59m1.52 1.18c-.14-.03-.87-1.52-.87-1.52s-.18 1.16-.22 1.24l-.33-.05.38-1.81.37.05.59 1.27s.2-1 .21-1.09l.28.08-.4 1.83Zm1.72.15c-.26.09-.63-.01-.9-.07l.36-1.87c1.22-.08 1.72 1.49.54 1.94m2.16-.86c-.05.21-.21.36-.47.44.11.37.18.49.37.89l-.29-.04c-.06-.04-.43-.55-.54-.83-.07.23-.13.53-.1.74l-.5-.08c.09-.14.48-1.68.47-1.83.44.05 1.21.13 1.07.72Zm.96 1.48c-1.11.21-1.11-1.67-.22-1.93 1.12-.23 1.12 1.67.22 1.93m1.16-1.1c-.05.33-.2 1.01-.14 1.33l-.44-.07c.19-.49.33-1.32.29-1.84l.44.07c-.07.14-.12.32-.16.52Zm1.02-.07s-.25 1.44-.24 1.56l-.44-.08.33-1.54a.9.9 0 0 0-.51.05l.18-.37 1.18.21.08.4c-.1-.1-.42-.21-.59-.24v.02Z"/></g></svg>