<?xml version="1.0" encoding="UTF-8"?>
<svg id="Layer_1" xmlns="http://www.w3.org/2000/svg" version="1.1" viewBox="0 0 524.9 19.3">
  <!-- Generator: Adobe Illustrator 29.0.0, SVG Export Plug-In . SVG Version: 2.1.0 Build 186)  -->
  <defs>
    <style>
      .st0 {
        fill: #010101;
      }

      .st1 {
        fill: #231f20;
      }

      .st2 {
        isolation: isolate;
      }
    </style>
  </defs>
  <g id="Layer_1-2">
    <g>
      <circle class="st1" cx="398.3" cy="11.5" r="2.2"/>
      <path class="st1" d="M358.8,11.5c0,.6,0,1.1.2,1.6s.4,1,.6,1.4c.3.4.6.7,1.1.9.4.2,1,.4,1.6.4s1.1,0,1.5-.3c.4-.2.7-.4.9-.7.2-.3.4-.6.5-.9,0-.3.1-.6.1-.9h0c0-.1-3.3-.1-3.3-.1v-2h5.9v7.1h-2.3v-1.5c-.2.2-.4.5-.6.7-.2.2-.5.4-.8.5-.3.1-.6.3-1,.4s-.7.1-1.1.1c-1,0-1.8-.2-2.5-.5s-1.4-.8-1.9-1.4c-.5-.6-.9-1.3-1.1-2.1s-.4-1.7-.4-2.6.1-1.8.4-2.6c.3-.8.7-1.5,1.2-2.1s1.2-1.1,2-1.4,1.6-.5,2.6-.5,1.2,0,1.8.2,1,.3,1.5.6c.5.3.9.6,1.2.9s.6.8.9,1.2l-2.3,1.3c-.1-.3-.3-.5-.5-.8s-.4-.4-.6-.6-.5-.3-.8-.4-.7-.2-1-.2c-.6,0-1.1.1-1.6.4s-.8.5-1.1,1c-.3.4-.5.9-.6,1.4s-.2,1.1-.2,1.6h0c0,0,0,0,0,0Z"/>
      <path class="st1" d="M376.2,15.8c.6,0,1.1-.1,1.5-.3s.8-.5,1.1-.9c.3-.4.5-.8.7-1.4.1-.5.2-1.1.2-1.7h0c0-.7,0-1.2-.2-1.8-.1-.5-.4-1-.7-1.4-.3-.4-.7-.7-1.1-.9s-.9-.3-1.5-.3-1.1.1-1.5.3c-.4.2-.8.5-1.1.9s-.5.8-.7,1.4c-.1.5-.2,1.1-.2,1.7h0c0,.7,0,1.2.2,1.8.1.5.4,1,.7,1.4.3.4.7.7,1.1.9s.9.3,1.5.3ZM376.2,4.8c1,0,1.8.2,2.6.5.8.3,1.4.8,2,1.4s.9,1.3,1.2,2.1.4,1.7.4,2.6-.1,1.8-.4,2.6-.7,1.5-1.2,2.1c-.5.6-1.2,1.1-2,1.4-.8.3-1.6.5-2.6.5s-1.8-.2-2.6-.5-1.4-.8-1.9-1.4-.9-1.3-1.2-2.1-.4-1.7-.4-2.6.1-1.8.4-2.6c.3-.8.7-1.5,1.2-2.1s1.2-1.1,1.9-1.4,1.6-.5,2.6-.5Z"/>
      <polygon class="st1" points="387 18 383.3 5 386.3 5 388.8 14.8 388.9 14.8 391.3 5 394.2 5 390.6 18 387 18 387 18"/>
      <path class="st1" d="M409.1,15.8c.4,0,.7,0,1.1-.2.3-.1.6-.3.9-.5.2-.2.4-.5.6-.9s.2-.8.2-1.2V5h2.6v8.4c0,.7-.1,1.4-.4,2s-.6,1.1-1.1,1.5-1,.7-1.7,1-1.4.3-2.1.3-1.5-.1-2.1-.3-1.2-.5-1.7-1-.8-.9-1.1-1.5-.4-1.2-.4-2V5h2.6v8c0,.5,0,.9.2,1.2.1.4.3.6.6.9s.5.4.9.5.7.2,1.1.2h0Z"/>
      <polygon class="st1" points="416.7 5 419.3 5 419.3 10.6 423.9 5 427.1 5 422.6 10.2 427.4 18 424.4 18 421 12.2 419.3 14 419.3 18 416.7 18 416.7 5"/>
      <path class="st1" d="M336.5,7.1c.6,0,1.1-.5,1.1-1.1s-.5-1.1-1.1-1.1-1.1.5-1.1,1.1.5,1.1,1.1,1.1Z"/>
      <path class="st1" d="M333.5,8.8c.6,0,1.1-.5,1.1-1.1s-.5-1.1-1.1-1.1-1.1.5-1.1,1.1.5,1.1,1.1,1.1Z"/>
      <path class="st1" d="M331.6,11.7c.6,0,1.1-.5,1.1-1.1s-.5-1.1-1.1-1.1-1.1.5-1.1,1.1.5,1.1,1.1,1.1Z"/>
      <path class="st1" d="M340,11c.6,0,1.1-.5,1.1-1.1s-.5-1.1-1.1-1.1-1.1.5-1.1,1.1.5,1.1,1.1,1.1Z"/>
      <path class="st1" d="M343.5,7.1c.6,0,1.1-.5,1.1-1.1s-.5-1.1-1.1-1.1-1.1.5-1.1,1.1.5,1.1,1.1,1.1Z"/>
      <path class="st1" d="M346.4,8.8c.6,0,1.1-.5,1.1-1.1s-.5-1.1-1.1-1.1-1.1.5-1.1,1.1.5,1.1,1.1,1.1Z"/>
      <path class="st1" d="M348.3,11.7c.6,0,1.1-.5,1.1-1.1s-.5-1.1-1.1-1.1-1.1.5-1.1,1.1.5,1.1,1.1,1.1Z"/>
      <path class="st1" d="M340,11c.6,0,1.1-.5,1.1-1.1s-.5-1.1-1.1-1.1-1.1.5-1.1,1.1.5,1.1,1.1,1.1Z"/>
      <path class="st1" d="M340.4,3.6s.1,0,.1-.2l1.4.7v-2l-1.4.4s0,0-.1-.1l.6-1.8h-2l.6,1.8s-.1,0-.1.1l-1.4-.4v2l1.4-.7s0,0,.1.2l-.8,2.4c-.3.8.4,1.7,1.2,1.7s1.5-.9,1.2-1.7l-.8-2.4h0Z"/>
      <path class="st1" d="M341.5,12s-1,1.1-1.2,1.8c.7,0,1.3-.1,1.9-.8l-.2,2.6c-.6-.9-1.3-1.2-1.7-1.1,0,.9.1,2,1.7,2.2,1.1.1,2-.5,2.1-1.1.1-.8-.6-1.3-1.1-.5-.4-1.4.7-1.8,1.5-1-.6-1.3-.5-2.3.7-3.3.9,1.2.8,2.2-.3,3.3.7-.4,1.9,0,1.2,1.4-.4-.9-1.1-.7-1.2,0-.1.5.2,1.1.9,1.2.6.1,1.4-.3,2.1-1.8-.4,0-.7.2-1.2.5l.7-2.4c.2.7.4,1.1.7,1.4.2-.5.1-.8,0-1.6l1.5.5c-.8,1.1-1.6,2.6-2.2,5.2-2.2-.3-4.7-.5-7.3-.5s-5.1.2-7.3.5c-.6-2.6-1.4-4.2-2.2-5.2l1.5-.5c-.1.8-.2,1.1,0,1.6.2-.2.5-.7.7-1.4l.7,2.4c-.4-.3-.8-.5-1.2-.5.7,1.5,1.5,1.9,2.1,1.8.7-.1,1-.7.9-1.2-.2-.7-.9-.9-1.2,0-.7-1.4.5-1.8,1.2-1.4-1.1-1.1-1.2-2.1-.3-3.3,1.3,1,1.3,1.9.7,3.3.7-.8,1.9-.4,1.5,1-.5-.8-1.2-.3-1.1.5,0,.7,1,1.2,2.1,1.1,1.6-.1,1.7-1.2,1.7-2.2-.4,0-1.1.3-1.7,1.1l-.2-2.6c.7.7,1.2.8,1.9.8-.2-.7-1.2-1.8-1.2-1.8h3.2,0Z"/>
    </g>
  </g>
  <g id="Black-billingual-logo">
    <g id="Black-billingual-logo-2">
      <g>
        <path class="st0" d="M451.1,17.6h.2s0,0,0,0c0,0,0,0,0,0s0,0,0,0c0,0,0,0,0,0h-.2c0,.1,0,.1,0,.1ZM451,17.9v-.5h.3s0,0,0,0,0,0,0,0c0,0,0,0,0,0s0,0,0,.1,0,0-.1,0c0,0,0,0,0,0,0,0,0,0,0,0,0,0,0,0,0,0h0c0,.1-.1.1-.1.1h0c0-.1,0-.2,0-.2,0,0,0,0,0,0h0v.2h-.1,0ZM451.2,17.2c0,0-.1,0-.2,0,0,0-.1,0-.1.1,0,0,0,.1,0,.2s0,.1,0,.2,0,.1.1.1c0,0,.1,0,.2,0s.1,0,.2,0c0,0,.1,0,.1-.1,0,0,0-.1,0-.2s0-.1,0-.2,0-.1-.1-.1c0,0-.1,0-.2,0M451.2,17.1c0,0,.2,0,.3,0,0,0,.1.1.2.2,0,0,0,.2,0,.3s0,.2,0,.3c0,0-.1.1-.2.2,0,0-.2,0-.3,0s-.2,0-.3,0c0,0-.1-.1-.2-.2,0,0,0-.2,0-.3s0-.2,0-.3c0,0,.1-.1.2-.2,0,0,.2,0,.3,0"/>
        <path class="st0" d="M438.4,17.3c0,.5-.4.8-.8.8s-.9-.4-.9-.9,0-.3,0-.4h.3c0,.1-.1.3-.1.4,0,.4.3.6.6.6s.6-.2.6-.5,0-.3-.1-.4h.2c.1.1.2.3.2.5"/>
        <path class="st0" d="M438.2,15.2c.1.1.2.3.2.6s0,.4-.2.5c-.1.1-.3.2-.5.2h-1v-.3h1c.1,0,.2,0,.3,0,0,0,.1-.2.1-.3s0-.2-.1-.3c0,0-.1,0-.2,0h-1v-.3h1c.2,0,.4,0,.5.2"/>
        <path class="st0" d="M438.4,14.3c0,.2,0,.4-.1.5h-.2c0-.2.1-.4.1-.5s0-.3-.2-.3c-.2,0-.2.4-.5.6,0,0-.2.1-.3.1-.2,0-.5-.2-.5-.6s0-.3.1-.4h.3c0,.1-.1.3-.1.4s0,.2.1.2c.3,0,.3-.7.8-.7s.5.3.5.6"/>
        <polygon class="st0" points="436.7 13.6 437 13.6 437 13.1 438.4 13.1 438.4 12.8 437 12.8 437 12.3 436.7 12.3 436.7 13.6"/>
        <path class="st0" d="M438.2,10.8c.1.1.2.4.2.6s0,.4-.2.6c-.1.2-.4.3-.6.3s-.5,0-.6-.2c-.1-.1-.2-.4-.2-.6s0-.5.2-.6c.1-.1.4-.2.6-.2s.5,0,.6.2M437,11.4c0,.3.2.5.6.5s.6-.2.6-.5-.2-.5-.6-.5-.6.2-.6.5"/>
        <path class="st0" d="M438.4,9h-1.1s.1,0,.2.1l.5.3v.2l-.5.3s0,0-.2.1h1.1v.3h-1.6v-.3l.6-.4c0,0,.1,0,.2-.1h0c0,0-.1,0-.2-.1l-.6-.4v-.3h1.6v.3h0Z"/>
        <polygon class="st0" points="436.7 8.3 438.4 8.3 438.4 7.4 438.1 7.4 438.1 8 437.7 8 437.7 7.5 437.4 7.5 437.4 8 437 8 437 7.5 436.7 7.4 436.7 8.3"/>
        <path class="st0" d="M438.4,6.2c-.4.2-.6.3-.6.4h0c0,.1.6.1.6.1v.3h-1.6v-.5c0-.4.2-.6.5-.6s.4.2.4.3h0c0,0,.3-.2.8-.5,0,0,0,.4,0,.4ZM437,6.6v.2h.5v-.2c0-.2-.1-.2-.2-.2s-.2,0-.2.2"/>
        <path class="st0" d="M440.5,17.6c0,.2,0,.4-.1.5h-.1c0-.1.1-.3.1-.5s0-.3-.2-.3c-.3,0-.4.4-.6.6,0,0-.2.1-.3.1-.2,0-.4-.2-.4-.5s0-.3,0-.4h.2c0,0-.1.2-.1.4s0,.3.2.3c.4,0,.4-.7.9-.7s.4.2.4.5"/>
        <polygon class="st0" points="440.5 16.8 438.8 16.8 438.8 16 439 16 439 16.6 439.6 16.6 439.6 16.1 439.7 16.1 439.7 16.6 440.3 16.6 440.3 16 440.5 16 440.5 16.8"/>
        <path class="st0" d="M440.5,14.8c-.4.3-.7.4-.7.5v.2h.7v.2h-1.6v-.3c0-.4.2-.6.4-.6s.4.1.5.3h0c0,0,.3-.2.8-.5v.2h0ZM439,15.3v.2h.6v-.2c0-.2-.1-.3-.3-.3s-.3,0-.3.4"/>
        <path class="st0" d="M440.5,13.8h0c0,.1-1.7.8-1.7.8v-.2l1.1-.4c0,0,.2,0,.3,0h0c0,0-.2,0-.3-.1l-1.1-.5v-.2l1.7.7h0Z"/>
        <rect class="st0" x="438.8" y="12.6" width="1.6" height=".2"/>
        <path class="st0" d="M440.5,11.5c0,.5-.4.8-.8.8s-.9-.3-.9-.8,0-.4.1-.4h.2c0,.1-.1.2-.1.4,0,.4.3.6.7.6s.7-.2.7-.6,0-.3-.1-.4h.1c0,0,.1.2.1.4"/>
        <polygon class="st0" points="440.5 10.7 438.8 10.7 438.8 9.9 439 10 439 10.5 439.6 10.5 439.6 10 439.7 10 439.7 10.5 440.3 10.5 440.3 9.9 440.5 9.9 440.5 10.7"/>
        <polygon class="st0" points="441 18.1 442.6 18.1 442.6 17.1 442.3 17.1 442.3 17.7 441.9 17.7 441.9 17.2 441.6 17.2 441.6 17.7 441.2 17.7 441.2 17.2 441 17.1 441 18.1"/>
        <polygon class="st0" points="441.8 16 442.6 15.4 442.6 15.8 442 16.2 442.6 16.6 442.6 17 441.8 16.4 441 16.9 441 16.5 441.5 16.2 441 15.8 441 15.4 441.8 16"/>
        <path class="st0" d="M442.6,14.6c0,.5-.4.8-.8.8s-.9-.4-.9-.9,0-.3,0-.4h.3c0,.1-.1.3-.1.4,0,.4.3.6.6.6s.6-.2.6-.5,0-.3-.1-.4h.2c.1,0,.2.3.2.5"/>
        <polygon class="st0" points="442.6 13.8 441 13.8 441 12.9 441.2 13 441.2 13.5 441.6 13.5 441.6 13 441.9 13 441.9 13.5 442.3 13.5 442.3 12.9 442.6 12.9 442.6 13.8"/>
        <polygon class="st0" points="442.6 12.6 441 12.6 441 12.3 442.3 12.3 442.3 11.7 442.6 11.7 442.6 12.6"/>
        <polygon class="st0" points="442.6 11.5 441 11.5 441 11.2 442.3 11.2 442.3 10.6 442.6 10.6 442.6 11.5"/>
        <polygon class="st0" points="442.6 10.4 441 10.4 441 9.4 441.2 9.5 441.2 10.1 441.6 10.1 441.6 9.5 441.9 9.5 441.9 10.1 442.3 10.1 442.3 9.5 442.6 9.5 442.6 10.4"/>
        <path class="st0" d="M442.6,8l-.9.7c0,0-.1.1-.2.2h1.1v.3h-1.6v-.4l.9-.7c0,0,.1-.1.2-.2h-1.1v-.3h1.6v.3h0Z"/>
        <path class="st0" d="M442.6,6.6c0,.5-.4.8-.8.8s-.9-.4-.9-.9,0-.3,0-.4h.3c0,.2-.1.3-.1.4,0,.4.3.6.6.6s.6-.2.6-.5,0-.3-.1-.4h.2c.1,0,.2.3.2.5"/>
        <polygon class="st0" points="442.6 5.8 441 5.8 441 4.8 441.2 4.9 441.2 5.4 441.6 5.4 441.6 4.9 441.9 4.9 441.9 5.4 442.3 5.4 442.3 4.8 442.6 4.8 442.6 5.8"/>
        <path class="st0" d="M449.8,12.5h-4.5c-.3,0-.6.2-.6.6v4.5c0,.3.2.6.6.6h4.5c.3,0,.6-.2.6-.6v-4.5c0-.3-.2-.6-.6-.6M448.6,16.8l-1-.5-1,.5.2-1.2-.8-.8,1.2-.2.5-1.1.5,1.1,1.2.2-.8.8.2,1.2Z"/>
        <path class="st0" d="M446.8,3.9l2.2-1.1-2.2-1.1s0,2.2,0,2.2ZM449.8,0h-4.5c-.3,0-.6.2-.6.6v4.5c0,.3.2.6.6.6h4.5c.3,0,.6-.2.6-.6V.6c0-.3-.2-.6-.6-.6M447.6,4.5c-.9,0-1.7-.7-1.7-1.7s.7-1.7,1.7-1.7,1.7.7,1.7,1.7-.7,1.7-1.7,1.7"/>
        <path class="st0" d="M449.8,6.3h-4.5c-.3,0-.6.2-.6.6v4.5c0,.3.2.6.6.6h4.5c.3,0,.6-.2.6-.6v-4.5c0-.3-.2-.6-.6-.6M446.4,10.1c-.6,0-1-.4-1-1s.4-1,1.1-1,.4,0,.5.1v.3c-.2-.1-.3-.1-.5-.1-.5,0-.7.3-.7.7s.3.7.7.7.3,0,.5-.1v.3c-.1.1-.3.2-.5.2M447.7,10.1c-.3,0-.4,0-.5-.2v-.2c.2,0,.3.1.5.1s.4,0,.4-.3c0-.4-.5-.4-.7-.7,0,0-.1-.2-.1-.4,0-.3.2-.5.6-.5s.4,0,.4.1v.2c-.1,0-.3-.1-.4-.1s-.4,0-.4.3c0,.4.9.4.9,1.1s-.3.5-.6.5M449.7,8.9v.3h-.6v.6h.8v.3h-1.1v-2h1.1v.3h-.8v.5s.6,0,.6,0Z"/>
        <polygon class="st0" points="456.5 14.5 455.9 14.5 455.4 12.8 455.4 12.8 454.9 14.5 454.3 14.5 453.6 12 454.3 12 454.7 13.7 454.7 13.7 455.1 12 455.7 12 456.2 13.7 456.2 13.7 456.6 12 457.2 12 456.5 14.5"/>
        <path class="st0" d="M459,13.6h0c0,.1-1.2.1-1.2.1,0,0,0,0,0,.1,0,0,0,0,0,.1,0,0,0,0,.1,0s.1,0,.1,0c0,0,.2,0,.2,0s.1,0,.1-.1l.4.2c0,.1-.2.2-.3.3s-.3.1-.5.1-.2,0-.4,0-.2-.1-.3-.2c0,0-.1-.2-.2-.3,0-.1,0-.2,0-.4s0-.3,0-.4c0-.1.1-.2.2-.3,0,0,.2-.1.3-.2s.2,0,.4,0,.2,0,.4,0c.1,0,.2.1.3.2,0,0,.1.2.2.3,0,.1,0,.2,0,.4M458.5,13.4c0,0,0-.2,0-.2,0,0-.1-.1-.3-.1s-.1,0-.1,0c0,0,0,0-.1,0s0,0,0,.1,0,0,0,.1h.7,0Z"/>
        <path class="st0" d="M460.8,12.2s0,0,0,.1c0,0,0,0,0,.1,0,0,0,0-.1,0,0,0,0,0-.1,0,0,0-.2,0-.2,0s0-.1,0-.2,0,0,0-.1,0,0,0-.1c0,0,0,0,.1,0,0,0,0,0,.1,0s0,0,.1,0,0,0,.1,0,0,0,0,.1c0,0,0,0,0,.1M460.2,12.8h.6v1.7h-.6v-1.7Z"/>
        <path class="st0" d="M462.4,14.5v-.9s0,0,0-.1c0,0,0,0,0-.1,0,0,0,0,0,0,0,0,0,0-.1,0s-.1,0-.1,0c0,0,0,0-.1,0s0,0,0,.1c0,0,0,0,0,.1v.9h-.6v-1.7h.5v.2h0s0,0,0-.1,0,0,.1,0c0,0,0,0,.1,0,0,0,.1,0,.2,0,.1,0,.2,0,.3,0,0,0,.1.1.2.2,0,0,0,.1.1.2,0,0,0,.2,0,.3v1.1h-.6,0Z"/>
        <polygon class="st0" points="464.4 14.5 463.8 14.5 463.1 12.8 463.7 12.8 464.1 13.9 464.1 13.9 464.5 12.8 465.1 12.8 464.4 14.5"/>
        <path class="st0" d="M467,13.6h0c0,.1-1.2.1-1.2.1,0,0,0,0,0,.1,0,0,0,0,0,.1,0,0,0,0,.1,0s.1,0,.1,0c0,0,.2,0,.2,0s.1,0,.1-.1l.4.2c0,.1-.2.2-.3.3s-.3.1-.5.1-.2,0-.4,0-.2-.1-.3-.2c0,0-.1-.2-.2-.3,0-.1,0-.2,0-.4s0-.3,0-.4c0-.1.1-.2.2-.3,0,0,.2-.1.3-.2.1,0,.2,0,.4,0s.2,0,.4,0c.1,0,.2.1.3.2,0,0,.1.2.2.3,0,.1,0,.2,0,.4M466.5,13.4c0,0,0-.2,0-.2,0,0-.1-.1-.3-.1s-.1,0-.1,0c0,0,0,0-.1,0s0,0,0,.1,0,0,0,.1h.7,0Z"/>
        <path class="st0" d="M468.4,13.3s-.1,0-.2-.1-.1,0-.2,0-.1,0-.1,0c0,0,0,0,0,.1s0,0,0,.1c0,0,.1,0,.2,0,0,0,.1,0,.2,0,0,0,.1,0,.2.1s.1,0,.1.1c0,0,0,.1,0,.2s0,.2,0,.3c0,0-.1.1-.2.2,0,0-.1,0-.2.1s-.2,0-.3,0c-.1,0-.3,0-.4,0-.1,0-.2-.1-.3-.2l.3-.3c0,0,.1.1.2.1,0,0,.1,0,.2,0s0,0,.1,0c0,0,0,0,0-.1s0,0,0-.1c0,0-.1,0-.3,0,0,0-.1,0-.2,0,0,0-.1,0-.2,0,0,0,0,0-.1-.1,0,0,0-.1,0-.2s0-.2,0-.3c0,0,.1-.1.2-.2s.1,0,.2-.1c0,0,.2,0,.2,0,.1,0,.3,0,.4,0s.2.1.3.2l-.3.3h0Z"/>
        <path class="st0" d="M469.6,13.2v.7c0,0,0,.1,0,.2s0,0,.2,0h0s0,0,0,0v.4s0,0-.1,0c0,0-.1,0-.2,0-.1,0-.2,0-.3,0,0,0-.1,0-.2-.1,0,0,0-.1-.1-.2,0,0,0-.2,0-.2v-.7h-.3v-.4h.3v-.4h.6v.4h.4v.4h-.4Z"/>
        <path class="st0" d="M471.7,12.2s0,0,0,.1c0,0,0,0,0,.1,0,0,0,0-.1,0,0,0,0,0-.1,0,0,0-.2,0-.2,0s0-.1,0-.2,0,0,0-.1,0,0,0-.1c0,0,0,0,.1,0,0,0,0,0,.1,0s0,0,.1,0,0,0,.1,0c0,0,0,0,0,.1,0,0,0,0,0,.1M471.1,12.8h.6v1.7h-.6v-1.7Z"/>
        <path class="st0" d="M473.3,14.5v-.9s0,0,0-.1c0,0,0,0,0-.1,0,0,0,0,0,0,0,0,0,0-.1,0s-.1,0-.1,0c0,0,0,0-.1,0s0,0,0,.1c0,0,0,0,0,.1v.9h-.6v-1.7h.5v.2h0s0,0,0-.1,0,0,.1,0c0,0,0,0,.1,0,0,0,.1,0,.2,0,.1,0,.2,0,.3,0,0,0,.1.1.2.2,0,0,0,.1.1.2,0,0,0,.2,0,.3v1.1h-.6,0Z"/>
        <path class="st0" d="M477.1,13.6c0,.1,0,.2,0,.4,0,.1,0,.2-.2.3s-.2.1-.3.2-.2,0-.4,0-.2,0-.3,0-.2-.1-.2-.2h0v1h-.6v-2.6h.5v.2h0c0,0,.1-.1.2-.2s.2,0,.3,0,.2,0,.3,0c.1,0,.2.1.3.2,0,0,.1.2.2.3s0,.2,0,.4M476.5,13.6c0,0,0-.1,0-.2,0,0,0-.1,0-.1,0,0,0,0-.1-.1,0,0-.1,0-.2,0s-.1,0-.2,0c0,0,0,0-.1.1s0,0,0,.1,0,.1,0,.2,0,.1,0,.2c0,0,0,.1,0,.1,0,0,0,0,.1.1,0,0,.1,0,.2,0s.1,0,.2,0,0,0,.1-.1c0,0,0,0,0-.1s0-.1,0-.2"/>
        <path class="st0" d="M479.1,13.6h0c0,.1-1.2.1-1.2.1,0,0,0,0,0,.1,0,0,0,0,0,.1,0,0,0,0,.1,0,0,0,.1,0,.1,0,0,0,.2,0,.2,0s.1,0,.1-.1l.4.2c0,.1-.2.2-.3.3s-.3.1-.5.1-.2,0-.4,0-.2-.1-.3-.2c0,0-.1-.2-.2-.3,0-.1,0-.2,0-.4s0-.3,0-.4c0-.1.1-.2.2-.3,0,0,.2-.1.3-.2s.2,0,.4,0,.2,0,.4,0c.1,0,.2.1.3.2,0,0,.1.2.2.3,0,.1,0,.2,0,.4M478.6,13.4c0,0,0-.2,0-.2,0,0-.1-.1-.3-.1s-.1,0-.1,0c0,0,0,0-.1,0s0,0,0,.1,0,0,0,.1h.7,0Z"/>
        <path class="st0" d="M481.3,13.6c0,.1,0,.3,0,.4s-.1.2-.2.3-.2.1-.3.2c-.1,0-.2,0-.4,0s-.2,0-.4,0c-.1,0-.2-.1-.3-.2s-.2-.2-.2-.3,0-.2,0-.4,0-.3,0-.4.1-.2.2-.3.2-.1.3-.2.2,0,.4,0,.3,0,.4,0c.1,0,.2.1.3.2s.2.2.2.3c0,.1,0,.2,0,.4M480.7,13.6c0,0,0-.1,0-.2,0,0,0-.1,0-.1s0,0-.1-.1c0,0-.1,0-.2,0s-.1,0-.2,0,0,0-.1.1c0,0,0,0,0,.1s0,.1,0,.2,0,.1,0,.2c0,0,0,.1,0,.1,0,0,0,0,.1.1,0,0,.1,0,.2,0s.1,0,.2,0,0,0,.1-.1c0,0,0,0,0-.1s0-.1,0-.2"/>
        <path class="st0" d="M483.5,13.6c0,.1,0,.2,0,.4,0,.1,0,.2-.2.3s-.2.1-.3.2-.2,0-.4,0-.2,0-.3,0-.2-.1-.2-.2h0v1h-.6v-2.6h.5v.2h0c0,0,.1-.1.2-.2s.2,0,.3,0,.2,0,.3,0c.1,0,.2.1.3.2,0,0,.1.2.2.3s0,.2,0,.4M483,13.6c0,0,0-.1,0-.2,0,0,0-.1,0-.1,0,0,0,0-.1-.1,0,0-.1,0-.2,0s-.1,0-.2,0c0,0,0,0-.1.1s0,0,0,.1,0,.1,0,.2,0,.1,0,.2c0,0,0,.1,0,.1,0,0,0,0,.1.1,0,0,.1,0,.2,0s.1,0,.2,0,0,0,.1-.1c0,0,0,0,0-.1s0-.1,0-.2"/>
        <rect class="st0" x="483.9" y="11.9" width=".6" height="2.6"/>
        <path class="st0" d="M486.6,13.6h0c0,.1-1.2.1-1.2.1,0,0,0,0,0,.1,0,0,0,0,0,.1,0,0,0,0,.1,0,0,0,.1,0,.1,0,0,0,.2,0,.2,0s.1,0,.1-.1l.4.2c0,.1-.2.2-.3.3s-.3.1-.5.1-.2,0-.4,0-.2-.1-.3-.2c0,0-.1-.2-.2-.3,0-.1,0-.2,0-.4s0-.3,0-.4c0-.1.1-.2.2-.3,0,0,.2-.1.3-.2.1,0,.2,0,.4,0s.2,0,.4,0c.1,0,.2.1.3.2,0,0,.1.2.2.3,0,.1,0,.2,0,.4M486.1,13.4c0,0,0-.2,0-.2,0,0-.1-.1-.3-.1s-.1,0-.1,0c0,0,0,0-.1,0s0,0,0,.1,0,0,0,.1h.7,0Z"/>
        <path class="st0" d="M488.8,12h.7c.1,0,.2,0,.3,0s.2,0,.3.1.1.1.2.2,0,.2,0,.3,0,.2,0,.3-.1.1-.2.2c0,0-.2.1-.3.1-.1,0-.2,0-.3,0h-.4v1.1h-.2v-2.5h0ZM489,13.1h.4c.2,0,.4,0,.5-.1.1,0,.1-.2.1-.3s0-.3-.2-.3c-.1,0-.2-.1-.4-.1h-.4v.9h0Z"/>
        <rect class="st0" x="490.8" y="11.9" width=".2" height="2.6"/>
        <path class="st0" d="M492.7,13.4c0-.1,0-.2-.1-.3,0,0-.2-.1-.3-.1s-.2,0-.3,0-.1,0-.2.1v-.2c0,0,0-.1.1-.2.1,0,.2,0,.4,0s.2,0,.2,0c0,0,.1,0,.2.1,0,0,.1.1.1.2,0,0,0,.2,0,.3v.9c0,0,0,.1,0,.2h-.2s0,0,0-.1h0c0,0-.2,0-.2,0,0,0-.2,0-.3,0s-.1,0-.2,0c0,0-.1,0-.2,0s-.1,0-.1-.1c0,0,0-.1,0-.2,0-.1,0-.2.1-.3,0,0,.1-.1.2-.2.1,0,.2,0,.4,0,.1,0,.3,0,.4,0h0c0,0,0,0,0,0ZM492.6,13.7c-.1,0-.2,0-.3,0-.1,0-.2,0-.3,0,0,0-.1,0-.2.1,0,0,0,.1,0,.2s0,.1,0,.1,0,0,0,.1c0,0,0,0,.1,0,0,0,0,0,.1,0,0,0,.2,0,.2,0s.1,0,.2-.1,0-.1.1-.2c0,0,0-.1,0-.2h0c0-.1,0-.1,0-.1h0Z"/>
        <path class="st0" d="M494.2,13.1h-.5v.9c0,0,0,.1,0,.1,0,0,0,0,0,0s0,0,0,0c0,0,0,0,.1,0s0,0,.1,0c0,0,0,0,.1,0v.2s0,0-.1,0c0,0,0,0-.1,0s0,0-.1,0c0,0,0,0-.1,0,0,0,0,0-.1-.1,0,0,0-.1,0-.2v-1h-.3v-.2h.3v-.5h.2v.5h.5v.2h0Z"/>
        <path class="st0" d="M494.9,12.2s0,0,0,.1,0,0-.1,0,0,0-.1,0,0,0,0-.1,0,0,0-.1,0,0,.1,0,0,0,.1,0,0,0,0,.1M494.8,14.5h-.2v-1.6h.2v1.6Z"/>
        <path class="st0" d="M495.6,12.9s0,0,0,.1h0s.1,0,.2,0c.1,0,.2,0,.3,0,.2,0,.4,0,.5.2s.1.3.1.5v1h-.2v-.9c0,0,0-.2,0-.2,0,0,0-.1,0-.2s0,0-.1-.1c0,0-.1,0-.2,0s-.1,0-.2,0-.1,0-.2.1c0,0,0,.1-.1.2s0,.2,0,.3v.8h-.2v-1.4c0,0,0-.1,0-.2h.2Z"/>
        <path class="st0" d="M498.6,14.5s0,0,0-.1h0s-.1,0-.2,0c-.1,0-.2,0-.3,0-.2,0-.4,0-.5-.2s-.1-.3-.1-.5v-1h.2v.9c0,0,0,.2,0,.2,0,0,0,.1,0,.2s0,0,.1.1c0,0,.1,0,.2,0s.1,0,.2,0,.1,0,.2-.1c0,0,0-.1.1-.2s0-.2,0-.3v-.8h.2v1.4c0,0,0,.1,0,.2h-.2Z"/>
        <path class="st0" d="M499.9,12.9c.1,0,.2,0,.3,0s0,0,.1,0c0,0,0,0,.1,0s0,0,.1.1c0,0,0,.1.1.2,0-.1.1-.2.2-.3s.2,0,.3,0c.2,0,.4,0,.5.2s.1.3.1.5v1h-.2v-.9c0-.2,0-.3-.1-.4,0-.1-.2-.2-.3-.2s-.2,0-.2,0-.1,0-.1.1c0,0,0,.1,0,.2s0,.1,0,.2v.9h-.2v-.9c0,0,0-.1,0-.2,0,0,0-.1,0-.2,0,0,0,0-.1-.1s-.1,0-.2,0-.1,0-.2,0c0,0-.1,0-.1.1,0,0,0,.1-.1.2s0,.2,0,.3v.8h-.2v-1.4c0,0,0-.1,0-.2h.2s0,0,0,.1h0s.1,0,.2,0"/>
        <path class="st0" d="M455.2,18.1l-.5-1h-.2v1h-.6v-2.5h.9c.1,0,.2,0,.4,0,.1,0,.2,0,.3.1,0,0,.2.1.2.2s0,.2,0,.4,0,.3-.1.4c0,.1-.2.2-.4.2l.6,1h-.7ZM455.2,16.4c0,0,0-.1,0-.1s0,0,0,0c0,0,0,0-.1,0,0,0,0,0-.1,0h-.3v.6h.3s.1,0,.1,0c0,0,.1,0,.1,0s0,0,.1,0c0,0,0,0,0-.1"/>
        <path class="st0" d="M457.1,18.4c0,0,0,.2-.1.2,0,0,0,.1-.1.2,0,0-.1,0-.2.1,0,0-.2,0-.3,0s-.1,0-.2,0c0,0-.1,0-.1,0v-.5c0,0,.1,0,.1,0h0c0,0,.1,0,.2,0,0,0,0-.1.1-.2h0c0-.1-.7-1.8-.7-1.8h.6l.4,1.1h0l.3-1.1h.6l-.8,2h0Z"/>
        <path class="st0" d="M459.4,18.1v-.2h0c0,0-.1.2-.2.2-.1,0-.2,0-.3,0s-.2,0-.4,0-.2-.1-.3-.2-.1-.2-.2-.3,0-.2,0-.4,0-.2,0-.4,0-.2.2-.3c0,0,.2-.1.3-.2.1,0,.2,0,.3,0s.2,0,.3,0,.2.1.2.2h0v-1.1h.6v2.6h-.5,0ZM459.4,17.3c0,0,0-.1,0-.2,0,0,0-.1,0-.1s0,0-.1-.1c0,0-.1,0-.2,0s-.1,0-.2,0,0,0-.1.1c0,0,0,0,0,.1s0,.1,0,.2,0,.1,0,.2c0,0,0,.1,0,.1,0,0,0,0,.1.1,0,0,.1,0,.2,0s.1,0,.2,0c0,0,0,0,.1-.1s0,0,0-.1,0-.1,0-.2"/>
        <path class="st0" d="M461.3,18.4c0,0,0,.2-.1.2,0,0,0,.1-.1.2,0,0-.1,0-.2.1,0,0-.2,0-.3,0s-.1,0-.2,0c0,0-.1,0-.1,0v-.5c0,0,.1,0,.1,0h0c0,0,.1,0,.2,0,0,0,0-.1.1-.2h0c0-.1-.7-1.8-.7-1.8h.6l.4,1.1h0l.3-1.1h.6l-.8,2h0Z"/>
        <path class="st0" d="M464.5,18.1v-.9s0-.1,0-.1c0,0,0,0,0-.1,0,0,0,0,0,0s0,0-.1,0,0,0-.1,0,0,0,0,0,0,0,0,.1c0,0,0,0,0,.1v.9h-.6v-1c0-.1,0-.2,0-.2s-.1,0-.2,0-.2,0-.2.1,0,.2,0,.3v.9h-.6v-1.7h.5v.2h0s0,0,0-.1c0,0,0,0,.1,0,0,0,0,0,.1,0,0,0,.1,0,.2,0,.1,0,.2,0,.3,0s.1.1.2.2c0,0,.1-.2.2-.2,0,0,.2,0,.3,0s.2,0,.3,0c0,0,.1.1.2.2s0,.1.1.2c0,0,0,.2,0,.2v1.1h-.6,0Z"/>
        <path class="st0" d="M467.3,18.4c0,0,0,.2-.1.2,0,0,0,.1-.1.2,0,0-.1,0-.2.1,0,0-.2,0-.3,0s-.1,0-.2,0c0,0-.1,0-.1,0v-.5c0,0,.1,0,.1,0h0c0,0,.1,0,.2,0,0,0,0-.1.1-.2h0c0-.1-.7-1.8-.7-1.8h.6l.4,1.1h0l.3-1.1h.6l-.8,2h0Z"/>
        <path class="st0" d="M469.5,18.1v-.9s0,0,0-.1c0,0,0,0,0-.1,0,0,0,0,0,0,0,0,0,0-.1,0s-.1,0-.1,0c0,0,0,0-.1,0s0,0,0,.1c0,0,0,0,0,.1v.9h-.6v-1.7h.5v.2h0s0,0,0-.1,0,0,.1,0c0,0,0,0,.1,0,0,0,.1,0,.2,0,.1,0,.2,0,.3,0,0,0,.1.1.2.2,0,0,0,.1.1.2s0,.2,0,.3v1.1h-.6,0Z"/>
        <path class="st0" d="M473.2,17.3c0,.1,0,.2,0,.4s0,.2-.2.3c0,0-.2.1-.3.2-.1,0-.2,0-.4,0s-.2,0-.3,0c-.1,0-.2-.1-.2-.2h0v.2h-.5v-2.6h.6v1.1h0c0,0,.1-.1.2-.2s.2,0,.3,0,.2,0,.3,0,.2.1.3.2c0,0,.1.2.2.3,0,.1,0,.2,0,.4M472.7,17.3c0,0,0-.1,0-.2,0,0,0-.1,0-.1,0,0,0,0-.1-.1,0,0-.1,0-.2,0s-.1,0-.2,0c0,0,0,0-.1.1s0,0,0,.1,0,.1,0,.2,0,.1,0,.2c0,0,0,.1,0,.1s0,0,.1.1c0,0,.1,0,.2,0s.1,0,.2,0,0,0,.1-.1c0,0,0,0,0-.1s0-.1,0-.2"/>
        <path class="st0" d="M474.7,18.1v-.2h0s0,0,0,.1,0,0-.1,0,0,0-.1,0c0,0-.1,0-.2,0-.1,0-.2,0-.3,0,0,0-.1-.1-.2-.2,0,0,0-.1-.1-.2,0,0,0-.2,0-.3v-1.1h.6v.9s0,.1,0,.1c0,0,0,0,0,.1,0,0,0,0,0,0s0,0,.1,0c.1,0,.2,0,.2-.1,0,0,0-.2,0-.3v-.9h.6v1.7h-.6Z"/>
        <path class="st0" d="M477,18.1v-.2h0c0,0-.1.2-.2.2-.1,0-.2,0-.3,0s-.2,0-.4,0-.2-.1-.3-.2-.1-.2-.2-.3,0-.2,0-.4,0-.2,0-.4,0-.2.2-.3c0,0,.2-.1.3-.2.1,0,.2,0,.3,0s.2,0,.3,0,.2.1.2.2h0v-1.1h.6v2.6h-.5,0ZM477,17.3c0,0,0-.1,0-.2,0,0,0-.1,0-.1s0,0-.1-.1c0,0-.1,0-.2,0s-.1,0-.2,0,0,0-.1.1c0,0,0,0,0,.1s0,.1,0,.2,0,.1,0,.2c0,0,0,.1,0,.1,0,0,0,0,.1.1,0,0,.1,0,.2,0s.1,0,.2,0c0,0,0,0,.1-.1s0,0,0-.1,0-.1,0-.2"/>
        <path class="st0" d="M479.2,18.1v-.2h0c0,0-.1.2-.2.2-.1,0-.2,0-.3,0s-.2,0-.4,0-.2-.1-.3-.2-.1-.2-.2-.3,0-.2,0-.4,0-.2,0-.4,0-.2.2-.3c0,0,.2-.1.3-.2.1,0,.2,0,.3,0s.2,0,.3,0,.2.1.2.2h0v-1.1h.6v2.6h-.5,0ZM479.2,17.3c0,0,0-.1,0-.2,0,0,0-.1,0-.1s0,0-.1-.1c0,0-.1,0-.2,0s-.1,0-.2,0,0,0-.1.1c0,0,0,0,0,.1s0,.1,0,.2,0,.1,0,.2c0,0,0,.1,0,.1,0,0,0,0,.1.1,0,0,.1,0,.2,0s.1,0,.2,0c0,0,0,0,.1-.1s0,0,0-.1,0-.1,0-.2"/>
        <path class="st0" d="M481.2,16.9s-.1,0-.2-.1-.1,0-.2,0-.1,0-.1,0,0,0,0,.1,0,0,0,.1c0,0,.1,0,.2,0,0,0,.1,0,.2,0,0,0,.1,0,.2.1s.1,0,.1.1,0,.1,0,.2,0,.2,0,.3c0,0-.1.1-.2.2,0,0-.1,0-.2.1s-.2,0-.3,0c-.1,0-.3,0-.4,0-.1,0-.2-.1-.3-.2l.3-.3c0,0,.1.1.2.1,0,0,.1,0,.2,0s0,0,.1,0c0,0,0,0,0-.1s0,0,0-.1c0,0-.1,0-.3,0,0,0-.1,0-.2,0,0,0-.1,0-.2,0,0,0,0,0-.1-.1s0-.1,0-.2,0-.2,0-.3c0,0,.1-.1.2-.2,0,0,.1,0,.2-.1,0,0,.2,0,.2,0,.1,0,.3,0,.4,0,.1,0,.2.1.3.2l-.3.3h0Z"/>
        <path class="st0" d="M483.7,17.3c0,.1,0,.3,0,.4s-.1.2-.2.3c0,0-.2.1-.3.2-.1,0-.2,0-.4,0s-.2,0-.4,0c-.1,0-.2-.1-.3-.2s-.2-.2-.2-.3,0-.2,0-.4,0-.3,0-.4c0-.1.1-.2.2-.3,0,0,.2-.1.3-.2s.2,0,.4,0,.3,0,.4,0c.1,0,.2.1.3.2s.2.2.2.3c0,.1,0,.2,0,.4M483.1,17.3c0,0,0-.1,0-.2,0,0,0-.1,0-.1,0,0,0,0-.1-.1,0,0-.1,0-.2,0s-.1,0-.2,0,0,0-.1.1c0,0,0,0,0,.1s0,.1,0,.2,0,.1,0,.2c0,0,0,.1,0,.1,0,0,0,0,.1.1,0,0,.1,0,.2,0s.1,0,.2,0,0,0,.1-.1c0,0,0,0,0-.1s0-.1,0-.2"/>
        <path class="st0" d="M485.3,18.1v-.2h0c0,0-.1.2-.2.2-.1,0-.2,0-.3,0s-.2,0-.4,0-.2-.1-.3-.2-.1-.2-.2-.3,0-.2,0-.4,0-.2,0-.4,0-.2.2-.3c0,0,.2-.1.3-.2.1,0,.2,0,.3,0s.2,0,.3,0,.2.1.2.2h0v-1.1h.6v2.6h-.5,0ZM485.3,17.3c0,0,0-.1,0-.2,0,0,0-.1,0-.1,0,0,0,0-.1-.1,0,0-.1,0-.2,0s-.1,0-.2,0,0,0-.1.1c0,0,0,0,0,.1s0,.1,0,.2,0,.1,0,.2c0,0,0,.1,0,.1,0,0,0,0,.1.1,0,0,.1,0,.2,0s.1,0,.2,0c0,0,0,0,.1-.1s0,0,0-.1,0-.1,0-.2"/>
        <path class="st0" d="M487.6,18.1v-.2h0c0,0-.1.2-.2.2-.1,0-.2,0-.3,0s-.2,0-.4,0-.2-.1-.3-.2-.1-.2-.2-.3,0-.2,0-.4,0-.2,0-.4,0-.2.2-.3c0,0,.2-.1.3-.2.1,0,.2,0,.3,0s.2,0,.3,0,.2.1.2.2h0v-1.1h.6v2.6h-.5,0ZM487.6,17.3c0,0,0-.1,0-.2,0,0,0-.1,0-.1s0,0-.1-.1c0,0-.1,0-.2,0s-.1,0-.2,0,0,0-.1.1c0,0,0,0,0,.1s0,.1,0,.2,0,.1,0,.2c0,0,0,.1,0,.1,0,0,0,0,.1.1,0,0,.1,0,.2,0s.1,0,.2,0c0,0,0,0,.1-.1s0,0,0-.1,0-.1,0-.2"/>
        <path class="st0" d="M489.2,15.9s0,0,0,.1c0,0,0,0,0,0,0,0,0,0-.1,0s0,0-.1,0c0,0-.2,0-.2,0s0-.1,0-.2,0,0,0-.1,0,0,0-.1c0,0,0,0,.1,0,0,0,0,0,.1,0s0,0,.1,0,0,0,.1,0c0,0,0,0,0,.1,0,0,0,0,0,.1M488.6,16.4h.6v1.7h-.6v-1.7Z"/>
        <path class="st0" d="M492.7,18.1v-.9s0-.1,0-.1c0,0,0,0,0-.1,0,0,0,0,0,0s0,0-.1,0,0,0-.1,0,0,0,0,0,0,0,0,.1c0,0,0,0,0,.1v.9h-.6v-1c0-.1,0-.2,0-.2s-.1,0-.2,0-.2,0-.2.1,0,.2,0,.3v.9h-.6v-1.7h.5v.2h0s0,0,0-.1c0,0,0,0,.1,0,0,0,0,0,.1,0,0,0,.1,0,.2,0,.1,0,.2,0,.3,0s.1.1.2.2c0,0,.1-.2.2-.2,0,0,.2,0,.3,0s.2,0,.3,0c0,0,.1.1.2.2s0,.1.1.2c0,0,0,.2,0,.2v1.1h-.6,0Z"/>
        <path class="st0" d="M495.4,17.3h0c0,.1-1.2.1-1.2.1,0,0,0,0,0,.1,0,0,0,0,0,.1,0,0,0,0,.1,0,0,0,.1,0,.1,0,0,0,.2,0,.2,0,0,0,.1,0,.1-.1l.4.2c0,.1-.2.2-.3.3-.1,0-.3.1-.5.1s-.2,0-.4,0c-.1,0-.2-.1-.3-.2,0,0-.1-.2-.2-.3,0-.1,0-.2,0-.4s0-.3,0-.4c0-.1.1-.2.2-.3,0,0,.2-.1.3-.2.1,0,.2,0,.4,0s.2,0,.4,0c.1,0,.2.1.3.2,0,0,.1.2.2.3,0,.1,0,.2,0,.4M494.8,17.1c0,0,0-.2,0-.2,0,0-.1-.1-.3-.1s-.1,0-.1,0c0,0,0,0-.1,0,0,0,0,0,0,.1s0,0,0,.1h.7,0Z"/>
        <polygon class="st0" points="497.9 18.1 497.3 18.1 497 17 497 17 496.6 18.1 496.1 18.1 495.5 16.4 496.1 16.4 496.4 17.5 496.4 17.5 496.7 16.4 497.3 16.4 497.6 17.5 497.6 17.5 497.9 16.4 498.5 16.4 497.9 18.1"/>
        <path class="st0" d="M499.8,18.1v-.9s0,0,0-.1c0,0,0,0,0-.1,0,0,0,0,0,0,0,0,0,0-.1,0s-.1,0-.1,0c0,0,0,0-.1,0s0,0,0,.1c0,0,0,0,0,.1v.9h-.6v-1.7h.5v.2h0s0,0,0-.1,0,0,.1,0c0,0,0,0,.1,0,0,0,.1,0,.2,0,.1,0,.2,0,.3,0,0,0,.1.1.2.2,0,0,0,.1.1.2s0,.2,0,.3v1.1h-.6,0Z"/>
        <path class="st0" d="M503.6,17.3c0,.1,0,.2,0,.4s0,.2-.2.3c0,0-.2.1-.3.2-.1,0-.2,0-.4,0s-.2,0-.3,0-.2-.1-.2-.2h0v1h-.6v-2.6h.5v.2h0c0,0,.1-.1.2-.2,0,0,.2,0,.3,0s.2,0,.3,0,.2.1.3.2c0,0,.1.2.2.3s0,.2,0,.4M503.1,17.3c0,0,0-.1,0-.2,0,0,0-.1,0-.1,0,0,0,0-.1-.1,0,0-.1,0-.2,0s-.1,0-.2,0c0,0,0,0-.1.1s0,0,0,.1,0,.1,0,.2,0,.1,0,.2c0,0,0,.1,0,.1s0,0,.1.1c0,0,.1,0,.2,0s.1,0,.2,0,0,0,.1-.1c0,0,0,0,0-.1s0-.1,0-.2"/>
        <path class="st0" d="M505.8,17.3c0,.1,0,.3,0,.4,0,.1-.1.2-.2.3,0,0-.2.1-.3.2-.1,0-.2,0-.4,0s-.2,0-.4,0c-.1,0-.2-.1-.3-.2s-.2-.2-.2-.3,0-.2,0-.4,0-.3,0-.4c0-.1.1-.2.2-.3,0,0,.2-.1.3-.2s.2,0,.4,0,.3,0,.4,0c.1,0,.2.1.3.2s.2.2.2.3c0,.1,0,.2,0,.4M505.2,17.3c0,0,0-.1,0-.2,0,0,0-.1,0-.1,0,0,0,0-.1-.1,0,0-.1,0-.2,0s-.1,0-.2,0,0,0-.1.1c0,0,0,0,0,.1s0,.1,0,.2,0,.1,0,.2c0,0,0,.1,0,.1,0,0,0,0,.1.1,0,0,.1,0,.2,0s.1,0,.2,0,0,0,.1-.1c0,0,0,0,0-.1s0-.1,0-.2"/>
        <path class="st0" d="M508,17.3c0,.1,0,.2,0,.4s0,.2-.2.3c0,0-.2.1-.3.2-.1,0-.2,0-.4,0s-.2,0-.3,0c-.1,0-.2-.1-.2-.2h0v.2h-.5v-2.6h.6v1.1h0c0,0,.1-.1.2-.2,0,0,.2,0,.3,0s.2,0,.3,0,.2.1.3.2c0,0,.1.2.2.3,0,.1,0,.2,0,.4M507.5,17.3c0,0,0-.1,0-.2,0,0,0-.1,0-.1s0,0-.1-.1c0,0-.1,0-.2,0s-.1,0-.2,0c0,0,0,0-.1.1s0,0,0,.1,0,.1,0,.2,0,.1,0,.2,0,.1,0,.1c0,0,0,0,.1.1,0,0,.1,0,.2,0s.1,0,.2,0,0,0,.1-.1,0,0,0-.1,0-.1,0-.2"/>
        <rect class="st0" x="508.4" y="15.5" width=".6" height="2.6"/>
        <path class="st0" d="M511.2,15.7h.7c.1,0,.2,0,.3,0,0,0,.2,0,.3.1s.1.1.2.2c0,0,0,.2,0,.3s0,.2,0,.3c0,0,0,.1-.2.2,0,0-.2.1-.3.1,0,0-.2,0-.3,0h-.4v1.1h-.2v-2.5h0ZM511.5,16.8h.4c.2,0,.4,0,.4-.1,0,0,.2-.2.2-.3s0-.3-.2-.3-.2-.1-.4-.1h-.4v.9h0Z"/>
        <rect class="st0" x="513.2" y="15.5" width=".2" height="2.6"/>
        <path class="st0" d="M515.1,17.1c0-.1,0-.2-.1-.3s-.2-.1-.3-.1-.2,0-.3,0c0,0-.2,0-.2.1v-.2c0,0,0-.1.1-.2.1,0,.2,0,.4,0s.2,0,.2,0c0,0,.1,0,.2.1s0,.1.1.2c0,0,0,.2,0,.3v.9c0,0,0,.1,0,.2h-.2s0,0,0-.1h0c0,0-.2,0-.2,0,0,0-.2,0-.3,0s-.1,0-.2,0c0,0-.1,0-.2,0s0,0-.1-.1c0,0,0-.1,0-.2,0-.1,0-.2,0-.3s.2-.1.3-.2c.1,0,.2,0,.4,0s.3,0,.4,0h0s0,0,0,0ZM515.1,17.3c0,0-.2,0-.3,0,0,0-.2,0-.3,0,0,0-.2,0-.2.1,0,0,0,.1,0,.2s0,.1,0,.1c0,0,0,0,0,.1,0,0,0,0,.1,0,0,0,0,0,.1,0,0,0,.2,0,.2,0s.1,0,.2-.1c0,0,0-.1,0-.2s0-.1,0-.2h0c0-.1,0-.1,0-.1h0Z"/>
        <path class="st0" d="M516.6,16.7h-.5v1c0,0,0,.1,0,.1s0,0,0,0c0,0,0,0,0,0,0,0,0,0,0,0s0,0,0,0c0,0,0,0,0,0v.2s0,0-.1,0c0,0,0,0-.2,0s0,0-.1,0c0,0,0,0-.1,0,0,0,0,0,0-.1,0,0,0-.1,0-.2v-1h-.3v-.2h.3v-.5h.2v.5h.5v.2h0Z"/>
        <path class="st0" d="M517.3,15.9s0,0,0,.1c0,0,0,0-.1,0s0,0-.1,0c0,0,0,0,0-.1s0,0,0-.1c0,0,0,0,.1,0s0,0,.1,0c0,0,0,0,0,.1M517.2,18.1h-.2v-1.6h.2v1.6Z"/>
        <path class="st0" d="M518.1,16.5s0,0,0,.1h0s.1,0,.2-.1c0,0,.2,0,.3,0,.2,0,.4,0,.5.2,0,.1.2.3.2.5v1h-.2v-.9c0,0,0-.2,0-.2,0,0,0-.1,0-.2,0,0,0,0-.1-.1s-.1,0-.2,0-.1,0-.2,0-.1,0-.2.1c0,0,0,.1-.1.2,0,0,0,.2,0,.3v.8h-.2v-1.4c0,0,0-.1,0-.2h.2Z"/>
        <polygon class="st0" points="519.9 16.5 520.3 17.8 520.3 17.8 520.7 16.5 521 16.5 521.4 17.8 521.4 17.8 521.8 16.5 522 16.5 521.5 18.1 521.3 18.1 520.8 16.8 520.8 16.8 520.4 18.1 520.2 18.1 519.6 16.5 519.9 16.5"/>
        <path class="st0" d="M522.9,16.5c0,0,.2,0,.3,0s0,0,.1,0c0,0,0,0,.1,0,0,0,0,0,.1.1s0,.1,0,.2c0-.1.1-.2.2-.3s.2,0,.3,0c.2,0,.4,0,.5.2,0,.1.2.3.2.5v1h-.2v-.9c0-.2,0-.3,0-.4,0-.1-.2-.2-.3-.2s-.2,0-.2,0c0,0-.1,0-.1.1,0,0,0,.1,0,.2s0,.1,0,.2v.9h-.2v-1c0,0,0-.1,0-.2,0,0,0-.1,0-.2,0,0,0,0-.1-.1s-.1,0-.2,0-.1,0-.2,0-.1,0-.2.1c0,0,0,.1-.1.2,0,0,0,.2,0,.3v.8h-.2v-1.4c0,0,0-.1,0-.2h.2s0,0,0,.1h0s.1,0,.2-.1"/>
        <rect class="st0" x="453.9" y="6.3" width=".9" height="4.1"/>
        <polygon class="st0" points="458.1 10.4 457.3 10.4 456.2 8.1 456.2 10.4 455.4 10.4 455.4 6.3 456.2 6.3 457.3 8.5 457.3 6.3 458.1 6.3 458.1 10.4"/>
        <polygon class="st0" points="460.6 10.4 459.6 10.4 458.5 6.3 459.4 6.3 460.1 9.1 460.8 6.3 461.7 6.3 460.6 10.4"/>
        <polygon class="st0" points="464.2 7.1 462.9 7.1 462.9 7.9 464.1 7.9 464.1 8.7 462.9 8.7 462.9 9.6 464.2 9.6 464.2 10.4 462 10.4 462 6.3 464.2 6.3 464.2 7.1"/>
        <path class="st0" d="M467,6.4v.8c-.4-.2-.6-.2-.9-.2s-.3,0-.3.1c0,0-.1.2-.1.3s0,.3.2.3c0,0,.2,0,.4.2.3.1.6.2.7.4.2.2.2.4.2.8s-.1.7-.4.9-.6.4-1,.4-.8,0-1.1-.3v-.9c.4.2.8.3,1.1.3s.3,0,.4-.1.1-.2.1-.3,0-.2-.1-.3c0,0-.2-.1-.4-.2-.2,0-.4-.2-.6-.3-.3-.2-.5-.5-.5-.9s.1-.7.4-.9.5-.3.9-.3.7,0,1,.2"/>
        <polygon class="st0" points="470.3 7.1 469.3 7.1 469.3 10.4 468.5 10.4 468.5 7.1 467.5 7.1 467.5 6.3 470.3 6.3 470.3 7.1"/>
        <path class="st0" d="M473.5,8.9c0,.5-.1.9-.4,1.2s-.6.4-1.1.4-.8-.1-1.1-.4c-.3-.3-.4-.7-.4-1.2v-1.1c0-.5.1-.9.4-1.2s.6-.4,1.1-.4.8.1,1.1.4c.3.3.4.7.4,1.2v1.1ZM471.5,8.8c0,.3,0,.5.2.6.1.1.3.2.4.2s.3,0,.4-.2c.1-.1.2-.3.2-.6v-1c0-.3,0-.5-.2-.6-.1-.1-.3-.2-.4-.2s-.3,0-.4.2c-.1.1-.2.3-.2.6v1Z"/>
        <path class="st0" d="M476,10.4l-.7-1.5h-.4v1.5h-.9v-4.1h1.2c.4,0,.8.1,1,.3s.4.5.4.9h0c0,.6-.2,1-.5,1.2l.8,1.7h-.9ZM474.9,8.1h.3c.2,0,.3,0,.4-.1s.1-.2.1-.3h0c0-.4-.2-.6-.6-.6h-.3v1h0Z"/>
        <path class="st0" d="M479.5,6.4v.8c-.4-.2-.6-.2-.9-.2s-.3,0-.3.1c0,0-.1.2-.1.3s0,.3.2.3c0,0,.2,0,.4.2.3.1.6.2.7.4.2.2.2.4.2.8s-.1.7-.4.9-.6.4-1,.4-.8,0-1.1-.3v-.9c.4.2.8.3,1.1.3s.3,0,.4-.1.1-.2.1-.3,0-.2-.1-.3c0,0-.2-.1-.4-.2-.2,0-.4-.2-.6-.3-.3-.2-.5-.5-.5-.9s.1-.7.4-.9.5-.3.9-.3.7,0,1,.2"/>
        <rect class="st0" x="481.6" y="6.3" width=".9" height="4.1"/>
        <polygon class="st0" points="485.9 10.4 485 10.4 484 8.1 484 10.4 483.1 10.4 483.1 6.3 483.9 6.3 485 8.5 485 6.3 485.9 6.3 485.9 10.4"/>
        <path class="st0" d="M487.8,6.3h1.3c.4,0,.8.1,1,.3s.4.5.4.9v.2c0,.4-.1.7-.4.9s-.6.3-1,.3h-.4v1.5h-.9v-4.1h0ZM488.7,7.1v1h.4c.2,0,.3,0,.4-.1s.1-.2.1-.3h0c0-.3,0-.4-.1-.5s-.2-.1-.4-.1c0,0-.4,0-.4,0Z"/>
        <polygon class="st0" points="493.1 7.1 491.8 7.1 491.8 7.9 493 7.9 493 8.7 491.8 8.7 491.8 9.6 493.1 9.6 493.1 10.4 490.9 10.4 490.9 6.3 493.1 6.3 493.1 7.1"/>
        <path class="st0" d="M498.8,6.3h1.3c.4,0,.8.1,1,.3s.4.5.4.9v.2c0,.4-.1.7-.4.9s-.6.3-1,.3h-.4v1.5h-.9v-4.1h0ZM499.6,7.1v1h.4c.2,0,.3,0,.4-.1s.1-.2.1-.3h0c0-.3,0-.4-.1-.5-.1,0-.2-.1-.4-.1,0,0-.4,0-.4,0Z"/>
        <polygon class="st0" points="502.8 9.6 504 9.6 504 10.4 501.9 10.4 501.9 6.3 502.8 6.3 502.8 9.6"/>
        <polygon class="st0" points="506.6 7.1 505.2 7.1 505.2 7.9 506.5 7.9 506.5 8.7 505.2 8.7 505.2 9.6 506.6 9.6 506.6 10.4 504.4 10.4 504.4 6.3 506.6 6.3 506.6 7.1"/>
        <polygon class="st0" points="507.7 6.4 507.5 6.4 507.5 7.1 507.3 7.1 507.3 6.4 507.2 6.4 507.2 6.3 507.7 6.3 507.7 6.4"/>
        <polygon class="st0" points="508.5 7.1 508.4 7.1 508.4 6.7 508.2 7.1 508.1 7.1 508 6.7 508 7.1 507.8 7.1 507.8 6.3 508 6.3 508.2 6.8 508.4 6.3 508.5 6.3 508.5 7.1"/>
        <path class="st0" d="M496.6,6.8s.4.3.9.2c0-.6-.6-.7-.6-.7,0,.2.1.4.3.5-.2,0-.4,0-.6,0M496.9,6.6s-.3-.4-.8-.4c0,0,.3.4.8.4M496.8,10.1c.2-.2.3-.4.3-.6,0,0-.5.2-.6.8.6.2,1-.2,1-.2-.2,0-.4,0-.7,0M497.5,9s-.4.4-.2.9c.6,0,.8-.5.8-.6-.2,0-.4,0-.6.2.1-.2.1-.4,0-.7M497.1,7.2s.2.5.8.5c.1-.6-.2-.9-.3-.9,0,.2,0,.4,0,.6-.2-.2-.4-.2-.6-.2M497.9,9c0-.2,0-.4-.2-.6,0,0-.2.5.2,1,.5-.3.5-.8.5-.8-.2.1-.4.3-.4.5M497.5,7.7s0,.5.5.8c.4-.5.1-.9.1-1-.1.2-.2.4-.2.6,0-.2-.2-.4-.5-.5M494.3,9c0,.2,0,.4,0,.7-.2-.2-.4-.2-.6-.2,0,0,.2.5.8.6.1-.6-.2-.9-.2-.9M494.7,9.5c0,.2.1.4.3.6-.2,0-.4,0-.7,0,0,0,.4.4,1,.2-.1-.6-.6-.8-.6-.8M496.1,10.3c-.1,0-.3,0-.5.1-.2,0-.4.1-.6.1,0,0,0,.1.2.1s.3,0,.5,0,.3,0,.5,0c.3,0,.4.2.5.2,0,0,0-.2,0-.2-.1-.1-.3-.2-.5-.2M495.2,6.8c-.2,0-.4,0-.6,0,.2-.1.3-.3.3-.5,0,0-.5.1-.6.7.5.2.9-.2.9-.2M495.8,6.3c-.5,0-.8.3-.8.4.6,0,.8-.3.8-.4M494,9.3c.4-.5.2-1,.2-1-.1.2-.2.4-.2.6,0-.2-.2-.4-.4-.5,0,0,0,.6.5.8M494.3,7.7c-.2.1-.4.3-.5.5,0-.2,0-.4-.2-.6,0,0-.2.5.1,1,.5-.3.5-.8.5-.8M494.7,7.2c-.2,0-.4,0-.6.2.1-.2.1-.4,0-.6,0,0-.4.3-.3.9.6,0,.8-.5.8-.5"/>
      </g>
    </g>
  </g>
  <path class="st1" d="M123.5,7.6c.2.2.6.3,1,.3s.6,0,.8-.2c.2-.2.4-.3.4-.5h1.4c-.2.7-.6,1.2-1,1.5s-1,.4-1.7.4-.8,0-1.2-.2-.7-.4-.9-.6-.4-.6-.6-.9-.2-.8-.2-1.2,0-.8.2-1.2.3-.7.6-.9c.3-.3.6-.5.9-.6s.8-.2,1.2-.2.9,0,1.3.3c.4.2.7.4.9.7.2.3.4.7.5,1.1s.1.8.1,1.3h-4.1c0,.5.2.9.4,1.1M125.3,4.7c-.2-.2-.5-.3-.8-.3s-.5,0-.6.1c-.2,0-.3.2-.4.3s-.2.3-.2.4c0,.1,0,.3,0,.4h2.5c0-.4-.2-.7-.4-.9M117.2,7.6c0,.1.2.2.3.3.1,0,.2.1.4.2s.3,0,.4,0,.2,0,.3,0c.1,0,.2,0,.3-.1,0,0,.2-.1.2-.2,0,0,0-.2,0-.3,0-.2-.2-.4-.5-.5s-.8-.2-1.3-.3c-.2,0-.4-.1-.7-.2-.2,0-.4-.2-.6-.3s-.3-.3-.4-.4c0-.2-.2-.4-.2-.6,0-.4,0-.7.2-.9s.3-.4.6-.5c.2-.1.5-.2.8-.3.3,0,.6,0,.9,0s.6,0,.9,0,.6.2.8.3c.2.1.4.3.6.6.2.2.2.5.3.9h-1.5c0-.3-.1-.5-.3-.6s-.4-.2-.7-.2-.2,0-.3,0c0,0-.2,0-.3,0s-.2,0-.2.2c0,0,0,.2,0,.3s0,.2.2.3.2.2.4.2c.2,0,.3,0,.6.2.2,0,.4,0,.7.1.2,0,.4.1.7.2.2,0,.4.2.6.3s.3.3.4.4c0,.2.2.4.2.7s0,.7-.2.9c-.2.2-.3.5-.6.6s-.5.3-.8.3c-.3,0-.6,0-.9,0s-.7,0-1-.1c-.3,0-.6-.2-.8-.3-.2-.1-.4-.4-.6-.6-.2-.2-.2-.6-.3-.9h1.5c0,.2,0,.3,0,.4M113.2,9v-.8h0c-.2.3-.5.6-.8.7-.3.1-.6.2-1,.2s-.8,0-1-.2-.5-.3-.6-.5c-.2-.2-.3-.4-.3-.7s0-.6,0-1v-3.5h1.6v3.2c0,.5,0,.8.2,1.1s.4.3.8.3.7-.1.9-.4c.2-.2.3-.7.3-1.2v-3h1.6v5.7h-1.5ZM102.7,4.9c.1-.4.3-.7.6-1,.3-.3.6-.5.9-.6s.8-.2,1.2-.2.8,0,1.2.2c.4.1.7.3.9.6.3.3.4.6.6.9s.2.8.2,1.2,0,.9-.2,1.2c-.1.4-.3.7-.6.9-.3.3-.6.5-.9.6s-.8.2-1.2.2-.8,0-1.2-.2-.7-.3-.9-.6c-.3-.3-.5-.6-.6-.9-.1-.4-.2-.8-.2-1.2s0-.9.2-1.2M104.2,6.8c0,.2.1.4.2.6.1.2.2.3.4.4.2,0,.4.2.7.2s.5,0,.7-.2.3-.2.4-.4.2-.4.2-.6c0-.2,0-.4,0-.7s0-.4,0-.7c0-.2-.1-.4-.2-.6s-.2-.3-.4-.4c-.2-.1-.4-.2-.7-.2s-.5,0-.7.2c-.2.1-.3.2-.4.4-.1.2-.2.4-.2.6s0,.4,0,.7,0,.4,0,.7M97.8,1.1v3h0c.2-.3.4-.6.8-.7.3-.2.6-.2.9-.2.4,0,.8,0,1,.2.3.1.5.3.6.5.2.2.3.4.3.7s0,.6,0,1v3.5h-1.6v-3.2c0-.5,0-.8-.2-1.1s-.4-.3-.8-.3-.7.1-.9.4c-.2.2-.3.7-.3,1.2v3h-1.6V1.1h1.6ZM91.6,7.6c0,.1.2.2.3.3.1,0,.2.1.4.2s.3,0,.4,0,.2,0,.3,0c.1,0,.2,0,.3-.1,0,0,.2-.1.2-.2,0,0,0-.2,0-.3,0-.2-.2-.4-.5-.5s-.8-.2-1.3-.3c-.2,0-.4-.1-.7-.2-.2,0-.4-.2-.6-.3s-.3-.3-.4-.4c0-.2-.2-.4-.2-.6,0-.4,0-.7.2-.9s.3-.4.6-.5c.2-.1.5-.2.8-.3.3,0,.6,0,.9,0s.6,0,.9,0,.6.2.8.3c.2.1.4.3.6.6.2.2.2.5.3.9h-1.5c0-.3-.1-.5-.3-.6-.2-.1-.4-.2-.7-.2s-.2,0-.3,0c0,0-.2,0-.3,0s-.2,0-.2.2c0,0,0,.2,0,.3s0,.2.2.3.2.2.4.2c.2,0,.3,0,.6.2.2,0,.4,0,.7.1.2,0,.4.1.7.2.2,0,.4.2.6.3s.3.3.4.4c0,.2.2.4.2.7s0,.7-.2.9c-.2.2-.3.5-.6.6s-.5.3-.8.3c-.3,0-.6,0-.9,0s-.7,0-1-.1c-.3,0-.6-.2-.8-.3-.2-.1-.4-.4-.6-.6s-.2-.6-.3-.9h1.5c0,.2,0,.3,0,.4M85.7,7.6c.2.2.6.3,1,.3s.6,0,.8-.2c.2-.2.4-.3.4-.5h1.4c-.2.7-.6,1.2-1,1.5-.4.3-1,.4-1.7.4s-.8,0-1.2-.2-.7-.4-.9-.6c-.2-.3-.4-.6-.6-.9s-.2-.8-.2-1.2,0-.8.2-1.2.3-.7.6-.9c.3-.3.6-.5.9-.6s.8-.2,1.2-.2.9,0,1.3.3.7.4.9.7c.2.3.4.7.5,1.1s.1.8.1,1.3h-4.1c0,.5.2.9.4,1.1M87.4,4.7c-.2-.2-.5-.3-.8-.3s-.5,0-.6.1c-.2,0-.3.2-.4.3s-.2.3-.2.4,0,.3,0,.4h2.5c0-.4-.2-.7-.4-.9M82.8,9h-1.6V3.3h1.6v5.7ZM81.2,1.1h1.6v1.3h-1.6v-1.3ZM76.1,3.3v.8h0c.2-.3.5-.6.8-.7.3-.2.6-.2,1-.2s.8,0,1,.2c.3.1.5.3.6.5.2.2.3.4.3.7s0,.6,0,1v3.5h-1.6v-3.2c0-.5,0-.8-.2-1.1s-.4-.3-.8-.3-.7.1-.9.4c-.2.2-.3.7-.3,1.2v3h-1.6V3.3h1.5ZM71.8,6.8c0,0,0,.2,0,.3s0,.3-.2.4-.2.3-.4.4c-.2.1-.4.1-.7.1s-.2,0-.4,0c-.1,0-.2,0-.3-.1,0,0-.2-.1-.2-.2,0,0,0-.2,0-.3s0-.3,0-.4c0,0,.1-.2.2-.2,0,0,.2-.1.3-.2.1,0,.2,0,.3,0,.1,0,.2,0,.4,0,.1,0,.2,0,.4,0,.1,0,.2,0,.3,0,0,0,.2,0,.2-.1v.6h0ZM69.8,5.1c0-.3.1-.5.3-.7.2-.1.4-.2.7-.2s.3,0,.4,0c.1,0,.2,0,.3.1,0,0,.2.1.2.2s0,.2,0,.4,0,.3-.1.4c0,0-.2.2-.4.2s-.4,0-.6,0-.5,0-.7,0c-.2,0-.5,0-.7.2-.2,0-.4.2-.6.3s-.3.3-.4.5-.2.5-.2.8,0,.5.2.8.2.4.4.5.4.2.6.3c.2,0,.5.1.8.1s.7,0,1-.1c.3-.1.6-.3.9-.5,0,.1,0,.2,0,.3,0,0,0,.2,0,.3h1.6c0-.1-.1-.3-.2-.5,0-.2,0-.5,0-.7v-3c0-.3,0-.6-.2-.8s-.3-.4-.6-.5c-.2-.1-.5-.2-.8-.2s-.6,0-.9,0-.6,0-.9,0c-.3,0-.6.2-.8.3-.2.2-.4.3-.6.6-.2.2-.2.6-.3.9h1.6ZM63.1,3.3v.7h0c.2-.3.4-.5.7-.7.3-.1.6-.2,1-.2s.8,0,1.2.2.6.4.8.7c.2.3.4.6.5,1,0,.4.2.8.2,1.2s0,.8-.2,1.1-.3.7-.5.9c-.2.3-.5.5-.8.6s-.7.2-1.1.2-.7,0-1-.2c-.3-.1-.5-.4-.7-.6h0v2.7h-1.6V3.3h1.5,0ZM65.1,7.8c.2,0,.3-.2.4-.4.1-.2.2-.4.2-.6s0-.4,0-.7,0-.4,0-.7c0-.2-.1-.4-.2-.6s-.2-.3-.4-.4-.4-.2-.6-.2-.5,0-.6.2c-.2.1-.3.2-.4.4-.1.2-.2.4-.2.6,0,.2,0,.4,0,.7s0,.4,0,.7c0,.2.1.4.2.6.1.2.2.3.4.4.2,0,.4.2.6.2s.5,0,.6-.2M53.1,3.3v.8h0c.2-.3.5-.5.7-.7s.6-.2,1-.2.7,0,1,.2.5.4.7.7c.2-.2.4-.5.7-.7.3-.2.6-.3,1-.3s.6,0,.8.1.5.2.7.3c.2.2.3.4.4.6,0,.3.2.6.2.9v3.8h-1.6v-3.2c0-.2,0-.4,0-.5,0-.2,0-.3-.1-.4s-.2-.2-.3-.3c-.1,0-.3-.1-.5-.1s-.4,0-.5.1c-.1,0-.2.2-.3.3,0,.1-.1.3-.2.5,0,.2,0,.3,0,.5v3.2h-1.6v-3.2c0-.2,0-.3,0-.5,0-.2,0-.3,0-.5s-.2-.2-.3-.3c-.1,0-.3-.1-.6-.1s-.2,0-.3,0-.2,0-.3.2c-.1,0-.2.2-.3.4s-.1.4-.1.7v3.3h-1.6V3.3h1.5,0ZM45,4.9c.1-.4.3-.7.6-1,.3-.3.6-.5.9-.6.4-.1.8-.2,1.2-.2s.8,0,1.2.2c.4.1.7.3.9.6.3.3.5.6.6.9s.2.8.2,1.2,0,.9-.2,1.2c-.1.4-.3.7-.6.9-.3.3-.6.5-.9.6s-.8.2-1.2.2-.8,0-1.2-.2-.7-.3-.9-.6c-.3-.3-.5-.6-.6-.9-.1-.4-.2-.8-.2-1.2s0-.9.2-1.2M46.4,6.8c0,.2.1.4.2.6s.2.3.4.4c.2,0,.4.2.7.2s.5,0,.7-.2c.2,0,.3-.2.4-.4s.2-.4.2-.6c0-.2,0-.4,0-.7s0-.4,0-.7c0-.2-.1-.4-.2-.6s-.2-.3-.4-.4c-.2-.1-.4-.2-.7-.2s-.5,0-.7.2c-.2.1-.3.2-.4.4-.1.2-.2.4-.2.6,0,.2,0,.4,0,.7s0,.4,0,.7M41.4,4.3c-.2,0-.5,0-.6.2-.2.1-.3.3-.4.4-.1.2-.2.4-.2.6,0,.2,0,.4,0,.6s0,.4,0,.6c0,.2.1.4.2.6,0,.2.2.3.4.4.2.1.4.2.6.2.4,0,.7,0,.9-.3s.3-.5.4-.8h1.5c0,.8-.4,1.3-.9,1.7s-1.1.6-1.9.6-.8,0-1.2-.2c-.4-.1-.7-.3-.9-.6s-.4-.6-.6-.9c-.1-.4-.2-.8-.2-1.2s0-.8.2-1.2c.1-.4.3-.7.6-1,.2-.3.5-.5.9-.6s.8-.2,1.2-.2.7,0,1,.1c.3,0,.6.2.8.4s.4.4.6.7c.2.3.2.6.3.9h-1.5c0-.7-.5-1-1.2-1M38.8,1l-3.1,8.2h-1.2l3.1-8.2s1.2,0,1.2,0ZM30.1,1.1v4.2l2-2h1.8l-2.1,2.1,2.4,3.6h-1.9l-1.6-2.5-.6.6v2h-1.6V1.1h1.6,0ZM25.8,9v-.8h0c-.2.3-.5.6-.8.7-.3.1-.6.2-1,.2s-.8,0-1-.2-.5-.3-.6-.5-.3-.4-.3-.7,0-.6,0-1v-3.5h1.6v3.2c0,.5,0,.8.2,1.1s.4.3.8.3.7-.1.9-.4.3-.7.3-1.2v-3h1.6v5.7h-1.5ZM20.8,9h-1.7v-1.7h1.7v1.7ZM15.2,9l-1.9-5.7h1.6l1.2,3.9h0l1.2-3.9h1.5l-1.9,5.7h-1.7ZM7.4,4.9c.1-.4.3-.7.6-1,.3-.3.6-.5.9-.6.4-.1.8-.2,1.2-.2s.9,0,1.2.2c.4.1.7.3.9.6.3.3.4.6.6.9s.2.8.2,1.2,0,.9-.2,1.2c-.1.4-.3.7-.6.9-.3.3-.6.5-.9.6-.4.1-.8.2-1.2.2s-.9,0-1.2-.2-.7-.3-.9-.6c-.3-.3-.4-.6-.6-.9-.1-.4-.2-.8-.2-1.2s0-.9.2-1.2M8.8,6.8c0,.2.1.4.2.6s.2.3.4.4.4.2.7.2.5,0,.7-.2.3-.2.4-.4c.1-.2.2-.4.2-.6,0-.2,0-.4,0-.7s0-.4,0-.7c0-.2-.1-.4-.2-.6s-.2-.3-.4-.4c-.2-.1-.4-.2-.7-.2s-.5,0-.7.2c-.2.1-.3.2-.4.4-.1.2-.2.4-.2.6,0,.2,0,.4,0,.7s0,.4,0,.7M6,9.4c0,.3-.2.6-.4.8s-.5.5-.9.6c-.4.2-.9.3-1.6.3s-.6,0-.8-.1c-.3,0-.5-.2-.8-.3-.2-.1-.4-.3-.6-.6-.2-.2-.2-.5-.3-.8h1.6c0,.3.2.5.4.6s.5.2.7.2c.4,0,.8-.1,1-.4.2-.3.3-.6.3-1v-.8h0c-.2.3-.4.5-.7.7-.3.1-.6.2-1,.2s-.8,0-1.1-.2c-.3-.1-.6-.4-.8-.6-.2-.3-.3-.6-.4-.9s-.1-.7-.1-1.1,0-.7.2-1.1.3-.6.5-.9c.2-.3.5-.5.8-.6.3-.2.6-.2,1-.2s.7,0,1,.2c.3.1.5.4.7.7h0v-.8h1.5v5.3c0,.2,0,.5,0,.8M3.9,7.5c.2,0,.3-.2.4-.3s.2-.3.2-.5,0-.4,0-.6,0-.5,0-.7c0-.2-.1-.4-.2-.6,0-.2-.2-.3-.4-.4-.2,0-.4-.1-.6-.1s-.4,0-.6.1c-.2,0-.3.2-.4.4-.1.2-.2.3-.2.5,0,.2,0,.4,0,.6s0,.4,0,.6c0,.2.1.4.2.5s.2.3.4.4c.2,0,.4.2.6.2s.4,0,.6-.1"/>
  <g class="st2">
    <g class="st2">
      <path class="st1" d="M1.5,12.8l1.6,4.2,1.6-4.2h.9v5h-.6v-4.2h0l-1.6,4.2h-.6l-1.6-4.2h0v4.2h-.6v-5h.9Z"/>
    </g>
    <g class="st2">
      <path class="st1" d="M9.2,15v2.1c0,.1,0,.2.2.2s.1,0,.2,0v.5c-.1,0-.3,0-.4,0-.3,0-.5-.2-.5-.6-.3.4-.7.6-1.3.6s-1.2-.4-1.2-1,.1-.6.3-.8c.2-.2.7-.3,1.5-.4.5,0,.7-.2.7-.4,0-.4-.2-.6-.8-.6s-.9.2-.9.7h-.6c0-.8.6-1.2,1.5-1.2s1.4.4,1.4,1ZM7.5,17.3c.7,0,1.1-.4,1.1-.8v-.6c0,0-.3.1-.4.1h-.6c-.5.2-.8.4-.8.7s.3.5.7.5Z"/>
    </g>
    <g class="st2">
      <path class="st1" d="M12.7,14.6c.3.4.4.9.4,1.4h0c0,0-2.7,0-2.7,0h0c0,.7.4,1.2,1.1,1.2s.8-.3.9-.7h.6c-.2.8-.7,1.2-1.5,1.2s-.7,0-1-.3c-.5-.4-.8-1-.8-1.7s.2-1,.5-1.3c.3-.4.7-.5,1.2-.5s.9.2,1.2.6ZM12.5,15.6c0-.6-.5-1-1.1-1s-1,.4-1,1h2.1Z"/>
    </g>
    <g class="st2">
      <path class="st1" d="M18.9,12.8v.6h-1.7v4.4h-.7v-4.4h-1.7v-.6h4Z"/>
    </g>
    <g class="st2">
      <path class="st1" d="M19.4,14.2l1.1,3h0l1-3h.6l-1.5,4c-.3.8-.6,1.1-1.1,1.1s-.3,0-.4,0v-.5c.1,0,.2,0,.4,0,.2,0,.4-.1.5-.4l.2-.6-1.4-3.6h.7ZM20.8,12.7l.7,1h-.6l-.5-.7-.5.7h-.5l.7-1h.7Z"/>
    </g>
    <g class="st2">
      <path class="st1" d="M23.2,12.8v.8c0,.6-.3,1-.8,1v-.4c.3,0,.4-.2.4-.7h-.4v-.8h.8Z"/>
    </g>
    <g class="st2">
      <path class="st1" d="M25.8,14.1v.6c-.9,0-1.3.5-1.3,1.5v1.6h-.6v-3.6h.6v.8h0c.3-.6.7-.8,1.2-.8h0Z"/>
    </g>
    <g class="st2">
      <path class="st1" d="M32.1,14.3h-.7c-.1-.7-.7-1.1-1.4-1.1-1.1,0-1.7.8-1.7,2s.6,2.1,1.7,2.1,1.4-.6,1.4-1.4h.7c-.1,1.3-.9,2-2.2,2s-1.3-.2-1.7-.7c-.4-.5-.6-1.1-.6-1.9s.2-1.4.6-1.9,1-.7,1.7-.7c1.1,0,1.9.6,2.1,1.6Z"/>
    </g>
    <g class="st2">
      <path class="st1" d="M33.2,14.2l.8,3h0l.7-3h.7l.8,3h0l.8-3h.6l-1.1,3.6h0s-.6,0-.6,0l-.7-2.9h0l-.7,2.9h-.6l-1.2-3.6h.7Z"/>
    </g>
    <g class="st2">
      <path class="st1" d="M40.8,14.7c.2-.4.7-.6,1.1-.6.8,0,1.2.4,1.2,1v2.7h-.6v-2.4c0-.5-.2-.8-.7-.8s-.9.4-.9.9v2.3h-.6v-2.4c0-.5-.2-.8-.7-.8s-.4,0-.5.1c-.3.2-.5.6-.5.8v2.3h-.6v-3.6h.6v.5h0c.3-.4.7-.6,1.2-.6s.9.2,1,.6Z"/>
    </g>
    <g class="st2">
      <path class="st1" d="M47,15.4v2.4h-.6v-2.5c0-.4-.3-.7-.7-.7s-1.1.5-1.1,1.1v2.1h-.6v-3.6h.6v.6h0c.3-.5.6-.7,1.2-.7.9,0,1.2.5,1.2,1.3Z"/>
    </g>
    <g class="st2">
      <path class="st1" d="M47.7,12.8v.7h-.6v-.7h.6ZM48.4,14.2v3.6h-.6v-3.6h.6ZM49,12.8v.7h-.6v-.7h.6Z"/>
    </g>
    <g class="st2">
      <path class="st1" d="M51.9,15v2.1c0,.1,0,.2.2.2s.1,0,.2,0v.5c-.1,0-.3,0-.4,0-.3,0-.5-.2-.5-.6-.3.4-.7.6-1.3.6s-1.2-.4-1.2-1,.1-.6.3-.8c.2-.2.7-.3,1.5-.4.5,0,.7-.2.7-.4,0-.4-.2-.6-.8-.6s-.9.2-.9.7h-.6c0-.8.6-1.2,1.5-1.2s1.4.4,1.4,1ZM50.2,17.3c.7,0,1.1-.4,1.1-.8v-.6c0,0-.3.1-.4.1h-.6c-.5.2-.8.4-.8.7s.3.5.7.5Z"/>
    </g>
    <g class="st2">
      <path class="st1" d="M53.3,14.2v2.5c0,.4.3.7.7.7.7,0,1.1-.5,1.1-1.1v-2.1h.6v3.6h-.6v-.6h0c-.3.5-.7.7-1.2.7-.8,0-1.2-.4-1.2-1.3v-2.4h.6Z"/>
    </g>
    <g class="st2">
      <path class="st1" d="M58.5,14.2l1.1,3h0l1-3h.6l-1.5,4c-.3.8-.6,1.1-1.1,1.1s-.3,0-.4,0v-.5c.1,0,.2,0,.4,0,.2,0,.4-.1.5-.4l.2-.6-1.4-3.6h.7Z"/>
    </g>
    <g class="st2">
      <path class="st1" d="M64.5,15.4v2.4h-.6v-2.5c0-.4-.3-.7-.7-.7s-1.1.5-1.1,1.1v2.1h-.6v-3.6h.6v.6h0c.3-.5.6-.7,1.2-.7.9,0,1.2.5,1.2,1.3Z"/>
    </g>
    <g class="st2">
      <path class="st1" d="M69.8,15v2.1c0,.1,0,.2.2.2s.1,0,.2,0v.5c-.1,0-.3,0-.4,0-.3,0-.5-.2-.5-.6-.3.4-.7.6-1.3.6s-1.2-.4-1.2-1,.1-.6.3-.8c.2-.2.7-.3,1.5-.4.5,0,.7-.2.7-.4,0-.4-.2-.6-.8-.6s-.9.2-.9.7h-.6c0-.8.6-1.2,1.5-1.2s1.4.4,1.4,1ZM68.1,17.3c.7,0,1.1-.4,1.1-.8v-.6c0,0-.3.1-.4.1h-.6c-.5.2-.8.4-.8.7s.3.5.7.5Z"/>
    </g>
    <g class="st2">
      <path class="st1" d="M73.3,15.2h-.6c0-.4-.4-.6-.8-.6s-.8.2-.8.5.2.4.7.5h.6c.7.3,1.1.6,1.1,1.1s-.6,1.1-1.5,1.1-1.5-.4-1.5-1.2h.6c0,.4.4.7,1,.7s.9-.2.9-.5,0-.3-.2-.4c-.1,0-.4-.2-.9-.3-.9-.2-1.2-.5-1.2-1s.6-1,1.4-1,1.4.4,1.5,1.1Z"/>
      <path class="st1" d="M74.8,12.8v.7h-.6v-.7h.6ZM74.8,14.2v3.6h-.6v-3.6h.6Z"/>
    </g>
    <g class="st2">
      <path class="st1" d="M78.2,15v2.1c0,.1,0,.2.2.2s.1,0,.2,0v.5c-.1,0-.3,0-.4,0-.3,0-.5-.2-.5-.6-.3.4-.7.6-1.3.6s-1.2-.4-1.2-1,.1-.6.3-.8c.2-.2.7-.3,1.5-.4.5,0,.7-.2.7-.4,0-.4-.2-.6-.8-.6s-.9.2-.9.7h-.6c0-.8.6-1.2,1.5-1.2s1.4.4,1.4,1ZM76.5,17.3c.7,0,1.1-.4,1.1-.8v-.6c0,0-.3.1-.4.1h-.6c-.5.2-.8.4-.8.7s.3.5.7.5Z"/>
    </g>
    <g class="st2">
      <path class="st1" d="M82,15.4v2.4h-.6v-2.5c0-.4-.3-.7-.7-.7s-1.1.5-1.1,1.1v2.1h-.6v-3.6h.6v.6h0c.3-.5.6-.7,1.2-.7.9,0,1.2.5,1.2,1.3Z"/>
    </g>
    <g class="st2">
      <path class="st1" d="M83.6,13.1v1.1h.7v.5h-.7v2.3c0,.2,0,.3.2.3.1,0,.2,0,.4,0h.2v.5h-.5c-.7,0-.8-.2-.8-.8v-2.3h-.6v-.5h.6v-1.1h.6Z"/>
      <path class="st1" d="M87.8,15v2.1c0,.1,0,.2.2.2s.1,0,.2,0v.5c-.1,0-.3,0-.4,0-.3,0-.5-.2-.5-.6-.3.4-.7.6-1.3.6s-1.2-.4-1.2-1,.1-.6.3-.8c.2-.2.7-.3,1.5-.4.5,0,.7-.2.7-.4,0-.4-.2-.6-.8-.6s-.9.2-.9.7h-.6c0-.8.6-1.2,1.5-1.2s1.4.4,1.4,1ZM86.1,17.3c.7,0,1.1-.4,1.1-.8v-.6c0,0-.3.1-.4.1h-.6c-.5.2-.8.4-.8.7s.3.5.7.5Z"/>
    </g>
    <g class="st2">
      <path class="st1" d="M91.2,14.6c.3.4.4.9.4,1.4h0c0,0-2.7,0-2.7,0h0c0,.7.4,1.2,1.1,1.2s.8-.3.9-.7h.6c-.2.8-.7,1.2-1.5,1.2s-.7,0-1-.3c-.5-.4-.8-1-.8-1.7s.2-1,.5-1.3c.3-.4.7-.5,1.2-.5s.9.2,1.2.6ZM91,15.6c0-.6-.5-1-1.1-1s-1,.4-1,1h2.1Z"/>
    </g>
    <g class="st2">
      <path class="st1" d="M92.9,13.1v1.1h.7v.5h-.7v2.3c0,.2,0,.3.2.3.1,0,.2,0,.4,0h.2v.5h-.5c-.7,0-.8-.2-.8-.8v-2.3h-.6v-.5h.6v-1.1h.6Z"/>
    </g>
    <g class="st2">
      <path class="st1" d="M94.7,12.8v1.9h0c.2-.4.6-.6,1.1-.6.9,0,1.2.5,1.2,1.3v2.4h-.6v-2.5c0-.4-.3-.7-.7-.7s-1.1.5-1.1,1.1v2.1h-.6v-5h.6Z"/>
    </g>
    <g class="st2">
      <path class="st1" d="M100,14.2l.8,3h0l.7-3h.7l.8,3h0l.8-3h.6l-1.1,3.6h0s-.6,0-.6,0l-.7-2.9h0l-.7,2.9h-.6l-1.2-3.6h.7Z"/>
    </g>
    <g class="st2">
      <path class="st1" d="M107.5,14.6c.3.4.4.9.4,1.4h0c0,0-2.7,0-2.7,0h0c0,.7.4,1.2,1.1,1.2s.8-.3.9-.7h.6c-.2.8-.7,1.2-1.5,1.2s-.7,0-1-.3c-.5-.4-.8-1-.8-1.7s.2-1,.5-1.3c.3-.4.7-.5,1.2-.5s.9.2,1.2.6ZM107.3,15.6c0-.6-.5-1-1.1-1s-1,.4-1,1h2.1Z"/>
    </g>
    <g class="st2">
      <path class="st1" d="M109.1,12.8v.7h-.6v-.7h.6ZM109.1,14.2v3.6h-.6v-3.6h.6Z"/>
    </g>
    <g class="st2">
      <path class="st1" d="M110.6,13.1v1.1h.7v.5h-.7v2.3c0,.2,0,.3.2.3.1,0,.2,0,.4,0h.2v.5h-.5c-.7,0-.8-.2-.8-.8v-2.3h-.6v-.5h.6v-1.1h.6Z"/>
    </g>
    <g class="st2">
      <path class="st1" d="M112.4,12.8v1.9h0c.2-.4.6-.6,1.1-.6.9,0,1.2.5,1.2,1.3v2.4h-.6v-2.5c0-.4-.3-.7-.7-.7s-1.1.5-1.1,1.1v2.1h-.6v-5h.6Z"/>
    </g>
    <g class="st2">
      <path class="st1" d="M117.5,14.1v.6c-.9,0-1.3.5-1.3,1.5v1.6h-.6v-3.6h.6v.8h0c.3-.6.7-.8,1.2-.8h0Z"/>
    </g>
    <g class="st2">
      <path class="st1" d="M120.5,14.6c.3.4.4.9.4,1.4h0c0,0-2.7,0-2.7,0h0c0,.7.4,1.2,1.1,1.2s.8-.3.9-.7h.6c-.2.8-.7,1.2-1.5,1.2s-.7,0-1-.3c-.5-.4-.8-1-.8-1.7s.2-1,.5-1.3c.3-.4.7-.5,1.2-.5s.9.2,1.2.6ZM120.3,15.6c0-.6-.5-1-1.1-1s-1,.4-1,1h2.1Z"/>
    </g>
    <g class="st2">
      <path class="st1" d="M124.7,12.8v5h-.6v-.5h0c-.2.4-.6.6-1.2.6-1,0-1.7-.8-1.7-1.9s.6-1.9,1.6-1.9,1,.2,1.2.6h0v-1.9h.6ZM123,17.3c.7,0,1.1-.6,1.1-1.4s-.4-1.4-1.1-1.4-1.1.5-1.1,1.4.4,1.3,1.1,1.3Z"/>
      <path class="st1" d="M129,16c0,1.1-.7,1.9-1.8,1.9s-1.8-.7-1.8-1.9.7-1.9,1.8-1.9,1.8.8,1.8,1.9ZM127.2,17.3c.7,0,1.1-.5,1.1-1.4s-.5-1.4-1.1-1.4-1.1.5-1.1,1.4.5,1.4,1.1,1.4Z"/>
    </g>
    <g class="st2">
      <path class="st1" d="M130.1,12.8v5h-.6v-5h.6Z"/>
    </g>
    <g class="st2">
      <path class="st1" d="M135.8,16c0,1.1-.7,1.9-1.8,1.9s-1.8-.7-1.8-1.9.7-1.9,1.8-1.9,1.8.8,1.8,1.9ZM134.1,17.3c.7,0,1.1-.5,1.1-1.4s-.5-1.4-1.1-1.4-1.1.5-1.1,1.4.5,1.4,1.1,1.4Z"/>
    </g>
    <g class="st2">
      <path class="st1" d="M137.1,12.8v.8c0,.6-.3,1-.8,1v-.4c.3,0,.4-.2.4-.7h-.4v-.8h.8Z"/>
    </g>
    <g class="st2">
      <path class="st1" d="M139.7,14.1v.6c-.9,0-1.3.5-1.3,1.5v1.6h-.6v-3.6h.6v.8h0c.3-.6.7-.8,1.2-.8h0Z"/>
    </g>
    <g class="st2">
      <path class="st1" d="M143.9,12.8l2,5h-.7l-.5-1.5h-2.1l-.6,1.5h-.7l2-5h.7ZM143.5,13.4l-.8,2.3h1.7l-.8-2.3h0Z"/>
    </g>
    <g class="st2">
      <path class="st1" d="M149.4,12.8v5h-.6v-.5h0c-.2.4-.6.6-1.2.6-1,0-1.7-.8-1.7-1.9s.6-1.9,1.6-1.9,1,.2,1.2.6h0v-1.9h.6ZM147.7,17.3c.7,0,1.1-.6,1.1-1.4s-.4-1.4-1.1-1.4-1.1.5-1.1,1.4.4,1.3,1.1,1.3Z"/>
    </g>
    <g class="st2">
      <path class="st1" d="M152,14.1v.6c-.9,0-1.3.5-1.3,1.5v1.6h-.6v-3.6h.6v.8h0c.3-.6.7-.8,1.2-.8h0Z"/>
    </g>
    <g class="st2">
      <path class="st1" d="M155.2,15v2.1c0,.1,0,.2.2.2s.1,0,.2,0v.5c-.1,0-.3,0-.4,0-.3,0-.5-.2-.5-.6-.3.4-.7.6-1.3.6s-1.2-.4-1.2-1,.1-.6.3-.8c.2-.2.7-.3,1.5-.4.5,0,.7-.2.7-.4,0-.4-.2-.6-.8-.6s-.9.2-.9.7h-.6c0-.8.6-1.2,1.5-1.2s1.4.4,1.4,1ZM153.5,17.3c.7,0,1.1-.4,1.1-.8v-.6c0,0-.3.1-.4.1h-.6c-.5.2-.8.4-.8.7s.3.5.7.5Z"/>
    </g>
    <g class="st2">
      <path class="st1" d="M159,15.4v2.4h-.6v-2.5c0-.4-.3-.7-.7-.7s-1.1.5-1.1,1.1v2.1h-.6v-3.6h.6v.6h0c.3-.5.6-.7,1.2-.7.9,0,1.2.5,1.2,1.3Z"/>
    </g>
    <g class="st2">
      <path class="st1" d="M163.8,12.8c.6,0,1,.1,1.3.4.2.2.3.5.3.8,0,.5-.3.9-.7,1.1h0c.6.1,1,.6,1,1.2s-.6,1.4-1.5,1.4h-2.4v-5h2.1ZM163.7,14.9c.7,0,1-.2,1-.8s-.2-.8-1-.8h-1.4v1.6h1.4ZM164,17.2c.5,0,.9-.3.9-.9s-.4-.8-1.1-.8h-1.5v1.7h1.7Z"/>
    </g>
    <g class="st2">
      <path class="st1" d="M166.9,14.2v2.5c0,.4.3.7.7.7.7,0,1.1-.5,1.1-1.1v-2.1h.6v3.6h-.6v-.6h0c-.3.5-.7.7-1.2.7-.8,0-1.2-.4-1.2-1.3v-2.4h.6Z"/>
    </g>
    <g class="st2">
      <path class="st1" d="M172.7,15.2h-.6c0-.4-.4-.6-.8-.6s-.8.2-.8.5.2.4.7.5h.6c.7.3,1.1.6,1.1,1.1s-.6,1.1-1.5,1.1-1.5-.4-1.5-1.2h.6c0,.4.4.7,1,.7s.9-.2.9-.5,0-.3-.2-.4c-.1,0-.4-.2-.9-.3-.9-.2-1.2-.5-1.2-1s.6-1,1.4-1,1.4.4,1.5,1.1Z"/>
    </g>
    <g class="st2">
      <path class="st1" d="M176.4,15.4v2.4h-.6v-2.5c0-.4-.3-.7-.7-.7s-1.1.5-1.1,1.1v2.1h-.6v-3.6h.6v.6h0c.3-.5.6-.7,1.2-.7.9,0,1.2.5,1.2,1.3Z"/>
    </g>
    <g class="st2">
      <path class="st1" d="M179.9,14.6c.3.4.4.9.4,1.4h0c0,0-2.7,0-2.7,0h0c0,.7.4,1.2,1.1,1.2s.8-.3.9-.7h.6c-.2.8-.7,1.2-1.5,1.2s-.7,0-1-.3c-.5-.4-.8-1-.8-1.7s.2-1,.5-1.3c.3-.4.7-.5,1.2-.5s.9.2,1.2.6ZM179.7,15.6c0-.6-.5-1-1-1s-1,.4-1,1h2.1Z"/>
    </g>
    <g class="st2">
      <path class="st1" d="M183.6,15.2h-.6c0-.4-.4-.6-.8-.6s-.8.2-.8.5.2.4.7.5h.6c.7.3,1.1.6,1.1,1.1s-.6,1.1-1.5,1.1-1.5-.4-1.5-1.2h.6c0,.4.4.7,1,.7s.9-.2.9-.5,0-.3-.2-.4c-.1,0-.4-.2-.9-.3-.9-.2-1.2-.5-1.2-1s.6-1,1.4-1,1.4.4,1.5,1.1Z"/>
      <path class="st1" d="M189.1,15v2.1c0,.1,0,.2.2.2s.1,0,.2,0v.5c-.1,0-.3,0-.4,0-.3,0-.5-.2-.5-.6-.3.4-.7.6-1.3.6s-1.2-.4-1.2-1,.1-.6.3-.8c.2-.2.7-.3,1.5-.4.5,0,.7-.2.7-.4,0-.4-.2-.6-.8-.6s-.9.2-.9.7h-.6c0-.8.6-1.2,1.5-1.2s1.4.4,1.4,1ZM187.4,17.3c.7,0,1.1-.4,1.1-.8v-.6c0,0-.3.1-.4.1h-.6c-.5.2-.8.4-.8.7s.3.5.7.5Z"/>
    </g>
    <g class="st2">
      <path class="st1" d="M192.5,12.8l1.6,4.2,1.6-4.2h.9v5h-.6v-4.2h0l-1.6,4.2h-.6l-1.6-4.2h0v4.2h-.6v-5h.9Z"/>
    </g>
    <g class="st2">
      <path class="st1" d="M200.1,15v2.1c0,.1,0,.2.2.2s.1,0,.2,0v.5c-.1,0-.3,0-.4,0-.3,0-.5-.2-.5-.6-.3.4-.7.6-1.3.6s-1.2-.4-1.2-1,.1-.6.3-.8c.2-.2.7-.3,1.5-.4.5,0,.7-.2.7-.4,0-.4-.2-.6-.8-.6s-.9.2-.9.7h-.6c0-.8.6-1.2,1.5-1.2s1.4.4,1.4,1ZM198.4,17.3c.7,0,1.1-.4,1.1-.8v-.6c0,0-.3.1-.4.1h-.6c-.5.2-.8.4-.8.7s.3.5.7.5Z"/>
      <path class="st1" d="M203.7,15.2h-.6c0-.4-.4-.6-.8-.6s-.8.2-.8.5.2.4.7.5h.6c.7.3,1.1.6,1.1,1.1s-.6,1.1-1.5,1.1-1.5-.4-1.5-1.2h.6c0,.4.4.7,1,.7s.9-.2.9-.5,0-.3-.2-.4c-.1,0-.4-.2-.9-.3-.9-.2-1.2-.5-1.2-1s.6-1,1.4-1,1.4.4,1.5,1.1Z"/>
    </g>
    <g class="st2">
      <path class="st1" d="M207.4,15.4v2.4h-.6v-2.5c0-.4-.3-.7-.7-.7s-1.1.5-1.1,1.1v2.1h-.6v-3.6h.6v.6h0c.3-.5.6-.7,1.2-.7.9,0,1.2.5,1.2,1.3Z"/>
    </g>
    <g class="st2">
      <path class="st1" d="M211,15v2.1c0,.1,0,.2.2.2s.1,0,.2,0v.5c-.1,0-.3,0-.4,0-.3,0-.5-.2-.5-.6-.3.4-.7.6-1.3.6s-1.2-.4-1.2-1,.1-.6.3-.8c.2-.2.7-.3,1.5-.4.5,0,.7-.2.7-.4,0-.4-.2-.6-.8-.6s-.9.2-.9.7h-.6c0-.8.6-1.2,1.5-1.2s1.4.4,1.4,1ZM209.3,17.3c.7,0,1.1-.4,1.1-.8v-.6c0,0-.3.1-.4.1h-.6c-.5.2-.8.4-.8.7s.3.5.7.5Z"/>
    </g>
    <g class="st2">
      <path class="st1" d="M214.9,15.3h-.6c0-.5-.4-.7-.9-.7-.7,0-1.1.5-1.1,1.4s.4,1.3,1.1,1.3.9-.3,1-.9h.6c-.1.9-.7,1.4-1.6,1.4s-1.7-.7-1.7-1.8.6-1.9,1.7-1.9,1.5.4,1.6,1.2Z"/>
    </g>
    <g class="st2">
      <path class="st1" d="M216.1,12.8v1.9h0c.2-.4.6-.6,1.1-.6.9,0,1.2.5,1.2,1.3v2.4h-.6v-2.5c0-.4-.3-.7-.7-.7s-1.1.5-1.1,1.1v2.1h-.6v-5h.6Z"/>
    </g>
    <g class="st2">
      <path class="st1" d="M220,17v.8h-.8v-.8h.8Z"/>
    </g>
  </g>
</svg>