<?xml version="1.0" encoding="UTF-8"?>
<svg id="Layer_1" data-name="Layer 1" xmlns="http://www.w3.org/2000/svg" viewBox="0 0 524.88 19.28">
  <defs>
    <style>
      .cls-1 {
        fill: #010101;
      }

      .cls-2, .cls-3 {
        fill: #231f20;
      }

      .cls-3 {
        font-family: HelveticaNeueLTPro-Lt, 'Helvetica Neue LT Pro';
        font-size: 7px;
      }

      .cls-4 {
        letter-spacing: 0em;
      }

      .cls-5 {
        letter-spacing: 0em;
      }

      .cls-6 {
        letter-spacing: 0em;
      }

      .cls-7 {
        letter-spacing: 0em;
      }

      .cls-8 {
        letter-spacing: 0em;
      }

      .cls-9 {
        letter-spacing: -.02em;
      }

      .cls-10 {
        letter-spacing: -.01em;
      }

      .cls-11 {
        letter-spacing: -.01em;
      }

      .cls-12 {
        letter-spacing: -.01em;
      }

      .cls-13 {
        letter-spacing: -.01em;
      }

      .cls-14 {
        letter-spacing: -.04em;
      }

      .cls-15 {
        letter-spacing: -.04em;
      }

      .cls-16 {
        letter-spacing: -.03em;
      }

      .cls-17 {
        letter-spacing: 0em;
      }

      .cls-18 {
        letter-spacing: 0em;
      }

      .cls-19 {
        letter-spacing: 0em;
      }

      .cls-20 {
        letter-spacing: 0em;
      }

      .cls-21 {
        letter-spacing: 0em;
      }

      .cls-22 {
        letter-spacing: 0em;
      }

      .cls-23 {
        letter-spacing: 0em;
      }

      .cls-24 {
        letter-spacing: .01em;
      }

      .cls-25 {
        letter-spacing: 0em;
      }

      .cls-26 {
        letter-spacing: 0em;
      }

      .cls-27 {
        letter-spacing: 0em;
      }

      .cls-28 {
        letter-spacing: 0em;
      }

      .cls-29 {
        letter-spacing: .01em;
      }

      .cls-30 {
        letter-spacing: 0em;
      }

      .cls-31 {
        letter-spacing: 0em;
      }

      .cls-32 {
        letter-spacing: 0em;
      }

      .cls-33 {
        letter-spacing: 0em;
      }
    </style>
  </defs>
  <g id="Layer_1-2" data-name="Layer 1-2">
    <g>
      <circle class="cls-2" cx="398.34" cy="11.49" r="2.19"/>
      <path class="cls-2" d="M358.76,11.53c0,.55.07,1.09.21,1.6s.35.97.63,1.36c.28.39.65.71,1.08.95.44.24.97.36,1.57.36s1.07-.09,1.46-.28c.39-.19.7-.42.93-.7.23-.28.39-.58.49-.91.09-.33.14-.63.14-.9v-.13h-3.32v-2h5.87v7.11h-2.3v-1.52c-.16.25-.36.49-.61.69-.24.21-.51.39-.81.53-.3.15-.63.26-.99.35s-.74.13-1.14.13c-.95,0-1.79-.17-2.52-.51s-1.35-.82-1.86-1.42c-.5-.6-.89-1.31-1.15-2.12s-.39-1.68-.39-2.61.15-1.8.44-2.61c.29-.81.71-1.52,1.25-2.12s1.19-1.07,1.95-1.42c.76-.35,1.62-.52,2.56-.52.61,0,1.2.07,1.75.21.55.14,1.05.34,1.51.61.46.26.86.58,1.21.95.35.37.63.78.85,1.24l-2.3,1.29c-.14-.28-.3-.53-.49-.77-.19-.24-.4-.44-.65-.61-.25-.17-.52-.31-.84-.41s-.66-.15-1.05-.15c-.61,0-1.13.12-1.57.36s-.8.55-1.08.95c-.28.39-.5.85-.63,1.36s-.21,1.05-.21,1.6v.09h0Z"/>
      <path class="cls-2" d="M376.18,15.79c.57,0,1.07-.11,1.5-.32.43-.21.79-.51,1.09-.89.29-.38.52-.83.67-1.35.15-.52.23-1.08.23-1.7v-.07c0-.61-.08-1.17-.23-1.7-.15-.52-.37-.97-.67-1.35-.29-.38-.66-.68-1.09-.89-.43-.21-.93-.32-1.5-.32s-1.07.11-1.5.32c-.43.22-.8.51-1.09.89s-.51.83-.67,1.35c-.15.52-.23,1.09-.23,1.7v.07c0,.61.08,1.18.23,1.7.15.52.37.97.67,1.35.29.38.66.68,1.09.89s.94.32,1.5.32ZM376.18,4.83c.97,0,1.83.17,2.6.52.76.35,1.42.82,1.95,1.42.53.6.94,1.3,1.22,2.12s.42,1.68.42,2.61-.14,1.81-.42,2.61-.69,1.51-1.22,2.12c-.53.6-1.18,1.08-1.95,1.42-.76.34-1.63.51-2.6.51s-1.84-.17-2.6-.51c-.76-.34-1.41-.82-1.94-1.42-.53-.6-.94-1.31-1.22-2.12-.28-.81-.42-1.68-.42-2.61s.14-1.8.42-2.61c.28-.81.69-1.52,1.22-2.12.53-.6,1.18-1.07,1.94-1.42.76-.35,1.63-.52,2.6-.52Z"/>
      <polygon class="cls-2" points="386.99 17.98 383.33 5.01 386.27 5.01 388.77 14.76 388.87 14.76 391.32 5.01 394.22 5.01 390.56 17.98 386.99 17.98 386.99 17.98"/>
      <path class="cls-2" d="M409.07,15.79c.38,0,.74-.05,1.06-.17.33-.11.61-.28.85-.51.24-.23.43-.51.56-.86s.21-.75.21-1.23V4.99h2.58v8.43c0,.72-.13,1.38-.39,1.96-.26.58-.63,1.08-1.09,1.49s-1.02.73-1.67.95-1.35.33-2.11.33-1.47-.11-2.11-.33-1.2-.54-1.67-.95-.84-.91-1.1-1.49-.39-1.24-.39-1.96V4.99h2.6v8.04c0,.47.07.88.21,1.23.14.35.33.63.56.86s.52.4.85.51.68.17,1.06.17h0Z"/>
      <polygon class="cls-2" points="416.66 5.01 419.28 5.01 419.28 10.62 423.92 5.01 427.15 5.01 422.64 10.16 427.43 17.98 424.39 17.98 420.96 12.16 419.28 14.03 419.28 17.98 416.66 17.98 416.66 5.01"/>
      <path class="cls-2" d="M336.48,7.07c.6,0,1.09-.49,1.09-1.09s-.49-1.09-1.09-1.09-1.09.49-1.09,1.09.49,1.09,1.09,1.09Z"/>
      <path class="cls-2" d="M333.54,8.83c.6,0,1.09-.49,1.09-1.09s-.49-1.09-1.09-1.09-1.09.49-1.09,1.09.49,1.09,1.09,1.09Z"/>
      <path class="cls-2" d="M331.59,11.72c.6,0,1.09-.49,1.09-1.09s-.49-1.09-1.09-1.09-1.09.49-1.09,1.09.49,1.09,1.09,1.09Z"/>
      <path class="cls-2" d="M339.97,10.96c.6,0,1.09-.49,1.09-1.09s-.49-1.09-1.09-1.09-1.09.49-1.09,1.09.49,1.09,1.09,1.09Z"/>
      <path class="cls-2" d="M343.46,7.07c.6,0,1.09-.49,1.09-1.09s-.49-1.09-1.09-1.09-1.09.49-1.09,1.09.49,1.09,1.09,1.09Z"/>
      <path class="cls-2" d="M346.39,8.83c.6,0,1.09-.49,1.09-1.09s-.49-1.09-1.09-1.09-1.09.49-1.09,1.09.49,1.09,1.09,1.09Z"/>
      <path class="cls-2" d="M348.34,11.72c.6,0,1.09-.49,1.09-1.09s-.49-1.09-1.09-1.09-1.09.49-1.09,1.09.49,1.09,1.09,1.09Z"/>
      <path class="cls-2" d="M339.97,10.96c.6,0,1.09-.49,1.09-1.09s-.49-1.09-1.09-1.09-1.09.49-1.09,1.09.49,1.09,1.09,1.09Z"/>
      <path class="cls-2" d="M340.41,3.64c.05-.04.1-.09.15-.15l1.39.73v-2.05l-1.39.44c-.04-.05-.09-.1-.14-.14l.56-1.76h-2.01l.56,1.76c-.05.04-.1.09-.14.14l-1.39-.44v2.05l1.39-.73c.04.05.09.1.15.15l-.79,2.39c-.28.84.35,1.71,1.23,1.71s1.51-.87,1.23-1.71c0,0-.79-2.39-.79-2.39Z"/>
      <path class="cls-2" d="M341.55,12.04s-1.01,1.13-1.24,1.82c.66-.02,1.26-.15,1.92-.83l-.22,2.55c-.6-.85-1.31-1.21-1.71-1.14.04.91.14,2.02,1.74,2.16,1.12.1,2.01-.45,2.11-1.13.11-.78-.59-1.29-1.12-.48-.41-1.36.73-1.81,1.46-.97-.56-1.34-.55-2.29.71-3.26.9,1.2.77,2.19-.34,3.31.73-.4,1.86.02,1.19,1.38-.35-.85-1.09-.66-1.25.07-.1.51.21,1.12.89,1.24.56.1,1.41-.28,2.1-1.76-.39,0-.73.21-1.16.51l.72-2.4c.18.68.41,1.12.66,1.36.17-.49.14-.84,0-1.59l1.49.53c-.79,1.08-1.56,2.6-2.19,5.24-2.22-.32-4.7-.5-7.33-.5s-5.11.18-7.33.5c-.63-2.65-1.4-4.16-2.19-5.24l1.49-.53c-.15.76-.17,1.11,0,1.59.25-.24.48-.68.66-1.36l.72,2.4c-.44-.3-.78-.5-1.16-.51.69,1.48,1.54,1.86,2.1,1.76.68-.12.99-.73.89-1.24-.16-.73-.9-.92-1.25-.07-.67-1.36.47-1.78,1.19-1.38-1.12-1.12-1.25-2.11-.34-3.31,1.26.96,1.27,1.91.71,3.26.74-.84,1.88-.39,1.46.97-.53-.82-1.23-.3-1.12.48.09.68.99,1.23,2.11,1.13,1.6-.15,1.7-1.25,1.74-2.16-.39-.07-1.1.29-1.71,1.14l-.22-2.55c.66.69,1.25.81,1.92.83-.22-.69-1.24-1.82-1.24-1.82h3.18,0Z"/>
    </g>
  </g>
  <g id="Black-billingual-logo">
    <g id="Black-billingual-logo-2" data-name="Black-billingual-logo">
      <g>
        <path class="cls-1" d="M451.11,17.58h.05c.06,0,.1,0,.12,0,.02,0,.03-.01.04-.03,0-.01.01-.03.01-.04s0-.03-.01-.04c0-.01-.02-.02-.04-.03-.02,0-.06,0-.12,0h-.05v.15ZM450.99,17.9v-.55h.11c.1,0,.16,0,.18,0,.04,0,.07.01.09.02.02.01.04.03.05.05.01.02.02.05.02.08,0,.04-.01.07-.04.1-.03.03-.06.05-.11.05.02,0,.03.01.04.02,0,0,.02.02.04.04,0,0,.02.03.04.07l.06.11h-.14l-.05-.09c-.03-.06-.06-.1-.08-.11-.02-.02-.05-.02-.08-.02h-.03v.23h-.11ZM451.23,17.2c-.07,0-.14.02-.21.05-.07.04-.12.09-.15.15-.04.07-.06.14-.06.21s.02.14.06.21c.04.07.09.12.15.15.07.04.13.06.21.06s.14-.02.21-.06c.07-.04.12-.09.15-.15.04-.07.06-.14.06-.21s-.02-.14-.06-.21c-.04-.07-.09-.12-.15-.15-.07-.04-.13-.05-.21-.05M451.23,17.1c.09,0,.17.02.26.07.08.04.15.11.19.19.05.08.07.17.07.26s-.02.18-.07.26c-.05.08-.11.15-.19.19-.08.05-.17.07-.26.07s-.18-.02-.26-.07c-.08-.05-.15-.11-.19-.19-.05-.08-.07-.17-.07-.26s.02-.18.07-.26c.05-.08.11-.15.19-.19.08-.04.17-.07.26-.07"/>
        <path class="cls-1" d="M438.4,17.29c0,.54-.37.84-.83.84s-.86-.36-.86-.92c0-.17.03-.32.09-.43h.31c-.09.15-.12.29-.12.42,0,.39.27.56.56.56.31,0,.56-.2.56-.53,0-.15-.04-.28-.11-.41l.24-.09c.12.19.17.38.17.56"/>
        <path class="cls-1" d="M438.21,15.25c.12.12.19.3.19.55s-.05.42-.17.54c-.11.11-.27.16-.46.16h-1.04v-.34h1.01c.12,0,.21-.04.27-.09.07-.06.1-.16.1-.28,0-.13-.03-.23-.1-.29-.06-.06-.15-.08-.25-.08h-1.03v-.34h1.01c.2,0,.37.05.48.17"/>
        <path class="cls-1" d="M438.4,14.32c0,.24-.08.41-.15.53l-.25-.13c.07-.1.13-.23.13-.38,0-.12-.05-.26-.17-.26-.22,0-.25.4-.48.6-.07.06-.16.1-.29.1-.25,0-.47-.2-.47-.56,0-.18.04-.32.1-.42h.3c-.07.14-.12.26-.12.4,0,.12.06.22.15.22.29,0,.26-.71.78-.71.3,0,.49.27.49.6"/>
        <polygon class="cls-1" points="436.73 13.61 437.01 13.61 437.01 13.12 438.38 13.12 438.38 12.78 437.01 12.78 437.01 12.33 436.73 12.26 436.73 13.61"/>
        <path class="cls-1" d="M438.16,10.81c.15.15.24.36.24.62,0,.24-.07.44-.2.59-.15.17-.37.26-.63.26s-.46-.08-.62-.24c-.15-.15-.24-.36-.24-.61,0-.27.09-.5.25-.64.15-.14.36-.21.59-.21s.46.08.61.23M436.99,11.43c0,.29.21.49.57.49s.57-.21.57-.49-.21-.49-.57-.49-.57.2-.57.49"/>
        <path class="cls-1" d="M438.38,8.98h-.91c-.06,0-.12,0-.18,0h0s.13.08.17.11l.47.31v.16l-.48.34s-.09.07-.16.11h0c.06,0,.12,0,.17,0h.92v.34h-1.65v-.32l.62-.43c.07-.05.13-.09.19-.12h0c-.06-.03-.12-.07-.19-.12l-.61-.4v-.31h1.65v.34Z"/>
        <polygon class="cls-1" points="436.73 8.33 438.38 8.33 438.38 7.37 438.1 7.37 438.1 7.98 437.68 7.98 437.68 7.46 437.4 7.46 437.4 7.98 437.01 7.98 437.01 7.46 436.73 7.37 436.73 8.33"/>
        <path class="cls-1" d="M438.38,6.24c-.43.25-.61.35-.64.41v.13h.64v.34h-1.65v-.48c0-.44.22-.6.47-.6.22,0,.36.15.43.3h0c.05-.08.33-.24.75-.49v.39ZM437.02,6.63v.15h.48v-.15c0-.15-.11-.25-.25-.25-.13,0-.22.09-.22.25"/>
        <path class="cls-1" d="M440.51,17.65c0,.21-.07.36-.13.45l-.15-.09c.05-.06.12-.2.12-.36,0-.15-.07-.33-.25-.33-.29,0-.35.4-.57.6-.07.07-.17.12-.3.12-.23,0-.41-.18-.41-.48,0-.17.04-.29.08-.37h.2c-.06.09-.11.23-.11.36,0,.16.07.3.23.3.37,0,.37-.73.87-.73.26,0,.43.22.43.52"/>
        <polygon class="cls-1" points="440.49 16.79 438.84 16.79 438.84 15.98 439.01 16.05 439.01 16.61 439.56 16.61 439.56 16.06 439.73 16.06 439.73 16.61 440.32 16.61 440.32 15.98 440.49 15.98 440.49 16.79"/>
        <path class="cls-1" d="M440.49,14.76c-.42.27-.68.42-.7.49v.18h.7v.18h-1.65v-.34c0-.39.2-.55.44-.55s.38.15.45.32h0c.03-.05.33-.24.76-.51v.22ZM439.01,15.27v.16h.62v-.17c0-.19-.15-.34-.32-.34-.16,0-.3.08-.3.35"/>
        <path class="cls-1" d="M440.5,13.78v.1l-1.66.65v-.19l1.1-.42c.08-.03.17-.06.26-.09h0c-.09-.03-.17-.06-.26-.1l-1.1-.46v-.19l1.66.71Z"/>
        <rect class="cls-1" x="438.84" y="12.63" width="1.65" height=".18"/>
        <path class="cls-1" d="M440.51,11.5c0,.49-.35.79-.83.79s-.86-.34-.86-.82c0-.2.05-.35.1-.42h.19c-.07.12-.13.23-.13.43,0,.37.29.62.68.62s.68-.23.68-.62c0-.14-.05-.28-.11-.39l.15-.06c.08.15.12.31.12.46"/>
        <polygon class="cls-1" points="440.49 10.72 438.84 10.72 438.84 9.92 439.01 9.99 439.01 10.54 439.56 10.54 439.56 9.99 439.73 9.99 439.73 10.54 440.32 10.54 440.32 9.91 440.49 9.91 440.49 10.72"/>
        <polygon class="cls-1" points="440.95 18.06 442.6 18.06 442.6 17.11 442.32 17.11 442.32 17.72 441.9 17.72 441.9 17.19 441.62 17.19 441.62 17.72 441.23 17.72 441.23 17.2 440.95 17.11 440.95 18.06"/>
        <polygon class="cls-1" points="441.78 15.98 442.6 15.45 442.6 15.84 442 16.22 442.6 16.61 442.6 16.99 441.75 16.42 440.95 16.91 440.95 16.53 441.53 16.18 440.95 15.8 440.95 15.43 441.78 15.98"/>
        <path class="cls-1" d="M442.62,14.61c0,.54-.37.84-.83.84s-.86-.36-.86-.92c0-.17.03-.32.09-.43h.3c-.08.15-.12.29-.12.42,0,.39.27.56.56.56.31,0,.56-.2.56-.53,0-.15-.04-.28-.11-.41l.24-.09c.12.19.17.38.17.56"/>
        <polygon class="cls-1" points="442.6 13.82 440.95 13.82 440.95 12.87 441.23 12.96 441.23 13.48 441.62 13.48 441.62 12.96 441.9 12.96 441.9 13.48 442.32 13.48 442.32 12.87 442.6 12.87 442.6 13.82"/>
        <polygon class="cls-1" points="442.6 12.62 440.95 12.62 440.95 12.28 442.32 12.28 442.32 11.7 442.6 11.7 442.6 12.62"/>
        <polygon class="cls-1" points="442.6 11.51 440.95 11.51 440.95 11.17 442.32 11.17 442.32 10.59 442.6 10.59 442.6 11.51"/>
        <polygon class="cls-1" points="442.6 10.41 440.95 10.41 440.95 9.45 441.23 9.54 441.23 10.07 441.62 10.07 441.62 9.54 441.9 9.54 441.9 10.07 442.32 10.07 442.32 9.46 442.6 9.46 442.6 10.41"/>
        <path class="cls-1" d="M442.6,7.99l-.92.72c-.08.06-.15.11-.22.16h1.13v.34h-1.65v-.35l.88-.69c.08-.07.15-.11.22-.16h-1.1v-.34h1.65v.32Z"/>
        <path class="cls-1" d="M442.62,6.58c0,.54-.37.84-.83.84s-.86-.36-.86-.92c0-.17.03-.32.09-.43h.3c-.08.15-.12.29-.12.42,0,.39.27.56.56.56.31,0,.56-.2.56-.53,0-.15-.04-.28-.11-.41l.24-.09c.12.19.17.37.17.56"/>
        <polygon class="cls-1" points="442.6 5.8 440.95 5.8 440.95 4.84 441.23 4.93 441.23 5.45 441.62 5.45 441.62 4.93 441.9 4.93 441.9 5.45 442.32 5.45 442.32 4.84 442.6 4.84 442.6 5.8"/>
        <path class="cls-1" d="M449.83,12.52h-4.49c-.31,0-.56.25-.56.56v4.5c0,.31.25.56.56.56h4.49c.31,0,.56-.25.56-.56v-4.5c0-.31-.25-.56-.56-.56M448.62,16.75l-1.04-.55-1.04.55.2-1.16-.84-.82,1.16-.17.52-1.05.52,1.05,1.16.17-.84.82.2,1.16Z"/>
        <path class="cls-1" d="M446.76,3.91l2.2-1.07-2.2-1.12v2.19ZM449.82,0h-4.49c-.31,0-.56.25-.56.56v4.49c0,.31.25.56.56.56h4.49c.31,0,.56-.25.56-.56V.56c0-.31-.25-.56-.56-.56M447.58,4.47c-.92,0-1.66-.74-1.66-1.66s.74-1.66,1.66-1.66,1.66.74,1.66,1.66-.74,1.66-1.66,1.66"/>
        <path class="cls-1" d="M449.83,6.28h-4.49c-.31,0-.56.25-.56.56v4.49c0,.31.25.56.56.56h4.49c.31,0,.56-.25.56-.56v-4.49c0-.31-.25-.56-.56-.56M446.35,10.13c-.64,0-1.01-.44-1.01-1.01s.43-1.04,1.09-1.04c.21,0,.4.04.52.11v.34c-.17-.1-.33-.14-.51-.14-.47,0-.7.34-.7.72,0,.41.26.72.67.72.18,0,.34-.05.49-.13l.1.27c-.22.13-.44.19-.65.19M447.74,10.13c-.26,0-.44-.09-.55-.16l.11-.18c.08.06.24.14.44.14.18,0,.4-.09.4-.3,0-.35-.48-.43-.73-.69-.09-.09-.14-.21-.14-.36,0-.28.21-.5.58-.5.21,0,.36.05.44.1v.24c-.11-.07-.27-.13-.44-.13-.2,0-.37.08-.37.27,0,.45.89.45.89,1.05,0,.31-.27.52-.63.52M449.72,8.92v.31h-.65v.56h.75v.31h-1.12v-2.01h1.12l-.1.31h-.65v.52h.65Z"/>
        <polygon class="cls-1" points="456.5 14.49 455.91 14.49 455.42 12.83 455.41 12.83 454.93 14.49 454.34 14.49 453.64 12.03 454.28 12.03 454.67 13.67 454.68 13.67 455.11 12.03 455.73 12.03 456.17 13.67 456.18 13.67 456.58 12.03 457.2 12.03 456.5 14.49"/>
        <path class="cls-1" d="M459.01,13.64v.07s0,.05,0,.07h-1.25s.02.09.04.13c.02.04.06.07.09.1.04.03.08.05.13.07s.1.02.15.02c.09,0,.17-.02.23-.05.06-.03.11-.08.15-.13l.4.25c-.08.12-.19.21-.32.27-.13.06-.29.1-.46.1-.13,0-.25-.02-.37-.06-.12-.04-.22-.1-.3-.18-.09-.08-.15-.17-.2-.29-.05-.11-.07-.24-.07-.39s.02-.27.07-.38c.05-.11.11-.21.2-.29.08-.08.18-.14.3-.19s.24-.07.37-.07.24.02.35.06c.11.04.2.1.27.19.08.08.14.18.18.3.04.12.06.25.06.4M458.49,13.43c0-.09-.03-.17-.08-.23-.06-.06-.14-.1-.26-.1-.06,0-.11,0-.15.03-.05.02-.09.04-.12.07-.03.03-.06.07-.08.11-.02.04-.03.08-.03.13h.73Z"/>
        <path class="cls-1" d="M460.81,12.21s0,.08-.03.12c-.02.04-.04.07-.07.1-.03.03-.06.05-.1.07-.04.02-.08.02-.13.02-.09,0-.17-.03-.23-.09-.06-.06-.09-.13-.09-.22,0-.04,0-.08.02-.12.02-.04.04-.07.07-.1.03-.03.07-.05.1-.07.04-.02.08-.03.13-.03s.09,0,.13.02c.04.02.07.04.1.07.03.03.05.06.07.1.02.04.03.08.03.12M460.2,12.76h.57v1.73h-.57v-1.73Z"/>
        <path class="cls-1" d="M462.36,14.49v-.94s0-.09-.01-.14c0-.04-.02-.08-.04-.12-.02-.03-.04-.06-.08-.08-.03-.02-.08-.03-.13-.03s-.1,0-.13.03c-.04.02-.07.05-.1.08-.03.03-.04.07-.06.12-.01.05-.02.09-.02.14v.94h-.57v-1.73h.55v.24h0s.05-.07.08-.11c.03-.04.07-.07.12-.09.05-.03.09-.05.15-.06.05-.02.11-.02.17-.02.12,0,.21.02.3.06.08.04.15.1.2.16.05.07.09.14.11.23.02.09.03.17.03.26v1.07h-.57Z"/>
        <polygon class="cls-1" points="464.4 14.49 463.78 14.49 463.1 12.76 463.73 12.76 464.1 13.88 464.11 13.88 464.47 12.76 465.08 12.76 464.4 14.49"/>
        <path class="cls-1" d="M467.01,13.64v.07s0,.05,0,.07h-1.25s.02.09.04.13c.02.04.06.07.09.1.04.03.08.05.13.07s.1.02.15.02c.09,0,.17-.02.23-.05.06-.03.11-.08.15-.13l.4.25c-.08.12-.19.21-.32.27-.13.06-.29.1-.46.1-.13,0-.25-.02-.37-.06-.12-.04-.22-.1-.3-.18-.09-.08-.15-.17-.2-.29-.05-.11-.07-.24-.07-.39s.02-.27.07-.38c.05-.11.11-.21.2-.29.08-.08.18-.14.3-.19.11-.04.24-.07.37-.07s.24.02.35.06c.11.04.2.1.27.19.08.08.14.18.18.3.04.12.06.25.06.4M466.49,13.43c0-.09-.03-.17-.09-.23-.06-.06-.14-.1-.26-.1-.06,0-.11,0-.15.03-.05.02-.09.04-.12.07-.03.03-.06.07-.08.11-.02.04-.03.08-.03.13h.73Z"/>
        <path class="cls-1" d="M468.35,13.27s-.1-.08-.16-.11c-.06-.03-.13-.05-.2-.05-.05,0-.1.01-.15.03-.05.02-.07.06-.07.11,0,.05.02.08.07.1.05.02.13.04.24.07.06.01.13.03.2.06.07.03.13.06.18.1.05.04.1.09.13.15.03.06.05.13.05.22,0,.11-.02.2-.07.28-.04.08-.1.14-.17.18-.07.05-.15.08-.24.1-.09.02-.18.03-.26.03-.14,0-.28-.02-.41-.07-.14-.05-.25-.11-.34-.2l.32-.34c.05.06.11.1.19.14.07.04.15.06.24.06.05,0,.09-.01.14-.03.05-.02.07-.06.07-.12s-.03-.09-.08-.12c-.06-.03-.14-.05-.26-.08-.06-.01-.12-.03-.18-.06-.06-.02-.11-.05-.16-.09-.05-.04-.09-.09-.12-.15-.03-.06-.05-.13-.05-.21,0-.1.02-.19.07-.27.04-.07.1-.13.17-.18.07-.05.15-.08.23-.1.08-.02.17-.03.25-.03.13,0,.26.02.38.06.12.04.23.1.31.18l-.31.32Z"/>
        <path class="cls-1" d="M469.59,13.18v.66c0,.08.02.14.05.18.03.04.09.06.17.06.03,0,.06,0,.09,0,.03,0,.06-.01.08-.02v.42s-.08.03-.14.04c-.06.01-.12.02-.18.02-.12,0-.21-.01-.29-.04-.08-.03-.14-.07-.19-.13-.05-.05-.08-.12-.1-.19-.02-.08-.03-.16-.03-.25v-.73h-.28v-.42h.27v-.45h.56v.45h.41v.42h-.41Z"/>
        <path class="cls-1" d="M471.72,12.21s0,.08-.03.12c-.02.04-.04.07-.07.1-.03.03-.06.05-.1.07-.04.02-.08.02-.13.02-.09,0-.17-.03-.23-.09s-.09-.13-.09-.22c0-.04,0-.08.02-.12.02-.04.04-.07.07-.1.03-.03.06-.05.1-.07.04-.02.08-.03.13-.03s.09,0,.13.02c.04.02.08.04.1.07.03.03.05.06.07.1.02.04.03.08.03.12M471.11,12.76h.57v1.73h-.57v-1.73Z"/>
        <path class="cls-1" d="M473.26,14.49v-.94s0-.09-.01-.14c0-.04-.02-.08-.04-.12-.02-.03-.04-.06-.08-.08-.03-.02-.08-.03-.13-.03s-.1,0-.13.03c-.04.02-.07.05-.1.08-.03.03-.04.07-.06.12-.01.05-.02.09-.02.14v.94h-.57v-1.73h.55v.24h0s.05-.07.08-.11c.03-.04.07-.07.12-.09.05-.03.09-.05.15-.06.05-.02.11-.02.17-.02.12,0,.21.02.3.06.08.04.15.1.2.16.05.07.09.14.11.23.02.09.03.17.03.26v1.07h-.57Z"/>
        <path class="cls-1" d="M477.06,13.62c0,.12-.02.24-.06.35-.04.11-.09.21-.16.29-.07.08-.16.15-.26.2-.1.05-.22.08-.35.08-.11,0-.21-.02-.3-.06-.09-.04-.17-.1-.22-.18h0v1.02h-.57v-2.56h.54v.21h.01c.05-.07.13-.13.22-.18.09-.05.2-.08.33-.08s.24.02.34.07c.1.05.19.11.26.2.07.08.12.18.16.29.04.11.06.22.06.35M476.51,13.62c0-.06,0-.11-.03-.16-.02-.05-.04-.1-.08-.14-.03-.04-.08-.07-.13-.1-.05-.03-.11-.04-.18-.04s-.12.01-.17.04c-.05.03-.09.06-.13.1-.04.04-.06.09-.08.14-.02.05-.03.11-.03.16s0,.11.03.16c.02.05.05.1.08.14.04.04.08.08.13.1.05.03.11.04.17.04s.13-.01.18-.04c.05-.03.09-.06.13-.1.03-.04.06-.09.08-.14.02-.05.03-.11.03-.16"/>
        <path class="cls-1" d="M479.1,13.64v.07s0,.05,0,.07h-1.25s.02.09.04.13c.02.04.06.07.09.1.04.03.08.05.13.07.05.02.1.02.15.02.09,0,.17-.02.23-.05.06-.03.11-.08.15-.13l.4.25c-.08.12-.19.21-.32.27-.13.06-.29.1-.46.1-.13,0-.25-.02-.37-.06-.12-.04-.22-.1-.3-.18-.09-.08-.15-.17-.2-.29-.05-.11-.07-.24-.07-.39s.02-.27.07-.38c.05-.11.11-.21.2-.29.08-.08.18-.14.3-.19s.24-.07.37-.07.24.02.35.06c.11.04.2.1.27.19.08.08.14.18.18.3.04.12.06.25.06.4M478.58,13.43c0-.09-.03-.17-.08-.23-.06-.06-.14-.1-.26-.1-.06,0-.11,0-.15.03-.05.02-.09.04-.12.07-.03.03-.06.07-.08.11s-.03.08-.03.13h.73Z"/>
        <path class="cls-1" d="M481.27,13.62c0,.14-.03.27-.08.38-.05.11-.12.21-.21.29-.09.08-.19.14-.31.19-.12.04-.24.07-.37.07s-.25-.02-.37-.07c-.12-.04-.22-.11-.31-.19-.09-.08-.16-.18-.21-.29-.05-.11-.08-.24-.08-.38s.03-.27.08-.38c.05-.11.12-.21.21-.29.09-.08.19-.14.31-.18.12-.04.24-.06.37-.06s.26.02.37.06c.12.04.22.1.31.18.09.08.16.17.21.29.05.11.08.24.08.38M480.72,13.62c0-.06,0-.11-.03-.16-.02-.05-.05-.1-.08-.14-.03-.04-.08-.07-.13-.1-.05-.03-.11-.04-.18-.04s-.13.01-.18.04c-.05.03-.09.06-.13.1-.03.04-.06.09-.08.14-.02.05-.03.11-.03.16s0,.11.03.16c.02.05.04.1.08.14.03.04.08.08.13.1.05.03.11.04.18.04s.13-.01.18-.04c.05-.03.09-.06.13-.1.03-.04.06-.09.08-.14.02-.05.03-.11.03-.16"/>
        <path class="cls-1" d="M483.54,13.62c0,.12-.02.24-.06.35-.04.11-.09.21-.16.29-.07.08-.16.15-.26.2-.1.05-.22.08-.35.08-.11,0-.21-.02-.3-.06-.09-.04-.17-.1-.22-.18h0v1.02h-.57v-2.56h.54v.21h.01c.05-.07.13-.13.22-.18.09-.05.2-.08.33-.08s.24.02.34.07c.1.05.19.11.26.2.07.08.12.18.16.29.04.11.06.22.06.35M482.99,13.62c0-.06,0-.11-.03-.16-.02-.05-.04-.1-.08-.14-.03-.04-.08-.07-.13-.1-.05-.03-.11-.04-.18-.04s-.12.01-.17.04c-.05.03-.09.06-.13.1-.04.04-.06.09-.08.14-.02.05-.03.11-.03.16s0,.11.03.16c.02.05.05.1.08.14.04.04.08.08.13.1.05.03.11.04.17.04s.13-.01.18-.04c.05-.03.09-.06.13-.1.03-.04.06-.09.08-.14.02-.05.03-.11.03-.16"/>
        <rect class="cls-1" x="483.9" y="11.86" width=".58" height="2.62"/>
        <path class="cls-1" d="M486.63,13.64v.07s0,.05,0,.07h-1.25s.02.09.04.13c.02.04.06.07.09.1.04.03.08.05.13.07.05.02.1.02.15.02.09,0,.17-.02.23-.05.06-.03.11-.08.15-.13l.4.25c-.08.12-.19.21-.32.27-.13.06-.29.1-.46.1-.13,0-.25-.02-.37-.06-.12-.04-.22-.1-.3-.18-.09-.08-.15-.17-.2-.29-.05-.11-.07-.24-.07-.39s.02-.27.07-.38c.05-.11.11-.21.2-.29.08-.08.18-.14.3-.19.11-.04.24-.07.37-.07s.24.02.35.06c.11.04.2.1.27.19.08.08.14.18.18.3.04.12.06.25.06.4M486.1,13.43c0-.09-.03-.17-.08-.23-.06-.06-.14-.1-.26-.1-.06,0-.11,0-.15.03-.05.02-.09.04-.12.07-.03.03-.06.07-.08.11-.02.04-.03.08-.03.13h.73Z"/>
        <path class="cls-1" d="M488.79,12.03h.69c.13,0,.24.01.34.04.1.03.19.07.26.12.07.05.13.12.17.2.04.08.06.18.06.29s-.02.21-.06.29c-.04.08-.1.15-.17.21-.07.05-.16.1-.26.12-.1.03-.22.04-.34.04h-.44v1.14h-.25v-2.46ZM489.04,13.13h.42c.2,0,.35-.04.45-.11.1-.08.15-.19.15-.33s-.05-.26-.16-.33c-.11-.07-.25-.11-.44-.11h-.42v.89Z"/>
        <rect class="cls-1" x="490.79" y="11.86" width=".24" height="2.62"/>
        <path class="cls-1" d="M492.67,13.44c0-.14-.04-.24-.11-.31-.07-.07-.18-.1-.32-.1-.1,0-.19.02-.27.05-.08.03-.15.08-.21.14l-.13-.16c.07-.07.16-.12.27-.17.11-.04.23-.07.37-.07.09,0,.17.01.25.04.08.02.14.06.2.11.06.05.1.11.14.18.03.07.05.16.05.26v.71c0,.06,0,.13,0,.19,0,.07.01.12.02.17h-.21s-.01-.08-.02-.13c0-.05,0-.09,0-.14h0c-.07.11-.16.19-.25.23-.09.05-.21.07-.34.07-.06,0-.13,0-.19-.03-.07-.02-.13-.05-.18-.09-.05-.04-.1-.09-.14-.15-.04-.06-.05-.14-.05-.23,0-.13.03-.22.1-.3.06-.07.15-.13.25-.16.11-.04.23-.06.37-.07.14-.01.28-.02.43-.02v-.05ZM492.6,13.68c-.1,0-.19,0-.29.01-.1,0-.19.02-.27.05-.08.02-.15.06-.2.11-.05.05-.08.11-.08.18,0,.06.01.11.03.15.02.04.05.07.09.1.04.02.08.04.12.05.05.01.09.02.14.02.08,0,.16-.01.22-.04.06-.03.12-.07.16-.12.04-.05.08-.11.1-.17.02-.06.03-.13.03-.2v-.12h-.07Z"/>
        <path class="cls-1" d="M494.2,13.06h-.46v.95c0,.06,0,.11.02.15.01.04.03.07.05.09s.05.04.08.05c.03,0,.06.01.1.01.03,0,.07,0,.1-.01.04,0,.07-.02.1-.04v.2s-.07.03-.12.04c-.05,0-.09.01-.15.01-.04,0-.09,0-.14-.02-.05-.01-.09-.03-.14-.07-.04-.03-.08-.08-.1-.13-.03-.06-.04-.13-.04-.22v-1.01h-.34v-.2h.34v-.46h.24v.46h.46v.2Z"/>
        <path class="cls-1" d="M494.85,12.24s-.02.09-.05.12c-.03.03-.07.05-.11.05s-.08-.02-.11-.05c-.03-.03-.05-.07-.05-.12s.02-.09.05-.12c.03-.03.07-.05.11-.05s.08.02.11.05c.03.03.05.07.05.12M494.8,14.49h-.24v-1.62h.24v1.62Z"/>
        <path class="cls-1" d="M495.62,12.86s0,.09.01.15c0,.05,0,.1,0,.13h0c.05-.09.12-.17.23-.23.1-.06.21-.09.33-.09.21,0,.36.06.46.18.1.12.15.28.15.49v1h-.24v-.9c0-.09,0-.16-.02-.23-.01-.07-.04-.13-.07-.18-.03-.05-.08-.09-.14-.12-.06-.03-.13-.04-.21-.04-.06,0-.12.01-.18.04-.06.03-.11.06-.16.12-.05.05-.08.12-.11.2-.03.08-.04.17-.04.28v.83h-.24v-1.27s0-.1,0-.17c0-.07,0-.13-.01-.19h.23Z"/>
        <path class="cls-1" d="M498.58,14.49s0-.09-.01-.15c0-.05,0-.1,0-.13h0c-.05.09-.12.17-.23.23-.1.06-.21.09-.33.09-.21,0-.36-.06-.46-.18-.1-.12-.15-.28-.15-.49v-1h.24v.9c0,.09,0,.16.02.23.01.07.04.13.07.18.03.05.08.09.14.12.06.03.13.04.21.04.06,0,.12-.01.18-.04.06-.03.11-.06.16-.12.05-.05.08-.12.11-.2.03-.08.04-.17.04-.28v-.83h.24v1.27s0,.1,0,.17c0,.07,0,.13.01.19h-.23Z"/>
        <path class="cls-1" d="M499.86,12.91c.1-.06.2-.09.32-.09.04,0,.09,0,.14.01.05,0,.09.03.14.05s.09.06.13.11c.04.04.07.1.1.17.06-.11.13-.2.23-.26.1-.06.21-.09.34-.09.21,0,.36.06.46.18.1.12.15.28.15.49v1h-.24v-.9c0-.17-.03-.31-.1-.41-.06-.1-.17-.16-.32-.16-.09,0-.16.02-.22.05-.06.03-.11.08-.14.14-.04.06-.06.12-.08.19-.02.07-.02.15-.02.22v.86h-.24v-.95c0-.08,0-.15-.02-.22-.01-.06-.03-.12-.06-.16-.03-.05-.07-.08-.12-.1-.05-.02-.12-.04-.19-.04-.06,0-.11.01-.17.04-.06.03-.11.06-.15.12-.05.05-.08.12-.11.2-.03.08-.04.17-.04.28v.83h-.24v-1.27s0-.1,0-.17c0-.07,0-.13-.01-.19h.23s0,.09.01.15c0,.05,0,.1,0,.13h0c.05-.09.12-.17.21-.23"/>
        <path class="cls-1" d="M455.21,18.13l-.53-.98h-.2v.98h-.58v-2.46h.94c.12,0,.23.01.35.04.11.02.21.07.3.12.09.06.16.13.21.23s.08.21.08.35c0,.17-.05.31-.14.42-.09.11-.22.19-.37.24l.64,1.05h-.69ZM455.18,16.42c0-.06-.01-.1-.04-.14s-.06-.06-.09-.08c-.04-.02-.08-.03-.13-.04-.05,0-.09-.01-.14-.01h-.32v.57h.28s.1,0,.15-.01c.05,0,.1-.02.14-.04.04-.02.08-.05.1-.09.03-.04.04-.09.04-.15"/>
        <path class="cls-1" d="M457.12,18.39c-.03.09-.07.17-.12.24-.04.07-.09.13-.15.18-.06.05-.13.09-.21.11-.08.03-.17.04-.28.04-.05,0-.11,0-.16-.01-.06,0-.11-.02-.15-.03l.06-.48s.06.02.09.02c.03,0,.06,0,.09,0,.09,0,.15-.02.19-.06.04-.04.07-.1.1-.17l.06-.14-.72-1.7h.63l.39,1.11h.01l.34-1.11h.6l-.77,1.99Z"/>
        <path class="cls-1" d="M459.4,18.13v-.23h0c-.06.09-.13.16-.24.2-.1.05-.21.07-.33.07-.13,0-.25-.03-.35-.08-.1-.05-.19-.12-.26-.2-.07-.08-.12-.18-.16-.29-.04-.11-.06-.23-.06-.35s.02-.24.06-.35c.04-.11.09-.21.16-.29.07-.08.16-.15.26-.2.1-.05.21-.07.34-.07s.23.02.32.07c.09.05.16.1.2.16h0v-1.08h.57v2.62h-.52ZM459.38,17.26c0-.06,0-.11-.03-.16-.02-.05-.05-.1-.08-.14s-.08-.08-.13-.1c-.05-.03-.11-.04-.17-.04s-.13.01-.18.04c-.05.03-.09.06-.13.1-.03.04-.06.09-.08.14-.02.05-.03.11-.03.16s0,.11.03.16c.02.05.04.1.08.14.03.04.08.08.13.1.05.03.11.04.18.04s.12-.01.17-.04c.05-.03.09-.06.13-.1s.06-.09.08-.14c.02-.05.03-.11.03-.16"/>
        <path class="cls-1" d="M461.34,18.39c-.03.09-.07.17-.12.24-.04.07-.09.13-.15.18-.06.05-.13.09-.21.11-.08.03-.17.04-.28.04-.05,0-.11,0-.16-.01-.06,0-.11-.02-.15-.03l.06-.48s.06.02.09.02c.03,0,.06,0,.09,0,.09,0,.15-.02.19-.06.04-.04.07-.1.1-.17l.06-.14-.72-1.7h.63l.39,1.11h.01l.34-1.11h.6l-.77,1.99Z"/>
        <path class="cls-1" d="M464.54,18.13v-.94s0-.1-.01-.14c0-.05-.02-.08-.04-.12-.02-.03-.04-.06-.07-.08-.03-.02-.07-.03-.12-.03s-.09.01-.13.03c-.04.02-.07.05-.09.08-.02.03-.04.07-.05.12-.01.05-.02.09-.02.14v.93h-.57v-.99c0-.1-.02-.18-.06-.24-.04-.06-.1-.09-.19-.09-.09,0-.16.04-.21.11-.05.07-.07.16-.07.26v.94h-.57v-1.73h.55v.24h0s.05-.07.08-.11c.03-.03.07-.07.11-.09.04-.03.09-.05.15-.06.05-.02.11-.02.18-.02.13,0,.23.03.32.08.09.05.15.12.2.22.06-.09.13-.16.22-.22.09-.05.2-.08.33-.08.12,0,.22.02.3.06.08.04.14.1.19.17.05.07.08.14.11.23.02.08.03.17.03.25v1.07h-.57Z"/>
        <path class="cls-1" d="M467.32,18.39c-.03.09-.07.17-.12.24-.04.07-.09.13-.15.18-.06.05-.13.09-.21.11-.08.03-.17.04-.28.04-.05,0-.11,0-.16-.01-.06,0-.11-.02-.15-.03l.06-.48s.06.02.09.02c.03,0,.06,0,.09,0,.09,0,.15-.02.19-.06.04-.04.07-.1.1-.17l.06-.14-.72-1.7h.63l.39,1.11h.01l.34-1.11h.6l-.77,1.99Z"/>
        <path class="cls-1" d="M469.45,18.13v-.94s0-.09-.01-.14c0-.04-.02-.08-.04-.12-.02-.03-.04-.06-.08-.08-.03-.02-.08-.03-.13-.03s-.1,0-.13.03c-.04.02-.07.05-.1.08-.03.03-.04.07-.06.12-.01.05-.02.09-.02.14v.94h-.57v-1.73h.55v.24h0s.05-.07.08-.11c.03-.04.07-.07.12-.09.05-.03.09-.05.15-.06.05-.02.11-.02.17-.02.12,0,.21.02.3.06.08.04.15.1.2.16.05.07.09.14.11.23.02.09.03.17.03.26v1.07h-.57Z"/>
        <path class="cls-1" d="M473.22,17.26c0,.12-.02.24-.06.35-.04.11-.09.21-.16.29-.07.08-.16.15-.26.2-.1.05-.22.08-.35.08-.12,0-.22-.02-.33-.07-.1-.05-.18-.11-.24-.2h0v.23h-.52v-2.62h.57v1.08h0c.05-.06.12-.11.21-.16.09-.05.2-.07.32-.07s.24.02.34.07c.1.05.19.11.26.2.07.08.13.18.16.29.04.11.06.22.06.35M472.67,17.26c0-.06,0-.11-.03-.16-.02-.05-.04-.1-.08-.14-.03-.04-.08-.07-.13-.1-.05-.03-.11-.04-.18-.04s-.12.01-.17.04c-.05.03-.09.06-.13.1-.04.04-.06.09-.08.14-.02.05-.03.11-.03.16s0,.11.03.16c.02.05.05.1.08.14s.08.08.13.1c.05.03.11.04.17.04s.13-.01.18-.04c.05-.03.09-.06.13-.1.03-.04.06-.09.08-.14.02-.05.03-.11.03-.16"/>
        <path class="cls-1" d="M474.7,18.13v-.24h0s-.05.08-.08.11c-.03.03-.07.06-.12.09-.05.03-.09.05-.15.06-.05.02-.11.02-.17.02-.12,0-.21-.02-.29-.06-.08-.04-.14-.1-.19-.16-.05-.07-.09-.14-.11-.23-.02-.08-.03-.17-.03-.26v-1.07h.57v.94s0,.1.01.14c0,.04.02.08.04.12.02.03.05.06.08.08.03.02.07.03.13.03.1,0,.18-.04.23-.11.05-.07.08-.16.08-.26v-.93h.57v1.73h-.55Z"/>
        <path class="cls-1" d="M476.99,18.13v-.23h0c-.06.09-.13.16-.24.2-.1.05-.21.07-.33.07-.13,0-.25-.03-.35-.08-.1-.05-.19-.12-.26-.2-.07-.08-.12-.18-.16-.29-.04-.11-.06-.23-.06-.35s.02-.24.06-.35c.04-.11.09-.21.16-.29.07-.08.16-.15.26-.2.1-.05.21-.07.34-.07s.23.02.32.07c.09.05.16.1.2.16h0v-1.08h.57v2.62h-.52ZM476.97,17.26c0-.06,0-.11-.03-.16-.02-.05-.05-.1-.08-.14s-.08-.08-.13-.1c-.05-.03-.11-.04-.17-.04s-.13.01-.18.04c-.05.03-.09.06-.13.1-.03.04-.06.09-.08.14-.02.05-.03.11-.03.16s0,.11.03.16c.02.05.04.1.08.14.03.04.08.08.13.1.05.03.11.04.18.04s.12-.01.17-.04c.05-.03.09-.06.13-.1s.06-.09.08-.14c.02-.05.03-.11.03-.16"/>
        <path class="cls-1" d="M479.25,18.13v-.23h0c-.06.09-.13.16-.24.2-.1.05-.21.07-.33.07-.13,0-.25-.03-.35-.08-.1-.05-.19-.12-.26-.2-.07-.08-.12-.18-.16-.29-.04-.11-.06-.23-.06-.35s.02-.24.06-.35.09-.21.16-.29c.07-.08.16-.15.26-.2.1-.05.21-.07.34-.07s.23.02.32.07c.09.05.16.1.2.16h0v-1.08h.57v2.62h-.52ZM479.23,17.26c0-.06,0-.11-.03-.16-.02-.05-.05-.1-.08-.14s-.08-.08-.13-.1c-.05-.03-.11-.04-.17-.04s-.13.01-.18.04c-.05.03-.09.06-.13.1-.03.04-.06.09-.08.14-.02.05-.03.11-.03.16s0,.11.03.16c.02.05.04.1.08.14.03.04.08.08.13.1.05.03.11.04.18.04s.12-.01.17-.04c.05-.03.09-.06.13-.1s.06-.09.08-.14c.02-.05.03-.11.03-.16"/>
        <path class="cls-1" d="M481.24,16.91s-.1-.08-.16-.11c-.06-.03-.13-.05-.2-.05-.05,0-.1.01-.15.03-.05.02-.07.06-.07.11,0,.05.02.08.07.1.05.02.13.04.24.07.06.01.13.03.2.06.07.03.13.06.18.1.05.04.1.09.13.15.03.06.05.13.05.22,0,.11-.02.2-.07.28-.04.08-.1.14-.17.18-.07.05-.15.08-.24.1s-.18.03-.26.03c-.14,0-.28-.02-.41-.07-.14-.05-.25-.11-.34-.2l.32-.34c.05.06.11.1.19.14.07.04.15.06.24.06.05,0,.09-.01.14-.03.05-.02.07-.06.07-.12s-.03-.09-.08-.12c-.06-.03-.14-.05-.26-.08-.06-.01-.12-.03-.18-.06-.06-.02-.11-.05-.16-.09-.05-.04-.09-.09-.12-.15-.03-.06-.05-.13-.05-.21,0-.1.02-.19.07-.27.04-.07.1-.13.17-.18.07-.05.15-.08.23-.1.08-.02.17-.03.25-.03.13,0,.26.02.38.06.12.04.23.1.31.18l-.31.32Z"/>
        <path class="cls-1" d="M483.67,17.26c0,.14-.03.27-.08.38s-.12.21-.21.29c-.09.08-.19.14-.31.19-.12.04-.24.07-.37.07s-.25-.02-.37-.07c-.12-.04-.22-.11-.31-.19-.09-.08-.16-.18-.21-.29-.05-.11-.08-.24-.08-.38s.03-.27.08-.38c.05-.11.12-.21.21-.29.09-.08.19-.14.31-.18.12-.04.24-.06.37-.06s.26.02.37.06c.12.04.22.1.31.18.09.08.16.17.21.29.05.11.08.24.08.38M483.12,17.26c0-.06,0-.11-.03-.16-.02-.05-.05-.1-.08-.14-.03-.04-.08-.07-.13-.1-.05-.03-.11-.04-.18-.04s-.13.01-.18.04c-.05.03-.09.06-.13.1-.03.04-.06.09-.08.14-.02.05-.03.11-.03.16s0,.11.03.16c.02.05.04.1.08.14.03.04.08.08.13.1.05.03.11.04.18.04s.13-.01.18-.04c.05-.03.09-.06.13-.1.03-.04.06-.09.08-.14.02-.05.03-.11.03-.16"/>
        <path class="cls-1" d="M485.34,18.13v-.23h0c-.06.09-.14.16-.24.2-.1.05-.21.07-.33.07-.13,0-.25-.03-.35-.08-.1-.05-.19-.12-.26-.2-.07-.08-.12-.18-.16-.29-.04-.11-.06-.23-.06-.35s.02-.24.06-.35c.04-.11.09-.21.16-.29.07-.08.16-.15.26-.2.1-.05.21-.07.34-.07s.23.02.32.07c.09.05.16.1.2.16h0v-1.08h.57v2.62h-.52ZM485.32,17.26c0-.06,0-.11-.03-.16-.02-.05-.05-.1-.08-.14-.04-.04-.08-.08-.13-.1-.05-.03-.11-.04-.17-.04s-.13.01-.18.04c-.05.03-.09.06-.13.1-.03.04-.06.09-.08.14-.02.05-.03.11-.03.16s0,.11.03.16c.02.05.04.1.08.14.03.04.08.08.13.1.05.03.11.04.18.04s.12-.01.17-.04c.05-.03.09-.06.13-.1.04-.04.06-.09.08-.14.02-.05.03-.11.03-.16"/>
        <path class="cls-1" d="M487.6,18.13v-.23h0c-.06.09-.14.16-.24.2-.1.05-.21.07-.33.07-.13,0-.25-.03-.35-.08-.1-.05-.19-.12-.26-.2-.07-.08-.12-.18-.16-.29-.04-.11-.06-.23-.06-.35s.02-.24.06-.35c.04-.11.09-.21.16-.29.07-.08.16-.15.26-.2.1-.05.21-.07.34-.07s.23.02.32.07c.09.05.16.1.2.16h0v-1.08h.57v2.62h-.52ZM487.58,17.26c0-.06,0-.11-.03-.16-.02-.05-.05-.1-.08-.14s-.08-.08-.13-.1c-.05-.03-.11-.04-.17-.04s-.13.01-.18.04c-.05.03-.09.06-.13.1-.03.04-.06.09-.08.14-.02.05-.03.11-.03.16s0,.11.03.16c.02.05.04.1.08.14.03.04.08.08.13.1.05.03.11.04.18.04s.12-.01.17-.04c.05-.03.09-.06.13-.1s.06-.09.08-.14c.02-.05.03-.11.03-.16"/>
        <path class="cls-1" d="M489.19,15.85s0,.09-.03.12c-.02.04-.04.07-.07.1-.03.03-.06.05-.1.07-.04.02-.08.02-.13.02-.09,0-.17-.03-.23-.09-.06-.06-.09-.13-.09-.22,0-.04,0-.08.02-.12.02-.04.04-.07.07-.1.03-.03.06-.05.1-.07.04-.02.08-.03.13-.03.04,0,.09,0,.13.02.04.02.08.04.1.07.03.03.05.06.07.1.02.04.03.08.03.12M488.58,16.4h.57v1.73h-.57v-1.73Z"/>
        <path class="cls-1" d="M492.66,18.13v-.94s0-.1-.01-.14c0-.05-.02-.08-.04-.12-.02-.03-.04-.06-.07-.08-.03-.02-.07-.03-.12-.03s-.09.01-.13.03c-.04.02-.07.05-.09.08-.02.03-.04.07-.05.12-.01.05-.02.09-.02.14v.93h-.57v-.99c0-.1-.02-.18-.06-.24-.04-.06-.1-.09-.19-.09-.09,0-.16.04-.21.11-.05.07-.07.16-.07.26v.94h-.57v-1.73h.55v.24h0s.05-.07.08-.11c.03-.03.07-.07.11-.09.04-.03.09-.05.15-.06.05-.02.11-.02.18-.02.12,0,.23.03.32.08.09.05.15.12.2.22.06-.09.13-.16.22-.22.09-.05.2-.08.33-.08.12,0,.22.02.3.06.08.04.14.1.19.17.05.07.08.14.11.23.02.08.03.17.03.25v1.07h-.57Z"/>
        <path class="cls-1" d="M495.36,17.29v.07s0,.05,0,.07h-1.25s.02.09.04.13c.02.04.06.07.09.1.04.03.08.05.13.07.05.02.1.02.15.02.09,0,.17-.02.23-.05.06-.03.11-.08.15-.13l.4.25c-.08.12-.19.21-.32.27-.13.06-.29.1-.46.1-.13,0-.25-.02-.37-.06-.12-.04-.22-.1-.3-.18-.09-.08-.15-.17-.2-.29-.05-.11-.07-.24-.07-.39s.02-.27.07-.38c.05-.11.11-.21.2-.29.08-.08.18-.14.3-.19.11-.04.24-.07.37-.07s.24.02.35.06c.11.04.2.1.27.19.08.08.14.18.18.3.04.12.06.25.06.4M494.83,17.07c0-.09-.03-.17-.08-.23-.06-.06-.14-.1-.26-.1-.06,0-.11,0-.15.03-.05.02-.09.04-.12.07-.03.03-.06.07-.08.11-.02.04-.03.08-.03.13h.73Z"/>
        <polygon class="cls-1" points="497.89 18.13 497.32 18.13 496.98 17.05 496.97 17.05 496.64 18.13 496.06 18.13 495.47 16.4 496.08 16.4 496.38 17.49 496.39 17.49 496.7 16.4 497.27 16.4 497.59 17.49 497.6 17.49 497.9 16.4 498.49 16.4 497.89 18.13"/>
        <path class="cls-1" d="M499.83,18.13v-.94s0-.09-.01-.14c0-.04-.02-.08-.04-.12-.02-.03-.04-.06-.08-.08-.03-.02-.08-.03-.13-.03s-.1,0-.13.03c-.04.02-.07.05-.1.08-.03.03-.04.07-.06.12-.01.05-.02.09-.02.14v.94h-.57v-1.73h.55v.24h0s.05-.07.08-.11c.03-.04.07-.07.12-.09.05-.03.09-.05.15-.06.05-.02.11-.02.17-.02.12,0,.21.02.3.06.08.04.15.1.2.16.05.07.09.14.11.23.02.09.03.17.03.26v1.07h-.57Z"/>
        <path class="cls-1" d="M503.61,17.26c0,.12-.02.24-.06.35-.04.11-.09.21-.16.29-.07.08-.16.15-.26.2-.1.05-.22.08-.35.08-.11,0-.21-.02-.3-.06s-.17-.1-.22-.18h0v1.02h-.57v-2.56h.54v.21h.01c.05-.07.13-.13.22-.18.09-.05.2-.08.33-.08s.24.02.34.07c.1.05.19.11.26.2.07.08.12.18.16.29.04.11.06.22.06.35M503.06,17.26c0-.06,0-.11-.03-.16-.02-.05-.04-.1-.08-.14-.03-.04-.08-.07-.13-.1-.05-.03-.11-.04-.18-.04s-.12.01-.17.04c-.05.03-.09.06-.13.1-.04.04-.06.09-.08.14-.02.05-.03.11-.03.16s0,.11.03.16c.02.05.05.1.08.14s.08.08.13.1c.05.03.11.04.17.04s.13-.01.18-.04c.05-.03.09-.06.13-.1.03-.04.06-.09.08-.14.02-.05.03-.11.03-.16"/>
        <path class="cls-1" d="M505.78,17.26c0,.14-.03.27-.08.38-.05.11-.12.21-.21.29-.09.08-.19.14-.31.19-.12.04-.24.07-.37.07s-.25-.02-.37-.07c-.12-.04-.22-.11-.31-.19-.09-.08-.16-.18-.21-.29-.05-.11-.08-.24-.08-.38s.03-.27.08-.38c.05-.11.12-.21.21-.29.09-.08.19-.14.31-.18.12-.04.24-.06.37-.06s.26.02.37.06c.12.04.22.1.31.18.09.08.16.17.21.29.05.11.08.24.08.38M505.23,17.26c0-.06,0-.11-.03-.16-.02-.05-.05-.1-.08-.14-.03-.04-.08-.07-.13-.1-.05-.03-.11-.04-.18-.04s-.13.01-.18.04c-.05.03-.09.06-.13.1-.03.04-.06.09-.08.14-.02.05-.03.11-.03.16s0,.11.03.16c.02.05.04.1.08.14.03.04.08.08.13.1.05.03.11.04.18.04s.13-.01.18-.04c.05-.03.09-.06.13-.1.03-.04.06-.09.08-.14.02-.05.03-.11.03-.16"/>
        <path class="cls-1" d="M508.04,17.26c0,.12-.02.24-.06.35-.04.11-.09.21-.16.29-.07.08-.16.15-.26.2-.1.05-.22.08-.35.08-.12,0-.22-.02-.33-.07-.1-.05-.18-.11-.24-.2h0v.23h-.52v-2.62h.57v1.08h0c.05-.06.12-.11.2-.16.09-.05.2-.07.32-.07s.24.02.34.07c.1.05.19.11.26.2.07.08.13.18.16.29.04.11.06.22.06.35M507.5,17.26c0-.06,0-.11-.03-.16-.02-.05-.04-.1-.08-.14s-.08-.07-.13-.1c-.05-.03-.11-.04-.18-.04s-.12.01-.17.04c-.05.03-.09.06-.13.1-.04.04-.06.09-.08.14-.02.05-.03.11-.03.16s0,.11.03.16.05.1.08.14c.04.04.08.08.13.1.05.03.11.04.17.04s.13-.01.18-.04c.05-.03.09-.06.13-.1s.06-.09.08-.14c.02-.05.03-.11.03-.16"/>
        <rect class="cls-1" x="508.41" y="15.5" width=".58" height="2.62"/>
        <path class="cls-1" d="M511.24,15.67h.69c.13,0,.24.01.34.04.1.03.19.07.26.12.07.05.13.12.17.2.04.08.06.18.06.29s-.02.21-.06.29c-.04.08-.1.15-.17.21-.07.05-.16.1-.26.12-.1.03-.22.04-.34.04h-.44v1.14h-.25v-2.46ZM511.49,16.78h.42c.2,0,.35-.04.45-.11.1-.08.15-.19.15-.33s-.05-.26-.16-.33c-.11-.07-.25-.11-.44-.11h-.42v.89Z"/>
        <rect class="cls-1" x="513.23" y="15.5" width=".24" height="2.62"/>
        <path class="cls-1" d="M515.13,17.08c0-.14-.04-.24-.11-.31-.07-.07-.18-.1-.32-.1-.1,0-.19.02-.27.05-.08.03-.15.08-.21.14l-.13-.16c.07-.07.16-.12.27-.17.11-.04.23-.07.37-.07.09,0,.17.01.25.04.08.02.14.06.2.11s.1.11.14.18c.03.07.05.16.05.26v.71c0,.06,0,.13,0,.19,0,.07.01.12.02.17h-.21s-.01-.08-.02-.13c0-.05,0-.09,0-.14h0c-.07.11-.16.19-.25.23-.09.05-.21.07-.34.07-.06,0-.13,0-.19-.03-.07-.02-.13-.05-.18-.09-.05-.04-.1-.09-.14-.15-.04-.06-.05-.14-.05-.23,0-.13.03-.22.1-.3s.15-.13.26-.16c.11-.04.23-.06.37-.07.14-.01.28-.02.43-.02v-.05ZM515.06,17.32c-.1,0-.2,0-.29.01-.1,0-.19.02-.27.05-.08.02-.15.06-.2.11-.05.05-.08.11-.08.18,0,.06.01.11.03.15.02.04.05.07.09.1.04.02.08.04.12.05.05.01.09.02.14.02.08,0,.16-.01.22-.04.06-.03.12-.07.16-.12.04-.05.08-.11.1-.17s.03-.13.03-.2v-.12h-.07Z"/>
        <path class="cls-1" d="M516.64,16.7h-.46v.95c0,.06,0,.11.02.15s.03.07.05.09c.02.02.05.04.08.05.03,0,.06.01.1.01.03,0,.07,0,.1-.01.04,0,.07-.02.1-.04v.2s-.07.03-.12.04c-.05,0-.09.01-.15.01-.04,0-.09,0-.14-.02-.05-.01-.09-.03-.14-.07-.04-.03-.08-.08-.1-.13-.03-.06-.04-.13-.04-.22v-1.01h-.34v-.2h.34v-.46h.24v.46h.46v.2Z"/>
        <path class="cls-1" d="M517.29,15.88s-.02.09-.05.12c-.03.03-.07.05-.11.05s-.08-.02-.11-.05c-.03-.03-.05-.07-.05-.12s.02-.09.05-.12c.03-.03.07-.05.11-.05s.08.02.11.05c.03.03.05.07.05.12M517.24,18.13h-.24v-1.62h.24v1.62Z"/>
        <path class="cls-1" d="M518.07,16.5s0,.09.01.15c0,.05,0,.1,0,.13h0c.05-.09.12-.17.23-.23.1-.06.21-.09.33-.09.21,0,.36.06.46.18.1.12.15.28.15.49v1h-.24v-.9c0-.09,0-.16-.02-.23-.01-.07-.04-.13-.07-.18-.03-.05-.08-.09-.14-.12-.06-.03-.13-.04-.21-.04-.06,0-.12.01-.18.04-.06.03-.11.06-.16.12-.05.05-.08.12-.11.2-.03.08-.04.17-.04.28v.83h-.24v-1.27s0-.1,0-.17c0-.07,0-.13-.01-.19h.23Z"/>
        <polygon class="cls-1" points="519.89 16.5 520.28 17.82 520.29 17.82 520.73 16.5 520.96 16.5 521.4 17.82 521.41 17.82 521.8 16.5 522.05 16.5 521.53 18.13 521.28 18.13 520.84 16.81 520.84 16.81 520.41 18.13 520.15 18.13 519.64 16.5 519.89 16.5"/>
        <path class="cls-1" d="M522.87,16.55c.1-.06.2-.09.32-.09.04,0,.09,0,.14.01.05,0,.09.03.14.05.05.03.09.06.13.11s.07.1.1.17c.06-.11.13-.2.23-.26.1-.06.21-.09.34-.09.21,0,.36.06.46.18.1.12.15.28.15.49v1h-.24v-.9c0-.17-.03-.31-.1-.41-.06-.1-.17-.16-.32-.16-.09,0-.16.02-.22.05-.06.03-.11.08-.14.14-.04.06-.06.12-.08.19s-.02.15-.02.22v.86h-.24v-.95c0-.08,0-.15-.02-.22-.01-.06-.03-.12-.06-.16-.03-.05-.07-.08-.12-.1-.05-.02-.12-.04-.19-.04-.06,0-.11.01-.17.04-.06.03-.11.06-.15.12-.04.05-.08.12-.11.2-.03.08-.04.17-.04.28v.83h-.24v-1.27s0-.1,0-.17c0-.07,0-.13-.01-.19h.23s0,.09.01.15c0,.05,0,.1,0,.13h0c.05-.09.12-.17.21-.23"/>
        <rect class="cls-1" x="453.91" y="6.27" width=".86" height="4.12"/>
        <polygon class="cls-1" points="458.14 10.39 457.32 10.39 456.22 8.13 456.22 10.39 455.35 10.39 455.35 6.27 456.17 6.27 457.27 8.53 457.27 6.27 458.14 6.27 458.14 10.39"/>
        <polygon class="cls-1" points="460.57 10.39 459.62 10.39 458.47 6.27 459.37 6.27 460.09 9.06 460.81 6.27 461.72 6.27 460.57 10.39"/>
        <polygon class="cls-1" points="464.22 7.07 462.89 7.07 462.89 7.9 464.13 7.9 464.13 8.69 462.89 8.69 462.89 9.6 464.22 9.6 464.22 10.39 462.03 10.39 462.03 6.27 464.22 6.27 464.22 7.07"/>
        <path class="cls-1" d="M466.98,6.43l-.09.84c-.27-.16-.55-.24-.85-.24-.15,0-.27.04-.34.12-.08.08-.12.18-.12.32,0,.15.08.27.25.35.03.01.16.07.41.16.32.11.56.25.72.41.16.16.24.42.24.77,0,.4-.13.72-.38.95-.25.23-.59.35-1,.35-.44,0-.82-.09-1.15-.28l.09-.88c.34.22.68.33,1,.33.18,0,.31-.04.41-.12.1-.08.14-.19.14-.33,0-.12-.04-.22-.11-.28-.07-.06-.22-.14-.44-.21-.24-.09-.43-.18-.58-.26-.32-.2-.48-.51-.48-.94,0-.39.12-.69.35-.92.23-.23.55-.34.94-.34.34,0,.67.07.99.22"/>
        <polygon class="cls-1" points="470.3 7.07 469.32 7.07 469.32 10.39 468.45 10.39 468.45 7.07 467.46 7.07 467.46 6.27 470.3 6.27 470.3 7.07"/>
        <path class="cls-1" d="M473.55,8.87c0,.48-.14.87-.41,1.16-.27.29-.63.43-1.08.43s-.82-.14-1.08-.43c-.27-.28-.4-.67-.4-1.16v-1.07c0-.49.13-.87.4-1.16.27-.29.63-.43,1.08-.43s.82.14,1.08.43c.27.29.41.68.41,1.16v1.07ZM471.45,8.84c0,.26.05.46.16.6.11.14.26.21.44.21s.33-.07.44-.21c.11-.14.16-.34.16-.6v-1.02c0-.26-.05-.46-.16-.61-.11-.14-.26-.21-.44-.21s-.33.07-.44.21c-.11.14-.16.35-.16.61v1.02Z"/>
        <path class="cls-1" d="M475.96,10.39l-.67-1.51h-.37v1.51h-.86v-4.12h1.23c.43,0,.77.11,1.02.32.25.21.37.52.37.91v.14c0,.48-.18.83-.54,1.03l.75,1.71h-.92ZM474.92,8.08h.31c.18,0,.31-.04.41-.12.1-.08.15-.19.15-.34v-.09c0-.31-.19-.46-.56-.46h-.31v1.02Z"/>
        <path class="cls-1" d="M479.5,6.43l-.09.84c-.27-.16-.55-.24-.85-.24-.15,0-.27.04-.34.12-.08.08-.12.18-.12.32,0,.15.08.27.25.35.03.01.16.07.41.16.32.11.56.25.72.41.16.16.24.42.24.77,0,.4-.13.72-.38.95-.25.23-.59.35-1,.35-.44,0-.82-.09-1.15-.28l.09-.88c.34.22.68.33,1,.33.18,0,.31-.04.41-.12.1-.08.14-.19.14-.33,0-.12-.04-.22-.11-.28-.07-.06-.22-.14-.44-.21-.24-.09-.43-.18-.58-.26-.32-.2-.48-.51-.48-.94,0-.39.12-.69.35-.92.23-.23.55-.34.94-.34.34,0,.67.07.99.22"/>
        <rect class="cls-1" x="481.64" y="6.27" width=".86" height="4.12"/>
        <polygon class="cls-1" points="485.87 10.39 485.05 10.39 483.95 8.13 483.95 10.39 483.09 10.39 483.09 6.27 483.9 6.27 485 8.53 485 6.27 485.87 6.27 485.87 10.39"/>
        <path class="cls-1" d="M487.81,6.27h1.3c.43,0,.76.11,1.01.32.25.21.37.52.37.91v.15c0,.4-.12.71-.37.92-.25.21-.58.32-1.01.32h-.43v1.49h-.86v-4.12ZM488.68,7.07v1.04h.38c.18,0,.31-.04.41-.12.1-.08.15-.19.15-.34v-.12c0-.15-.05-.27-.15-.34s-.23-.12-.41-.12h-.38Z"/>
        <polygon class="cls-1" points="493.09 7.07 491.77 7.07 491.77 7.9 493.01 7.9 493.01 8.69 491.77 8.69 491.77 9.6 493.1 9.6 493.1 10.39 490.91 10.39 490.91 6.27 493.09 6.27 493.09 7.07"/>
        <path class="cls-1" d="M498.77,6.27h1.3c.43,0,.76.11,1.01.32.25.21.37.52.37.91v.15c0,.4-.12.71-.37.92-.25.21-.58.32-1.01.32h-.43v1.49h-.86v-4.12ZM499.63,7.07v1.04h.38c.18,0,.31-.04.41-.12.1-.08.15-.19.15-.34v-.12c0-.15-.05-.27-.15-.34-.1-.08-.23-.12-.41-.12h-.38Z"/>
        <polygon class="cls-1" points="502.75 9.6 503.99 9.6 503.99 10.39 501.88 10.39 501.88 6.27 502.75 6.27 502.75 9.6"/>
        <polygon class="cls-1" points="506.56 7.07 505.24 7.07 505.24 7.9 506.48 7.9 506.48 8.69 505.24 8.69 505.24 9.6 506.57 9.6 506.57 10.39 504.38 10.39 504.38 6.27 506.56 6.27 506.56 7.07"/>
        <polygon class="cls-1" points="507.7 6.42 507.51 6.42 507.51 7.06 507.34 7.06 507.34 6.42 507.16 6.42 507.16 6.27 507.7 6.27 507.7 6.42"/>
        <polygon class="cls-1" points="508.54 7.06 508.37 7.06 508.37 6.69 508.23 7.06 508.12 7.06 507.97 6.69 507.97 7.06 507.81 7.06 507.81 6.27 507.97 6.27 508.17 6.79 508.37 6.27 508.54 6.27 508.54 7.06"/>
        <path class="cls-1" d="M496.59,6.85s.37.35.92.15c-.09-.56-.58-.7-.59-.7.03.22.13.4.3.54-.21-.07-.42-.07-.63.01M496.9,6.64s-.28-.43-.83-.36c0,0,.27.42.83.36M496.82,10.13c.18-.16.28-.36.32-.6,0,0-.53.18-.63.8.58.21.97-.19.98-.19-.22-.09-.44-.09-.66,0M497.51,9.01s-.4.36-.25.95c.6-.04.79-.54.79-.55-.23.01-.43.09-.59.25.1-.21.11-.43.05-.66M497.13,7.18s.21.48.8.53c.15-.56-.25-.9-.26-.9-.06.22-.04.42.05.62-.16-.15-.36-.24-.59-.25M497.87,8.99c0-.23-.07-.44-.23-.62,0,0-.22.49.16.97.53-.28.5-.82.5-.83-.21.1-.35.26-.44.48M497.51,7.72s0,.54.54.83c.37-.47.13-.95.13-.96-.15.18-.22.38-.21.61-.09-.21-.24-.37-.45-.48M494.31,9.01c-.06.23-.05.45.05.66-.16-.16-.36-.24-.59-.25,0,0,.2.5.79.55.15-.59-.25-.95-.25-.95M494.69,9.52c.03.24.14.44.32.6-.22-.08-.44-.08-.66,0,0,0,.4.4.98.19-.1-.62-.62-.8-.63-.8M496.1,10.29c-.14,0-.3.06-.45.12-.2.08-.39.15-.58.1,0,0,.07.13.23.14.16.01.31-.03.45-.08.14-.05.29-.09.45-.08.26.02.41.17.48.25.02-.09-.02-.17-.08-.25-.11-.13-.3-.2-.5-.2M495.23,6.85c-.21-.08-.42-.08-.63-.01.17-.14.27-.32.3-.54,0,0-.49.14-.59.7.55.19.91-.15.92-.15M495.76,6.29c-.55-.07-.83.35-.83.36.56.06.83-.35.83-.36M494.01,9.34c.38-.48.16-.97.16-.97-.15.18-.23.39-.23.62-.08-.21-.23-.37-.44-.48,0,0-.02.55.5.83M494.31,7.72c-.21.11-.36.27-.45.48,0-.23-.06-.43-.21-.61,0,0-.24.49.13.96.54-.29.54-.82.54-.83M494.69,7.18c-.23.01-.43.1-.59.25.1-.2.11-.41.05-.62,0,0-.4.34-.26.9.59-.05.79-.52.8-.53"/>
      </g>
    </g>
  </g>
  <path class="cls-2" d="M123.51,7.64c.24.23.57.34,1.01.34.32,0,.59-.08.81-.24.23-.16.37-.32.42-.5h1.38c-.22.68-.56,1.17-1.01,1.46s-1.01.44-1.65.44c-.45,0-.85-.07-1.21-.21s-.66-.35-.91-.61-.44-.58-.58-.95c-.14-.37-.2-.77-.2-1.21s.07-.82.21-1.19c.14-.37.34-.68.59-.95.26-.27.56-.48.92-.63.36-.15.75-.23,1.18-.23.48,0,.91.09,1.26.28.36.19.65.44.89.75.23.32.4.68.5,1.08.1.4.14.82.11,1.27h-4.1c.02.51.15.87.39,1.1M125.28,4.65c-.19-.2-.47-.31-.85-.31-.25,0-.46.04-.62.13-.17.08-.3.19-.4.31-.1.12-.17.26-.21.4-.04.14-.06.26-.07.37h2.54c-.07-.4-.2-.7-.39-.9M117.24,7.59c.07.12.16.22.27.3.11.08.24.13.38.17.14.04.29.06.44.06.11,0,.23-.01.35-.04.12-.03.23-.07.33-.12.1-.06.18-.13.25-.22.07-.09.1-.21.1-.35,0-.24-.16-.41-.47-.53-.31-.12-.75-.24-1.3-.35-.23-.05-.45-.11-.66-.18-.22-.07-.41-.16-.58-.27-.17-.11-.3-.26-.41-.43-.1-.17-.15-.38-.15-.63,0-.37.07-.67.21-.9.14-.23.33-.42.57-.55.24-.14.5-.23.79-.29.29-.05.59-.08.9-.08s.61.03.9.09c.29.06.55.16.78.3.23.14.42.32.57.56.15.23.24.52.27.87h-1.49c-.02-.3-.13-.5-.34-.61-.21-.11-.45-.16-.73-.16-.09,0-.18,0-.29.02-.1.01-.2.03-.28.07-.08.04-.16.09-.22.16-.06.07-.09.16-.09.28,0,.14.05.25.15.34.1.09.24.16.4.22.17.05.35.1.57.15.21.04.43.09.65.14.23.05.45.11.67.19.22.07.41.17.58.29.17.12.31.27.41.45.1.18.15.4.15.67,0,.37-.07.69-.22.94-.15.25-.35.46-.59.61-.24.15-.52.26-.83.32-.31.06-.63.09-.95.09s-.65-.03-.97-.1c-.32-.07-.6-.18-.84-.33-.25-.15-.45-.36-.6-.61-.16-.25-.24-.57-.26-.95h1.49c0,.17.03.31.1.43M113.23,9v-.79h-.03c-.2.33-.46.57-.77.72-.32.15-.64.22-.97.22-.42,0-.76-.05-1.03-.16-.27-.11-.48-.27-.63-.47-.15-.2-.26-.45-.32-.74-.06-.29-.09-.61-.09-.96v-3.5h1.56v3.21c0,.47.07.82.22,1.05.15.23.41.35.78.35.43,0,.73-.13.92-.38.19-.25.29-.67.29-1.25v-2.98h1.56v5.69h-1.49ZM102.74,4.93c.14-.37.34-.68.59-.95.26-.26.56-.46.92-.6.36-.14.76-.22,1.21-.22s.85.07,1.21.22c.36.14.67.34.93.6.26.26.45.58.59.95.14.37.21.78.21,1.24s-.07.87-.21,1.23c-.14.37-.34.68-.59.94-.26.26-.57.46-.93.6s-.77.21-1.21.21-.85-.07-1.21-.21c-.36-.14-.67-.34-.92-.6-.26-.26-.46-.57-.59-.94-.14-.37-.21-.78-.21-1.23s.07-.87.21-1.24M104.15,6.83c.04.22.12.41.22.58.11.17.25.31.42.41.18.1.4.15.66.15s.49-.05.67-.15.32-.24.43-.41c.11-.17.18-.37.23-.58.04-.22.07-.44.07-.66s-.02-.45-.07-.67c-.04-.22-.12-.41-.23-.58-.11-.17-.25-.31-.43-.41-.18-.11-.4-.16-.67-.16s-.48.05-.66.16c-.18.11-.32.24-.42.41-.11.17-.18.36-.22.58-.04.22-.07.44-.07.67s.02.45.07.66M97.78,1.15v2.96h.03c.2-.33.45-.57.76-.72.31-.15.61-.23.9-.23.42,0,.76.06,1.03.17.27.11.48.27.63.47.15.2.26.45.32.74.06.29.09.61.09.96v3.5h-1.56v-3.21c0-.47-.07-.82-.22-1.05-.15-.23-.41-.35-.78-.35-.43,0-.73.13-.92.38-.19.25-.29.67-.29,1.25v2.98h-1.56V1.15h1.56ZM91.6,7.59c.07.12.16.22.27.3.11.08.24.13.38.17.14.04.29.06.45.06.11,0,.22-.01.35-.04.12-.03.23-.07.33-.12.1-.06.18-.13.25-.22.07-.09.1-.21.1-.35,0-.24-.16-.41-.47-.53-.31-.12-.75-.24-1.3-.35-.23-.05-.45-.11-.67-.18-.22-.07-.41-.16-.58-.27-.17-.11-.31-.26-.41-.43-.1-.17-.15-.38-.15-.63,0-.37.07-.67.21-.9.14-.23.33-.42.57-.55.23-.14.5-.23.79-.29.29-.05.59-.08.9-.08s.61.03.9.09.55.16.78.3c.23.14.42.32.57.56.15.23.24.52.27.87h-1.49c-.02-.3-.14-.5-.34-.61-.21-.11-.45-.16-.73-.16-.09,0-.18,0-.29.02-.1.01-.2.03-.28.07s-.16.09-.21.16c-.06.07-.09.16-.09.28,0,.14.05.25.15.34.1.09.24.16.4.22.17.05.35.1.57.15.21.04.43.09.65.14.23.05.45.11.67.19.22.07.41.17.58.29.17.12.3.27.41.45.1.18.15.4.15.67,0,.37-.08.69-.23.94-.15.25-.35.46-.59.61-.24.15-.52.26-.83.32-.31.06-.63.09-.95.09s-.65-.03-.97-.1c-.32-.07-.6-.18-.84-.33-.25-.15-.45-.36-.61-.61-.16-.25-.24-.57-.26-.95h1.49c0,.17.03.31.1.43M85.67,7.64c.23.23.57.34,1.01.34.31,0,.59-.08.81-.24.23-.16.37-.32.42-.5h1.38c-.22.68-.56,1.17-1.01,1.46-.45.29-1,.44-1.65.44-.45,0-.85-.07-1.21-.21-.36-.14-.66-.35-.91-.61-.25-.26-.44-.58-.58-.95-.14-.37-.2-.77-.2-1.21s.07-.82.21-1.19c.14-.37.34-.68.59-.95.26-.27.56-.48.92-.63.36-.15.75-.23,1.18-.23.48,0,.9.09,1.26.28.36.19.65.44.88.75.23.32.4.68.5,1.08.1.4.14.82.11,1.27h-4.1c.02.51.15.87.39,1.1M87.44,4.65c-.19-.2-.47-.31-.85-.31-.25,0-.46.04-.62.13-.17.08-.3.19-.4.31s-.17.26-.21.4-.06.26-.07.37h2.54c-.07-.4-.2-.7-.39-.9M82.76,9h-1.56V3.31h1.56v5.69ZM81.2,1.15h1.56v1.29h-1.56v-1.29ZM76.11,3.31v.79h.03c.2-.33.46-.57.77-.72.32-.15.64-.23.97-.23.42,0,.76.06,1.03.17.27.11.48.27.63.47.15.2.26.45.32.74.06.29.09.61.09.96v3.5h-1.56v-3.21c0-.47-.07-.82-.22-1.05-.15-.23-.41-.35-.78-.35-.42,0-.73.13-.92.38-.19.25-.29.67-.29,1.25v2.98h-1.56V3.31h1.49ZM71.84,6.8c0,.09-.01.2-.03.35-.02.15-.07.29-.15.43-.08.14-.21.27-.37.37-.17.1-.41.15-.71.15-.12,0-.25-.01-.36-.03-.12-.02-.22-.06-.31-.11-.09-.06-.16-.13-.21-.23-.05-.09-.08-.21-.08-.35,0-.15.03-.27.08-.36.05-.1.12-.17.2-.24.08-.06.18-.11.3-.15.11-.04.23-.07.35-.09.12-.02.25-.04.37-.06.12-.01.24-.03.36-.05.11-.02.22-.05.32-.08.1-.03.18-.08.25-.14v.58ZM69.79,5.06c.03-.31.13-.53.31-.66.18-.13.42-.2.73-.2.14,0,.27,0,.39.03.12.02.23.05.32.11.09.05.17.13.22.23s.08.23.08.4c0,.16-.04.28-.14.37-.1.09-.24.15-.42.19-.18.04-.38.08-.61.1-.23.02-.46.05-.69.09-.24.04-.47.09-.7.15-.23.06-.44.16-.62.28s-.33.29-.44.5c-.11.21-.17.47-.17.8,0,.29.05.55.15.76s.24.39.41.53.38.24.62.31c.23.07.49.1.76.1.35,0,.7-.05,1.03-.15.34-.1.63-.28.88-.54,0,.1.02.19.04.28.02.09.04.18.07.27h1.58c-.07-.12-.12-.29-.15-.53-.03-.23-.04-.48-.04-.74v-2.96c0-.35-.08-.62-.23-.83s-.35-.37-.59-.49c-.24-.12-.51-.2-.8-.24-.29-.04-.58-.06-.87-.06-.32,0-.63.03-.94.09-.31.06-.59.17-.84.31-.25.15-.45.34-.62.58-.16.24-.25.55-.28.91h1.56ZM63.08,3.31v.73h.02c.19-.31.43-.53.73-.67.29-.14.62-.21.97-.21.45,0,.83.08,1.15.25.32.17.59.39.8.67.21.28.37.6.47.97.1.37.15.76.15,1.16,0,.38-.05.75-.15,1.1-.1.35-.26.66-.47.93s-.47.49-.78.65c-.31.16-.68.24-1.09.24-.35,0-.68-.07-.97-.21-.3-.14-.54-.35-.73-.63h-.02v2.69h-1.56V3.31h1.49ZM65.11,7.82c.17-.1.31-.24.42-.4.11-.17.18-.36.22-.58s.07-.44.07-.67-.02-.45-.07-.67c-.05-.22-.13-.42-.24-.59-.11-.17-.25-.31-.42-.42-.17-.11-.38-.16-.63-.16s-.47.05-.64.16c-.17.11-.31.24-.42.41-.11.17-.18.36-.23.58-.04.22-.07.45-.07.68s.02.45.07.67c.05.22.12.41.23.58.11.16.25.3.42.4.18.1.39.15.64.15s.47-.05.64-.15M53.14,3.31v.77h.02c.21-.29.45-.52.74-.68.29-.16.62-.24,1-.24s.69.07.99.21.52.38.68.74c.17-.25.4-.47.69-.66.29-.19.63-.29,1.03-.29.3,0,.58.04.84.11.26.07.48.19.66.35.18.16.33.37.43.63.1.26.15.57.15.94v3.81h-1.56v-3.22c0-.19,0-.37-.02-.54-.01-.17-.06-.31-.12-.44s-.16-.22-.29-.3c-.13-.07-.3-.11-.52-.11s-.4.04-.53.13c-.14.08-.24.19-.32.33-.08.13-.13.29-.15.46-.03.17-.04.35-.04.52v3.17h-1.56v-3.19c0-.17,0-.34-.01-.5,0-.17-.04-.32-.09-.46s-.15-.25-.27-.33c-.13-.09-.32-.13-.57-.13-.07,0-.17.02-.29.05s-.24.1-.35.19c-.11.09-.21.22-.29.39-.08.17-.12.4-.12.68v3.3h-1.56V3.31h1.47ZM44.99,4.93c.14-.37.34-.68.59-.95.26-.26.56-.46.92-.6.36-.14.76-.22,1.21-.22s.85.07,1.21.22c.36.14.67.34.93.6.26.26.45.58.59.95.14.37.21.78.21,1.24s-.07.87-.21,1.23c-.14.37-.34.68-.59.94-.26.26-.57.46-.93.6s-.77.21-1.21.21-.85-.07-1.21-.21c-.36-.14-.67-.34-.92-.6-.26-.26-.46-.57-.59-.94-.14-.37-.21-.78-.21-1.23s.07-.87.21-1.24M46.41,6.83c.04.22.12.41.23.58.11.17.25.31.42.41.18.1.4.15.66.15s.49-.05.67-.15c.18-.1.32-.24.43-.41.11-.17.18-.37.23-.58.04-.22.07-.44.07-.66s-.02-.45-.07-.67c-.04-.22-.12-.41-.23-.58-.11-.17-.25-.31-.43-.41-.18-.11-.4-.16-.67-.16s-.48.05-.66.16c-.18.11-.32.24-.42.41-.11.17-.18.36-.23.58-.04.22-.07.44-.07.67s.02.45.07.66M41.37,4.34c-.25,0-.46.06-.63.17-.17.11-.31.26-.41.44-.11.18-.18.38-.23.59-.04.22-.07.43-.07.64s.02.41.07.63c.04.21.12.4.21.58.1.17.23.31.4.42.17.11.37.16.62.16.37,0,.66-.1.86-.31.2-.21.33-.49.38-.84h1.51c-.1.76-.4,1.33-.88,1.73s-1.1.59-1.86.59c-.42,0-.82-.07-1.17-.21-.36-.14-.66-.34-.91-.6-.25-.26-.44-.56-.58-.92-.14-.36-.21-.75-.21-1.17s.06-.85.19-1.23c.13-.38.32-.7.57-.98.25-.28.55-.49.91-.64s.77-.23,1.23-.23c.34,0,.66.04.97.13.31.09.59.22.84.4.25.18.44.4.6.67.15.27.24.58.26.95h-1.53c-.1-.65-.49-.98-1.15-.98M38.78.96l-3.07,8.22h-1.24l3.06-8.22h1.25ZM30.15,1.15v4.21l1.97-2.05h1.85l-2.15,2.09,2.39,3.6h-1.89l-1.56-2.54-.6.58v1.96h-1.56V1.15h1.56ZM25.82,9v-.79h-.03c-.2.33-.45.57-.77.72-.32.15-.64.22-.97.22-.42,0-.76-.05-1.03-.16-.27-.11-.48-.27-.63-.47-.15-.2-.26-.45-.32-.74-.06-.29-.09-.61-.09-.96v-3.5h1.56v3.21c0,.47.07.82.22,1.05.15.23.41.35.78.35.43,0,.73-.13.92-.38.19-.25.29-.67.29-1.25v-2.98h1.56v5.69h-1.49ZM20.81,9h-1.73v-1.69h1.73v1.69ZM15.23,9l-1.95-5.69h1.64l1.2,3.88h.02l1.2-3.88h1.55l-1.92,5.69h-1.74ZM7.36,4.93c.14-.37.34-.68.59-.95.26-.26.57-.46.92-.6.36-.14.76-.22,1.21-.22s.85.07,1.22.22c.36.14.67.34.93.6.26.26.45.58.59.95.14.37.21.78.21,1.24s-.07.87-.21,1.23c-.14.37-.34.68-.59.94-.26.26-.57.46-.93.6-.36.14-.77.21-1.22.21s-.85-.07-1.21-.21c-.36-.14-.67-.34-.92-.6-.26-.26-.45-.57-.59-.94-.14-.37-.21-.78-.21-1.23s.07-.87.21-1.24M8.77,6.83c.04.22.12.41.23.58.11.17.25.31.42.41s.4.15.66.15.49-.05.67-.15c.18-.1.32-.24.43-.41.11-.17.18-.37.23-.58.04-.22.07-.44.07-.66s-.02-.45-.07-.67c-.04-.22-.12-.41-.23-.58-.11-.17-.25-.31-.43-.41-.18-.11-.4-.16-.67-.16s-.48.05-.66.16c-.18.11-.32.24-.42.41-.11.17-.18.36-.23.58-.04.22-.07.44-.07.67s.02.45.07.66M6.04,9.42c-.06.29-.2.57-.4.82s-.5.47-.89.64c-.39.18-.91.26-1.56.26-.28,0-.56-.03-.85-.1-.29-.07-.55-.18-.79-.32-.24-.15-.44-.34-.59-.57-.16-.23-.25-.51-.27-.83h1.55c.07.29.22.5.43.61.21.11.46.17.74.17.44,0,.76-.13.96-.4.2-.26.3-.6.29-1v-.75h-.02c-.17.3-.41.52-.72.66-.31.14-.64.22-.99.22-.42,0-.79-.07-1.1-.23-.31-.15-.56-.36-.76-.62-.2-.26-.34-.56-.43-.91-.09-.35-.14-.72-.14-1.11,0-.37.05-.72.16-1.06.11-.34.26-.64.47-.9.2-.26.46-.47.77-.62.3-.15.65-.23,1.05-.23.37,0,.7.07.99.21.28.14.52.37.71.7h.02v-.76h1.48v5.32c0,.23-.03.49-.09.78M3.9,7.53c.17-.09.31-.2.42-.35.11-.15.19-.31.25-.5.06-.19.08-.38.08-.59,0-.23-.02-.46-.07-.66-.04-.21-.12-.39-.22-.56-.1-.16-.24-.29-.41-.39-.17-.1-.38-.14-.64-.14-.22,0-.41.04-.57.13-.16.09-.29.21-.4.36-.11.15-.18.32-.23.52-.05.19-.07.4-.07.61s.02.41.06.61c.04.2.11.38.21.54s.23.29.39.4c.16.1.36.15.6.15.22,0,.41-.04.58-.13"/>
  <text class="cls-3" transform="translate(0 17.78)"><tspan class="cls-25" x="0" y="0">M</tspan><tspan x="5.87" y="0">a</tspan><tspan class="cls-12" x="9.51" y="0">e </tspan><tspan class="cls-9" x="14.89" y="0">T</tspan><tspan class="cls-20" x="18.64" y="0"></tspan><tspan class="cls-15" x="21.83" y="0"></tspan><tspan class="cls-13" x="23.46" y="0">r </tspan><tspan class="cls-24" x="27.41" y="0">C</tspan><tspan class="cls-25" x="32.43" y="0">w</tspan><tspan class="cls-28" x="37.66" y="0">m</tspan><tspan class="cls-8" x="43.52" y="0">n</tspan><tspan x="47.29" y="0"></tspan><tspan class="cls-4" x="48.59" y="0">a</tspan><tspan class="cls-12" x="52.23" y="0">u</tspan><tspan class="cls-10" x="55.89" y="0"> </tspan><tspan class="cls-32" x="57.73" y="0">y</tspan><tspan class="cls-12" x="61.03" y="0">n </tspan><tspan class="cls-26" x="66.53" y="0">a</tspan><tspan class="cls-27" x="70.2" y="0">si</tspan><tspan class="cls-33" x="74.92" y="0">a</tspan><tspan class="cls-22" x="78.6" y="0">n</tspan><tspan x="82.34" y="0">ta</tspan><tspan class="cls-23" x="88.04" y="0">e</tspan><tspan class="cls-18" x="91.66" y="0">t</tspan><tspan class="cls-13" x="93.7" y="0">h</tspan><tspan class="cls-10" x="97.36" y="0"> </tspan><tspan class="cls-21" x="99.2" y="0">w</tspan><tspan class="cls-30" x="104.33" y="0">e</tspan><tspan class="cls-27" x="108.04" y="0">i</tspan><tspan class="cls-18" x="109.36" y="0">t</tspan><tspan class="cls-7" x="111.4" y="0">h</tspan><tspan class="cls-19" x="115.18" y="0">r</tspan><tspan class="cls-31" x="117.35" y="0">e</tspan><tspan class="cls-28" x="121.04" y="0">do</tspan><tspan class="cls-13" x="129" y="0">l </tspan><tspan class="cls-16" x="132.05" y="0">o</tspan><tspan class="cls-14" x="135.71" y="0"></tspan><tspan class="cls-13" x="137.34" y="0">r </tspan><tspan class="cls-17" x="141.29" y="0">A</tspan><tspan class="cls-6" x="145.67" y="0">d</tspan><tspan x="149.71" y="0">r</tspan><tspan class="cls-31" x="151.91" y="0">a</tspan><tspan class="cls-13" x="155.59" y="0">n </tspan><tspan class="cls-26" x="161.1" y="0">B</tspan><tspan class="cls-28" x="165.81" y="0">u</tspan><tspan class="cls-26" x="169.59" y="0">s</tspan><tspan class="cls-27" x="173" y="0">n</tspan><tspan class="cls-29" x="176.78" y="0">e</tspan><tspan class="cls-13" x="180.49" y="0">s a </tspan><tspan class="cls-25" x="190.99" y="0">M</tspan><tspan class="cls-26" x="196.86" y="0">as</tspan><tspan class="cls-5" x="203.93" y="0">n</tspan><tspan x="207.71" y="0">a</tspan><tspan class="cls-26" x="211.34" y="0">c</tspan><tspan class="cls-11" x="215.01" y="0">h</tspan><tspan x="218.68" y="0">.</tspan></text>
</svg>