<svg xmlns="http://www.w3.org/2000/svg" viewBox="0 0 306 135.2"><g data-name="Layer_1"><g data-name="Layer_2"><path fill="#cf102d" d="M0 0h4.2v124.1H0z"/><path d="M32.9 92.9H21.1v-4h28.3v4H37.6v31.4h-4.7zm19.1 7.4 5.2 14.2c.5 1.6 1.1 3.5 1.5 4.9h.1c.5-1.4.9-3.3 1.5-5l4.8-14.1h4.6l-6.5 17.1c-3.1 8.2-5.2 12.4-8.2 15-1.5 1.4-3.3 2.4-5.3 2.8l-1.1-3.7c1.4-.5 2.7-1.2 3.8-2.1 1.6-1.3 2.8-3 3.7-4.9.2-.3.3-.6.3-1s-.1-.8-.3-1.1l-8.9-22.1zm8.1-10.4 4.8 7.1h-3.4l-2.9-4.7h-.1L55.6 97h-3.2l4.7-7.1zm12.6-1h5.5v5.5c0 3.9-1.6 7.3-5.4 7.3v-2.5c2.2 0 2.9-2.5 2.9-4.8h-2.9zm9.5 9.8h4v5.4h.1c2-4.1 4.8-6.1 9.4-6v4.5c-6.8 0-9.3 3.9-9.3 10.3v11.4h-4.2zm54.9.9c-1-5-5-7.5-9.9-7.5-8.4 0-12 6.9-12 14.3 0 8.1 3.6 14.8 12 14.8 6.2 0 9.8-4.4 10.2-10.2h4.7c-.9 8.8-6.4 14.2-15.3 14.2-11 0-16.3-8.1-16.3-18.4s5.8-18.6 16.7-18.6c7.4 0 13.5 4 14.6 11.5zm34.8 24.6h-4.4l-5.2-20.3h-.1l-5.1 20.3h-4.6l-8.2-25.6h4.7l5.8 20.9h.1l5.1-20.9h4.6l5.4 20.9h.1l5.8-20.9h4.4zm11-25.5h4v3.8h.1c1.8-2.8 4.9-4.5 8.3-4.4 3.1 0 6 1.2 7 4.4 1.7-2.7 4.8-4.4 8-4.4 5.1 0 8.5 2.1 8.5 7.4v18.8h-4.2v-16.8c0-3.2-.8-5.7-5-5.7s-6.7 2.6-6.7 6.5v15.9h-4.2v-16.8c0-3.3-1-5.7-4.8-5.7-3.6 0-6.6 2.9-6.8 6.5v15.9h-4.2zm41 0h4v4h.1c1.6-3 4.9-4.8 8.3-4.7 6.7 0 8.8 3.9 8.8 9.4v16.8h-4.2v-17.3c.2-2.7-1.8-5-4.5-5.2h-.7c-5.1 0-7.6 3.4-7.6 8v14.5h-4.2zm21.5-8.9h4.5V95h-4.5zm4.8 34.4V98.7h4.2v25.6zm4.5-34.4h4.5V95h-4.4zm27.6 34.4c-.9.5-2 .7-3 .7-2.2 0-3.6-1.2-3.6-4-2.2 2.6-5.5 4.1-9 4-4.7 0-8.5-2.1-8.5-7.2 0-5.8 4.3-7 8.7-7.9 4.7-.9 8.6-.6 8.6-3.8 0-3.7-3-4.3-5.7-4.3-3.6 0-6.2 1.1-6.4 4.8h-4.2c.2-6.3 5.1-8.6 10.8-8.6 4.6 0 9.6 1 9.6 7v13.2c0 2 0 2.9 1.3 2.9.4 0 .9-.1 1.3-.2v3.4zm-6.9-13.2c-1.6 1.2-4.8 1.2-7.6 1.7s-5.1 1.5-5.1 4.6c0 2.8 2.4 3.8 5 3.8 5.5 0 7.8-3.5 7.8-5.8zm30.6 13.2h-4v-4.1c-1.6 3-4.9 4.8-8.3 4.7-6.7 0-8.8-3.9-8.8-9.3V98.7h4.2V116c-.2 2.7 1.8 5 4.5 5.2h.7c5.1 0 7.6-3.4 7.6-8V98.7h4.1z"/></g><path d="m89.87 39.53-.19-.02-.52-1.4c.24-.31.37-.81 0-1.06-.5-.2-1.93-1.82-2.34-.77-.18.06-1.31.13-1.39.34-.54-.86-1-1.76-1.33-2.76.22-1.17 3.31-2.63 3.31-2.63s-.88-1.27-1.23-1.97c-.16.35-.3.2-.64.35 1.73-3.05 2.08-7.08-.19-9.96-.23-.5-.13-1.17-.36-1.66-.4-.52-.67-1.55-1.37-1.66 0 .91-.1 1.8.34 2.64.47.59-.64 1.09-.98.62.66-.08.77-.21.54-.58-2.84-.64-4.43 1.36-7.14 1.68-.24 0-.45.08-.59.3-1.67 2.25 2.07.72 2.4 2.2-.63.52-.71.18-1.3.03-.85.03-1.67.3-.61 1.01-.64 1.01-.61 1.37-1.92 1.46.57.8.45 1.96.59 2.86-.93.18-1.57.63-1.59 1.62-.42.09-.87-.13-1.17.33-.59-.49-1.26-.58-1.96-.59-.34-.25-1.17-.85-2.06-1.31.18-.66.35-1.28.5-1.86.26-.17 1.2-.77 1.45-.92-.13-.25-.62-1.26-.76-1.53 1.68-5.77 2.21-6.08 3.06-6.21l.05-.16-3.1-.99-.05.2c.78.57 1.04 1.52.68 2.61-.83-.36-1.3-1.14-1.21-1.85-.02 0-.21-.06-.21-.06l-1.04 3.44s.15.05.17.05c.41-.59 1.12-.92 1.94-.78-.96 3.05-5.28 2.09-4.5-.49.55-1.07 1.6-.38 1.09.74 2.42-.85.99-4.33-1.08-2.25.69-1.41 1.08-2.5.21-3.86-1.12.72-1.4 2.01-1.19 3.74-1.37-3.12-3.75.09-1.82 1.73-.35-2.31 2.51-.79.57 1.08-1.85 1.31-4.12-.2-4.18-2.5 1.07.09 1.88.73 1.98 1.52h.2l.13-3.93h-.24c-.17.8-1.03 1.48-2.12 1.5.08-1.22.77-2.15 1.67-2.31v-.23h-4.54v.23c.9.16 1.6 1.1 1.67 2.31-1.1-.02-1.96-.7-2.12-1.5h-.24l.13 3.93h.2c.11-.79.93-1.43 1.98-1.52-.06 2.3-2.33 3.81-4.18 2.5-1.94-1.87.93-3.4.57-1.08 1.94-1.64-.45-4.85-1.82-1.73.21-1.73-.07-3.02-1.19-3.74-.86 1.36-.47 2.45.21 3.86-2.07-2.07-3.49 1.41-1.08 2.25-.5-1.12.54-1.81 1.09-.74.77 2.59-3.54 3.54-4.5.49.82-.14 1.54.19 1.94.78.02 0 .17-.05.17-.05l-1.04-3.44s-.19.05-.21.06c.09.7-.38 1.49-1.21 1.85-.36-1.11-.1-2.04.68-2.61l-.05-.2-3.1.99.05.16c.85.13 1.39.45 3.06 6.21l-.76 1.53c.24.15 1.19.76 1.45.92.15.53.3 1.09.46 1.69h.02s0 .03-.02 0c-4.17 1.95-3.22 3.27-6.43 2.89-.29.67-.56 1.32-1.21 1.78-.12-1.02-.58-1.81-1.17-2.52-.3-.35-.7.04-1.15.07-.87 1.9-1.48.18-3 1.18.06.89.2 1.77.68 2.58-1.14-.08-2.08-.39-2.83-.93-3.41 3.81-6.97 7.47-9.88 11.66-1.56 2.05-5.73.86-4.62-1.97.5-2.06 3.49-1.63 3.3.43 1.48-1.65.53-3.28-1.73-2.91 2.07-.9 3.31.8 5.19-1.54-1.43.04-2.63-.42-4.06-.09 1.8-1.08 4.27.52 5.82-2.45-1.34.14-2.55.71-3.94.91 8.32-7.93.32-8.32 1.34-11.75-.65.55-1.03 1.11-.73 1.85-1.87-.78-4.63-.55-5.38-2.81-.18 3.22 1.24 2.99 3.67 3.66-1.13-.13-2.23-.14-3.28-.53.22 1.45 1.32 1.76 2.6 1.62-1.27.7-.98 2.5.31 3.12-.82-4.67 6.16-3.06 2.97 1.22-1.48 2.2-3.62 3.85-5.43 5.78-.34-.59-.7-1.18-1.48-1.09 1.37 1.59-.18 3.3-.54 4.94-.53 2.01 1.26 3.74 3.16 3.97-.76.9-.82 1.71-.24 2.44.58-2.96 4.88-2.29 5.28-5.51.07-.38.25-.68.68-.85-1.94 2.19 2.72 6.83-1.66 7.37-.63.02-.78.68-.43 1.15-1.81-.09-2.3.6-2.58 2.3.8-.21 1.54-.4 2.28-.59-.79 2.06-2.57-.12-2.28 3.55.73-.35 1.42-.72 2.08-1.14.65 2.06-3.28 1.17-.33 4.46.19-.61.98-1.88 1.38-2.15-.36 1.04-.28 2.23.89 2.69.05-.28.1-.52.15-.77h.1c.17.69.19 1.64.86 2.03.22.09.34.21.41.44.12.38.48.49.82.53.43.09.54-.4.86-.6.09.54.73.63 1.05 1.09.24-2.67-3.31-1.71-2.49-3.47.32 1.08 1.32.84 2.02 1.29.27.45.94.82 1.28.2.33.25.63.47.92.69-.69-3.18-2.34-1.22-3.38-2.88.72.03 1.5 1.11 2.27.37.42.43.75.94 1.06 1.45.13-1.02-.25-1.8-1.05-2.35-.9-.55-2.12.43-2.89-.68-1.06-1.3-1.03-3.12-.48-4.63.5-1.16 1.91-1.59 2.55-2.68-.18.97-.09 2.65 1.01 2.96-.27-1.8 1.01-3.42 1.27-5.16.33-.44.35-.78.05-1.26-.55-.9-.7-1.96-1.3-2.85-.94-1.31-2.08-1.35-.18-2.72-1.16 1.8-.21 1.14.79 2.83.19-.57 1.04-1.32-.03-1.31-1.68-.83 2.18-2.96 3.05-3.02.86-.07 2.06.03 2.72-.82-.41-.78-.81-.89-.11-1.69-.47-.27-.89-.6-.97-1.22-.45.16-.84.29-1.31.45.42-.48 1.67-1.45 1.8-.37.03.6.63.71 1.09.86-.34.49-.9.99-.39 1.57.36.38.58 1.09 1.14 1.18.15-.56.29-1.1.44-1.65 1.23 1.28-1.23 1.99 2.13 3.14-.12-.69-.23-1.37-.14-2.07 1.62 1.36-.7 2.2 3.03 2.64-.42-.49-.51-1.04-.67-1.59.62.1 1.13.7 1.53 1.15.38.59.67.91 1.55.33.04.1.05.24.12.3.39.3.24.66.23 1.06h.11c.52-.52.56-1.13.39-1.78-.36-1.24-1.87-.25-2.39-1.52.71.49 1.42.77 2.2.36.44.41.62.71.83 1.3.36-1.33-.05-2.68-1.46-2.28-.44.16-.62.12-1.06-.26.65.23 1.09-.11 1.5-.41.09.12.14.25.2.25.4.02.65.26.9.55.13-1.14-1-2.05-2.13-1.77-.28 1.4-1.46.61-2.38.42-1.45-.85-2.19-2.46-3.47-3.51.13-1.57-1.18-2.81-2.74-2.72 1.41-.62 3.08.6 3.19 2.06.05.6.42.98.8 1.43 4.77-9.59 20.15-12.09 28.99-6 .75.69 1.57 1.26 2.35 1.97.31-.92.12-2 1.49-1.45l.26-.17c-.28-.78.3-1.65 1.11-1.71v.6c-.36.06-.63.4-.58.77.27-.06.52.3.37.54.26.15.62.09.81-.12.23 0 .45.03.68.06-.31.74-1.39.99-1.99.45.12.16-.41 1.8-.43 1.98-.06.24-.28.4-.52.38.1.16.18.29.27.44.39-.22.93-.2.88-.75.07-.31-.13-1.75.32-1.62.18.54-.16 1.17.24 1.71 1.28-.32.72-1.47 2.26-1.77.62-.06 1.91-.35 2.23.26-1.35-.36-3.09 0-3.39 1.56-1.41.33-2.58 1.34-4.08 1.34-1.19.07-1.51 1.5-1.56 2.47-.2 1.13-.26 2.28-.76 3.33-.25.4-.04.86.1 1.23.46.24.78 1.82.85 2.38 0 1.03 1.77 1.38 2.48 2.01.2-1.29-2.24-.93-1.91-2.72.44 1.2 1.39 1.44 2.42 2.02-.33-1.21-.42-3.22-2.1-2.96-.65-.91.3-.96 0-2.03.48.15.71.32.84.62-.15-.05-.28-.09-.49-.16.06.77.72.95 1.23 1.47-.09-1.25-.2-2.04-1.36-2.65-.66-.61.1-1.99.06-2.83-.02-.25 1.56-1.03 1.8-.96 1.17.15 2.39-.03 3.53.26 1.13.36.16-2.09 1.98-.81-1.33-.39-.52 1.06-1.48 1.13-.67 0-1.24-.06-1.93-.08 2.39 5.34 7.72 3.77 9.19 8.54 1.23-1.08.39-1.07.05-2.19 2.76 1.85-2.57 3.98-.57 7.21-.13-.36 1.13-1.88 1.27-2.18.23-.34.62-.36.87-.12l.4-.83c-.75-.41.6-2.15.7-2.65.14-.3.46-.44.71-.32l.37-1.04c-.7-.19-.18-1.9-.23-2.37-.99-.9-1.8-2.01-2.56-3.05l.47-.08c-.05.23.03.49.23.63.34.13 1.64 1.39 2.04 1.09l.2.56c-.33.09-.39.55-.39.86.18.15.36.29.54.44.02-.11 0-.62.11-.7.15.2.44.2.61.04.16.08-.04 1.19-.02 1.33.19.21.37.42.55.65-.07-.51.55-2.44-.31-2.53h.03ZM75.93 21.52c.18-.02.33-.04.53-.06-.35-.25 0-.6.28-.36.69.54-.7 1.42-.81.41Zm-27.71 5.05-1.46-.93.77-1.56 2.1.75-1.42 1.74Zm4.76-1.21c-2.28.46-2.76-2.04-.48-2.46 2.28-.46 2.76 2.04.48 2.46m5.16-.2-2.24-1.59 2.25-1.59 2.24 1.59zm7.16-.7c-.27 1.61-3.87.91-3.52-.68.27-1.61 3.87-.91 3.52.68m1.35.37 2.1-.75.77 1.56-1.46.93-1.42-1.74Zm17.31-7.37c.41.46.6.96.59 1.52-.4-.14-.57-.57-.59-1.52m-1.88 2.98c-.56.38-1.06.94-1.63.18-.13.03-.24.05-.37.08.84-1.3.77-1.08 1.99-.26Zm-4.65 4.71c.37.13.72.33 1.1-.04-.36 0-.47-.25-.58-.5-.18-1.23 1.83-.8 2.57-.71 1.89 1.15 5.08.42 3.97-2.3.87.54.57 2.02-.09 2.61-1.74.94-3.38.23-5.12 2.07-.27-.84-1.27-.8-1.63.13-.33.02-.42.02-.73.04-.06-.49.34-.84.5-1.3Zm6.55 8.06-.24.3c-1.45-1.66-6.32-3.54-8.43-3.23 0 0 .03-.24.04-.38h-.02l.8-.5-.69-.57c0-.08-.44-2.85-.44-2.85l1.21-.04s-.43.51-.45.91c.07.05.13.12.17.2.24-.1.5-.61.5-.61l.12 1.64s-.34-.47-.58-.56c-.02.06-.05.12-.09.16.35 1.09 1.94 1.16 1.95.22-.05-.49-.59-.41-.56.11-.87-.69.31-1.8.79-.69-.06-.64 0-1.01.49-1.32.33.42.28.81-.07 1.43 1.07-1 1.48.69.47.94.49-.89-.92-.61-.4.32.48.73 1.63.62 2.02-.17a.5.5 0 0 1-.06-.15c-.4-.08-1 .27-1 .27l.56-1.52s.23.65.57.85c.06-.06.14-.1.22-.12.06-.4-.34-1.03-.34-1.03l1.86.72s-.74.19-.97.52c.05.07.07.15.08.23.39.08 1.02-.24 1.02-.24l-.67 1.48s-.19-.65-.54-.86c-.05.03-.1.05-.15.07-.26.86.51 1.69 1.36 1.48 1.03-.31.21-1.48-.07-.5-.56-.86.94-1.8 1.01-.37.18-.69.43-1.01.96-1.09.14.56-.08.86-.58 1.29 1.15-.49 1.2 1.11.09 1.03.39-.36.05-.77-.33-.45-.67.69.58 1.69 1.55 1.19 0-.06.02-.12.04-.18-.24-.17-.81-.19-.81-.19l1.19-.88s-.14.53-.03.81c.09 0 .18 0 .26.03.26-.26.27-.95.27-.95l.89 1.11s-2.23 1.03-2.62 1.33l-.62-.06.31.87H84v.02Zm4.8 4.53a.393.393 0 0 0-.42.52c-.03 0-.05 0-.08-.03l-1.31-.89a.216.216 0 0 1-.06-.27c.25 0 .51-.14.48-.44.1.13 1.51.88 1.39 1.11"/><path d="M73.03 31.4a.36.36 0 0 1-.04-.42c-.16-.03-.42 1.44-.48 1.52.11.1.2.2.29.31.14.04.37.12.42-.08l.34-1.3c-.16.14-.41.15-.53-.03M53.4 68.12c-3.69-1.46-6.37 2.11-3.36 2.71-3.3.14-2.66-4.51-4.03-4.23 1.2 1.29 1.2 3.69 2.29 4.35 2.22.95 4.53 1.1 6.91.99-1.2-1.07-1.49-2.4-1.82-3.82Zm11.26 2.67c3-.6.34-4.18-3.36-2.71-.33 1.42-.62 2.76-1.82 3.82 2.37.11 4.69-.04 6.91-.99 1.1-.67 1.1-3.06 2.29-4.35-1.37-.28-.73 4.38-4.03 4.23Zm24.19-28.85c0 .07.02.14.07.18.17-.14.43-.08.55.09.19-.06.13-.65.17-.8-.22-.24-.45-.46-.69-.68l-.1 1.2Zm-.93 4.43c.02-.17.95-1.71.71-1.85a.4.4 0 0 1-.43-.22c-.23-.09-.82 1.58-.92 1.69.3-.18.67.12.57.46a.16.16 0 0 0 .07-.09Z"/><path d="M98.46 39.29c-.77.24-1.09.88-1.38 1.61-1.94-3.02-5.63-5.12-6.18-8.82.44-2.96 4.36-2.28 3.56.8 2.03-1.1 1.05-3.13-.87-3.49 2.08.17 3.22 1.93 4.64-1-1.23.45-3.11.13-3.75.03 2.59-.35 4-.33 3.92-3.55-.88 1.93-3.33 1.96-5.11 2.59.11-.86-.15-1.38-.84-1.66.71 4.71-8.22 3.17 1.59 13.32-1.21-.66-2.6-.44-3.77-1.18.91 2.44 2.44 2.02 4.45 2.87-2.15 0-2.82 2.08-1.23 3.09-.42-1.63 1.82-2.73 2.92-1.47 2.54 3.27-2.11 7.81-6.24-.38.03.45-.29.86-.73.72l-.47 1.3c.95.35-.51 2.17-.61 2.7-.16.35-.53.46-.81.26l-.46.95c.57.53-.97 2.01-1.14 2.47-.18.27-.5.36-.73.22l-.17.34.06.07c1.05 1.24 1.53 2.18 1.25 3.5.85-.73 1.23-2.74.55-3.84.77.8 1.88 1.38 2.31 2.39.44 1.86.1 3.7-1.16 5.17-.54.54-.39.82-.46 1.48-.36 1.05-1.61 1.14-2.08 2.02-.33.78-.88 1.42-1.12 2.22 1.43-.22 1.18-2.2 2.52-2.61-.55.83-1.08 1.59-1.45 2.55 1.13-.29 3.24-.6 2.89-2.18-.27-.73.44-1.22.41-1.92.89-.32.69-.68 1.11-1.38.2.42.21.78.18 1.23-.11-.23-.18-.37-.26-.53-.63.86-.1 1.69-.19 2.6 3.1-2.78-1.02-2.76 2.2-8.92.74-1.23-2.1-1.09-2.31-3.86-.2-1.2.85-2.17 1.08-3.32 1.24 2.2 5.58 2.13 4.98 4.95.87-.66.84-1.87.49-2.76 4.47-1.61.94-5.72 2.38-8.64v.04Z"/><path d="M85.16 49.87c.1.04.19.11.22.22.07 0 .15-.03.2-.1.03-.11 1.14-1.55 1.01-1.65-.12-.04-.24-.12-.27-.25-.1-.1-.26-.15-.36 0-.04.18-1.27 1.57-.96 1.75.05 0 .1 0 .15.03Zm-.64.29.06.09.02-.04zm-43.25 6.26c.45.08.95.17 1.38-.03-.68-1.15-1.34-2.27-2.02-3.45-1.2 1.48-3.28.58-4.6-.33-1.07-.79 1.24-2.01.5-4.63 1.03 1.66-.84 3.08 2.03 4.01-.83-1.24-.72-2.83-1.03-4.25-.04-.24-.16-.49.04-.73.1-.34.12-.8-.34-.85-3.21-1.85-2.56-.95-5.7-1.38-.77 1.36.87 2.56.61 3.89-.23.65.76.62.75 1.26.22.99.11 2.37-1.02 2.75-.56.34-.11 1.06.38 1.22-1 1.8-.23 2.08 1.29 2.98 0-.69.02-1.3.31-1.89 2.1 1.4-1.03 1.63 3.14 3.32-.42-.7-.41-1.46-.48-2.15.39.09.78.18 1.17.28.45 1.93 1.5 2.09 3.33 1.93-.66-.66-.85-1.51-1.33-2.18.56.19 1.11-.19 1.58.24Zm37.54-10.75c-.57.09-.7.33-.6.89-.64 1.38-.65 3.04-1.74 4.2 2.33-.66 1.82-1.55 2.38-3.32-.12 2.4 0 2.37.88 4.03-1.81 1.27-4.75.2-5.74 2.66.28.32.63 0 1 .08-.24.28-.33.62-.71.87.08-.24.13-.39.18-.53-.68-.23-1.23 1.32-1.74 1.82 4.81-.97-.58-2.38 8.9-3.48 1.68-.79-1.59-2.02 1.71-4.11.29-1.14.47-2.31 1.09-3.34.15-.34-.09-.81-.4-1.05-1.45 1.02-2.12-.62-5.25 1.3h.03ZM30.25 25.9c.02-.32.04-.63.06-.97-.36-.06-.7-.12-1.07-.19.44-.33.97-.41 1.4-.24-.37 1.56.29 2.64 1.95 2.73.51-.76.96-.87 1.46-.34-2.19-.23-.57 2.09.56 1.31.3-.43 1.25-.81.97-1.42-1.74-1.27-1.62.61-1.95-2.53-.07 0-.15 0-.22-.02-.16.6-.75 1.06-1.23.5-.17-.19-.31-.36-.59-.41 1.19-.95 2.6.42 2.52-1.82 1.33 1.67 1.45-.18 2.75-.21-.06 1.32-.33 1.22-1.47 1.14.37.28 1.79 1.7.96 1.83-.35-.89-.93-1.75-1.91-1.92-.79.79-.4 1.68-.28 2.58.7-.24 1.3-.69 2.04-.64.25.73-.92 1.13-.26 1.85 1.13.18 2.36.19 1.99-1.42-.37-.22-.74-.37-1.12.03.02-.62.63-.73 1.11-.61 1.05-1.12.7-2.58-.43-3.47.3-.44.61-.74 1.15-.85-.18.38-.57.52-.65.86.25.31.48.59.71.88.6-.27.76-1.21.33-2.17-.74.19-2.04.81-2.04.81-.64-.24-.37.07-.27.38-2.04.38-4.05.91-5.68 2.26-.29.21-.43.08-.52-.33-.19-.3-.28.22-.31.34 0 0-1.23.3-1.77.76.38.63.91 1.61 1.76 1.28l.03.02Z"/><path d="M38.27 25.28c.19.93-.07 1.7-.68 2.42.91 1.63 2.44 2.85 3.13 4.62 1.52-2.83-.1-3.79-2.19-5.34 1.34.48 2.69.94 3.43 2.21.16-2.43-.92-3.64-3.28-4.02 0-.03 0-.07.02-.1.99-.05 1.96-.04 2.88.56-.24-.76-.86-1.87-1.75-1.78.32-.67.32-1.12 0-1.52-.15.47-.45.76-.93.78.1.84-.17 1.55-.63 2.16Zm-7.51 5.54c.28.68.7 1.47 1.39 1.76-.36-1.34.55-2.5.97-3.72 0 2.79-1.58 4.31 2.25 5.34-1.02-1.65-.35-3.64-.99-5.33-.62-.35-1.31-.44-1.73-.96-.11-.24-.32-.33-.55-.38-.72-.16-1.39-.4-1.75-1-.53.17-.85.15-1.33-.06-.04.6.47 1.2 1.14.97-.54.78-.24 1.49-.04 2.28.38-.81.97-1.29 1.63-1.7-.5.86-1.4 1.72-.99 2.79Zm15.37 28.51c.52-.48-.19-.76-.46-1.14-4.62-4.3-6.34-9.88-5.93-16.1-.11-.06-.25-.13-.48-.24-.78 6.58 1.77 13.23 6.88 17.47Zm41.25-35.77c-.44.85.83 1.2.85 1.99-.34-.27-.62-.49-.94-.75-.4 1.57 1.45 2.07 2.01 3.3.75-2.28.34-3.67-1.93-4.56ZM36.62 30.3c-1.23.07-1.05-1.47-1.41-2.32-.22.25-.41.46-.61.69.25.86.51 1.72.78 2.62.21-.15.38-.27.56-.4.86.61 1.64.19 1.92-.76.25.06.49.17.67 0-.4-.83-.79-1.63-1.18-2.43-.25.05-.48-.3-.77-.02.27.76 1.29 2.28.04 2.64Zm50.53-10.57s0 .07-.02.1l-1.17-.06c.43 1.39 2.03.72 3.05 1.35-.58-1.11-1-2.19-2.35-2.4.14-.66-.03-1.29-.44-1.53 0 .58-.23 1-.76 1.22-.26 1.15.94 1.09 1.7 1.34Zm-.35 7.97-.1.02c-.28 1.23.57 2.29 1.11 3.34.92-1.65.89-3.51-.59-4.81-.45.87.18 1.71.4 2.53-.03 0-.06.02-.09.04zm-.34-6.9c.53 1.26 1.38.96 1.93 1.78-.46-.15-.87-.28-1.27-.42-.03 1.34 1.66 1.48 2.59 1.99-.15-2.16-1.2-2.98-3.24-3.35Zm-4.85-2.26c.58 0 1.41.37 1.88.04 0-1.83-2.21-1.59-3.48-1.63.38.69.86 1.36 1.61 1.59Zm-6.34 26.02c-.48-.04-.92-.07-1.44-.11.02.26.03.45.05.65.29.07.54.13.8.2.08 1.51-.75 1.53-1.87.9-.33 1.91 2.74 1.72 2.46-1.64m-1.05-6.08c-1.7 2.07-1.72 2.37.88 3.27-.02-.24-.04-.39-.06-.57-.51-.15-1-.34-1.46-.64.33-.4.63-.78.95-1.17-.09-.27-.19-.54-.31-.9Zm-7.91-7.57c.28-.02.53-.04.78-.06.27-1.02-.3-1.13-1-1.67-.28.84-1.02 1.25-1.45 1.96.68-.05 1.07-.27 1.47-.8.07.2.13.38.2.57m3.91 4.6c.25-.67 1.52-2.31.83-2.82-.32.19-.98.11-.92.61v2.19l.09.03Zm12.69-18.7.08-.11c-.72-1.03-1.03-1.24-2.29-1.24.02 1.24 1.31 1.25 2.21 1.35m-3.23-3.06c-.05.88.69 1.38 1.91 1.32-.32-.89-.95-1.37-1.91-1.32m-2.85 9.1c-.99-.46-1.8.13-2.79-.09.28 1.39 1.93.38 2.79.09m1.88-10.49c.26.88.6 1.07 1.51.94-.29-.73-.76-1.02-1.51-.94m.49-.46c-.35-.75-.54-.85-1.28-.77.31.75.75 1.02 1.28.77m-4.54 24.44c.24.4.47.81.7 1.2.92 0 .14-.76-.07-1.09-.12-.13-.37-.13-.57-.19-.02.03-.04.05-.06.08m-2.62 1.05c.47-.27.95-.48 1.37-.81-.1-.14-.17-.24-.28-.4-.4.4-1.35.52-1.09 1.21m6.06-26.71c.13-.48-.55-1.12-1.04-.92.07.53.62.99 1.04.92m-45.77 8.17c.25-.24-.13-.62-.37-.38-.25.24.13.63.37.38m.33.7c.25-.24-.13-.62-.37-.38-.25.24.13.63.37.38"/><path d="m30.92 16.4-.6.05.32.79.43-.5s.05.03.08.03l.06 1.06c.11.93 1.52.36.96-.39l-.68-.81s.03-.05.03-.08l.65.07-.32-.79-.47.38s-.05-.03-.08-.03l-.05-.77c-.19.08-.58.23-.78.31l.49.59s-.02.05-.03.08Zm-1.73 4.12c.39 0 .4-.6 0-.6s-.4.6 0 .6m-.06.79c.39 0 .4-.6 0-.6s-.4.6 0 .6m1.26-2.67c.39 0 .4-.6 0-.6s-.4.6 0 .6m-.95 1.18c.39 0 .4-.6 0-.6s-.4.6 0 .6m3.64.74c-.02-.3.2-.89.2-.89l-1.23.49s.57.28.76.51c-.26.09-.51.14-.87-.03l.48.95c.1-.42.32-.67.48-.7.52.8-.77 1.67-1.33.99-.16-.28.03-.59.36-.36-.05-.59-.56-.59-.72-.15 0-.61-.14-.97-.77-1.15-.16.6.04.97.64 1.23-.34-.04-.72.29-.25.72 0-.38.32-.42.5-.17.27.71-.55.98-1.24.26.15-.06.31-.03.53.02l-.65-.82c.03.29 0 .5-.05.63-.14-.16-.18-.3-.24-.62l-.49.43c.47.3 1 .76 1.65 1.69.86-.85 4.32-2.29 5.67-2.25-.16-1.12-.1-1.83.04-2.36l-.66.02c.17.27.24.4.25.62-.13-.06-.29-.19-.46-.42l.09 1.04c.12-.18.22-.31.37-.38 0 .99-.79 1.36-1.08.66-.05-.31.21-.49.47-.22.05-.63-.45-.62-.67-.35.26-.6.16-1.01-.38-1.33-.34.57-.2.94.23 1.37-.41-.21-.79.14-.42.6.08-.4.43-.31.51 0 .06.88-1.48 1.12-1.64.19.14-.09.47-.06.84.18l-.31-1.02c-.15.37-.36.51-.61.62m16.24 32.21c.46.27.98.57 1.46.84-1.16 1.41.92 2.01.81.64.78.33 3.83 1.27 2.6-.55-4 .13-6.04-4.07-3.83-7.28 1.35.62 6.07-1.69 5.69.66.25.26.32.29.88.28 1.37-3.14-3.34-2.2-5.04-1.84-1.51.45-2.89-1.76-4.23-.55-.53.47-.19 1.52.54 1.55.64.02.82-.86.25-1.14 1.25-.42.65 1.58.2 2.08-1.43-.74-1.66 1.56-.25.96.06.41.08.82-.02 1.21-1.54-.33-1.13 1.88.02.99.33.32.49.81.53 1.28-1.55.22-.31 2.2.41.88Z"/><path d="M53.79 55.18c-.06-.02-.13-.04-.22-.07-.11.29-.27.82-.02 1l1.3.56 1.67-1.24.45-6.68-.49.04c-.13 0-1.04 7.72-1.52 7.27.1-.51 1.21-7.27 1.21-7.27s-.33-.05-.49-.07c-.03.16-.06.36-.06.36l-1.84-2.41-.24.11 1.96 2.59-.13.46c-.18-.12-2.08-2.75-2.27-3l-.39-.03 2.56 3.34-.14.45-2.87-3.77h-.37L55 50.91l-.16.59-3.41-4.64h-.45l3.77 5-.14.46-4.17-5.45-.07.42s3.88 5.1 4.12 5.44c-.2.63-.05.68.23 1.2.15.58-.25 1.49-.94 1.28Z"/><path d="m54.18 53.05-3.99-5.29s-.08.25-.11.36c.3.39 3.82 5.07 3.82 5.07zm-3.99-3.5c.92 1.17 1.83 2.35 2.72 3.54.13.02.38.07.38.07l-3.25-4.32s-.06.44.15.71m6.95-1.96c-.44-.04-.91-.12-1.34-.17-.84.73.1 1.15.73 1.09.54.14 1.26-.57.61-.93ZM57 66.45c-.13.6.81.79.92.19.13-.6-.81-.79-.92-.19m.85-3.58c.16-.74-1.01-.98-1.15-.23-.16.74 1.01.98 1.15.23m-3.98-1.98c.16-.74-1.01-.98-1.15-.23-.16.74 1.01.98 1.15.23m6.4 7.24C59.8 70.8 58.52 72 57.39 72s-2.4-1.21-2.88-3.87c.15.13.28.31.45.52l.25.33.35-.22c.15-.09.29-.17.43-.22-.15.31-.2.67-.13 1.06.15.8.79 1.37 1.55 1.37s1.39-.57 1.55-1.37c.07-.38.02-.75-.13-1.06.13.05.28.13.43.22l.35.22.25-.33c.16-.21.3-.39.45-.52m.51-.72c-.67.07-1.01.52-1.36.98-.31-.19-.72-.39-1.11-.39-.21 0-.4.06-.58.2 1.22.48.78 2.31-.4 2.32-1.18 0-1.62-1.85-.4-2.32a.9.9 0 0 0-.58-.2c-.38 0-.79.19-1.11.39-.35-.46-.7-.91-1.36-.98.36 3.36 1.9 5.05 3.43 5.05s3.07-1.69 3.43-5.05h.02Zm-10.97-8.82c.51-.61-1.28-1.41-1.54-1.76-.21-.13-.48-.1-.62.09-.51.58 1.25 1.4 1.49 1.72.22.17.52.14.67-.05"/><path d="M49.62 59.88c1.97 0 1.72-3.11-.23-2.78.9.49 1.69 1.78.28 2.14-.53.11-1.07-.46-1.46-.74 0 .76.64 1.38 1.4 1.38Z"/><path d="M46.82 60.4c.43.83 2.96 3.06 3.66 2-1.24-.63-3.33-2.17-2.53-4.13-1.82-1.12-.21-2.9 1.21-1.39 1.51-.94 3.18-.27 4.68.77.54-1.16-2.06-1.96-2.66-2.29-.77-.26-3.17.29-3.98.33-.55.07-.94.56-.9 1.11.12.59.1 3.13.54 3.6Zm22.32-44.12 1.12.36c-1.78-3.73-5.02-6.53-8.92-7.54-.1.26-.18.54-.26.84 3.43.86 6.32 3.2 8.06 6.34m-23.12.35 1.12-.36c1.74-3.15 4.63-5.49 8.06-6.34-.08-.3-.17-.58-.26-.84-3.91 1.01-7.15 3.81-8.92 7.54m20.56-6.03c.8 0 .8-1.25 0-1.24-.8 0-.8 1.25 0 1.24m-2.83-1.62c.8 0 .8-1.25 0-1.24-.8 0-.8 1.25 0 1.24m-1.53-.54c.8 0 .8-1.25 0-1.24-.8 0-.8 1.25 0 1.24m2.99 1.27c.8 0 .8-1.25 0-1.24-.8 0-.8 1.25 0 1.24m2.63 1.92c.8 0 .8-1.25 0-1.24-.8 0-.8 1.25 0 1.24m3.2 4.64c0 .8 1.25.8 1.24 0 0-.8-1.25-.8-1.24 0m-.73-1.45c0 .8 1.25.8 1.24 0 0-.8-1.25-.8-1.24 0M69 12.78c.8 0 .8-1.25 0-1.24-.8 0-.8 1.25 0 1.24m.41.66c0 .8 1.25.8 1.24 0 0-.8-1.25-.8-1.24 0M49.7 10.6c.8 0 .8-1.25 0-1.24-.8 0-.8 1.25 0 1.24m-1.27 1.03c.8 0 .8-1.25 0-1.24-.8 0-.8 1.25 0 1.24m-3.82 5.25c.8 0 .8-1.25 0-1.24-.8 0-.8 1.25 0 1.24m6.46-7.17c.8 0 .8-1.25 0-1.24-.8 0-.8 1.25 0 1.24m-4.81 4.35c.8 0 .8-1.25 0-1.24-.8 0-.8 1.25 0 1.24m-.9 1.38c.8 0 .8-1.25 0-1.24-.8 0-.8 1.25 0 1.24m8.71-7c.8 0 .8-1.25 0-1.24-.8 0-.8 1.25 0 1.24m-6.79 4.34c.8 0 .8-1.25 0-1.24-.8 0-.8 1.25 0 1.24m5.25-3.8c.8 0 .8-1.25 0-1.24-.8 0-.8 1.25 0 1.24m6.67 5.74h.83c0-2.6.38-4.86 1.06-6.35.23-.48-.53-.83-.75-.34-.98 2.15-1.13 5.11-1.13 6.69Zm-2.95 0h.83c0-1.59-.15-4.54-1.13-6.69-.22-.49-.98-.14-.75.34.68 1.49 1.06 3.74 1.06 6.35Zm1.89-.01c.87 0 .87-1.35 0-1.34-.87 0-.87 1.35 0 1.34m0-1.68c.87 0 .87-1.35 0-1.34-.87 0-.87 1.35 0 1.34m0-1.67c.87 0 .87-1.35 0-1.34-.87 0-.87 1.35 0 1.34m-.47-1.64c.28-.15.67-.15.95 0 .96-1.48-1.91-1.48-.95 0"/><path d="M58.68 8.32c.75-1.39-1.81-1.39-1.07 0 .31-.19.76-.19 1.07 0"/><path d="M57.74 2.69c-.11.86-.56 1.52-1.12 1.62v.22h1.09s-.1.08-.14.13c-1.94.43-2.13 3.38-.29 4.08-.72-.7-.17-2.03.85-2 1.02-.03 1.58 1.31.85 2 1.85-.7 1.65-3.65-.29-4.08-.04-.05-.08-.1-.14-.13h1.09v-.22c-.56-.1-1.01-.77-1.12-1.62.86.11 1.52.56 1.62 1.12h.22V.77h-.22c-.1.56-.77 1.01-1.62 1.12.11-.86.56-1.52 1.12-1.62V.05h-3.03v.22c.56.1 1.01.77 1.12 1.62-.86-.11-1.52-.56-1.62-1.12h-.22V3.8h.22c.1-.56.77-1.01 1.62-1.12h.02Zm26.77 47.47c-.07-.12-.14-.23-.19-.35.02.14.08.27.19.35M84 51.44c-.86-.54-1.34 1.84-1.66 2.24-.15.35-.02.72.3.84l-.63 1.32c-.34-.06-.64.2-.64.6.13.51-.38 2.73.52 2.76v.62c-2.17.39-1.86 3.82.39 3.77 2.22.06 2.57-3.34.41-3.76v-.59c.34.06.64-.2.64-.6-.12-.5.34-2.63-.45-2.75l.48-1c.82.45 1.3-1.88 1.61-2.26.14-.33.03-.69-.25-.81l.37-.76c-.1-.13-.31-.45-.51-.78l-.57 1.19v-.03Zm-.41 10.22c-.53 3.05-4.46.03-1.65-1.26.13.3.58.31.71 0 .54.16.94.66.94 1.26m-.89-3.12c.06-.44-.51-.68-.74-.31.06-.17-.16-1.83.15-1.83.13.09.3.11.44 0 .09.02.17.11.17.22v1.8s0 .07-.02.1zm1.66-6.06c-.09.11-.7 1.85-.91 1.78-.08-.14-.27-.23-.43-.18-.09-.05-.13-.17-.08-.29.12-.12.68-1.9.95-1.77.07.17.28.27.45.23.05.06.06.15.02.24ZM40.34 47.6l.19.74 3.4-.42-.17-.67c-.17-.04-2.29.36-2.29.36s2.01-2.35 1.96-2.63l-3.43.39.07.59c.17-.02 2.02-.28 2.02-.28s-1.68 1.9-1.76 1.94Zm1.21 4.36c1.65 1.58 4.24-.95 2.53-2.56-1.65-1.6-4.28.95-2.53 2.56m.2-1.76c.72-1.31 3.12-.53 2.13.96-.75 1.27-3.11.55-2.13-.96m2.09 5.48.58.8c.61-.75 1.87-1.66 2.77-2l-.58-.8c-.22.37-.71.72-1.1.99l-.88-1.22c.37-.28.87-.64 1.28-.73l-.58-.8c-.61.75-1.87 1.66-2.77 2l.58.8c.22-.36.71-.72 1.09-.99l.88 1.22c-.37.28-.86.63-1.28.73Zm-.33-11.87.05-.73c-.97.18-2.54.18-3.51 0l-.05.73c.97-.18 2.54-.18 3.51 0m24.71 14.7c2.08-.91 1.62-2.98-.73-2.03-.99-.28.26-1.29.92-1.06h.02l-.5-.6c-.74.32-1.92 1.32-1.29 2.16.44.56 1.32-.04 1.89-.03.96.17-.07 1.17-.66 1.11m6.07-6.78.59-2c-.3.02-3-.77-3.24-.95l-.56 1.91.57.48c-.04-.45.02-.94.18-1.49l1.03.3c-.1.3-.28.98-.42 1.16l.51.08.33-1.11.98.29c-.12.37-.28.66-.49.87l.53.48Zm-1.37 2.67.32-.62-2.66-1.79-.29.56c.1.13 1.85 1.16 1.85 1.16s-2.87.38-3 .6l2.66 1.83.31-.45c-.13-.09-1.61-1.04-1.61-1.04s2.35-.27 2.42-.25m-7.37 6.54 1.86-1.08c-.24-.18-1.69-2.54-1.74-2.83l-1.77 1.02.08.72c.28-.35.67-.67 1.18-.96l.55.9c-.29.15-.9.53-1.13.56l.33.4 1.03-.6.53.86c-.35.19-.67.29-.97.31zM44.49 37.02c-.56-.44-1.27.35-1.83.47-.97.06-.2-1.15.38-1.23v-.02l-.46-.34c-.88.45-1.54 2.34-.13 2.38.3 0 1.07-.52 1.32-.58.67-.12.45.77.06.98.2 0 .4-.04.59 0 .37-.52.61-1.28.07-1.69v.02Zm.69-1.01c-1.55-.1-1.88-2.77 0-2.37v-.65c-2.42-.15-2.39 3.71 0 3.62zm3.84-4.74h1.07l-.73-1.17c.37-.22 1.16-.54 1.52-.51l-.84-.64-2.58 1.55.3.99c.21-.41.53-.74.87-.93.08.14.22.4.4.71Zm7.55-.45v.02c-.51.42-1.17.25-1.72-.05-1.61.9-3.34-1.22-2.05-2.57 1.36-1.62 4.05.22 2.75 2q.645.495 1.02.6m-1.97-.51c1.3-.51.17-2.5-.98-2.03-1.28.49-.18 2.5.98 2.03m2.45-.92c0-.56.07-1.54-.17-2h1.15c-.18.52-.52 2.88.47 2.76.39 0 .77-.26.76-.67-.02-.57.07-1.61-.17-2.09h1.15c-.27.89-.27 2.45 0 3.34h-.98q.03-.105.03-.33c-1 .71-2.33.35-2.24-1.01m4.87 1.65c.2-.83.49-2.22.95-2.92l-.89-.3c0 .89-.47 2.26-.77 3.11.23.03.46.07.71.12Zm5.44 11.15h.57v-9.06h-8.37v9.06zm-7.52-4.13v.09c.02-.17.29-.05.15.07l.04.04c.28.03.32-.38.04-.4l.33-.15v-.1l-.33-.15c.28-.03.24-.44-.04-.41l-.04.04c.14.12-.14.24-.15.07v.1-3.6h.29v-.27h3.1c.17.03.03.27-.08.14l-.04.04c-.03.27.43.29.43.02l.16.33h.11l.16-.33c0 .27.46.25.43-.02l-.05-.04c-.11.12-.26-.11-.08-.14h3.1v.27h.29c-.03-.06.11 4.42-.15 3.43l-.04-.04c-.27-.03-.31.38-.04.4l-.34.16v.1l.34.15c-.28.02-.24.44.04.41l.04-.04c.26-1.02.12 3.56.15 3.43h-.29v.27h-3.1c-.18-.02-.04-.27.08-.14l.04-.04c.03-.27-.41-.29-.43-.03l-.16-.32h-.11l-.16.32c0-.26-.45-.24-.42.03l.04.04c.12-.13.26.12.08.14h-3.09v-.27h-.29v-3.59Z"/><path d="M69.17 42.54c0-.19-.21-.33-.39-.26v.04c-.33 1.5-.17-4.65-.2-4.43l.3.13v-.72l-.3.12v-4.53c.04-.23.4-.03.2.11v.04c.42.13.54-.54.09-.54l.28-.48-.07-.06s-.5.28-.5.27c0-.42-.71-.31-.58.09h.04c.15-.18.37.14.12.19h-4.18l.13-.28h-.76l.13.28H59.3c-.25-.04-.04-.38.12-.19h.04c.14-.4-.57-.51-.57-.09 0 0-.5-.27-.51-.27l-.07.06.28.48c-.45 0-.32.68.09.54V33c.33-1.49.17 4.63.2 4.42l-.3-.12v.72l.3-.12c-.03-.11.13 5.89-.2 4.43v-.04c-.42-.13-.54.54-.09.54l-.28.48.07.06s.5-.28.51-.27c0 .42.71.31.57-.09h-.04c-.07.1-.24.05-.23-.07 0-.06.05-.11.11-.12h4.19l-.13.29h.76l-.13-.29h4.18c.06 0 .11.06.11.12 0 .12-.17.17-.23.07h-.04c-.13.4.57.5.58.09l.5.27.07-.06-.28-.48c.16 0 .29-.12.29-.28Zm-5.06-9.76h4.19v9.76h-9.1v-9.76zM29.64 21l.2-.17c.08-.84.47-1.58 1.11-2.03-.04-.06-.09-.12-.13-.17-.73.53-1.15 1.41-1.19 2.37Zm1.95-1.17.19-.06c-.13-.36-.41-1.02-.81-1.42-.09-.09-.24.04-.15.14.28.28.56.76.77 1.35Zm-1.74-.66c.39 0 .4-.6 0-.6s-.4.6 0 .6m5.7-1.3c-.27.29-.71-.14-.43-.42.26-.28.71.14.43.42m.6.51c-.27.29-.71-.14-.43-.42.26-.28.71.14.43.42m-2.78-.98c-.27.29-.71-.14-.43-.42.26-.28.71.14.43.42m1.5.15c-.27.29-.71-.14-.43-.42.26-.28.71.14.43.42m.71.97-.26.03c-.65-.53-1.46-.77-2.23-.64 0-.07-.02-.14-.03-.21.89-.15 1.81.16 2.52.82m-2.26.58-.18.09c-.16-.34-.44-1-.45-1.58 0-.13.2-.14.2 0 0 .4.16.93.43 1.5Zm.81-1.72c-.27.29-.71-.14-.43-.42.26-.28.71.14.43.42m32.23 32.19c.87-.02 2.88-.97 1.42-1.76-.82-.14-1.64.26-2.42.45-3.17 1.26-1.32-.28-3.28-.11.67 1.69 2.34.82 3.6.42.04.18-.19.23-.16.42.42-.09.83-.17 1.23-.25.17-.83 1.68-.84.99 0-1.74.76-3.79.62-5.61 1.14-1.22 3.18-3.33 1.02-3.31 1.93-.48.04-.47.5.02.46 0 .93 2.35-.15 2.78-.43.1-.22.2-.43.3-.64.71.35 1.22-.68 1.84-.86.62-.12 1.42-.73 1.95-.17.59.65 1.46-.34 1.97.31-.19.5.06.28.15.6 0 .28.46.28.47 0 0-.12 0-.2.14-.25.26-.4-.29-.84-.49-1.17-.43-.41-1.14.37-1.57-.06v-.03Z"/><path d="M58.51 48.16c.14.05.09.22.15.3.75.05 1.5-.15 2.25-.24.56 0 .54-.5.96-.57 1 .05 1.62-.83 2.55-.97.75-.21 1.77-.49 2.43.04.16.18.39.21.63.17.32-.06.7-.12.87.25-.05.06-.11.11-.18.19.03.07.07.15.11.23.16 0 .18.12.24.22.08.14.28.14.32 0 .04-.18.22-.09.28-.24.03-.46-.07-1.03-.53-1.26-.23-.21-1.12.22-1.15-.22.67.15 1.95-.72 1.07-1.28-1.49-.35-3.12.37-4.63.54-.59.13-.3-.84-1.61-.58.85 1.76 2.66.52 4.08.5 0 .16-.27.15-.2.35.41-.13 1.11.09 1.35-.32.13-.5 1.18-.38.87.2-.79.51-1.96.27-2.89.38-1.14.1-2.37.12-3.44.52-.21.66-.5 1.34-1.26 1.5-.53-.52-1.31.09-1.88-.43-.19.04-.22.15-.3.29-.28.11-.38.27-.09.45zm8.36 4.63c-1.49-.19-1.26.83-1.99.59.13-.16.5-.25.38-.5-1.09.48-2.23.82-3.32 1.31-.55.59-.37 1.76-1.62 1.87-.04.61-.9 1.02-1.43.75-.21.2-.12.25-.09.44-.18.16-.43.54-.04.54.12-.03.22-.21.34-.15 0 .08-.02.16-.03.25.1 0 .24.03.28 0 .17-.22.42-.04.61-.21.64-.43 1.56-.83 1.51-1.72 1.13-.5 1.79-2.32 3.25-1.68.73.39.93-.79 1.58-.81.19.43.27.4.51.25.41.31.34-.18.5-.41.02-.23-.21-.49-.44-.49v-.02Z"/><path d="M60.15 45.64c-.24.68 0 1.58.64 1.95.72-.32 1.18-1.26.93-2.04.17-.14.38-.22.32-.46-.11-.27-.54-.07-.65-.39-.27-.37-.63-.07-.85.18-.17.02-.33-.06-.48 0-.16.29.28.46.1.76Zm-.18 9.46c.7 1.68 1.75-.46 1.49-1.36.48-.4.35-.63-.23-.67-.21-.44-.65-.49-.96-.11-.11.13-.27.09-.41.1-.3.14-.13.47.13.54-.14.51-.22 1.01-.02 1.51Zm1.92-6.21c-.14-.08-.31-.08-.46-.07-.25-.65-.7-.41-1.06-.02-.54-.22-.46.27-.17.54-.27.66-.08 1.65.62 1.93.74-.31.95-1.21.9-1.94.23-.04.42-.3.17-.44m5.32 2.19c-1.33-.45-3.42 2.44-4.3 1.6-.22-.47-.88-.42-1.29-.29.5.36.77 1.15 1.53.9.86-.17 1.53-.86 2.26-1.18.02.25-.23.36-.34.59.51-.16.97-.3 1.34-.63-.06-1.4 1.94-.42.02.44.34 0 .58.16.81-.12.44-.39.47-.96-.03-1.32Zm-3.02 3.24c-.39.1-.78.13-1.02.53.1.13.19.26.29.39-.19.48-.67.4-1.12.42.04.15.06.24.09.34-.19.1-.27.27-.23.51.05.02.11.04.17.06.13-.16.35-.32.41-.02.82-.27 1.55-.77 1.94-1.53-.23-.18-.43-.39-.53-.7"/><path d="M63.11 51.44c-.17 0-.21.22-.09.33.12.13.23 0 .37.03v.19c.71.04 1.8-.6 2.17-1.17-.15-.24-.3-.46-.44-.69-.39.13-.83.12-1.06.47.14.15.26.28.4.42-.26.15-.57.39-.85.16-.12-.11-.44-.06-.36.15v.11c-.05 0-.09 0-.13.02l-.02-.02Zm-3.03 4.35c-.27-.52-.68-.99-.88-1.53.24-.33.13-.76-.31-.49-.11-.22-.28-.27-.48-.21-.06.14-.09.28.06.39v.07s-.1.03-.14.05c-.11.28.17.45.27.67.31.49.76 1.67 1.48 1.05m0-8.5c-.04-.72-.87-1.17-.62-1.89.07-.13.04-.29-.09-.4-.16.04-.3.02-.42-.05-.31-.15-.35.19-.33.41-.06.03-.12.05-.2.09.22.61.86 2.14 1.66 1.84m-1.59 2.42c.3.46.39 1.2.91 1.47.24 0 .6.22.74-.06-.15-.55-.83-.87-.74-1.5.03-.15-.02-.29-.14-.42-.26.08-.82-.52-.61.19-.16.06-.26.17-.15.33ZM46.7 35.44c.11 0 .23-.13.35 0 0 .06-.02.12-.03.18.73.31 1.53-.04 2.23-.24.29-.09.45-.38.76-.37.75.05 1.17-.57 1.81-.75.79-.15 1.59-.28 2.39-.26.93 1.26 1.09.19 1.93.62-.02.12-.05.24-.07.37.08.03.15.05.22.07-.08.31.39.5.45.1 0-.05 0-.11.06-.12.49-.27-.26-1.58-.79-1.23-.27.13-.62.25-.83-.07.46-.19 1.03-.14 1.34-.57.23-.29.21-.86-.23-1.01-1.16-.32-2.38.27-3.56.37-2.19.6-.63-.47-2.37-.46.63 1.79 2.5.64 3.8.51-.09.21-.31.29-.39.48.46-.09 1.07.09 1.41-.27.18-.49 1.35-.55 1.07.12-1.1 1.07-4.54.07-6.06.76-.23.7-.64 1.17-1.31 1.36-.55-.34-.8.05-1.34-.1-.15-.17-.31-.36-.55-.17v.25c-.26-.07-.55.28-.27.45v-.02Z"/><path d="M48.6 32.71c-.41.75-.29 1.42.2 2.03.9.03 1.27-1.2 1.13-1.95.09-.07.18-.13.28-.19-.03-.1-.05-.18-.07-.27-.16 0-.31 0-.45-.02-.33-.42-.52-.43-.92-.05-.18-.07-.33-.02-.45.13.07.14.15.24.29.3Zm4.4 1.6c-.04.21.15.3.18.46-.24.16-.5.17-.76.2-.14-.14-.19-.38-.43-.31-.13.03-.06.17-.16.23-.17 0-.27.07-.3.24l.24.15c-.2.93 2.34-.04 2.72-.32-.12-.21-.28-.35-.33-.6-.11-.41-.86-.07-1.17-.06Zm-4.76.11c-.03-.33-.11-.71-.37-.94-.29-.3-.38-.71-.09-1.03-.15-.14-.34-.03-.49-.23-.18-.21-.3.03-.34.26-.52.08-.22.24-.1.52.17.48.79 1.63 1.39 1.41Zm7.68 3.48c-.27.13-.62.25-.84-.07.46-.19 1.04-.14 1.36-.58.24-.29.22-.86-.24-1.02-1.17-.32-2.4.27-3.58.37-2.21.6-.64-.48-2.39-.47.63 1.81 2.52.65 3.83.51-.09.21-.31.29-.4.48.46-.09 1.08.09 1.42-.27.18-.5 1.36-.55 1.08.12-1.11 1.08-4.58.07-6.11.76-.23.71-.64 1.18-1.32 1.37-.47-.29-.72-.05-1.12-.07.02.13.06.26.09.39s.05.27.06.4c.47-.05.94-.23 1.38-.35.29-.09.45-.38.77-.37.75.05 1.18-.58 1.82-.76.8-.15 1.61-.28 2.41-.26.93 1.28 1.1.19 1.94.62-.02.12-.05.24-.07.38.08.03.15.05.22.08-.08.32.39.5.45.1 0-.05 0-.11.06-.12.5-.27-.27-1.59-.8-1.24Z"/><path d="M48.47 36.79c-.41.75-.29 1.43.2 2.05.91.03 1.28-1.21 1.13-1.96.09-.07.18-.13.28-.19-.03-.1-.05-.18-.07-.27-.17 0-.32 0-.46-.02-.33-.42-.53-.43-.92-.05-.18-.07-.33-.02-.45.14.07.14.15.24.29.31Zm4.44 1.61c-.04.21.15.3.19.46-.24.16-.51.17-.77.2-.14-.14-.19-.38-.43-.31-.14.03-.06.18-.16.23-.17 0-.27.07-.3.25.08.05.17.1.25.15-.2.94 2.36-.04 2.74-.32-.12-.21-.29-.36-.33-.6-.11-.41-.87-.07-1.18-.06h-.02Zm-4.79.12c-.03-.33-.11-.72-.37-.95-.29-.3-.39-.71-.09-1.04-.15-.14-.35-.03-.49-.23-.19-.21-.3.03-.34.26-.52.08-.22.25-.1.53.17.48.79 1.64 1.4 1.42Zm7.89 3.21c-.27.13-.62.25-.83-.07.46-.19 1.04-.14 1.35-.58.24-.29.22-.86-.24-1.02-1.17-.32-2.4.27-3.58.37-2.21.6-.64-.48-2.39-.47.63 1.8 2.51.64 3.83.51-.09.21-.31.29-.4.48.46-.09 1.08.09 1.42-.27.18-.5 1.35-.55 1.08.12-1.11 1.08-4.57.07-6.1.76-.23.7-.64 1.17-1.32 1.37-.55-.34-.8.05-1.35-.1-.05-.06-.11-.12-.17-.17-.02 0-.03-.02-.04-.03-.02 0-.04-.02-.06-.03v.03c0 .32-.07.64-.19.93.72.28 1.51-.06 2.21-.26.29-.09.45-.38.77-.37.75.05 1.18-.57 1.82-.76.8-.15 1.6-.28 2.41-.26.93 1.27 1.1.19 1.94.62-.02.12-.05.24-.07.38.08.03.15.05.22.07-.08.32.39.5.45.1 0-.05 0-.11.06-.12.5-.27-.27-1.59-.79-1.24h-.02Z"/><path d="M48.57 40.62c-.41.75-.29 1.43.2 2.05.91.03 1.28-1.21 1.13-1.96.09-.07.18-.13.28-.19-.03-.1-.05-.18-.07-.27-.17 0-.32 0-.46-.02-.33-.42-.53-.43-.92-.05-.18-.07-.33-.02-.45.14.07.14.15.24.29.31v-.02Zm4.44 1.61c-.04.21.15.3.19.46-.24.16-.51.17-.77.2-.14-.14-.19-.38-.43-.31-.14.03-.06.18-.16.23-.17 0-.27.07-.3.25.08.05.17.1.25.15-.2.94 2.36-.04 2.74-.32-.12-.21-.28-.36-.33-.6-.11-.41-.87-.07-1.18-.06H53Zm-5.16-.83c-.05-.06-.1-.12-.14-.18-.02.17.07.36.04.53-.02.13-.06.32-.1.45.21.21.34.23.57.15-.03-.33-.11-.71-.37-.94Zm13.29-6.6c.2.13.35.71.47.79.23.3.7 1.1 1.17.94.14-.07.27-.47.28-.53 0-.02-.08-.09-.17-.16-.44-.38-.7-.76-.71-1.11-.02-.11.25-.27.23-.37 0-.4-.34.05-.47-.02-.07-.12-.32-.44-.47-.28-.09.05.02.28-.05.34-.03.05-.06.05-.16.05-.35 0-.4.21-.11.35Z"/><path d="M63.01 37.49c.12-.12.47-.46.51-.54s.05-.08.3-.1c.68-.1 1.03-.38 1.22-1.11.09-.22-.03-.7-.17-.8-.05-.04-.08-.11-.04-.13.13-.02.39-.12.44-.27-.07-.14-.25-.03-.49-.11-.18-.08-.65-.23-.84-.12-.14.16-.93.18-.79.42.03.09.09.29.09.29l.36.04v.26s-.26.06-.34.08c-.22.32.52.34.71.1.13-.15.34-.18.33 0-.1.21-.45.32-.66.42-.31.05-.39.66-.63.86-.67.12-.91.11-1.57-.43-.24-.28-.43-.07-.25.15-.12.04-.73-.31-.46.28l.05.05c-.3.44.15.29.4.42.54.22 1.13.38 1.83.26z"/><path d="m65.15 37.06.28.59s.61.27.69.35c.34.25.29.94-.02.87-.51-.21-.81-.92-1.16-1.36-.09-.07-.34-.79-.49-.61-2.08.47.38 1 0 1.78-.07.11-.31.65-.21.73.18.22.57.37.78.65.34.33.03.72-.39.41-.24-.18-.52.08-.28.32.02.05-.15.11-.17.13-.25.34.16.32.38.15.12-.06 0 .3.2.24.38-.08.97-.28 1.08-.87.24-.55-.31-.46-.45-.94-.14-.2-.15-.92.15-.65.28.35.65.55.98.24.31-.29.03-1.01-.13-1.33-.3-.63-.65-1.23-.63-1.98.42-.5.91.39 1.21-1-.99.07-1.96.73-1.47 1.84.3.63.23.58-.35.46Z"/><path d="M63.56 38.25c-.52-.03-.92-.07-.78.55.03.15.08.6.17.71.04.06.03.12-.02.16-.21.12-1.01-.21-.91-.48 0-.23-.23-.28-.29-.12-.04.07-.09.07-.17-.02-.15-.21-.35.07-.27.23.03.06 0 .13-.08.14-.22.09-.21.39.1.4.67.31 1.25.63 2.01.52.84-.06.41-.22.37-.81-.14-.63.93-1.05-.13-1.29Zm.79 9s-.19 0-.21.04c0 .29-.3.2-.39.4.06.12.14.21.27.2.16 0 .15.19.3.2.7-.32 1.52-.24 2.1-.78-.22-.19-.27-.45-.32-.72-.4.03-.79-.03-1.14.16-.04.18.09.28.18.44-.29.12-.54.18-.81.06Z"/><path d="M75.45 39.46c-.27-.59-.91-3.87-1.83-3.15 4.19 7.82 1.4 18.11-5.88 23.07-2.13 1.29-4.78 3.43-7.3 2 1.63-6.34 9.44-3.67 11.13-15.77-.21-.1-.29-.17-.48-.2-.24 1.7-.67 3.32-1.31 4.88.68-1.81.25-7.44.38-7.75-.07-.09-.14-.13-.38-.41.04.68 0 .93 0 1.83H57.93V31.6h11.63v6.97s.05.37.07.49c.17-.25.18-.25.29-.33v-7.5h-24.4l-.02 6.31h.36v-5.95h11.7v12.36H46.27s0-.19-.03-.16c0-.03-.08.19-.08.16h-.32V43h-.36c-.26.92.51 8.67 1.79 10.03-2.54-2.47-3.35-6.85-2.87-10.15 0 0-.24-.18-.5-.42-.8 4.65.96 9.24 4.22 12.57.29.3.6-.02.95-.11-.07-.08-.22-.19-.33-.34.13.13.24.25.33.34l-.18-.5c-2.56-1.96-2.98-7.54-3.03-10.1h11.7s0 15.5-.02 15.53c-2.49-.12-4.17-2.82-6.57-2.85 3.45 2.04 9.77 6.98 13.75 4.82.03.04.02.03.06.07-.42.53-1.9 1.52-2.55 1.27-1.09-.66-2.76.54-1.99 1.75.1.14.16.27.04.46-4.31-.41-8.19-2.98-11.82-5.19-.04.04-.03.03-.06.07 1.4 1.89 6.36 4.22 6.36 4.22v2.79s.32.21.53.35v-3.02c1.31.45 3.95 1.28 3.95 1.28v1.89l.51-.32-.03-1.42.71-.2a.93.93 0 0 0 .68-1.01.52.52 0 0 1-.29-.62c.1-.55.77-.56 1.04-.23.54.24 1.07-.41 1.61-.56.75-.46 1.68-.86 2.02-1.73.07-.21.18-.35.36-.45 1.52-.86 2.98-1.81 4.22-3.05 5.29-4.47 7.12-12.14 5.37-18.7h.02ZM57.96 44.3h11.85c.97 9.06-4.34 12.09-11.85 15.24zm.21 16.18c.84-.75 1.42-1.01 2.49-1.27-.3.67-.58 1.31-.88 1.98-.54-.24-1.07-.48-1.62-.72Zm-26.44 4.98c-.27-.17-.61-.22-1.01-.15.08.6.3 1.72.48 2.29 1.12-.16 1.46-1.56.53-2.14"/><path d="M46.96 61.34c-6.7 0-13.39 2.87-20.1 2.87-.81 0-1.61-.04-2.41-.13 2.07 1.65 1.94 4.94 4.96 4.94.13 0 .27 0 .41-.02 4.11-.44 8.2-1.6 12.24-2.24.7-.1 4.04-.93 6-.93.71 0 1.24.11 1.39.39.21.39-1.12 1.51-1.13 1.56 0 0 0 .02.02.02.13 0 .87-.43 1.42-.79 2.18-1.58-2.39-5.67-2.79-5.67Zm-14.13 5.57c-.37.87-1.46 1.07-2.3 1.22.04-.27-.48-2.78-.64-3 1.48-.63 3.58-.02 2.94 1.79Zm.87.53c.04-.87-.25-2.23-.64-3.01l.86-.18c-.04.87.25 2.23.64 3.01zm3.29-.72-1.76.39c.04-.27-.53-2.72-.68-2.95l1.86-.41-.15.62q-.39-.105-.9 0l.21.9 1.03-.23.17.44c-.2-.03-.82.12-1.1.17l.22.94c.51-.11.92-.28 1.25-.5l-.13.66-.02-.02Zm1.81-.27c-1.28.03-1.47-1.8-1.77-2.7l.62-.12c.3.79.21 2.62 1.54 2.38.95-.43.18-1.95.08-2.67l.61-.09c.23 1.22.78 3.32-1.08 3.19Zm5.08-.92-1.76.4c.03-.27-.56-2.72-.71-2.94l1.85-.43-.15.62q-.39-.105-.9 0l.21.89 1.02-.24.17.43c-.2-.03-.82.13-1.1.18l.22.93c.5-.12.92-.29 1.25-.52l-.13.66.03.03Zm1.85-2.98.5 2.55-.59.11-.52-2.53c-.36.07-.56.06-1.05.28l-.02-.57 2.53-.33.18.48c-.23-.08-1.04.02-1.04.02Zm32.31 1.62c-.14.56-.36 1.62-.44 2.18 1.32.28 1.73-1.93.44-2.18m5.15.9c-1.01-.25-1.34 1.85-.5 2.18 1.03.24 1.34-1.84.5-2.18m-2.63-.4-.31 1.11c.86.16 1.23-.97.31-1.11m-8.07-1.58c-1.05-.29-1.46 1.89-.57 2.24 1.07.29 1.46-1.88.57-2.24"/><path d="M87.51 64.2c-.84 0-1.64 0-2.02-.05-4.42-.43-8.8-1.7-13.22-2.39-1.28-.2-2.31-.39-3.21-.39-1.88 0-3.15.82-4.66 4.03-.64 1.23 1.51 2.39 1.98 2.44-1.77-1.52-1.16-1.96.24-1.96 1.93 0 5.35.86 6.02.94 4.04.64 8.13 1.81 12.24 2.24.14 0 .28.02.41.02 3.02 0 2.87-3.29 4.96-4.94-.37.03-1.6.06-2.74.06m-16.64-1.77c-.1.09-.46 2.6-.44 2.84l-.68-.13c.12-.22.28-1.96.28-1.96l-1.16 1.8-.68-2.02s-.28 1.46-.29 1.93l-.66-.09c.21-.34.63-2.92.63-2.92l.69.13c.02.14.54 1.89.54 1.89s.91-1.53.97-1.61l.81.15Zm2.49 2.22c-.61 2.05-2.98.94-2.27-.9.6-1.99 2.98-.94 2.27.9m2.33 1.81c-.21-.04-1.33-2.33-1.33-2.33s-.27 1.78-.34 1.9l-.51-.07.58-2.78.57.07c0 .07.9 1.96.9 1.96s.3-1.53.33-1.67l.43.12-.62 2.8Zm2.65.24c-.4.14-.97-.02-1.39-.1l.56-2.87c1.87-.12 2.63 2.28.83 2.97m3.31-1.33c-.08.33-.32.55-.72.67.17.57.27.75.57 1.37l-.45-.06c-.09-.06-.66-.85-.83-1.28-.1.36-.2.81-.16 1.13l-.77-.12c.14-.22.74-2.57.72-2.81.67.08 1.86.2 1.65 1.11Zm1.46 2.28c-1.71.32-1.71-2.56-.34-2.96 1.72-.36 1.72 2.56.34 2.96m1.78-1.69c-.07.51-.31 1.55-.21 2.03l-.67-.1c.29-.75.5-2.02.45-2.82l.67.1c-.11.22-.19.49-.24.8Zm1.57-.12s-.39 2.21-.37 2.39l-.67-.12s.41-1.94.51-2.36c-.24-.05-.51-.03-.78.07l.27-.57 1.81.32.13.61c-.15-.15-.64-.32-.9-.37z"/></g></svg>