<?xml version="1.0" encoding="UTF-8"?>
<svg id="Layer_1" xmlns="http://www.w3.org/2000/svg" xmlns:xlink="http://www.w3.org/1999/xlink" viewBox="0 0 171.16 23.95">
  <defs>
    <style>
      .cls-1 {
        fill: none;
      }

      .cls-2 {
        fill: #cf2030;
      }

      .cls-3 {
        clip-path: url(#clippath-1);
      }

      .cls-4 {
        clip-path: url(#clippath-3);
      }

      .cls-5 {
        clip-path: url(#clippath-2);
      }

      .cls-6 {
        fill: #1b1c1c;
      }

      .cls-7 {
        clip-path: url(#clippath);
      }
    </style>
    <clipPath id="clippath">
      <rect class="cls-1" width="171.16" height="23.95"/>
    </clipPath>
    <clipPath id="clippath-1">
      <rect class="cls-1" y="0" width="171.16" height="23.95"/>
    </clipPath>
    <clipPath id="clippath-2">
      <rect class="cls-1" y="0" width="171.16" height="23.95"/>
    </clipPath>
    <clipPath id="clippath-3">
      <rect class="cls-1" y="0" width="171.16" height="23.95"/>
    </clipPath>
  </defs>
  <g class="cls-7">
    <rect class="cls-2" y=".02" width="1.36" height="23.78"/>
    <g class="cls-3">
      <path class="cls-6" d="M50.49,9.7c-.35-1.66-1.66-2.47-3.27-2.47-2.77,0-3.98,2.32-3.98,4.74,0,2.67,1.16,4.89,3.98,4.89,2.07,0,3.22-1.46,3.38-3.38h1.56c-.3,2.92-2.12,4.69-5.04,4.69-3.63,0-5.44-2.67-5.44-6.1s1.91-6.15,5.54-6.15c2.42,0,4.43,1.31,4.84,3.83l-1.56-.05Z"/>
      <path class="cls-6" d="M57.19,16.85c1.46,0,2.62-1.16,2.62-3.22s-1.16-3.22-2.62-3.22-2.62,1.16-2.62,3.22,1.16,3.22,2.62,3.22M57.19,9.2c2.67,0,4.13,1.96,4.13,4.43s-1.41,4.43-4.13,4.43-4.13-1.96-4.13-4.43,1.46-4.43,4.13-4.43"/>
      <path class="cls-6" d="M62.58,9.4h1.31v1.21h.05c.6-.91,1.61-1.46,2.72-1.46s1.96.4,2.32,1.46c.6-.91,1.56-1.46,2.67-1.46,1.71,0,2.82.71,2.82,2.47v6.2h-1.41v-5.54c0-1.06-.3-1.86-1.66-1.86-1.11-.1-2.12.76-2.22,1.86v5.59h-1.41v-5.54c0-1.11-.35-1.86-1.61-1.86s-2.22.96-2.27,2.17v5.29h-1.41l.1-8.51Z"/>
      <path class="cls-6" d="M80.11,10.4c-1.86,0-2.57,1.61-2.57,3.17,0,1.66.76,3.22,2.67,3.22s2.57-1.61,2.57-3.27-.86-3.12-2.67-3.12M76.18,9.4h1.41v1.16c.45-.96,1.56-1.36,2.72-1.36,2.62,0,3.93,2.07,3.93,4.48s-1.26,4.43-3.88,4.43c-1.06.05-2.12-.45-2.72-1.31v4.38h-1.41l-.05-11.79Z"/>
      <path class="cls-6" d="M90.69,13.48c-.55.4-1.61.4-2.52.55-.91.15-1.71.5-1.71,1.51,0,.91.81,1.26,1.66,1.26,1.81,0,2.57-1.16,2.57-1.91v-1.41ZM92.96,17.81c-.3.15-.65.25-1.01.25-.71,0-1.16-.4-1.16-1.31-.76.86-1.86,1.36-2.97,1.31-1.56,0-2.82-.71-2.82-2.37,0-1.91,1.41-2.32,2.87-2.62,1.56-.3,2.87-.2,2.87-1.26,0-1.21-1.01-1.41-1.86-1.41-1.21,0-2.07.35-2.12,1.61h-1.41c.1-2.12,1.71-2.82,3.58-2.82,1.51,0,3.17.35,3.17,2.32v4.38c0,.65,0,.96.45.96.15,0,.3-.05.45-.1l-.05,1.06Z"/>
      <path class="cls-6" d="M93.92,9.4h1.31v1.36h.05c.55-1.01,1.61-1.61,2.77-1.56,2.22,0,2.92,1.26,2.92,3.07v5.59h-1.41v-5.74c.05-.86-.6-1.66-1.46-1.71h-.25c-1.71,0-2.52,1.11-2.52,2.67v4.79h-1.41v-8.46Z"/>
    </g>
    <path class="cls-6" d="M102.63,9.35h1.41v8.51h-1.41v-8.51ZM104.04,7.89h-1.41v-1.71h1.41v1.71Z"/>
    <g class="cls-5">
      <path class="cls-6" d="M111.7,12.82c-.05-1.36-1.21-2.37-2.57-2.32-1.26.05-2.27,1.06-2.32,2.32h4.89ZM113.01,15.19c-.4,1.86-1.71,2.87-3.63,2.87-2.72,0-3.98-1.86-4.08-4.48,0-2.52,1.66-4.43,3.98-4.43,3.02,0,3.93,2.82,3.83,4.84h-6.3c-.05,1.46.81,2.77,2.62,2.77,1.06.1,2.02-.6,2.22-1.66h1.36v.1Z"/>
      <path class="cls-6" d="M115.18,15.19c.05,1.26,1.11,1.66,2.27,1.66.86,0,2.07-.2,2.07-1.26s-1.36-1.26-2.77-1.56c-1.41-.3-2.77-.76-2.77-2.42s1.71-2.42,3.17-2.42c1.86,0,3.38.6,3.48,2.67h-1.41c-.1-1.06-1.06-1.41-1.96-1.41-.86,0-1.81.25-1.81,1.06,0,1.01,1.46,1.16,2.77,1.46,1.41.3,2.77.76,2.77,2.42,0,2.02-1.86,2.67-3.63,2.67-1.91,0-3.53-.76-3.58-2.87h1.41Z"/>
    </g>
    <polygon class="cls-6" points="127.02 6.17 128.58 6.17 128.58 11.21 134.73 11.21 134.73 6.17 136.29 6.17 136.29 17.86 134.73 17.86 134.73 12.52 128.58 12.52 128.58 17.86 127.02 17.86 127.02 6.17"/>
    <g class="cls-4">
      <path class="cls-6" d="M141.88,16.85c1.46,0,2.62-1.16,2.62-3.22s-1.16-3.22-2.62-3.22-2.62,1.16-2.62,3.22,1.16,3.22,2.62,3.22M141.88,9.2c2.67,0,4.13,1.96,4.13,4.43s-1.41,4.43-4.13,4.43-4.13-1.96-4.13-4.43,1.46-4.43,4.13-4.43"/>
      <path class="cls-6" d="M154.23,17.86h-1.31v-1.36h-.05c-.55,1.01-1.61,1.61-2.77,1.56-2.22,0-2.92-1.26-2.92-3.12v-5.54h1.41v5.74c-.05.91.6,1.66,1.51,1.71h.25c1.71,0,2.52-1.11,2.52-2.67v-4.79h1.41l-.05,8.46Z"/>
      <path class="cls-6" d="M156.85,15.19c.05,1.26,1.11,1.66,2.27,1.66.86,0,2.07-.2,2.07-1.26s-1.36-1.26-2.77-1.56c-1.41-.3-2.77-.76-2.77-2.42s1.71-2.42,3.17-2.42c1.86,0,3.38.6,3.48,2.67h-1.41c-.1-1.06-1.06-1.41-1.96-1.41-.86,0-1.81.25-1.81,1.06,0,1.01,1.46,1.16,2.77,1.46,1.41.3,2.77.76,2.77,2.42,0,2.02-1.86,2.67-3.63,2.67-1.91,0-3.53-.76-3.58-2.87h1.41Z"/>
      <path class="cls-6" d="M169.75,12.82c0-1.31-1.11-2.42-2.47-2.42s-2.42,1.06-2.42,2.42h4.89ZM171.06,15.19c-.4,1.86-1.71,2.87-3.63,2.87-2.72,0-3.98-1.86-4.08-4.48,0-2.52,1.66-4.43,3.98-4.43,3.02,0,3.93,2.82,3.83,4.84h-6.35c-.05,1.46.81,2.77,2.62,2.77,1.06.1,2.02-.6,2.22-1.66h1.41v.1Z"/>
      <path d="M31.43,12.47c-.09-.01-.17.07-.14.17-.01,0-.02,0-.03-.01l-.43-.29s-.04-.06-.02-.09c.08,0,.17-.05.16-.15.04.05.5.29.46.37h0ZM29.84,10.97s-.08.1-.08.1c-.48-.55-2.09-1.17-2.79-1.07,0,0,.01-.08.02-.13h0l.26-.17-.23-.19s-.15-.94-.15-.94l.4-.02s-.14.17-.15.3c.03.02.05.04.06.07.08-.04.17-.2.17-.2l.04.54s-.11-.16-.19-.19c0,.02-.02.04-.03.05.12.36.64.38.64.07-.02-.16-.2-.14-.19.04-.29-.23.1-.59.26-.23-.02-.21,0-.33.16-.43.11.14.09.27-.03.47.35-.33.49.23.16.31.16-.29-.3-.2-.13.11.16.24.54.21.67-.06-.01-.02-.02-.04-.02-.05-.13-.03-.33.09-.33.09l.19-.5s.08.22.19.28c.02-.02.05-.04.07-.04.02-.13-.11-.34-.11-.34l.61.24s-.24.06-.32.17c.02.03.03.05.03.08.13.03.34-.08.34-.08l-.22.49s-.06-.22-.18-.28c-.02.01-.04.02-.05.03-.09.28.17.56.45.49.34-.1.07-.49-.03-.17-.19-.28.31-.59.33-.12.06-.23.14-.33.32-.36.05.19-.03.28-.19.42.38-.16.4.37.03.34.13-.12.02-.25-.11-.15-.22.23.19.56.51.39,0-.02,0-.04.02-.06-.08-.06-.27-.06-.27-.06l.39-.29s-.05.18-.01.27c.03,0,.06,0,.09.01.09-.09.09-.31.09-.31l.29.37s-.74.34-.87.44l-.21-.02.1.29h0s0,0,0,0ZM27.68,8.3c.12.05.24.11.36-.02-.12,0-.16-.08-.19-.17-.06-.41.6-.26.85-.24.62.38,1.68.14,1.32-.76.29.18.19.67-.03.87-.57.31-1.12.08-1.69.69-.09-.28-.42-.26-.54.05-.11,0-.14,0-.24.02-.02-.16.11-.28.17-.43h0ZM29.21,6.75c-.19.13-.35.31-.54.06-.05.01-.08.02-.12.03.28-.43.25-.36.66-.09M29.84,5.76c.14.15.2.32.2.5-.13-.05-.19-.19-.2-.5M24.11,8.2l.7-.25.25.51-.48.31-.47-.57h0ZM23.66,8.08c-.09.53-1.28.3-1.16-.23.09-.53,1.28-.3,1.16.23M21.29,8.31l-.74-.52.75-.52.74.52-.75.52ZM19.59,8.37c-.76.15-.91-.68-.16-.82.76-.15.91.68.16.82M18.01,8.77l-.48-.31.25-.51.7.25-.47.57h0ZM27.18,7.1c.06,0,.11-.02.18-.02-.12-.08,0-.2.09-.12.23.18-.23.47-.27.14h0ZM31.79,13.06h-.06l-.17-.47c.08-.1.12-.27,0-.35-.17-.07-.63-.6-.78-.25-.06.02-.43.05-.46.11-.18-.28-.33-.58-.44-.91.07-.39,1.09-.87,1.09-.87,0,0-.29-.42-.41-.65-.05.12-.1.07-.21.12.57-1.01.69-2.34-.06-3.3-.08-.17-.05-.39-.12-.55-.13-.17-.22-.51-.45-.55,0,.3-.04.59.11.88.16.2-.21.36-.32.21.22-.03.25-.07.18-.19-.94-.21-1.47.45-2.36.55-.08,0-.15.03-.2.1-.55.75.69.24.8.73-.21.17-.24.06-.43.01-.28.01-.55.1-.2.33-.21.33-.2.45-.63.48.19.26.15.64.2.95-.31.06-.52.21-.52.53-.14.03-.29-.05-.39.11-.2-.16-.42-.19-.65-.2-.11-.08-.39-.28-.69-.43.06-.22.12-.42.17-.61.09-.06.4-.25.48-.3-.05-.08-.21-.42-.25-.5.55-1.91.73-2.02,1.01-2.06l.02-.05-1.03-.33-.02.07c.26.19.34.5.23.87-.27-.12-.43-.38-.4-.61,0,0-.07-.02-.07-.02l-.34,1.14s.05.02.06.02c.14-.2.37-.3.64-.26-.32,1.01-1.74.7-1.49-.16.18-.35.53-.13.36.24.8-.28.33-1.43-.36-.75.23-.46.36-.83.07-1.27-.37.24-.46.67-.39,1.24-.45-1.03-1.24.03-.6.57-.12-.77.83-.26.19.36-.61.43-1.36-.07-1.38-.83.35.03.62.24.65.5h.07l.05-1.3h-.08c-.06.26-.34.49-.71.49.03-.4.25-.71.55-.77v-.08h-1.5v.08c.3.05.53.36.55.77-.36,0-.65-.23-.71-.49h-.08l.05,1.3h.07c.04-.26.31-.47.65-.5-.02.76-.77,1.26-1.38.83-.64-.61.31-1.12.19-.36.64-.54-.15-1.6-.6-.57.07-.57-.03-1-.39-1.24-.28.45-.16.81.07,1.27-.69-.69-1.15.46-.36.75-.17-.37.18-.6.36-.24.25.86-1.17,1.17-1.49.16.27-.05.51.06.64.26,0,0,.06-.02.06-.02l-.34-1.14s-.06.02-.07.02c.03.23-.13.49-.4.61-.12-.37-.04-.68.23-.87l-.02-.07-1.03.33.02.05c.28.05.46.15,1.01,2.06-.05.09-.21.42-.25.5.08.05.39.25.48.3.05.18.1.36.15.56h0s0,.01,0,0c-1.38.64-1.07,1.08-2.13.96-.1.22-.19.43-.4.59-.04-.34-.19-.6-.39-.84-.1-.12-.23.02-.38.03-.29.62-.49.06-.99.39.02.29.07.58.23.86-.38-.03-.69-.13-.94-.31-1.13,1.26-2.31,2.47-3.27,3.86-.51.68-1.89.28-1.53-.65.17-.69,1.15-.54,1.09.14.49-.54.18-1.08-.57-.96.69-.3,1.09.26,1.72-.51-.47.02-.87-.14-1.35-.03.59-.36,1.41.17,1.92-.81-.44.05-.85.24-1.3.3,2.75-2.63.11-2.75.44-3.89-.22.18-.34.37-.24.61-.61-.26-1.53-.18-1.78-.93-.06,1.07.41.99,1.21,1.21-.37-.05-.74-.05-1.08-.18.07.48.43.58.86.53-.42.23-.32.83.1,1.03-.27-1.55,2.04-1.01.98.4-.49.73-1.2,1.27-1.79,1.91-.11-.2-.23-.39-.49-.36.45.52-.06,1.09-.18,1.63-.18.67.42,1.24,1.05,1.32-.25.3-.27.56-.08.81.19-.98,1.61-.76,1.74-1.82.03-.13.08-.23.23-.28-.64.73.9,2.26-.55,2.44-.21,0-.26.23-.14.38-.6-.03-.76.2-.86.76.26-.07.51-.13.76-.2-.26.69-.85-.04-.76,1.17.24-.12.47-.24.69-.38.22.69-1.08.39-.11,1.48.06-.2.32-.62.45-.71-.12.34-.09.74.29.89.02-.09.04-.17.05-.25h.04c.06.23.06.54.28.68.07.03.11.07.14.15.04.13.16.16.27.18.14.03.18-.13.28-.2.03.18.24.21.35.36.08-.89-1.09-.56-.83-1.15.11.36.43.28.67.42.09.15.31.27.42.07.11.08.21.16.3.23-.23-1.05-.78-.4-1.12-.95.24.01.49.37.75.12.14.14.25.31.35.48.05-.34-.08-.59-.35-.78-.3-.18-.71.14-.96-.23-.35-.43-.34-1.03-.16-1.53.17-.38.63-.52.85-.89-.06.32-.03.88.33.98-.09-.59.33-1.13.42-1.71.11-.15.12-.26.02-.42-.18-.3-.23-.65-.43-.94-.31-.43-.69-.44-.06-.9-.38.59-.07.38.26.94.06-.19.34-.43-.01-.43-.55-.27.72-.98,1.01-1,.28-.03.69.01.9-.27-.14-.26-.27-.29-.04-.56-.16-.09-.29-.2-.32-.4-.15.05-.28.1-.43.15.14-.16.55-.48.59-.12.01.2.21.24.36.28-.11.16-.3.33-.13.52.12.13.19.36.38.39.05-.19.1-.36.15-.54.41.42-.41.66.71,1.04-.04-.23-.08-.45-.05-.69.53.45-.23.73,1,.88-.14-.16-.17-.34-.22-.52.21.04.37.23.5.38.13.2.22.3.51.11.02.04.02.08.04.1.13.1.08.22.08.35h.04c.17-.17.19-.37.13-.59-.12-.41-.61-.08-.79-.5.24.16.47.25.73.12.15.14.21.24.27.43.12-.44-.02-.89-.48-.76-.15.05-.21.04-.35-.09.22.08.36-.04.49-.14.03.04.05.08.07.08.13,0,.22.09.3.18.05-.38-.33-.68-.71-.58-.09.46-.48.2-.79.14-.48-.28-.73-.82-1.15-1.16.05-.52-.39-.93-.91-.9.46-.21,1.02.2,1.06.69.02.2.14.32.26.47,1.58-3.17,6.67-4,9.59-1.99.25.23.52.42.78.65.1-.3.04-.67.49-.48l.09-.06c-.09-.26.1-.54.37-.56v.2c-.12.02-.21.13-.19.25.09-.02.17.1.12.18.09.05.21.03.27-.04.08,0,.15.01.23.02-.1.24-.46.33-.66.15.04.05-.14.59-.14.65-.02.08-.09.13-.17.13.04.05.06.1.09.15.13-.07.31-.07.29-.25.03-.1-.05-.58.11-.53.06.18-.05.39.08.56.42-.11.24-.48.75-.58.21-.02.63-.12.74.09-.44-.12-1.02,0-1.12.51-.46.11-.86.44-1.35.44-.39.03-.5.49-.51.82-.07.37-.09.76-.25,1.1-.08.13-.02.28.04.41.15.08.26.6.28.79,0,.34.58.45.82.67.07-.42-.74-.31-.63-.9.15.4.46.47.8.67-.11-.4-.14-1.07-.7-.98-.22-.3.1-.32,0-.68.16.05.24.11.28.21-.05-.02-.09-.03-.16-.05.02.25.24.31.41.48-.03-.41-.07-.68-.45-.88-.22-.2.04-.66.02-.94,0-.08.51-.34.59-.32.39.05.79-.01,1.17.09.37.12.05-.7.65-.27-.44-.13-.17.35-.49.37-.22,0-.41-.02-.63-.03.79,1.76,2.55,1.25,3.04,2.83.41-.36.13-.35.02-.73.91.61-.85,1.32-.19,2.39-.05-.12.37-.62.42-.72.08-.11.21-.12.29-.04l.13-.27c-.25-.14.2-.71.23-.88.05-.1.15-.15.24-.11l.12-.34c-.23-.06-.06-.62-.08-.79-.33-.3-.59-.67-.85-1.01l.16-.03c-.02.08.01.16.08.21.11.05.54.46.68.36l.07.19c-.11.03-.13.18-.13.28.06.05.12.1.18.15,0-.04,0-.21.04-.23.05.07.15.07.2.02.05.03-.02.39,0,.44.06.07.12.14.18.22-.03-.17.18-.81-.1-.84h.01Z"/>
      <path d="M26.22,10.37s-.04-.1-.02-.14c-.05-.01-.14.47-.16.5.04.04.07.07.1.1.05.02.12.04.14-.03l.11-.43c-.05.05-.14.05-.18-.01"/>
      <path d="M19.73,22.52c-1.22-.48-2.11.7-1.11.9-1.09.05-.88-1.49-1.34-1.4.4.42.4,1.22.76,1.44.74.31,1.5.36,2.29.33-.4-.35-.49-.8-.6-1.26"/>
      <path d="M23.45,23.4c.99-.2.11-1.38-1.11-.9-.11.47-.21.91-.6,1.26.79.04,1.55-.02,2.29-.33.36-.22.36-1.01.76-1.44-.45-.09-.24,1.45-1.34,1.4"/>
      <path d="M31.45,13.86s0,.05.03.06c.06-.05.14-.03.18.03.06-.02.05-.22.06-.26-.07-.08-.15-.15-.23-.23l-.04.4Z"/>
      <path d="M31.15,15.33c0-.06.31-.56.24-.61-.06.01-.12-.02-.14-.07-.08-.03-.27.52-.3.56.1-.06.22.04.19.15.01,0,.02-.02.03-.03h0Z"/>
      <path d="M34.63,12.98c-.25.08-.36.29-.45.53-.64-1-1.86-1.69-2.05-2.92.15-.98,1.44-.76,1.18.26.68-.36.35-1.04-.29-1.15.69.06,1.07.63,1.54-.33-.41.15-1.03.05-1.24.01.86-.12,1.33-.11,1.29-1.17-.29.63-1.1.65-1.69.86.04-.28-.05-.45-.28-.55.24,1.56-2.72,1.05.52,4.4-.4-.22-.86-.15-1.25-.39.3.81.81.67,1.47.95-.71,0-.93.69-.41,1.02-.14-.54.6-.9.97-.48.84,1.08-.7,2.58-2.07-.13.01.15-.1.28-.24.24l-.16.43c.31.12-.17.72-.2.89-.05.12-.18.15-.27.09l-.15.31c.19.18-.32.67-.38.82-.06.09-.17.12-.24.07l-.06.11.02.03c.35.41.5.72.41,1.16.28-.24.41-.91.18-1.27.25.26.62.45.77.79.15.61.04,1.22-.38,1.71-.18.18-.13.27-.15.49-.12.35-.53.38-.69.67-.11.26-.29.47-.37.74.47-.07.39-.73.84-.87-.18.27-.36.52-.48.85.37-.1,1.07-.2.96-.72-.09-.24.15-.4.14-.63.29-.11.23-.23.37-.45.07.14.07.26.06.41-.04-.08-.06-.12-.09-.18-.21.28-.04.56-.06.86,1.03-.92-.34-.91.73-2.95.24-.41-.7-.36-.77-1.27-.07-.4.28-.72.36-1.1.41.73,1.84.71,1.65,1.64.29-.22.28-.61.16-.91,1.48-.53.31-1.89.79-2.86v.02h-.01Z"/>
      <path d="M30.23,16.48s.06.04.07.07c.03,0,.05-.01.07-.04.01-.04.38-.51.33-.54-.04-.02-.08-.04-.09-.08-.04-.04-.09-.05-.12,0-.02.06-.42.52-.32.58.02,0,.04,0,.05.01h.01Z"/>
      <path d="M30.02,16.58s.02.02.02.03v-.02l-.02-.02Z"/>
      <path d="M15.71,18.65c.15.03.31.06.45-.01-.23-.38-.44-.75-.67-1.14-.4.49-1.08.19-1.52-.11-.35-.26.41-.67.17-1.53.34.55-.28,1.02.68,1.33-.27-.41-.24-.94-.34-1.41-.02-.08-.05-.16.02-.24.04-.11.04-.26-.11-.28-1.06-.61-.85-.31-1.88-.45-.25.45.29.85.2,1.28-.08.22.25.21.25.42.07.33.04.79-.34.91-.19.11-.04.35.13.4-.33.59-.08.69.42.99,0-.23,0-.43.1-.62.7.46-.34.54,1.04,1.1-.14-.23-.14-.48-.16-.71.13.03.26.06.39.09.15.63.49.7,1.1.63-.22-.22-.28-.5-.44-.72.19.06.37-.06.52.08"/>
      <path d="M28.13,15.1c-.19.03-.23.11-.2.29-.21.45-.22,1.01-.57,1.39.77-.22.6-.51.79-1.1-.04.8,0,.79.29,1.34-.6.42-1.57.07-1.9.88.09.11.21,0,.33.03-.08.09-.11.21-.24.29.03-.08.05-.13.06-.18-.23-.08-.41.43-.57.6,1.59-.32-.19-.79,2.94-1.15.55-.26-.52-.67.56-1.36.1-.38.16-.77.36-1.1.05-.11-.03-.27-.13-.35-.48.34-.71-.21-1.73.43h.01Z"/>
      <path d="M12.07,8.56c0-.11.02-.21.02-.32-.12-.02-.23-.04-.35-.06.15-.11.32-.14.46-.08-.12.51.1.88.64.9.17-.25.32-.29.48-.11-.73-.08-.19.7.19.43.1-.14.41-.27.32-.47-.57-.42-.53.2-.64-.84-.03,0-.05,0-.07,0-.05.2-.25.35-.41.17-.06-.06-.1-.12-.2-.14.39-.31.86.14.84-.6.44.55.48-.06.91-.07-.02.43-.11.4-.48.38.12.09.59.56.32.6-.12-.29-.31-.58-.63-.63-.26.26-.13.55-.09.86.23-.08.43-.23.68-.21.08.24-.3.37-.09.61.37.06.78.06.66-.47-.12-.07-.24-.12-.37.01,0-.21.21-.24.37-.2.35-.37.23-.86-.14-1.15.1-.15.2-.24.38-.28-.06.13-.19.17-.22.28.08.1.16.2.24.29.2-.09.25-.4.11-.72-.24.06-.68.27-.68.27-.21-.08-.12.03-.09.13-.68.13-1.34.3-1.88.75-.1.07-.14.03-.17-.11-.06-.1-.09.07-.1.11,0,0-.41.1-.58.25.13.21.3.53.58.42h.01-.02Z"/>
      <path d="M14.72,8.35c.06.31-.03.56-.23.8.3.54.81.94,1.04,1.53.5-.94-.04-1.25-.73-1.76.44.16.89.31,1.13.73.05-.81-.3-1.2-1.08-1.33,0-.01,0-.03,0-.04.33-.02.65-.02.95.19-.08-.25-.28-.61-.58-.59.11-.22.11-.37,0-.5-.05.16-.15.25-.31.26.04.28-.06.51-.21.72h0Z"/>
      <path d="M12.23,10.18c.09.23.23.48.46.58-.12-.44.18-.83.32-1.23,0,.92-.52,1.43.75,1.76-.34-.54-.12-1.2-.33-1.76-.21-.12-.43-.15-.57-.32-.04-.08-.11-.11-.18-.13-.24-.05-.46-.13-.58-.33-.18.06-.28.05-.44-.02-.02.2.16.4.38.32-.18.26-.08.49-.02.76.13-.27.32-.42.54-.56-.17.28-.46.57-.33.92h0Z"/>
      <path d="M17.32,19.61c.17-.16-.06-.25-.15-.38-1.53-1.42-2.1-3.27-1.96-5.33-.04-.02-.08-.05-.16-.08-.26,2.18.58,4.37,2.28,5.78h0Z"/>
      <path d="M30.97,7.78c-.15.28.27.4.28.66-.11-.09-.21-.16-.31-.25-.13.52.48.69.67,1.09.25-.76.11-1.21-.63-1.51"/>
      <path d="M14.18,10.01c-.41.03-.35-.48-.46-.77-.07.08-.14.15-.2.23.08.28.17.57.26.87.07-.05.13-.09.19-.13.28.2.54.06.63-.25.08.02.16.06.22,0-.13-.27-.26-.54-.39-.81-.08.02-.16-.1-.25,0,.09.25.42.76.02.88h-.01Z"/>
      <path d="M30.89,6.51s0,.03,0,.04c-.13,0-.25-.02-.39-.02.14.46.68.24,1.01.44-.19-.37-.33-.73-.78-.8.05-.22-.01-.42-.15-.5,0,.19-.08.33-.25.4-.09.38.31.36.56.44h0Z"/>
      <path d="M30.78,9.14h-.04c-.09.41.19.77.37,1.11.3-.54.29-1.16-.2-1.59-.15.29.06.56.13.84-.01,0-.02,0-.03.02-.08-.12-.16-.25-.24-.37h0Z"/>
      <path d="M30.66,6.87c.18.42.45.32.63.59-.15-.05-.29-.09-.42-.14-.01.44.55.49.86.66-.05-.72-.4-.99-1.07-1.11"/>
      <path d="M29.06,6.12c.19,0,.46.12.62.02,0-.6-.73-.52-1.15-.54.13.23.28.45.53.52h0Z"/>
      <path d="M26.96,14.73c-.16-.02-.3-.03-.47-.04,0,.09.01.15.02.22.1.03.18.05.26.07.03.5-.25.5-.61.3-.11.63.91.57.82-.54h0Z"/>
      <path d="M26.61,12.71c-.56.69-.57.79.29,1.08,0-.08-.02-.13-.02-.19-.17-.05-.33-.11-.48-.21.11-.13.21-.26.31-.39-.03-.09-.06-.18-.1-.3"/>
      <path d="M24,10.21c.09,0,.18-.02.26-.02.09-.34-.1-.37-.33-.55-.09.28-.34.41-.48.65.23-.02.35-.09.48-.26.03.07.05.13.07.19h0Z"/>
      <path d="M25.29,11.73c.08-.22.5-.77.27-.93-.11.06-.32.04-.3.2v.73s.02,0,.03.01h0Z"/>
      <path d="M29.49,5.55s.02-.03.03-.04c-.24-.34-.34-.41-.76-.41,0,.41.43.41.73.44h0Z"/>
      <path d="M28.42,4.53c-.02.29.23.45.63.43-.11-.29-.31-.45-.63-.43"/>
      <path d="M27.48,7.54c-.33-.15-.59.05-.92-.03.09.46.63.13.92.03"/>
      <path d="M28.1,4.07c.09.29.2.35.5.31-.1-.24-.25-.34-.5-.31"/>
      <path d="M28.26,3.92c-.12-.25-.18-.28-.42-.25.1.25.25.34.42.25"/>
      <path d="M26.76,12.01c.08.13.16.27.23.4.3,0,.05-.25-.03-.36-.04-.05-.12-.05-.19-.06,0,.01-.02.02-.02.03h0Z"/>
      <path d="M25.89,12.35c.16-.09.31-.16.45-.27-.04-.05-.06-.08-.09-.13-.13.13-.44.17-.36.4h0Z"/>
      <path d="M27.9,3.52c.05-.16-.18-.37-.34-.3.03.18.21.33.34.3"/>
      <path d="M12.76,6.22c.08-.08-.05-.21-.12-.13-.08.08.05.21.12.13"/>
      <path d="M12.86,6.45c.08-.08-.05-.21-.12-.13-.08.08.05.21.12.13"/>
      <path d="M12.29,5.41h0l-.2.02.11.26.14-.17s.02.01.03.01l.02.35c.04.31.5.12.32-.13l-.23-.27s.01-.02.01-.03l.22.03-.11-.26-.16.13s-.02-.01-.03-.01l-.02-.25c-.06.03-.19.08-.26.1l.16.2s0,.02-.01.03h0Z"/>
      <path d="M11.72,6.78c.13,0,.13-.2,0-.2s-.13.2,0,.2"/>
      <path d="M11.7,7.03c.13,0,.13-.2,0-.2s-.13.2,0,.2"/>
      <path d="M12.11,6.15c.13,0,.13-.2,0-.2s-.13.2,0,.2"/>
      <path d="M11.8,6.54c.13,0,.13-.2,0-.2s-.13.2,0,.2"/>
      <path d="M13,6.79c0-.1.07-.29.07-.29-.1.04-.31.12-.41.16,0,0,.19.09.25.17-.09.03-.17.05-.29-.01l.16.31c.04-.14.11-.22.16-.23.17.26-.25.55-.44.33-.05-.09.01-.2.12-.12-.02-.2-.19-.2-.24-.05,0-.2-.05-.32-.25-.38-.05.2.02.32.21.41-.11-.02-.24.1-.08.24,0-.13.11-.14.17-.06.09.24-.18.32-.41.09.05-.02.1-.01.18,0l-.22-.27c.01.1,0,.17-.02.21-.05-.05-.06-.1-.08-.21l-.16.14c.16.1.33.25.54.56.28-.28,1.43-.76,1.87-.75-.05-.37-.04-.6.02-.78h-.22c.06.1.08.14.08.21-.05-.02-.1-.06-.15-.14l.03.34c.04-.06.07-.1.12-.13,0,.33-.26.45-.36.22-.02-.1.07-.16.16-.07.02-.21-.15-.21-.22-.12.09-.2.05-.33-.13-.44-.11.19-.07.31.08.45-.14-.07-.26.05-.14.2.03-.13.14-.1.17,0,.02.29-.49.37-.54.06.05-.03.16-.02.28.06l-.1-.34c-.05.12-.12.17-.2.21v.02Z"/>
      <path d="M18.38,17.44c.15.09.32.19.48.28-.38.46.3.67.27.21.26.11,1.26.42.86-.18-1.33.05-2-1.35-1.26-2.41.44.21,2.01-.56,1.88.22.08.09.11.1.29.09.45-1.04-1.1-.73-1.67-.61-.5.15-.96-.58-1.4-.18-.18.16-.06.5.18.51.21,0,.27-.28.08-.38.41-.14.22.52.07.69-.47-.24-.55.51-.08.32.02.14.03.27,0,.4-.51-.11-.37.62,0,.33.11.11.16.27.18.42-.51.07-.1.73.14.29h0Z"/>
      <path d="M19.86,18.24s-.05-.02-.07-.03c-.04.1-.09.27,0,.33l.43.19.55-.41.15-2.21-.16.02s-.34,2.55-.5,2.4c.04-.17.4-2.4.4-2.4,0,0-.11-.02-.16-.03-.01.05-.02.12-.02.12l-.61-.8-.08.04.65.86-.05.15c-.06-.04-.69-.91-.75-.99h-.13s.85,1.09.85,1.09l-.05.15-.95-1.25h-.12l1.03,1.36-.05.2-1.13-1.54h-.15l1.25,1.65-.05.15-1.38-1.8-.03.14s1.28,1.69,1.36,1.8c-.07.21-.02.23.08.4.05.19-.08.49-.31.42h.02Z"/>
      <path d="M19.98,17.53l-1.32-1.75s-.03.08-.04.12c.1.13,1.26,1.68,1.26,1.68l.09-.05h0Z"/>
      <path d="M18.66,16.37c.3.39.6.78.9,1.17.05,0,.13.03.13.03l-1.08-1.43s-.02.15.05.24h0Z"/>
      <path d="M20.96,15.72c-.15-.02-.3-.04-.44-.06-.28.24.04.38.24.36.18.05.42-.19.2-.31h0Z"/>
      <path d="M20.92,21.97c-.05.2.27.26.3.06.05-.2-.27-.26-.3-.06"/>
      <path d="M21.2,20.78c.05-.24-.33-.32-.38-.08-.05.24.33.32.38.08"/>
      <path d="M19.88,20.13c.05-.24-.33-.32-.38-.08-.05.24.33.32.38.08"/>
      <path d="M22.18,22.29c-.22.03-.33.17-.45.32-.1-.06-.24-.13-.37-.13-.07,0-.13.02-.19.07.4.16.26.77-.13.77-.39,0-.53-.61-.13-.77-.06-.05-.12-.07-.19-.07-.13,0-.26.06-.37.13-.12-.15-.23-.3-.45-.32.12,1.11.62,1.67,1.13,1.67s1.02-.56,1.13-1.67h.01ZM22,22.53c-.16.89-.58,1.28-.95,1.28s-.8-.4-.95-1.28c.05.05.09.1.15.17l.08.11.12-.07c.05-.03.1-.06.14-.07-.05.1-.07.22-.05.35.05.26.26.45.51.45s.46-.19.51-.45c.03-.13,0-.25-.05-.35.05.02.09.05.14.07l.12.07.08-.11c.05-.07.1-.13.15-.17"/>
      <path d="M18.55,19.37c.17-.2-.42-.46-.51-.58-.07-.05-.16-.04-.21.03-.17.19.41.46.49.57.07.06.17.05.22-.02h0Z"/>
      <path d="M18.48,19.8c.65,0,.57-1.03-.08-.92.3.16.56.59.09.71-.18.04-.35-.15-.48-.24,0,.25.21.45.46.45h0Z"/>
      <path d="M17.55,19.97c.14.27.98,1.01,1.21.67-.41-.21-1.1-.72-.84-1.37-.6-.37-.07-.96.4-.46.5-.31,1.05-.09,1.55.25.18-.38-.69-.64-.88-.76-.25-.09-1.05.1-1.32.11-.18.03-.31.19-.3.37.04.2.04,1.04.18,1.19"/>
      <path d="M24.94,5.37l.37.12c-.59-1.23-1.66-2.16-2.95-2.49-.04.09-.06.18-.09.28,1.13.28,2.09,1.06,2.67,2.1h0Z"/>
      <path d="M17.28,5.49l.37-.12c.57-1.04,1.53-1.81,2.67-2.1-.03-.1-.06-.19-.09-.28-1.29.33-2.37,1.26-2.95,2.49h0Z"/>
      <path d="M24.08,3.49c.26,0,.26-.41,0-.41-.26,0-.26.41,0,.41"/>
      <path d="M23.15,2.96c.26,0,.26-.41,0-.41-.26,0-.26.41,0,.41"/>
      <path d="M22.64,2.78c.26,0,.26-.41,0-.41-.26,0-.26.41,0,.41"/>
      <path d="M23.64,3.2c.26,0,.26-.41,0-.41-.26,0-.26.41,0,.41"/>
      <path d="M24.5,3.83c.26,0,.26-.41,0-.41-.26,0-.26.41,0,.41"/>
      <path d="M25.57,5.37c0,.26.41.26.41,0,0-.26-.41-.26-.41,0"/>
      <path d="M25.32,4.89c0,.26.41.26.41,0,0-.26-.41-.26-.41,0"/>
      <path d="M24.88,4.21c.26,0,.26-.41,0-.41-.26,0-.26.41,0,.41"/>
      <path d="M25.02,4.43c0,.26.41.26.41,0,0-.26-.41-.26-.41,0"/>
      <path d="M18.5,3.49c.26,0,.26-.41,0-.41-.26,0-.26.41,0,.41"/>
      <path d="M18.08,3.83c.26,0,.26-.41,0-.41-.26,0-.26.41,0,.41"/>
      <path d="M16.82,5.57c.26,0,.26-.41,0-.41-.26,0-.26.41,0,.41"/>
      <path d="M18.96,3.2c.26,0,.26-.41,0-.41-.26,0-.26.41,0,.41"/>
      <path d="M17.36,4.64c.26,0,.26-.41,0-.41-.26,0-.26.41,0,.41"/>
      <path d="M17.07,5.09c.26,0,.26-.41,0-.41-.26,0-.26.41,0,.41"/>
      <path d="M19.95,2.78c.26,0,.26-.41,0-.41-.26,0-.26.41,0,.41"/>
      <path d="M17.71,4.21c.26,0,.26-.41,0-.41-.26,0-.26.41,0,.41"/>
      <path d="M19.44,2.96c.26,0,.26-.41,0-.41-.26,0-.26.41,0,.41"/>
      <path d="M21.65,4.85h.27c0-.86.13-1.61.35-2.1.08-.16-.18-.27-.25-.11-.32.71-.37,1.69-.37,2.21"/>
      <path d="M20.67,4.85h.27c0-.52-.05-1.5-.37-2.21-.07-.16-.32-.05-.25.11.23.49.35,1.24.35,2.1"/>
      <path d="M21.29,4.85c.29,0,.29-.44,0-.44s-.29.44,0,.44"/>
      <path d="M21.29,4.3c.29,0,.29-.44,0-.44s-.29.44,0,.44"/>
      <path d="M21.29,3.74c.29,0,.29-.44,0-.44s-.29.44,0,.44"/>
      <path d="M21.14,3.2c.09-.05.22-.05.31,0,.32-.49-.63-.49-.31,0"/>
      <path d="M21.47,2.74c.25-.46-.6-.46-.35,0,.1-.06.25-.06.35,0"/>
      <path d="M21.16.88c-.04.28-.19.5-.37.53v.07h.36s-.04.03-.05.05c-.64.14-.71,1.12-.1,1.35-.24-.23-.06-.68.28-.67.34-.01.52.43.28.67.61-.23.54-1.21-.1-1.35-.02-.02-.03-.04-.05-.05h.36v-.07c-.19-.04-.33-.25-.37-.53.28.04.5.19.53.37h.07V.24h-.07c-.04.19-.25.33-.53.37.04-.28.19-.5.37-.53V0h-1v.07c.19.04.33.25.37.53-.28-.04-.5-.19-.53-.37h-.07v1h.07c.04-.19.25-.33.53-.37h0Z"/>
      <path d="M30.02,16.58h0s-.05-.08-.06-.12c0,.05.03.09.06.12"/>
      <path d="M29.97,17.35s-.23.61-.3.59c-.03-.05-.09-.08-.14-.06-.03-.02-.05-.06-.03-.1.04-.04.23-.62.31-.58.03.06.09.09.15.08.02.02.02.05,0,.08h0ZM29.42,19.35c.02-.15-.17-.23-.24-.1.02-.06-.05-.6.05-.6.05.03.1.04.15,0,.03,0,.06.04.06.07v.59s0,.03,0,.04h0ZM29.72,20.39c-.18,1.01-1.48.01-.54-.42.05.1.19.1.24,0,.18.05.31.22.31.42h0ZM29.85,17c-.28-.18-.44.61-.55.74-.05.12,0,.24.1.28l-.21.43c-.11-.02-.21.07-.21.2.05.17-.13.9.17.91v.21c-.72.13-.61,1.26.13,1.25.74.02.85-1.1.14-1.24v-.2c.11.02.21-.07.21-.2-.04-.17.11-.87-.15-.91l.16-.33c.27.15.43-.62.53-.75.05-.11.01-.23-.08-.27l.12-.25s-.1-.15-.17-.26l-.19.39h0s-.01,0-.01,0Z"/>
      <path d="M15.41,15.73l.06.24,1.12-.14-.06-.22c-.06-.02-.76.12-.76.12,0,0,.67-.78.65-.87l-1.13.13.03.2c.06,0,.67-.09.67-.09,0,0-.55.62-.58.64h0Z"/>
      <path d="M15.87,16.59c.24-.43,1.03-.18.71.32-.25.42-1.03.18-.71-.32M15.81,17.18c.54.52,1.4-.31.84-.85-.54-.53-1.42.31-.84.85"/>
      <path d="M16.57,18.41l.19.26c.2-.25.61-.55.92-.67l-.19-.26c-.07.12-.24.24-.36.33l-.29-.4c.12-.09.29-.21.42-.24l-.19-.26c-.2.25-.61.55-.92.67l.19.26c.07-.12.24-.24.36-.33l.29.4c-.12.09-.28.21-.42.24h0Z"/>
      <path d="M16.46,14.48l.02-.24c-.32.06-.84.06-1.16,0l-.02.24c.32-.06.84-.06,1.16,0"/>
      <path d="M24.63,19.34c.69-.3.53-.99-.24-.68-.33-.09.09-.42.3-.35h0l-.17-.2c-.24.11-.63.43-.42.72.15.19.43-.02.62-.01.32.06-.03.39-.22.37"/>
      <path d="M26.52,16.95l.2-.67c-.1,0-.99-.25-1.07-.31l-.19.63.19.16c-.02-.15,0-.31.06-.49l.34.1c-.04.1-.09.32-.14.38l.17.03.11-.37.32.1c-.04.12-.09.22-.16.29l.18.16h0Z"/>
      <path d="M26.07,17.83l.11-.21-.88-.59-.1.19s.61.38.61.38c0,0-.95.13-.99.2l.88.6.1-.15s-.53-.34-.53-.34c0,0,.78-.09.8-.08h0Z"/>
      <path d="M23.63,20l.61-.36c-.08-.06-.56-.84-.57-.94l-.58.34.03.24c.09-.12.22-.22.39-.32l.18.3c-.1.05-.3.18-.37.19l.11.13.34-.2.18.28c-.12.06-.22.1-.32.1l.02.23h0Z"/>
      <path d="M16.78,12.23c-.19-.15-.42.12-.6.16-.32.02-.07-.38.13-.41l-.15-.12c-.29.15-.51.78-.05.79.1,0,.35-.17.43-.19.22-.04.15.25.02.32.07,0,.13-.02.2,0,.12-.17.2-.42.03-.56h0Z"/>
      <path d="M17,11.9c-.51-.04-.62-.92,0-.79v-.22c-.8-.05-.79,1.23,0,1.2v-.2Z"/>
      <path d="M18.28,10.33h.35c-.13-.21-.24-.39-.24-.39.12-.07.38-.18.5-.17l-.28-.21-.86.51.1.33c.07-.14.18-.24.29-.31.03.05.07.13.13.24h0Z"/>
      <path d="M20.12,10.01c.43-.17.06-.83-.32-.68-.42.16-.06.83.32.68M20.77,10.18h0c-.17.15-.39.09-.57-.01-.53.3-1.1-.4-.68-.85.45-.53,1.34.07.91.67.14.11.25.18.34.2"/>
      <path d="M20.93,9.71c0-.19.03-.51-.06-.67h.38c-.06.17-.17.95.16.91.13,0,.25-.09.25-.22,0-.19.03-.53-.06-.7h.38c-.09.29-.09.81,0,1.1h-.32s.01-.06.01-.11c-.33.24-.77.12-.74-.33h0Z"/>
      <path d="M22.54,10.25c.07-.27.16-.74.31-.97l-.29-.1c0,.29-.16.75-.25,1.03.08.01.15.03.24.04h0Z"/>
      <path d="M21.86,12.58h0v.03c0-.06.1-.02.05.03l.02.02c.09.01.11-.13.02-.13l.11-.05v-.04l-.11-.05c.09-.01.08-.15-.02-.14l-.02.02s-.05.08-.05.03v.04-1.19h.1v-.09h1.03c.06.01.01.09-.03.05l-.02.02c-.01.09.14.1.14,0l.05.11h.04l.05-.11c0,.09.15.08.14,0l-.02-.02s-.09-.04-.03-.05h1.03v.09h.1s.04,1.46-.05,1.13l-.02-.02c-.09-.01-.1.13-.02.13l-.11.05v.04l.11.05c-.09,0-.08.15.02.14l.02-.02c.09-.34.04,1.18.05,1.13h-.1v.09h-1.03c-.06,0-.02-.09.03-.05l.02-.02c.01-.09-.14-.1-.14-.01l-.05-.11h-.04l-.05.11c0-.09-.15-.08-.14.01l.02.02s.09.04.03.05h-1.02v-.09h-.1v-1.19h0ZM24.35,13.94h.19v-3h-2.77v3h2.58Z"/>
      <path d="M23.27,10.83h1.39v3.23h-3.01v-3.22h1.62ZM24.95,14.06c0-.06-.07-.11-.13-.09v.02c-.11.49-.06-1.54-.07-1.47l.1.05v-.24l-.1.04v-1.5c.02-.08.13-.01.07.04v.02c.14.05.18-.18.03-.18l.09-.16-.03-.02-.17.09c0-.14-.24-.1-.19.03h.02c.05-.06.12.05.04.06h-1.38l.05-.09h-.25l.05.09h-1.38c-.08-.02-.02-.13.04-.06h.02c.05-.13-.19-.17-.19-.03l-.17-.09-.03.02.09.16c-.15,0-.11.23.03.18v-.02c.11-.49.06,1.53.07,1.46l-.1-.04v.24l.1-.04s.05,1.94-.07,1.47v-.02c-.14-.05-.18.18-.03.18l-.09.16.03.02.17-.09c0,.14.24.1.19-.03h-.02s-.08.02-.08-.03c0-.02.02-.04.04-.04h1.39l-.05.1h.25l-.05-.1h1.38s.04.02.04.04c0,.04-.06.06-.08.03h-.02c-.05.13.19.17.19.03l.17.09.03-.02-.09-.16c.05,0,.1-.04.1-.09h0Z"/>
      <path d="M11.87,6.93l.07-.06c.03-.28.16-.52.37-.68-.02-.02-.03-.04-.05-.06-.24.18-.38.46-.39.79h0Z"/>
      <path d="M12.51,6.54l.06-.02c-.05-.12-.14-.34-.27-.47-.03-.03-.08.02-.05.05.09.09.19.25.25.44h0Z"/>
      <path d="M11.94,6.33c.13,0,.13-.2,0-.2s-.13.2,0,.2"/>
      <path d="M13.82,5.89c-.09.1-.24-.05-.14-.14.09-.09.24.05.14.14"/>
      <path d="M14.02,6.07c-.09.1-.24-.05-.14-.14.09-.09.24.05.14.14"/>
      <path d="M13.1,5.74c-.09.1-.24-.05-.14-.14.09-.09.24.05.14.14"/>
      <path d="M13.59,5.79c-.09.1-.24-.05-.14-.14.09-.09.24.05.14.14"/>
      <path d="M13.83,6.11h-.09c-.22-.17-.48-.24-.74-.2,0-.03,0-.05-.01-.07.29-.05.6.05.84.27"/>
      <path d="M13.08,6.3l-.06.03c-.05-.11-.15-.33-.15-.52,0-.05.07-.05.07,0,0,.13.05.31.14.49h0Z"/>
      <path d="M13.35,5.73c-.09.1-.24-.05-.14-.14.09-.09.24.05.14.14"/>
      <path d="M24.01,16.39c.29,0,.95-.32.47-.58-.27-.05-.54.09-.8.15-1.05.42-.43-.09-1.08-.04.22.56.78.27,1.19.14.02.06-.06.08-.05.14.14-.03.27-.06.41-.08.06-.27.55-.28.33,0-.57.25-1.25.21-1.85.38-.4,1.05-1.1.34-1.09.63-.16.02-.16.17,0,.15,0,.31.78-.05.92-.14.04-.07.07-.14.1-.21.24.12.4-.23.61-.28.21-.04.47-.24.64-.06.2.22.48-.11.65.1-.06.17.02.09.05.2,0,.09.15.09.16,0,0-.04,0-.07.05-.08.09-.13-.1-.28-.16-.39-.14-.14-.38.12-.52-.02h0s-.02-.02-.02-.02Z"/>
      <path d="M21.41,15.92s.03.07.05.1c.25.02.49-.05.75-.08.19,0,.18-.17.32-.19.33.02.53-.27.85-.32.25-.07.58-.16.81.02.05.06.13.07.21.06.11-.02.23-.04.29.08-.02.02-.04.04-.06.06.01.03.03.05.04.08.05,0,.06.04.08.07.03.05.09.05.11,0,.02-.06.07-.03.09-.08.01-.15-.03-.34-.18-.42-.08-.07-.37.07-.38-.07.22.05.64-.24.35-.42-.49-.12-1.03.12-1.53.18-.2.05-.1-.28-.53-.19.28.58.88.17,1.35.17,0,.05-.09.05-.07.12.14-.05.37.03.44-.11.05-.17.39-.13.29.07-.26.17-.65.09-.96.13-.38.04-.79.04-1.14.17-.07.22-.17.44-.42.49-.18-.17-.43.03-.62-.14-.06.02-.07.05-.1.1-.09.04-.13.09-.03.15h0s0,0,0,0Z"/>
      <path d="M24.18,17.45c-.49-.06-.42.27-.66.2.05-.05.17-.08.13-.17-.36.16-.74.27-1.1.43-.18.2-.12.58-.53.61-.02.2-.3.34-.47.25-.07.07-.04.08-.03.15-.06.05-.14.18-.02.18.04-.01.07-.07.11-.05,0,.03,0,.05-.01.08.04,0,.08.01.09,0,.06-.07.14-.02.2-.07.21-.14.51-.27.5-.57.37-.17.59-.77,1.08-.55.24.13.31-.26.52-.27.06.14.09.13.17.08.14.1.11-.06.17-.14,0-.08-.07-.16-.15-.16h0s.01,0,.01,0Z"/>
      <path d="M21.96,15.09c-.08.23,0,.52.21.64.24-.11.39-.42.31-.68.06-.05.13-.07.11-.15-.04-.09-.18-.03-.22-.13-.09-.12-.21-.03-.28.06-.06,0-.11-.02-.16,0-.05.1.09.15.04.25h0Z"/>
      <path d="M21.9,18.21c.23.55.58-.15.49-.45.16-.13.12-.21-.08-.22-.07-.15-.22-.16-.32-.04-.04.05-.09.03-.14.04-.1.05-.05.16.05.18-.05.17-.07.33,0,.5h0Z"/>
      <path d="M22.53,16.16s-.1-.03-.15-.03c-.08-.22-.23-.14-.35,0-.18-.07-.15.09-.06.18-.09.22-.03.54.21.63.24-.1.31-.4.3-.64.08-.02.14-.1.06-.15h0Z"/>
      <path d="M24.3,16.88c-.44-.15-1.13.81-1.42.53-.07-.16-.29-.14-.42-.1.17.12.25.38.5.3.28-.06.5-.28.75-.39,0,.08-.08.12-.11.2.17-.05.32-.1.44-.21-.02-.46.64-.14,0,.15.11,0,.19.05.27-.04.15-.13.16-.32-.01-.43h0Z"/>
      <path d="M23.3,17.96c-.13.04-.26.05-.34.18.04.05.06.09.1.13-.06.16-.22.13-.37.14.02.05.02.08.03.11-.06.04-.09.09-.08.17.02,0,.04.02.06.02.05-.05.12-.11.14,0,.27-.09.51-.25.64-.5-.08-.06-.14-.13-.18-.23h0Z"/>
      <path d="M22.94,17c-.06,0-.07.07-.03.11.04.05.08,0,.12.01v.06c.24.02.59-.2.72-.39-.05-.08-.1-.15-.15-.23-.13.05-.27.04-.35.16.05.05.09.09.13.14-.09.05-.19.13-.28.05-.04-.04-.15-.02-.12.05v.04s-.03,0-.05,0h0s0,0,0,0Z"/>
      <path d="M21.94,18.44c-.09-.17-.23-.33-.29-.5.08-.11.05-.25-.1-.16-.04-.07-.09-.09-.16-.07-.02.05-.03.09.02.13v.03s-.04.01-.05.02c-.04.09.06.15.09.22.1.16.25.55.49.35h0Z"/>
      <path d="M21.94,15.63c-.02-.24-.29-.39-.21-.62.03-.05.02-.1-.03-.13-.05.02-.1,0-.14-.02-.1-.05-.12.06-.11.14-.02.01-.04.02-.07.03.07.2.28.71.55.61h0Z"/>
      <path d="M21.41,16.43c.1.15.13.4.3.48.08,0,.2.07.24-.02-.05-.18-.27-.29-.24-.49.01-.05,0-.1-.05-.14-.09.03-.27-.17-.2.06-.05.02-.09.06-.05.11h0Z"/>
      <path d="M17.51,11.71s.08-.05.12,0c0,.02,0,.04-.01.06.24.1.5-.02.74-.08.1-.03.15-.13.25-.12.25.02.39-.19.6-.25.26-.05.52-.09.79-.09.31.42.36.06.63.21,0,.04-.02.08-.03.12.03.01.05.02.07.03-.03.1.13.17.15.04,0-.02,0-.04.02-.04.16-.09-.09-.52-.26-.41-.09.05-.21.08-.27-.03.15-.06.34-.05.44-.19.08-.1.07-.28-.08-.33-.38-.11-.79.09-1.18.12-.73.2-.21-.16-.79-.15.21.59.83.21,1.26.17-.03.07-.1.1-.13.16.15-.03.35.03.46-.09.06-.16.44-.18.35.04-.36.35-1.5.03-2.01.25-.08.23-.21.39-.43.45-.18-.11-.26.02-.44-.04-.05-.06-.1-.12-.18-.06v.08c-.09-.03-.18.09-.09.15h0s0,0,0,0Z"/>
      <path d="M18.14,10.81c-.14.25-.1.47.07.68.3.01.42-.4.37-.64.03-.03.06-.05.09-.06-.01-.04-.02-.06-.03-.09-.05,0-.1,0-.15,0-.11-.14-.17-.14-.3-.02-.06-.03-.11,0-.15.05.03.05.05.08.1.1h0Z"/>
      <path d="M19.59,11.34c-.02.07.05.1.06.15-.08.05-.17.06-.25.07-.05-.05-.06-.13-.14-.1-.05.01-.02.06-.05.08-.06,0-.09.03-.1.08.03.02.05.04.08.05-.07.31.78-.02.9-.11-.04-.07-.09-.12-.11-.2-.04-.14-.28-.03-.39-.02"/>
      <path d="M18.02,11.37c-.01-.11-.04-.24-.12-.31-.1-.1-.13-.24-.03-.34-.05-.05-.11-.01-.16-.08-.06-.07-.1.01-.11.09-.17.03-.07.08-.04.17.06.16.26.54.46.46h0Z"/>
      <path d="M20.56,12.52c-.09.05-.21.08-.28-.03.15-.06.34-.05.45-.19.08-.1.07-.28-.08-.34-.39-.11-.8.09-1.18.12-.73.2-.21-.16-.79-.16.21.6.84.22,1.26.17-.03.07-.1.1-.13.16.15-.03.36.03.47-.09.06-.17.45-.18.36.04-.37.36-1.52.03-2.02.25-.08.24-.21.39-.43.45-.16-.1-.24-.02-.37-.03,0,.05.02.09.03.13s.02.09.02.13c.16-.02.31-.08.45-.12.1-.03.15-.13.25-.12.25.02.39-.19.6-.25.26-.05.53-.09.8-.09.31.42.36.06.64.21,0,.04-.02.08-.03.13.03.01.05.02.07.03-.03.11.13.17.15.04,0-.02,0-.04.02-.04.17-.09-.09-.52-.26-.41h0Z"/>
      <path d="M18.1,12.16c-.14.25-.1.47.07.68.3.01.42-.4.37-.65.03-.03.06-.05.09-.06-.01-.04-.02-.06-.03-.09-.06,0-.11,0-.15,0-.11-.14-.18-.14-.3-.02-.06-.03-.11,0-.15.05.03.05.05.08.1.1h0Z"/>
      <path d="M19.56,12.69c-.02.07.05.1.06.15-.08.05-.17.06-.25.07-.05-.05-.06-.13-.14-.1-.05.01-.02.06-.05.08-.06,0-.09.03-.1.08.03.02.06.04.08.05-.07.31.78-.02.91-.11-.04-.07-.1-.12-.11-.2-.04-.14-.29-.03-.39-.02h0Z"/>
      <path d="M17.98,12.73c-.01-.11-.04-.24-.12-.31-.1-.1-.13-.24-.03-.34-.05-.05-.12-.01-.16-.08-.06-.07-.1.01-.11.09-.17.03-.07.08-.04.18.06.16.26.54.46.47h0Z"/>
      <path d="M20.59,13.79c-.09.05-.21.08-.27-.03.15-.06.34-.05.44-.19.08-.1.07-.28-.08-.34-.39-.11-.8.09-1.18.12-.73.2-.21-.16-.79-.16.21.59.83.21,1.26.17-.03.07-.1.1-.13.16.15-.03.36.03.47-.09.06-.17.44-.18.36.04-.37.36-1.51.03-2.02.25-.08.23-.21.39-.43.45-.18-.11-.26.02-.44-.04-.02-.02-.04-.04-.06-.06,0,0-.01,0-.02-.01,0,0-.02,0-.02-.01h0c0,.12-.03.22-.06.32.24.09.5-.02.73-.09.1-.03.15-.13.25-.12.25.02.39-.19.6-.25.26-.05.53-.09.8-.09.31.42.36.06.64.21,0,.04-.02.08-.03.13.03.01.05.02.07.03-.03.11.13.17.15.04,0-.02,0-.04.02-.04.17-.09-.09-.52-.26-.41h0,.01Z"/>
      <path d="M18.13,13.42c-.14.25-.1.47.07.68.3.01.42-.4.37-.64.03-.03.06-.05.09-.06-.01-.04-.02-.06-.03-.09-.06,0-.11,0-.15,0-.11-.14-.18-.14-.3-.02-.06-.03-.11,0-.15.05.03.05.05.08.1.1h0Z"/>
      <path d="M19.6,13.96c-.02.07.05.1.06.15-.08.05-.17.06-.25.07-.05-.05-.06-.13-.14-.1-.05.01-.02.06-.05.08-.06,0-.09.03-.1.08.03.02.06.04.08.05-.07.31.78-.02.91-.11-.04-.07-.09-.12-.11-.2-.04-.14-.29-.03-.39-.02h0Z"/>
      <path d="M17.89,13.68s-.04-.04-.05-.06c0,.06.03.12.02.18,0,.05-.02.11-.04.15.07.07.11.08.19.05-.01-.11-.04-.24-.12-.31"/>
      <path d="M22.29,11.5c.07.05.12.24.16.26.08.1.23.36.39.31.05-.03.09-.16.09-.18,0,0-.03-.03-.06-.05-.15-.13-.23-.25-.24-.37,0-.04.08-.09.08-.12,0-.13-.11.02-.16,0-.03-.04-.11-.15-.16-.09-.03.02,0,.09-.02.11-.01.02-.02.02-.05.02-.12,0-.13.07-.04.12h0Z"/>
      <path d="M22.9,12.39s.16-.15.17-.18c.01-.03.02-.03.1-.04.23-.04.34-.13.4-.37.03-.07-.01-.23-.06-.26-.02-.02-.03-.04-.02-.05.05,0,.13-.04.15-.09-.03-.05-.08-.01-.16-.04-.06-.03-.22-.08-.28-.04-.05.05-.31.06-.26.14.01.03.03.1.03.1l.12.02v.09s-.09.02-.11.03c-.07.11.17.11.24.04.05-.05.11-.06.11,0-.04.07-.15.11-.22.14-.1.02-.13.22-.21.28-.22.04-.3.04-.52-.14-.08-.09-.14-.03-.08.05-.04.02-.24-.1-.15.09l.02.02c-.1.15.05.1.13.14.18.07.37.13.6.09h0s-.01-.01-.01-.01Z"/>
      <path d="M23.62,12.24l.09.2s.2.09.23.12c.11.08.1.31,0,.29-.17-.07-.27-.3-.38-.45-.03-.03-.11-.26-.16-.2-.69.16.13.33,0,.59-.03.04-.1.22-.07.24.06.07.19.12.26.22.11.11.01.24-.13.14-.08-.06-.17.03-.09.11,0,.02-.05.04-.06.05-.08.11.05.11.13.05.04-.02,0,.1.07.08.13-.03.32-.09.36-.29.08-.18-.1-.15-.15-.31-.05-.07-.05-.3.05-.22.09.12.22.18.32.08.1-.1.01-.33-.05-.44-.1-.21-.22-.41-.21-.65.14-.17.3.13.4-.33-.33.03-.64.24-.48.61.1.21.08.19-.12.15v-.02Z"/>
      <path d="M23.09,12.64c-.17-.01-.3-.03-.26.18.01.05.03.2.06.24.02.02.01.04,0,.05-.07.04-.33-.07-.3-.16,0-.08-.08-.09-.1-.04-.02.03-.03.03-.06,0-.05-.07-.12.03-.09.08.01.02,0,.05-.03.05-.07.03-.07.13.04.13.22.1.41.21.67.17.28-.02.14-.07.12-.27-.05-.21.31-.35-.05-.42"/>
      <path d="M23.35,15.61s-.06,0-.07.02c0,.1-.1.07-.13.13.02.04.05.07.09.07.05,0,.05.06.1.07.23-.11.5-.08.7-.26-.07-.06-.09-.15-.11-.24-.13.01-.26-.01-.38.05-.02.06.03.09.06.15-.1.04-.18.06-.27.02h0Z"/>
      <path d="M21.3,19.99c.28-.25.47-.33.83-.42-.1.22-.19.43-.29.65-.18-.08-.35-.16-.53-.24M21.23,14.64h3.92c.32,3-1.44,4-3.92,5.04v-5.04ZM27.02,13.04c-.09-.2-.3-1.28-.6-1.04,1.39,2.58.46,5.99-1.94,7.63-.71.42-1.58,1.13-2.41.67.54-2.1,3.12-1.21,3.68-5.21-.07-.04-.1-.06-.16-.07-.08.56-.22,1.1-.43,1.61.23-.6.08-2.46.13-2.56-.03-.03-.05-.05-.13-.14.02.23,0,.31,0,.6h-3.92v-4.09h3.85v2.31s.02.12.03.16c.06-.08.06-.08.1-.11v-2.48h-8.07v2.09h.11v-1.97h3.87v4.09h-3.73s0-.06-.01-.05c0-.01-.03.06-.03.05h-.11v-.31h-.12c-.09.3.17,2.87.59,3.32-.84-.82-1.11-2.27-.95-3.36,0,0-.08-.06-.17-.14-.26,1.54.32,3.05,1.4,4.16.1.1.2,0,.31-.04-.03-.03-.07-.06-.11-.11l.11.11-.06-.17c-.85-.64-.99-2.49-1-3.34h3.87s0,5.13,0,5.14c-.83-.04-1.38-.93-2.18-.94,1.14.68,3.23,2.31,4.55,1.59.01.02,0,.01.02.03-.14.18-.62.5-.85.42-.36-.22-.91.18-.66.58.04.05.05.09.02.15-1.43-.14-2.71-.99-3.91-1.72-.02.02-.01.01-.02.03.46.62,2.11,1.4,2.11,1.4v.92s.11.07.18.12v-1c.43.15,1.3.42,1.3.42v.62l.17-.11v-.47s.23-.07.23-.07c.15-.04.24-.18.23-.33-.07-.04-.12-.11-.1-.21.04-.18.25-.19.34-.08.18.08.35-.14.53-.19.25-.15.55-.28.67-.57.03-.07.06-.12.12-.15.5-.28.99-.6,1.4-1.01,1.75-1.48,2.36-4.02,1.77-6.19h.01Z"/>
      <path d="M12.56,21.64c-.09-.06-.2-.07-.33-.05.03.2.1.57.16.76.37-.05.48-.51.18-.71"/>
      <path d="M17.19,20.68l.17.85-.2.04-.17-.84c-.12.03-.19.02-.35.09v-.19l.83-.11.06.16c-.08-.03-.34,0-.34,0M16.58,21.67l-.58.13c.01-.09-.19-.9-.24-.97l.61-.14-.05.21c-.09-.03-.19-.03-.3,0l.07.29.34-.08.06.14c-.07-.01-.27.05-.36.06l.07.31c.17-.04.3-.1.41-.17l-.05.22h.01s0,.01,0,.01ZM14.89,21.97c-.42.01-.48-.59-.58-.89l.21-.04c.1.26.07.87.51.79.31-.14.06-.64.03-.89l.2-.03c.08.4.26,1.1-.36,1.06M14.3,22.06l-.58.13c.02-.09-.18-.9-.23-.98l.61-.14-.05.21c-.09-.03-.19-.03-.3,0l.07.3.34-.08.06.15c-.07-.01-.27.04-.36.06l.07.31c.17-.04.3-.09.41-.17l-.05.22h0s0-.01,0-.01ZM13.21,22.3c.02-.29-.08-.74-.21-1l.28-.06c-.02.29.08.74.21,1l-.28.06ZM12.92,22.12c-.12.29-.48.35-.76.4.02-.09-.16-.92-.21-.99.49-.21,1.18,0,.97.59M17.59,20.28h0c-2.22,0-4.43.95-6.65.95-.27,0-.53-.02-.8-.05.69.54.64,1.63,1.64,1.63.05,0,.09,0,.14,0,1.36-.15,2.71-.53,4.05-.74.23-.04,1.34-.31,1.99-.31.24,0,.41.04.46.13.07.13-.37.5-.37.51,0,0,0,0,0,0,.05,0,.29-.14.47-.26.72-.52-.79-1.87-.92-1.87h0Z"/>
      <path d="M27.88,21.22c-.05.19-.12.53-.15.72.43.09.57-.63.15-.72"/>
      <path d="M29.58,21.51c-.33-.08-.44.61-.17.72.34.08.44-.61.17-.72"/>
      <path d="M28.71,21.38l-.1.37c.28.05.41-.32.1-.37"/>
      <path d="M26.04,20.85c-.35-.1-.48.62-.19.74.35.1.48-.62.19-.74"/>
      <path d="M30.66,21.77s-.13.73-.12.79l-.22-.04s.14-.64.17-.78c-.08-.02-.17-.01-.26.03l.09-.19.6.11.05.2c-.05-.05-.21-.11-.3-.12h0s0,0,0,0ZM30.14,21.81c-.03.17-.1.51-.07.68l-.22-.04c.1-.25.17-.67.15-.93l.22.04c-.04.07-.06.16-.08.26h0ZM29.56,22.37c-.56.11-.56-.85-.11-.98.57-.12.57.85.11.98M29.07,21.61c-.03.11-.11.18-.24.22.06.19.09.25.19.45l-.15-.02s-.22-.28-.27-.42c-.04.12-.07.27-.05.37l-.25-.04c.05-.07.24-.85.24-.93.22.03.61.07.54.37h-.01ZM27.97,22.05c-.13.05-.32,0-.46-.04l.19-.95c.61-.04.87.76.27.98h0ZM27.1,21.97c-.07-.02-.44-.77-.44-.77,0,0-.09.59-.11.62l-.17-.03.19-.92.19.03.3.64s.1-.5.11-.55l.14.04-.21.93h0ZM26.33,21.37c-.2.68-.99.31-.75-.3.2-.66.99-.31.75.3M25.51,20.64s-.15.86-.15.94l-.23-.05c.04-.07.09-.65.09-.65l-.38.59-.23-.67s-.09.48-.1.63l-.22-.03c.07-.11.21-.97.21-.97l.23.05s.18.62.18.62c0,0,.3-.5.32-.53l.27.05h0ZM31.01,21.23c-.28,0-.54,0-.67-.02-1.46-.14-2.91-.56-4.37-.79-.42-.07-.77-.13-1.06-.13-.62,0-1.04.27-1.54,1.34-.21.41.5.79.65.81-.58-.5-.38-.64.08-.64.63,0,1.77.28,2,.31,1.34.21,2.69.6,4.05.74.05,0,.09,0,.14,0,1,0,.95-1.09,1.64-1.63-.12.01-.53.02-.91.02h0Z"/>
    </g>
  </g>
</svg>